<?xml version="1.0" encoding="us-ascii" standalone="no"?><svg xmlns="http://www.w3.org/2000/svg" xmlns:xlink="http://www.w3.org/1999/xlink" contentStyleType="text/css" height="210px" preserveAspectRatio="none" style="width:318px;height:210px;background:#FFFFFF;" version="1.1" viewBox="0 0 318 210" width="318px" zoomAndPan="magnify"><defs/><g><!--class App--><g id="elem_App"><rect codeLine="1" fill="#F1F1F1" height="88.8594" id="App" rx="2.5" ry="2.5" style="stroke:#181818;stroke-width:0.5;" width="302" x="9" y="115"/><ellipse cx="131.75" cy="135.1328" fill="#ADD1B2" rx="11" ry="11" style="stroke:#181818;stroke-width:1.0;"/><path d="M134.0938,130.8047 C133.1563,130.3672 132.5625,130.2266 131.6875,130.2266 C129.0625,130.2266 127.0625,132.3047 127.0625,135.0234 L127.0625,136.1484 C127.0625,138.7266 129.1719,140.6172 132.0625,140.6172 C133.2813,140.6172 134.4375,140.3203 135.1875,139.7734 C135.7656,139.3672 136.0938,138.9141 136.0938,138.5234 C136.0938,138.0703 135.7031,137.6797 135.2344,137.6797 C135.0156,137.6797 134.8125,137.7578 134.625,137.9453 C134.1719,138.4297 134.1719,138.4297 133.9844,138.5234 C133.5625,138.7891 132.875,138.9141 132.1094,138.9141 C130.0625,138.9141 128.7656,137.8203 128.7656,136.1172 L128.7656,135.0234 C128.7656,133.2422 130.0156,131.9297 131.75,131.9297 C132.3281,131.9297 132.9375,132.0859 133.4063,132.3359 C133.8906,132.6172 134.0625,132.8359 134.1563,133.2422 C134.2188,133.6484 134.25,133.7734 134.3906,133.8984 C134.5313,134.0391 134.7656,134.1484 134.9844,134.1484 C135.25,134.1484 135.5156,134.0078 135.6875,133.7891 C135.7969,133.6328 135.8281,133.4453 135.8281,133.0234 L135.8281,131.6016 C135.8281,131.1641 135.8125,131.0391 135.7188,130.8828 C135.5625,130.6172 135.2813,130.4766 134.9844,130.4766 C134.6875,130.4766 134.4844,130.5703 134.2656,130.8828 L134.0938,130.8047 Z " fill="#000000"/><text fill="#000000" font-family="sans-serif" font-size="12" font-style="italic" lengthAdjust="spacing" textLength="52" x="150.25" y="131.1387">&#171;partial&#187;</text><text fill="#000000" font-family="sans-serif" font-size="14" lengthAdjust="spacing" textLength="30" x="161.25" y="146.9639">App</text><line style="stroke:#181818;stroke-width:0.5;" x1="10" x2="310" y1="155.2656" y2="155.2656"/><line style="stroke:#181818;stroke-width:0.5;" x1="10" x2="310" y1="163.2656" y2="163.2656"/><ellipse cx="20" cy="176.9141" fill="#84BE84" rx="3" ry="3" style="stroke:#038048;stroke-width:1.0;"/><text fill="#000000" font-family="sans-serif" font-size="14" lengthAdjust="spacing" textLength="40" x="29" y="180.2607">App()</text><polygon fill="#FFFF44" points="20,188.2109,24,192.2109,20,196.2109,16,192.2109" style="stroke:#B38D22;stroke-width:1.0;"/><text fill="#000000" font-family="sans-serif" font-size="14" lengthAdjust="spacing" textLength="276" x="29" y="196.5576">&#171;override&#187; CreateMauiApp() : MauiApp</text></g><!--class MauiWinUIApplication--><g id="elem_MauiWinUIApplication"><rect fill="#F1F1F1" height="48" id="MauiWinUIApplication" rx="2.5" ry="2.5" style="stroke:#181818;stroke-width:0.5;" width="187" x="66.5" y="7"/><ellipse cx="81.5" cy="23" fill="#ADD1B2" rx="11" ry="11" style="stroke:#181818;stroke-width:1.0;"/><path d="M83.8438,18.6719 C82.9063,18.2344 82.3125,18.0938 81.4375,18.0938 C78.8125,18.0938 76.8125,20.1719 76.8125,22.8906 L76.8125,24.0156 C76.8125,26.5938 78.9219,28.4844 81.8125,28.4844 C83.0313,28.4844 84.1875,28.1875 84.9375,27.6406 C85.5156,27.2344 85.8438,26.7813 85.8438,26.3906 C85.8438,25.9375 85.4531,25.5469 84.9844,25.5469 C84.7656,25.5469 84.5625,25.625 84.375,25.8125 C83.9219,26.2969 83.9219,26.2969 83.7344,26.3906 C83.3125,26.6563 82.625,26.7813 81.8594,26.7813 C79.8125,26.7813 78.5156,25.6875 78.5156,23.9844 L78.5156,22.8906 C78.5156,21.1094 79.7656,19.7969 81.5,19.7969 C82.0781,19.7969 82.6875,19.9531 83.1563,20.2031 C83.6406,20.4844 83.8125,20.7031 83.9063,21.1094 C83.9688,21.5156 84,21.6406 84.1406,21.7656 C84.2813,21.9063 84.5156,22.0156 84.7344,22.0156 C85,22.0156 85.2656,21.875 85.4375,21.6563 C85.5469,21.5 85.5781,21.3125 85.5781,20.8906 L85.5781,19.4688 C85.5781,19.0313 85.5625,18.9063 85.4688,18.75 C85.3125,18.4844 85.0313,18.3438 84.7344,18.3438 C84.4375,18.3438 84.2344,18.4375 84.0156,18.75 L83.8438,18.6719 Z " fill="#000000"/><text fill="#000000" font-family="sans-serif" font-size="14" lengthAdjust="spacing" textLength="155" x="95.5" y="27.8467">MauiWinUIApplication</text><line style="stroke:#181818;stroke-width:0.5;" x1="67.5" x2="252.5" y1="39" y2="39"/><line style="stroke:#181818;stroke-width:0.5;" x1="67.5" x2="252.5" y1="47" y2="47"/></g><!--reverse link MauiWinUIApplication to App--><g id="link_MauiWinUIApplication_App"><path codeLine="5" d="M160,73.202 C160,89.893 160,94.904 160,114.9714 " fill="none" id="MauiWinUIApplication-backto-App" style="stroke:#181818;stroke-width:1.0;"/><polygon fill="none" points="160,55.202,154,73.202,166,73.202,160,55.202" style="stroke:#181818;stroke-width:1.0;"/></g><!--SRC=[Iyv9B2vMS2meKB2nAKWiAibCpB6pKwZcKW02RP2uXYQOhGoKpozBBIhAJ4a5Ad0kIaqiIVLDBCq4Ar6mKe2okMgvGApmpBnGJo0t9pCviIGpFq_1faPN5sGS0000]--></g></svg>