<?xml version="1.0" encoding="us-ascii" standalone="no"?><svg xmlns="http://www.w3.org/2000/svg" xmlns:xlink="http://www.w3.org/1999/xlink" contentStyleType="text/css" height="186px" preserveAspectRatio="none" style="width:318px;height:186px;background:#FFFFFF;" version="1.1" viewBox="0 0 318 186" width="318px" zoomAndPan="magnify"><defs/><g><!--class AppDelegate--><g id="elem_AppDelegate"><rect codeLine="1" fill="#F1F1F1" height="64.2969" id="AppDelegate" rx="2.5" ry="2.5" style="stroke:#181818;stroke-width:0.5;" width="302" x="9" y="115"/><ellipse cx="107.75" cy="131" fill="#ADD1B2" rx="11" ry="11" style="stroke:#181818;stroke-width:1.0;"/><path d="M110.0938,126.6719 C109.1563,126.2344 108.5625,126.0938 107.6875,126.0938 C105.0625,126.0938 103.0625,128.1719 103.0625,130.8906 L103.0625,132.0156 C103.0625,134.5938 105.1719,136.4844 108.0625,136.4844 C109.2813,136.4844 110.4375,136.1875 111.1875,135.6406 C111.7656,135.2344 112.0938,134.7813 112.0938,134.3906 C112.0938,133.9375 111.7031,133.5469 111.2344,133.5469 C111.0156,133.5469 110.8125,133.625 110.625,133.8125 C110.1719,134.2969 110.1719,134.2969 109.9844,134.3906 C109.5625,134.6563 108.875,134.7813 108.1094,134.7813 C106.0625,134.7813 104.7656,133.6875 104.7656,131.9844 L104.7656,130.8906 C104.7656,129.1094 106.0156,127.7969 107.75,127.7969 C108.3281,127.7969 108.9375,127.9531 109.4063,128.2031 C109.8906,128.4844 110.0625,128.7031 110.1563,129.1094 C110.2188,129.5156 110.25,129.6406 110.3906,129.7656 C110.5313,129.9063 110.7656,130.0156 110.9844,130.0156 C111.25,130.0156 111.5156,129.875 111.6875,129.6563 C111.7969,129.5 111.8281,129.3125 111.8281,128.8906 L111.8281,127.4688 C111.8281,127.0313 111.8125,126.9063 111.7188,126.75 C111.5625,126.4844 111.2813,126.3438 110.9844,126.3438 C110.6875,126.3438 110.4844,126.4375 110.2656,126.75 L110.0938,126.6719 Z " fill="#000000"/><text fill="#000000" font-family="sans-serif" font-size="14" lengthAdjust="spacing" textLength="96" x="128.25" y="135.8467">AppDelegate</text><line style="stroke:#181818;stroke-width:0.5;" x1="10" x2="310" y1="147" y2="147"/><line style="stroke:#181818;stroke-width:0.5;" x1="10" x2="310" y1="155" y2="155"/><polygon fill="#FFFF44" points="20,163.6484,24,167.6484,20,171.6484,16,167.6484" style="stroke:#B38D22;stroke-width:1.0;"/><text fill="#000000" font-family="sans-serif" font-size="14" lengthAdjust="spacing" textLength="276" x="29" y="171.9951">&#171;override&#187; CreateMauiApp() : MauiApp</text></g><!--class MauiUIApplicationDelegate--><g id="elem_MauiUIApplicationDelegate"><rect fill="#F1F1F1" height="48" id="MauiUIApplicationDelegate" rx="2.5" ry="2.5" style="stroke:#181818;stroke-width:0.5;" width="226" x="47" y="7"/><ellipse cx="62" cy="23" fill="#ADD1B2" rx="11" ry="11" style="stroke:#181818;stroke-width:1.0;"/><path d="M64.3438,18.6719 C63.4063,18.2344 62.8125,18.0938 61.9375,18.0938 C59.3125,18.0938 57.3125,20.1719 57.3125,22.8906 L57.3125,24.0156 C57.3125,26.5938 59.4219,28.4844 62.3125,28.4844 C63.5313,28.4844 64.6875,28.1875 65.4375,27.6406 C66.0156,27.2344 66.3438,26.7813 66.3438,26.3906 C66.3438,25.9375 65.9531,25.5469 65.4844,25.5469 C65.2656,25.5469 65.0625,25.625 64.875,25.8125 C64.4219,26.2969 64.4219,26.2969 64.2344,26.3906 C63.8125,26.6563 63.125,26.7813 62.3594,26.7813 C60.3125,26.7813 59.0156,25.6875 59.0156,23.9844 L59.0156,22.8906 C59.0156,21.1094 60.2656,19.7969 62,19.7969 C62.5781,19.7969 63.1875,19.9531 63.6563,20.2031 C64.1406,20.4844 64.3125,20.7031 64.4063,21.1094 C64.4688,21.5156 64.5,21.6406 64.6406,21.7656 C64.7813,21.9063 65.0156,22.0156 65.2344,22.0156 C65.5,22.0156 65.7656,21.875 65.9375,21.6563 C66.0469,21.5 66.0781,21.3125 66.0781,20.8906 L66.0781,19.4688 C66.0781,19.0313 66.0625,18.9063 65.9688,18.75 C65.8125,18.4844 65.5313,18.3438 65.2344,18.3438 C64.9375,18.3438 64.7344,18.4375 64.5156,18.75 L64.3438,18.6719 Z " fill="#000000"/><text fill="#000000" font-family="sans-serif" font-size="14" lengthAdjust="spacing" textLength="194" x="76" y="27.8467">MauiUIApplicationDelegate</text><line style="stroke:#181818;stroke-width:0.5;" x1="48" x2="272" y1="39" y2="39"/><line style="stroke:#181818;stroke-width:0.5;" x1="48" x2="272" y1="47" y2="47"/></g><!--reverse link MauiUIApplicationDelegate to AppDelegate--><g id="link_MauiUIApplicationDelegate_AppDelegate"><path codeLine="4" d="M160,73.07 C160,90.246 160,95.8845 160,114.7548 " fill="none" id="MauiUIApplicationDelegate-backto-AppDelegate" style="stroke:#181818;stroke-width:1.0;"/><polygon fill="none" points="160,55.07,154,73.07,166,73.07,160,55.07" style="stroke:#181818;stroke-width:1.0;"/></g><!--SRC=[Iyv9B2vMS2meS4dDIKrFB4bLgEPI009b1HkR_BBKegBCb5GxEmNdebIWd6zYQIPGgOQcWfK2bCrLomLYXNe2sJcPoOabcVbvSADiQdHraSq60000]--></g></svg>