<?xml version="1.0" encoding="us-ascii" standalone="no"?><svg xmlns="http://www.w3.org/2000/svg" xmlns:xlink="http://www.w3.org/1999/xlink" contentStyleType="text/css" height="194px" preserveAspectRatio="none" style="width:115px;height:194px;background:#FFFFFF;" version="1.1" viewBox="0 0 115 194" width="115px" zoomAndPan="magnify"><defs/><g><!--class AppShell--><g id="elem_AppShell"><rect codeLine="1" fill="#F1F1F1" height="72.5625" id="AppShell" rx="2.5" ry="2.5" style="stroke:#181818;stroke-width:0.5;" width="101" x="7" y="115"/><ellipse cx="23.8" cy="135.1328" fill="#ADD1B2" rx="11" ry="11" style="stroke:#181818;stroke-width:1.0;"/><path d="M26.1438,130.8047 C25.2063,130.3672 24.6125,130.2266 23.7375,130.2266 C21.1125,130.2266 19.1125,132.3047 19.1125,135.0234 L19.1125,136.1484 C19.1125,138.7266 21.2219,140.6172 24.1125,140.6172 C25.3313,140.6172 26.4875,140.3203 27.2375,139.7734 C27.8156,139.3672 28.1438,138.9141 28.1438,138.5234 C28.1438,138.0703 27.7531,137.6797 27.2844,137.6797 C27.0656,137.6797 26.8625,137.7578 26.675,137.9453 C26.2219,138.4297 26.2219,138.4297 26.0344,138.5234 C25.6125,138.7891 24.925,138.9141 24.1594,138.9141 C22.1125,138.9141 20.8156,137.8203 20.8156,136.1172 L20.8156,135.0234 C20.8156,133.2422 22.0656,131.9297 23.8,131.9297 C24.3781,131.9297 24.9875,132.0859 25.4563,132.3359 C25.9406,132.6172 26.1125,132.8359 26.2063,133.2422 C26.2688,133.6484 26.3,133.7734 26.4406,133.8984 C26.5813,134.0391 26.8156,134.1484 27.0344,134.1484 C27.3,134.1484 27.5656,134.0078 27.7375,133.7891 C27.8469,133.6328 27.8781,133.4453 27.8781,133.0234 L27.8781,131.6016 C27.8781,131.1641 27.8625,131.0391 27.7688,130.8828 C27.6125,130.6172 27.3313,130.4766 27.0344,130.4766 C26.7375,130.4766 26.5344,130.5703 26.3156,130.8828 L26.1438,130.8047 Z " fill="#000000"/><text fill="#000000" font-family="sans-serif" font-size="12" font-style="italic" lengthAdjust="spacing" textLength="52" x="44.7" y="131.1387">&#171;partial&#187;</text><text fill="#000000" font-family="sans-serif" font-size="14" lengthAdjust="spacing" textLength="65" x="38.2" y="146.9639">AppShell</text><line style="stroke:#181818;stroke-width:0.5;" x1="8" x2="107" y1="155.2656" y2="155.2656"/><line style="stroke:#181818;stroke-width:0.5;" x1="8" x2="107" y1="163.2656" y2="163.2656"/><ellipse cx="18" cy="176.9141" fill="#84BE84" rx="3" ry="3" style="stroke:#038048;stroke-width:1.0;"/><text fill="#000000" font-family="sans-serif" font-size="14" lengthAdjust="spacing" textLength="75" x="27" y="180.2607">AppShell()</text></g><!--class Shell--><g id="elem_Shell"><rect fill="#F1F1F1" height="48" id="Shell" rx="2.5" ry="2.5" style="stroke:#181818;stroke-width:0.5;" width="67" x="24" y="7"/><ellipse cx="39" cy="23" fill="#ADD1B2" rx="11" ry="11" style="stroke:#181818;stroke-width:1.0;"/><path d="M41.3438,18.6719 C40.4063,18.2344 39.8125,18.0938 38.9375,18.0938 C36.3125,18.0938 34.3125,20.1719 34.3125,22.8906 L34.3125,24.0156 C34.3125,26.5938 36.4219,28.4844 39.3125,28.4844 C40.5313,28.4844 41.6875,28.1875 42.4375,27.6406 C43.0156,27.2344 43.3438,26.7813 43.3438,26.3906 C43.3438,25.9375 42.9531,25.5469 42.4844,25.5469 C42.2656,25.5469 42.0625,25.625 41.875,25.8125 C41.4219,26.2969 41.4219,26.2969 41.2344,26.3906 C40.8125,26.6563 40.125,26.7813 39.3594,26.7813 C37.3125,26.7813 36.0156,25.6875 36.0156,23.9844 L36.0156,22.8906 C36.0156,21.1094 37.2656,19.7969 39,19.7969 C39.5781,19.7969 40.1875,19.9531 40.6563,20.2031 C41.1406,20.4844 41.3125,20.7031 41.4063,21.1094 C41.4688,21.5156 41.5,21.6406 41.6406,21.7656 C41.7813,21.9063 42.0156,22.0156 42.2344,22.0156 C42.5,22.0156 42.7656,21.875 42.9375,21.6563 C43.0469,21.5 43.0781,21.3125 43.0781,20.8906 L43.0781,19.4688 C43.0781,19.0313 43.0625,18.9063 42.9688,18.75 C42.8125,18.4844 42.5313,18.3438 42.2344,18.3438 C41.9375,18.3438 41.7344,18.4375 41.5156,18.75 L41.3438,18.6719 Z " fill="#000000"/><text fill="#000000" font-family="sans-serif" font-size="14" lengthAdjust="spacing" textLength="35" x="53" y="27.8467">Shell</text><line style="stroke:#181818;stroke-width:0.5;" x1="25" x2="90" y1="39" y2="39"/><line style="stroke:#181818;stroke-width:0.5;" x1="25" x2="90" y1="47" y2="47"/></g><!--reverse link Shell to AppShell--><g id="link_Shell_AppShell"><path codeLine="4" d="M57.5,73.129 C57.5,90.103 57.5,95.4713 57.5,114.8281 " fill="none" id="Shell-backto-AppShell" style="stroke:#181818;stroke-width:1.0;"/><polygon fill="none" points="57.5,55.129,51.5,73.129,63.5,73.129,57.5,55.129" style="stroke:#181818;stroke-width:1.0;"/></g><!--SRC=[Iyv9B2vMS2me2Cv8pSbHiB4fI2mgoKpCiRDJgEPI009jkAI69bSj5rHPZQukN1m0]--></g></svg>