<?xml version="1.0" encoding="us-ascii" standalone="no"?><svg xmlns="http://www.w3.org/2000/svg" xmlns:xlink="http://www.w3.org/1999/xlink" contentStyleType="text/css" height="210px" preserveAspectRatio="none" style="width:177px;height:210px;background:#FFFFFF;" version="1.1" viewBox="0 0 177 210" width="177px" zoomAndPan="magnify"><defs/><g><!--class BaseViewModel--><g id="elem_BaseViewModel"><rect codeLine="1" fill="#F1F1F1" height="88.8594" id="BaseViewModel" rx="2.5" ry="2.5" style="stroke:#181818;stroke-width:0.5;" width="147" x="15" y="115"/><ellipse cx="31.8" cy="135.1328" fill="#ADD1B2" rx="11" ry="11" style="stroke:#181818;stroke-width:1.0;"/><path d="M34.1438,130.8047 C33.2063,130.3672 32.6125,130.2266 31.7375,130.2266 C29.1125,130.2266 27.1125,132.3047 27.1125,135.0234 L27.1125,136.1484 C27.1125,138.7266 29.2219,140.6172 32.1125,140.6172 C33.3313,140.6172 34.4875,140.3203 35.2375,139.7734 C35.8156,139.3672 36.1438,138.9141 36.1438,138.5234 C36.1438,138.0703 35.7531,137.6797 35.2844,137.6797 C35.0656,137.6797 34.8625,137.7578 34.675,137.9453 C34.2219,138.4297 34.2219,138.4297 34.0344,138.5234 C33.6125,138.7891 32.925,138.9141 32.1594,138.9141 C30.1125,138.9141 28.8156,137.8203 28.8156,136.1172 L28.8156,135.0234 C28.8156,133.2422 30.0656,131.9297 31.8,131.9297 C32.3781,131.9297 32.9875,132.0859 33.4563,132.3359 C33.9406,132.6172 34.1125,132.8359 34.2063,133.2422 C34.2688,133.6484 34.3,133.7734 34.4406,133.8984 C34.5813,134.0391 34.8156,134.1484 35.0344,134.1484 C35.3,134.1484 35.5656,134.0078 35.7375,133.7891 C35.8469,133.6328 35.8781,133.4453 35.8781,133.0234 L35.8781,131.6016 C35.8781,131.1641 35.8625,131.0391 35.7688,130.8828 C35.6125,130.6172 35.3313,130.4766 35.0344,130.4766 C34.7375,130.4766 34.5344,130.5703 34.3156,130.8828 L34.1438,130.8047 Z " fill="#000000"/><text fill="#000000" font-family="sans-serif" font-size="12" font-style="italic" lengthAdjust="spacing" textLength="52" x="75.7" y="131.1387">&#171;partial&#187;</text><text fill="#000000" font-family="sans-serif" font-size="14" lengthAdjust="spacing" textLength="111" x="46.2" y="146.9639">BaseViewModel</text><line style="stroke:#181818;stroke-width:0.5;" x1="16" x2="161" y1="155.2656" y2="155.2656"/><rect fill="none" height="6" style="stroke:#C82930;stroke-width:1.0;" width="6" x="23" y="165.9141"/><text fill="#000000" font-family="sans-serif" font-size="14" lengthAdjust="spacing" textLength="86" x="35" y="172.2607">title : string</text><line style="stroke:#181818;stroke-width:0.5;" x1="16" x2="161" y1="179.5625" y2="179.5625"/><ellipse cx="26" cy="193.2109" fill="#84BE84" rx="3" ry="3" style="stroke:#038048;stroke-width:1.0;"/><text fill="#000000" font-family="sans-serif" font-size="14" lengthAdjust="spacing" textLength="121" x="35" y="196.5576">BaseViewModel()</text></g><!--class ObservableObject--><g id="elem_ObservableObject"><rect fill="#F1F1F1" height="48" id="ObservableObject" rx="2.5" ry="2.5" style="stroke:#181818;stroke-width:0.5;" width="163" x="7" y="7"/><ellipse cx="22" cy="23" fill="#ADD1B2" rx="11" ry="11" style="stroke:#181818;stroke-width:1.0;"/><path d="M24.3438,18.6719 C23.4063,18.2344 22.8125,18.0938 21.9375,18.0938 C19.3125,18.0938 17.3125,20.1719 17.3125,22.8906 L17.3125,24.0156 C17.3125,26.5938 19.4219,28.4844 22.3125,28.4844 C23.5313,28.4844 24.6875,28.1875 25.4375,27.6406 C26.0156,27.2344 26.3438,26.7813 26.3438,26.3906 C26.3438,25.9375 25.9531,25.5469 25.4844,25.5469 C25.2656,25.5469 25.0625,25.625 24.875,25.8125 C24.4219,26.2969 24.4219,26.2969 24.2344,26.3906 C23.8125,26.6563 23.125,26.7813 22.3594,26.7813 C20.3125,26.7813 19.0156,25.6875 19.0156,23.9844 L19.0156,22.8906 C19.0156,21.1094 20.2656,19.7969 22,19.7969 C22.5781,19.7969 23.1875,19.9531 23.6563,20.2031 C24.1406,20.4844 24.3125,20.7031 24.4063,21.1094 C24.4688,21.5156 24.5,21.6406 24.6406,21.7656 C24.7813,21.9063 25.0156,22.0156 25.2344,22.0156 C25.5,22.0156 25.7656,21.875 25.9375,21.6563 C26.0469,21.5 26.0781,21.3125 26.0781,20.8906 L26.0781,19.4688 C26.0781,19.0313 26.0625,18.9063 25.9688,18.75 C25.8125,18.4844 25.5313,18.3438 25.2344,18.3438 C24.9375,18.3438 24.7344,18.4375 24.5156,18.75 L24.3438,18.6719 Z " fill="#000000"/><text fill="#000000" font-family="sans-serif" font-size="14" lengthAdjust="spacing" textLength="131" x="36" y="27.8467">ObservableObject</text><line style="stroke:#181818;stroke-width:0.5;" x1="8" x2="169" y1="39" y2="39"/><line style="stroke:#181818;stroke-width:0.5;" x1="8" x2="169" y1="47" y2="47"/></g><!--reverse link ObservableObject to BaseViewModel--><g id="link_ObservableObject_BaseViewModel"><path codeLine="5" d="M88.5,73.202 C88.5,89.893 88.5,94.904 88.5,114.9714 " fill="none" id="ObservableObject-backto-BaseViewModel" style="stroke:#181818;stroke-width:1.0;"/><polygon fill="none" points="88.5,55.202,82.5,73.202,94.5,73.202,88.5,55.202" style="stroke:#181818;stroke-width:1.0;"/></g><!--SRC=[Iyv9B2vMS4eiJWtBJ2ttpKz9pL6miIb8B2h9JConirEevb800bs5aioId5G5AuNYagBCl7Ime3QgDWrDhbek_wJYrAAonAISLF-ahDJa4WMR6brTL7K0]--></g></svg>