<?xml version="1.0" encoding="us-ascii" standalone="no"?><svg xmlns="http://www.w3.org/2000/svg" xmlns:xlink="http://www.w3.org/1999/xlink" contentStyleType="text/css" height="251px" preserveAspectRatio="none" style="width:732px;height:251px;background:#FFFFFF;" version="1.1" viewBox="0 0 732 251" width="732px" zoomAndPan="magnify"><defs/><g><!--class Broker--><g id="elem_Broker"><rect codeLine="1" fill="#F1F1F1" height="129.4844" id="Broker" rx="2.5" ry="2.5" style="stroke:#181818;stroke-width:0.5;" width="563" x="7" y="7"/><ellipse cx="259.75" cy="23" fill="#ADD1B2" rx="11" ry="11" style="stroke:#181818;stroke-width:1.0;"/><path d="M262.0938,18.6719 C261.1563,18.2344 260.5625,18.0938 259.6875,18.0938 C257.0625,18.0938 255.0625,20.1719 255.0625,22.8906 L255.0625,24.0156 C255.0625,26.5938 257.1719,28.4844 260.0625,28.4844 C261.2813,28.4844 262.4375,28.1875 263.1875,27.6406 C263.7656,27.2344 264.0938,26.7813 264.0938,26.3906 C264.0938,25.9375 263.7031,25.5469 263.2344,25.5469 C263.0156,25.5469 262.8125,25.625 262.625,25.8125 C262.1719,26.2969 262.1719,26.2969 261.9844,26.3906 C261.5625,26.6563 260.875,26.7813 260.1094,26.7813 C258.0625,26.7813 256.7656,25.6875 256.7656,23.9844 L256.7656,22.8906 C256.7656,21.1094 258.0156,19.7969 259.75,19.7969 C260.3281,19.7969 260.9375,19.9531 261.4063,20.2031 C261.8906,20.4844 262.0625,20.7031 262.1563,21.1094 C262.2188,21.5156 262.25,21.6406 262.3906,21.7656 C262.5313,21.9063 262.7656,22.0156 262.9844,22.0156 C263.25,22.0156 263.5156,21.875 263.6875,21.6563 C263.7969,21.5 263.8281,21.3125 263.8281,20.8906 L263.8281,19.4688 C263.8281,19.0313 263.8125,18.9063 263.7188,18.75 C263.5625,18.4844 263.2813,18.3438 262.9844,18.3438 C262.6875,18.3438 262.4844,18.4375 262.2656,18.75 L262.0938,18.6719 Z " fill="#000000"/><text fill="#000000" font-family="sans-serif" font-size="14" lengthAdjust="spacing" textLength="49" x="280.25" y="27.8467">Broker</text><line style="stroke:#181818;stroke-width:0.5;" x1="8" x2="569" y1="39" y2="39"/><line style="stroke:#181818;stroke-width:0.5;" x1="8" x2="569" y1="47" y2="47"/><rect fill="#F24D5C" height="6" style="stroke:#C82930;stroke-width:1.0;" width="6" x="15" y="57.6484"/><text fill="#000000" font-family="sans-serif" font-size="14" lengthAdjust="spacing" textLength="59" x="27" y="63.9951">Broker()</text><ellipse cx="18" cy="76.9453" fill="#84BE84" rx="3" ry="3" style="stroke:#038048;stroke-width:1.0;"/><text fill="#000000" font-family="sans-serif" font-size="14" lengthAdjust="spacing" text-decoration="underline" textLength="160" x="27" y="80.292">GetInstance() : Broker</text><ellipse cx="18" cy="93.2422" fill="#84BE84" rx="3" ry="3" style="stroke:#038048;stroke-width:1.0;"/><text fill="#000000" font-family="sans-serif" font-size="14" lengthAdjust="spacing" textLength="87" x="27" y="96.5889">Brok() : void</text><ellipse cx="18" cy="109.5391" fill="#84BE84" rx="3" ry="3" style="stroke:#038048;stroke-width:1.0;"/><text fill="#000000" font-family="sans-serif" font-size="14" lengthAdjust="spacing" textLength="260" x="27" y="112.8857">SendToClient(message:string) : void</text><ellipse cx="18" cy="125.8359" fill="#84BE84" rx="3" ry="3" style="stroke:#038048;stroke-width:1.0;"/><text fill="#000000" font-family="sans-serif" font-size="14" lengthAdjust="spacing" textLength="537" x="27" y="129.1826">SendProgressToClient(name:string, files_processed:int, nb_total:int) : void</text></g><!--class TcpListener--><g id="elem_TcpListener"><rect fill="#F1F1F1" height="48" id="TcpListener" rx="2.5" ry="2.5" style="stroke:#181818;stroke-width:0.5;" width="118" x="149.5" y="196"/><ellipse cx="164.5" cy="212" fill="#ADD1B2" rx="11" ry="11" style="stroke:#181818;stroke-width:1.0;"/><path d="M166.8438,207.6719 C165.9063,207.2344 165.3125,207.0938 164.4375,207.0938 C161.8125,207.0938 159.8125,209.1719 159.8125,211.8906 L159.8125,213.0156 C159.8125,215.5938 161.9219,217.4844 164.8125,217.4844 C166.0313,217.4844 167.1875,217.1875 167.9375,216.6406 C168.5156,216.2344 168.8438,215.7813 168.8438,215.3906 C168.8438,214.9375 168.4531,214.5469 167.9844,214.5469 C167.7656,214.5469 167.5625,214.625 167.375,214.8125 C166.9219,215.2969 166.9219,215.2969 166.7344,215.3906 C166.3125,215.6563 165.625,215.7813 164.8594,215.7813 C162.8125,215.7813 161.5156,214.6875 161.5156,212.9844 L161.5156,211.8906 C161.5156,210.1094 162.7656,208.7969 164.5,208.7969 C165.0781,208.7969 165.6875,208.9531 166.1563,209.2031 C166.6406,209.4844 166.8125,209.7031 166.9063,210.1094 C166.9688,210.5156 167,210.6406 167.1406,210.7656 C167.2813,210.9063 167.5156,211.0156 167.7344,211.0156 C168,211.0156 168.2656,210.875 168.4375,210.6563 C168.5469,210.5 168.5781,210.3125 168.5781,209.8906 L168.5781,208.4688 C168.5781,208.0313 168.5625,207.9063 168.4688,207.75 C168.3125,207.4844 168.0313,207.3438 167.7344,207.3438 C167.4375,207.3438 167.2344,207.4375 167.0156,207.75 L166.8438,207.6719 Z " fill="#000000"/><text fill="#000000" font-family="sans-serif" font-size="14" lengthAdjust="spacing" textLength="86" x="178.5" y="216.8467">TcpListener</text><line style="stroke:#181818;stroke-width:0.5;" x1="150.5" x2="266.5" y1="228" y2="228"/><line style="stroke:#181818;stroke-width:0.5;" x1="150.5" x2="266.5" y1="236" y2="236"/></g><!--class TcpClient--><g id="elem_TcpClient"><rect fill="#F1F1F1" height="48" id="TcpClient" rx="2.5" ry="2.5" style="stroke:#181818;stroke-width:0.5;" width="102" x="623.5" y="47.5"/><ellipse cx="638.5" cy="63.5" fill="#ADD1B2" rx="11" ry="11" style="stroke:#181818;stroke-width:1.0;"/><path d="M640.8438,59.1719 C639.9063,58.7344 639.3125,58.5938 638.4375,58.5938 C635.8125,58.5938 633.8125,60.6719 633.8125,63.3906 L633.8125,64.5156 C633.8125,67.0938 635.9219,68.9844 638.8125,68.9844 C640.0313,68.9844 641.1875,68.6875 641.9375,68.1406 C642.5156,67.7344 642.8438,67.2813 642.8438,66.8906 C642.8438,66.4375 642.4531,66.0469 641.9844,66.0469 C641.7656,66.0469 641.5625,66.125 641.375,66.3125 C640.9219,66.7969 640.9219,66.7969 640.7344,66.8906 C640.3125,67.1563 639.625,67.2813 638.8594,67.2813 C636.8125,67.2813 635.5156,66.1875 635.5156,64.4844 L635.5156,63.3906 C635.5156,61.6094 636.7656,60.2969 638.5,60.2969 C639.0781,60.2969 639.6875,60.4531 640.1563,60.7031 C640.6406,60.9844 640.8125,61.2031 640.9063,61.6094 C640.9688,62.0156 641,62.1406 641.1406,62.2656 C641.2813,62.4063 641.5156,62.5156 641.7344,62.5156 C642,62.5156 642.2656,62.375 642.4375,62.1563 C642.5469,62 642.5781,61.8125 642.5781,61.3906 L642.5781,59.9688 C642.5781,59.5313 642.5625,59.4063 642.4688,59.25 C642.3125,58.9844 642.0313,58.8438 641.7344,58.8438 C641.4375,58.8438 641.2344,58.9375 641.0156,59.25 L640.8438,59.1719 Z " fill="#000000"/><text fill="#000000" font-family="sans-serif" font-size="14" lengthAdjust="spacing" textLength="70" x="652.5" y="68.3467">TcpClient</text><line style="stroke:#181818;stroke-width:0.5;" x1="624.5" x2="724.5" y1="79.5" y2="79.5"/><line style="stroke:#181818;stroke-width:0.5;" x1="624.5" x2="724.5" y1="87.5" y2="87.5"/></g><!--class StreamWriter--><g id="elem_StreamWriter"><rect fill="#F1F1F1" height="48" id="StreamWriter" rx="2.5" ry="2.5" style="stroke:#181818;stroke-width:0.5;" width="131" x="303" y="196"/><ellipse cx="318" cy="212" fill="#ADD1B2" rx="11" ry="11" style="stroke:#181818;stroke-width:1.0;"/><path d="M320.3438,207.6719 C319.4063,207.2344 318.8125,207.0938 317.9375,207.0938 C315.3125,207.0938 313.3125,209.1719 313.3125,211.8906 L313.3125,213.0156 C313.3125,215.5938 315.4219,217.4844 318.3125,217.4844 C319.5313,217.4844 320.6875,217.1875 321.4375,216.6406 C322.0156,216.2344 322.3438,215.7813 322.3438,215.3906 C322.3438,214.9375 321.9531,214.5469 321.4844,214.5469 C321.2656,214.5469 321.0625,214.625 320.875,214.8125 C320.4219,215.2969 320.4219,215.2969 320.2344,215.3906 C319.8125,215.6563 319.125,215.7813 318.3594,215.7813 C316.3125,215.7813 315.0156,214.6875 315.0156,212.9844 L315.0156,211.8906 C315.0156,210.1094 316.2656,208.7969 318,208.7969 C318.5781,208.7969 319.1875,208.9531 319.6563,209.2031 C320.1406,209.4844 320.3125,209.7031 320.4063,210.1094 C320.4688,210.5156 320.5,210.6406 320.6406,210.7656 C320.7813,210.9063 321.0156,211.0156 321.2344,211.0156 C321.5,211.0156 321.7656,210.875 321.9375,210.6563 C322.0469,210.5 322.0781,210.3125 322.0781,209.8906 L322.0781,208.4688 C322.0781,208.0313 322.0625,207.9063 321.9688,207.75 C321.8125,207.4844 321.5313,207.3438 321.2344,207.3438 C320.9375,207.3438 320.7344,207.4375 320.5156,207.75 L320.3438,207.6719 Z " fill="#000000"/><text fill="#000000" font-family="sans-serif" font-size="14" lengthAdjust="spacing" textLength="99" x="332" y="216.8467">StreamWriter</text><line style="stroke:#181818;stroke-width:0.5;" x1="304" x2="433" y1="228" y2="228"/><line style="stroke:#181818;stroke-width:0.5;" x1="304" x2="433" y1="236" y2="236"/></g><!--link Broker to Broker--><g id="link_Broker_Broker"><path codeLine="8" d="M570.131,50.633 C591.709,55.258 605,62.214 605,71.5 C605,80.786 597.5758,86.4845 575.9978,91.1095 " fill="none" id="Broker-to-Broker" style="stroke:#181818;stroke-width:1.0;"/><polygon fill="#181818" points="570.131,92.367,579.7694,94.392,575.02,91.3191,578.0928,86.5696,570.131,92.367" style="stroke:#181818;stroke-width:1.0;"/><text fill="#000000" font-family="sans-serif" font-size="13" lengthAdjust="spacing" textLength="61" x="555.0598" y="115.5789">_instance</text></g><!--link Broker to TcpListener--><g id="link_Broker_TcpListener"><path codeLine="9" d="M253.644,136.331 C242.106,157.4582 232.8647,174.3825 224.0917,190.4474 " fill="none" id="Broker-to-TcpListener" style="stroke:#181818;stroke-width:1.0;"/><polygon fill="#181818" points="221.216,195.7133,229.0402,189.7315,223.6124,191.325,222.0189,185.8972,221.216,195.7133" style="stroke:#181818;stroke-width:1.0;"/><text fill="#000000" font-family="sans-serif" font-size="13" lengthAdjust="spacing" textLength="47" x="171.5874" y="185.0484">listener</text></g><!--link Broker to TcpClient--><g id="link_Broker_TcpClient"><path codeLine="10" d="M582.084,71.5 C599.759,71.5 599.433,71.5 617.108,71.5 " fill="none" id="Broker-TcpClient" style="stroke:#181818;stroke-width:1.0;"/><polygon fill="none" points="570.084,71.5,576.084,75.5,582.084,71.5,576.084,67.5,570.084,71.5" style="stroke:#181818;stroke-width:1.0;"/><polygon fill="#181818" points="623.108,71.5,614.108,67.5,618.108,71.5,614.108,75.5,623.108,71.5" style="stroke:#181818;stroke-width:1.0;"/><text fill="#000000" font-family="sans-serif" font-size="13" lengthAdjust="spacing" textLength="34" x="581.6276" y="67.7538">client</text></g><!--link Broker to StreamWriter--><g id="link_Broker_StreamWriter"><path codeLine="11" d="M323.356,136.331 C334.894,157.4582 344.1353,174.3825 352.9083,190.4474 " fill="none" id="Broker-to-StreamWriter" style="stroke:#181818;stroke-width:1.0;"/><polygon fill="#181818" points="355.784,195.7133,354.9811,185.8972,353.3876,191.325,347.9598,189.7315,355.784,195.7133" style="stroke:#181818;stroke-width:1.0;"/><text fill="#000000" font-family="sans-serif" font-size="13" lengthAdjust="spacing" textLength="37" x="311.1751" y="185.0484">writer</text></g><!--SRC=[RO_12i8m38RlUugmqqJt0Zjuq8C87WG5ZwDsSGIxLDAW1_7TtMet5EpjIxw__B7EX00hyLSKU6RGlp9XCOiuXsTGesHVi47TSWziiPX1bRna3H2dTqzDcXsGcwDVEqBMeiCGJ8jLK25k_vXxyQtqqfHWqutw0YxaCDGtyRPNiAc8TG5yhjMhSGDDFxwoT4zPBY6lALNEnxxVMqT1aL5oEDhRBi5e-C6miKlSVshzv1z2EgGFAcYwKwGt]--></g></svg>