<?xml version="1.0" encoding="us-ascii" standalone="no"?><svg xmlns="http://www.w3.org/2000/svg" xmlns:xlink="http://www.w3.org/1999/xlink" contentStyleType="text/css" height="117px" preserveAspectRatio="none" style="width:274px;height:117px;background:#FFFFFF;" version="1.1" viewBox="0 0 274 117" width="274px" zoomAndPan="magnify"><defs/><g><!--class BusinessObserver--><g id="elem_BusinessObserver"><rect codeLine="1" fill="#F1F1F1" height="96.8906" id="BusinessObserver" rx="2.5" ry="2.5" style="stroke:#181818;stroke-width:0.5;" width="253" x="7" y="7"/><ellipse cx="65.75" cy="23" fill="#ADD1B2" rx="11" ry="11" style="stroke:#181818;stroke-width:1.0;"/><path d="M68.0938,18.6719 C67.1563,18.2344 66.5625,18.0938 65.6875,18.0938 C63.0625,18.0938 61.0625,20.1719 61.0625,22.8906 L61.0625,24.0156 C61.0625,26.5938 63.1719,28.4844 66.0625,28.4844 C67.2813,28.4844 68.4375,28.1875 69.1875,27.6406 C69.7656,27.2344 70.0938,26.7813 70.0938,26.3906 C70.0938,25.9375 69.7031,25.5469 69.2344,25.5469 C69.0156,25.5469 68.8125,25.625 68.625,25.8125 C68.1719,26.2969 68.1719,26.2969 67.9844,26.3906 C67.5625,26.6563 66.875,26.7813 66.1094,26.7813 C64.0625,26.7813 62.7656,25.6875 62.7656,23.9844 L62.7656,22.8906 C62.7656,21.1094 64.0156,19.7969 65.75,19.7969 C66.3281,19.7969 66.9375,19.9531 67.4063,20.2031 C67.8906,20.4844 68.0625,20.7031 68.1563,21.1094 C68.2188,21.5156 68.25,21.6406 68.3906,21.7656 C68.5313,21.9063 68.7656,22.0156 68.9844,22.0156 C69.25,22.0156 69.5156,21.875 69.6875,21.6563 C69.7969,21.5 69.8281,21.3125 69.8281,20.8906 L69.8281,19.4688 C69.8281,19.0313 69.8125,18.9063 69.7188,18.75 C69.5625,18.4844 69.2813,18.3438 68.9844,18.3438 C68.6875,18.3438 68.4844,18.4375 68.2656,18.75 L68.0938,18.6719 Z " fill="#000000"/><text fill="#000000" font-family="sans-serif" font-size="14" lengthAdjust="spacing" textLength="127" x="86.25" y="27.8467">BusinessObserver</text><line style="stroke:#181818;stroke-width:0.5;" x1="8" x2="259" y1="39" y2="39"/><rect fill="none" height="6" style="stroke:#C82930;stroke-width:1.0;" width="6" x="15" y="49.6484"/><text fill="#000000" font-family="sans-serif" font-size="14" lengthAdjust="spacing" text-decoration="underline" textLength="187" x="27" y="55.9951">savesPaused : bool = false</text><line style="stroke:#181818;stroke-width:0.5;" x1="8" x2="259" y1="63.2969" y2="63.2969"/><ellipse cx="18" cy="76.9453" fill="#84BE84" rx="3" ry="3" style="stroke:#038048;stroke-width:1.0;"/><text fill="#000000" font-family="sans-serif" font-size="14" lengthAdjust="spacing" textLength="137" x="27" y="80.292">BusinessObserver()</text><ellipse cx="18" cy="93.2422" fill="#84BE84" rx="3" ry="3" style="stroke:#038048;stroke-width:1.0;"/><text fill="#000000" font-family="sans-serif" font-size="14" lengthAdjust="spacing" text-decoration="underline" textLength="227" x="27" y="96.5889">Observer(business:string) : void</text></g><!--SRC=[POon2O0m50LxftYb8YuWsBY0hl2ZNmc41F9Y6d5tHOADrzvnYnCIuq7hbPmCDMQDE2iyT3YP9Ddb0YKhPpceAtgO41m6REAeRzd-5dLJnBVuZ2bfpnIjtvjdc8DTg-i6]--></g></svg>