<?xml version="1.0" encoding="us-ascii" standalone="no"?><svg xmlns="http://www.w3.org/2000/svg" xmlns:xlink="http://www.w3.org/1999/xlink" contentStyleType="text/css" height="417px" preserveAspectRatio="none" style="width:899px;height:417px;background:#FFFFFF;" version="1.1" viewBox="0 0 899 417" width="899px" zoomAndPan="magnify"><defs/><g><!--class ChiffrementSettingsView--><g id="elem_ChiffrementSettingsView"><rect codeLine="1" fill="#F1F1F1" height="186.6406" id="ChiffrementSettingsView" rx="2.5" ry="2.5" style="stroke:#181818;stroke-width:0.5;" width="532" x="7" y="115"/><ellipse cx="176.75" cy="135.1328" fill="#ADD1B2" rx="11" ry="11" style="stroke:#181818;stroke-width:1.0;"/><path d="M179.0938,130.8047 C178.1563,130.3672 177.5625,130.2266 176.6875,130.2266 C174.0625,130.2266 172.0625,132.3047 172.0625,135.0234 L172.0625,136.1484 C172.0625,138.7266 174.1719,140.6172 177.0625,140.6172 C178.2813,140.6172 179.4375,140.3203 180.1875,139.7734 C180.7656,139.3672 181.0938,138.9141 181.0938,138.5234 C181.0938,138.0703 180.7031,137.6797 180.2344,137.6797 C180.0156,137.6797 179.8125,137.7578 179.625,137.9453 C179.1719,138.4297 179.1719,138.4297 178.9844,138.5234 C178.5625,138.7891 177.875,138.9141 177.1094,138.9141 C175.0625,138.9141 173.7656,137.8203 173.7656,136.1172 L173.7656,135.0234 C173.7656,133.2422 175.0156,131.9297 176.75,131.9297 C177.3281,131.9297 177.9375,132.0859 178.4063,132.3359 C178.8906,132.6172 179.0625,132.8359 179.1563,133.2422 C179.2188,133.6484 179.25,133.7734 179.3906,133.8984 C179.5313,134.0391 179.7656,134.1484 179.9844,134.1484 C180.25,134.1484 180.5156,134.0078 180.6875,133.7891 C180.7969,133.6328 180.8281,133.4453 180.8281,133.0234 L180.8281,131.6016 C180.8281,131.1641 180.8125,131.0391 180.7188,130.8828 C180.5625,130.6172 180.2813,130.4766 179.9844,130.4766 C179.6875,130.4766 179.4844,130.5703 179.2656,130.8828 L179.0938,130.8047 Z " fill="#000000"/><text fill="#000000" font-family="sans-serif" font-size="12" font-style="italic" lengthAdjust="spacing" textLength="52" x="263.25" y="131.1387">&#171;partial&#187;</text><text fill="#000000" font-family="sans-serif" font-size="14" lengthAdjust="spacing" textLength="184" x="197.25" y="146.9639">ChiffrementSettingsView</text><line style="stroke:#181818;stroke-width:0.5;" x1="8" x2="538" y1="155.2656" y2="155.2656"/><ellipse cx="18" cy="168.9141" fill="none" rx="3" ry="3" style="stroke:#038048;stroke-width:1.0;"/><text fill="#000000" font-family="sans-serif" font-size="14" lengthAdjust="spacing" textLength="161" x="27" y="172.2607">EncryptionKey : string</text><line style="stroke:#181818;stroke-width:0.5;" x1="8" x2="538" y1="179.5625" y2="179.5625"/><ellipse cx="18" cy="193.2109" fill="#84BE84" rx="3" ry="3" style="stroke:#038048;stroke-width:1.0;"/><text fill="#000000" font-family="sans-serif" font-size="14" lengthAdjust="spacing" textLength="469" x="27" y="196.5576">ChiffrementSettingsView(viewModel:ParametersPageViewModel)</text><rect fill="#F24D5C" height="6" style="stroke:#C82930;stroke-width:1.0;" width="6" x="15" y="206.5078"/><text fill="#000000" font-family="sans-serif" font-size="14" lengthAdjust="spacing" textLength="194" x="27" y="212.8545">LoadLocalizedTexts() : void</text><ellipse cx="18" cy="225.8047" fill="#84BE84" rx="3" ry="3" style="stroke:#038048;stroke-width:1.0;"/><text fill="#000000" font-family="sans-serif" font-size="14" lengthAdjust="spacing" textLength="183" x="27" y="229.1514">OnPageAppearing() : void</text><rect fill="#F24D5C" height="6" style="stroke:#C82930;stroke-width:1.0;" width="6" x="15" y="239.1016"/><text fill="#000000" font-family="sans-serif" font-size="14" lengthAdjust="spacing" textLength="462" x="27" y="245.4482">OnTextChanged(sender:object, e:TextChangedEventArgs) : void</text><rect fill="#F24D5C" height="6" style="stroke:#C82930;stroke-width:1.0;" width="6" x="15" y="255.3984"/><text fill="#000000" font-family="sans-serif" font-size="14" lengthAdjust="spacing" textLength="421" x="27" y="261.7451">SaveKeyButton_Clicked(sender:object, e:EventArgs) : void</text><rect fill="#F24D5C" height="6" style="stroke:#C82930;stroke-width:1.0;" width="6" x="15" y="271.6953"/><text fill="#000000" font-family="sans-serif" font-size="14" lengthAdjust="spacing" textLength="506" x="27" y="278.042">OnEditorTextChanged(sender:object, e:TextChangedEventArgs) : void</text><rect fill="#F24D5C" height="6" style="stroke:#C82930;stroke-width:1.0;" width="6" x="15" y="287.9922"/><text fill="#000000" font-family="sans-serif" font-size="14" lengthAdjust="spacing" textLength="438" x="27" y="294.3389">SaveEditorButton_Clicked(sender:object, e:EventArgs) : void</text></g><!--class List`1--><g id="elem_List`1"><rect codeLine="11" fill="#F1F1F1" height="48" id="List`1" rx="2.5" ry="2.5" style="stroke:#181818;stroke-width:0.5;" width="85" x="574.5" y="184.5"/><ellipse cx="589.5" cy="200.5" fill="#ADD1B2" rx="11" ry="11" style="stroke:#181818;stroke-width:1.0;"/><path d="M591.8438,196.1719 C590.9063,195.7344 590.3125,195.5938 589.4375,195.5938 C586.8125,195.5938 584.8125,197.6719 584.8125,200.3906 L584.8125,201.5156 C584.8125,204.0938 586.9219,205.9844 589.8125,205.9844 C591.0313,205.9844 592.1875,205.6875 592.9375,205.1406 C593.5156,204.7344 593.8438,204.2813 593.8438,203.8906 C593.8438,203.4375 593.4531,203.0469 592.9844,203.0469 C592.7656,203.0469 592.5625,203.125 592.375,203.3125 C591.9219,203.7969 591.9219,203.7969 591.7344,203.8906 C591.3125,204.1563 590.625,204.2813 589.8594,204.2813 C587.8125,204.2813 586.5156,203.1875 586.5156,201.4844 L586.5156,200.3906 C586.5156,198.6094 587.7656,197.2969 589.5,197.2969 C590.0781,197.2969 590.6875,197.4531 591.1563,197.7031 C591.6406,197.9844 591.8125,198.2031 591.9063,198.6094 C591.9688,199.0156 592,199.1406 592.1406,199.2656 C592.2813,199.4063 592.5156,199.5156 592.7344,199.5156 C593,199.5156 593.2656,199.375 593.4375,199.1563 C593.5469,199 593.5781,198.8125 593.5781,198.3906 L593.5781,196.9688 C593.5781,196.5313 593.5625,196.4063 593.4688,196.25 C593.3125,195.9844 593.0313,195.8438 592.7344,195.8438 C592.4375,195.8438 592.2344,195.9375 592.0156,196.25 L591.8438,196.1719 Z " fill="#000000"/><text fill="#000000" font-family="sans-serif" font-size="14" lengthAdjust="spacing" textLength="42" x="603.5" y="205.3467">List`1</text><rect fill="#FFFFFF" height="15.9688" style="stroke:#181818;stroke-width:1.0;stroke-dasharray:2.0,2.0;" width="9" x="653.5" y="181.5"/><text fill="#000000" font-family="sans-serif" font-size="12" font-style="italic" lengthAdjust="spacing" textLength="7" x="654.5" y="193.6387">T</text><line style="stroke:#181818;stroke-width:0.5;" x1="575.5" x2="658.5" y1="216.5" y2="216.5"/><line style="stroke:#181818;stroke-width:0.5;" x1="575.5" x2="658.5" y1="224.5" y2="224.5"/></g><!--class ContentView--><g id="elem_ContentView"><rect fill="#F1F1F1" height="48" id="ContentView" rx="2.5" ry="2.5" style="stroke:#181818;stroke-width:0.5;" width="126" x="210" y="7"/><ellipse cx="225" cy="23" fill="#ADD1B2" rx="11" ry="11" style="stroke:#181818;stroke-width:1.0;"/><path d="M227.3438,18.6719 C226.4063,18.2344 225.8125,18.0938 224.9375,18.0938 C222.3125,18.0938 220.3125,20.1719 220.3125,22.8906 L220.3125,24.0156 C220.3125,26.5938 222.4219,28.4844 225.3125,28.4844 C226.5313,28.4844 227.6875,28.1875 228.4375,27.6406 C229.0156,27.2344 229.3438,26.7813 229.3438,26.3906 C229.3438,25.9375 228.9531,25.5469 228.4844,25.5469 C228.2656,25.5469 228.0625,25.625 227.875,25.8125 C227.4219,26.2969 227.4219,26.2969 227.2344,26.3906 C226.8125,26.6563 226.125,26.7813 225.3594,26.7813 C223.3125,26.7813 222.0156,25.6875 222.0156,23.9844 L222.0156,22.8906 C222.0156,21.1094 223.2656,19.7969 225,19.7969 C225.5781,19.7969 226.1875,19.9531 226.6563,20.2031 C227.1406,20.4844 227.3125,20.7031 227.4063,21.1094 C227.4688,21.5156 227.5,21.6406 227.6406,21.7656 C227.7813,21.9063 228.0156,22.0156 228.2344,22.0156 C228.5,22.0156 228.7656,21.875 228.9375,21.6563 C229.0469,21.5 229.0781,21.3125 229.0781,20.8906 L229.0781,19.4688 C229.0781,19.0313 229.0625,18.9063 228.9688,18.75 C228.8125,18.4844 228.5313,18.3438 228.2344,18.3438 C227.9375,18.3438 227.7344,18.4375 227.5156,18.75 L227.3438,18.6719 Z " fill="#000000"/><text fill="#000000" font-family="sans-serif" font-size="14" lengthAdjust="spacing" textLength="94" x="239" y="27.8467">ContentView</text><line style="stroke:#181818;stroke-width:0.5;" x1="211" x2="335" y1="39" y2="39"/><line style="stroke:#181818;stroke-width:0.5;" x1="211" x2="335" y1="47" y2="47"/></g><!--class ParametersPageViewModel--><g id="elem_ParametersPageViewModel"><rect fill="#F1F1F1" height="48" id="ParametersPageViewModel" rx="2.5" ry="2.5" style="stroke:#181818;stroke-width:0.5;" width="227" x="45.5" y="362"/><ellipse cx="60.5" cy="378" fill="#ADD1B2" rx="11" ry="11" style="stroke:#181818;stroke-width:1.0;"/><path d="M62.8438,373.6719 C61.9063,373.2344 61.3125,373.0938 60.4375,373.0938 C57.8125,373.0938 55.8125,375.1719 55.8125,377.8906 L55.8125,379.0156 C55.8125,381.5938 57.9219,383.4844 60.8125,383.4844 C62.0313,383.4844 63.1875,383.1875 63.9375,382.6406 C64.5156,382.2344 64.8438,381.7813 64.8438,381.3906 C64.8438,380.9375 64.4531,380.5469 63.9844,380.5469 C63.7656,380.5469 63.5625,380.625 63.375,380.8125 C62.9219,381.2969 62.9219,381.2969 62.7344,381.3906 C62.3125,381.6563 61.625,381.7813 60.8594,381.7813 C58.8125,381.7813 57.5156,380.6875 57.5156,378.9844 L57.5156,377.8906 C57.5156,376.1094 58.7656,374.7969 60.5,374.7969 C61.0781,374.7969 61.6875,374.9531 62.1563,375.2031 C62.6406,375.4844 62.8125,375.7031 62.9063,376.1094 C62.9688,376.5156 63,376.6406 63.1406,376.7656 C63.2813,376.9063 63.5156,377.0156 63.7344,377.0156 C64,377.0156 64.2656,376.875 64.4375,376.6563 C64.5469,376.5 64.5781,376.3125 64.5781,375.8906 L64.5781,374.4688 C64.5781,374.0313 64.5625,373.9063 64.4688,373.75 C64.3125,373.4844 64.0313,373.3438 63.7344,373.3438 C63.4375,373.3438 63.2344,373.4375 63.0156,373.75 L62.8438,373.6719 Z " fill="#000000"/><text fill="#000000" font-family="sans-serif" font-size="14" lengthAdjust="spacing" textLength="195" x="74.5" y="382.8467">ParametersPageViewModel</text><line style="stroke:#181818;stroke-width:0.5;" x1="46.5" x2="271.5" y1="394" y2="394"/><line style="stroke:#181818;stroke-width:0.5;" x1="46.5" x2="271.5" y1="402" y2="402"/></g><!--class ResourceManager--><g id="elem_ResourceManager"><rect fill="#F1F1F1" height="48" id="ResourceManager" rx="2.5" ry="2.5" style="stroke:#181818;stroke-width:0.5;" width="159" x="307.5" y="362"/><ellipse cx="322.5" cy="378" fill="#ADD1B2" rx="11" ry="11" style="stroke:#181818;stroke-width:1.0;"/><path d="M324.8438,373.6719 C323.9063,373.2344 323.3125,373.0938 322.4375,373.0938 C319.8125,373.0938 317.8125,375.1719 317.8125,377.8906 L317.8125,379.0156 C317.8125,381.5938 319.9219,383.4844 322.8125,383.4844 C324.0313,383.4844 325.1875,383.1875 325.9375,382.6406 C326.5156,382.2344 326.8438,381.7813 326.8438,381.3906 C326.8438,380.9375 326.4531,380.5469 325.9844,380.5469 C325.7656,380.5469 325.5625,380.625 325.375,380.8125 C324.9219,381.2969 324.9219,381.2969 324.7344,381.3906 C324.3125,381.6563 323.625,381.7813 322.8594,381.7813 C320.8125,381.7813 319.5156,380.6875 319.5156,378.9844 L319.5156,377.8906 C319.5156,376.1094 320.7656,374.7969 322.5,374.7969 C323.0781,374.7969 323.6875,374.9531 324.1563,375.2031 C324.6406,375.4844 324.8125,375.7031 324.9063,376.1094 C324.9688,376.5156 325,376.6406 325.1406,376.7656 C325.2813,376.9063 325.5156,377.0156 325.7344,377.0156 C326,377.0156 326.2656,376.875 326.4375,376.6563 C326.5469,376.5 326.5781,376.3125 326.5781,375.8906 L326.5781,374.4688 C326.5781,374.0313 326.5625,373.9063 326.4688,373.75 C326.3125,373.4844 326.0313,373.3438 325.7344,373.3438 C325.4375,373.3438 325.2344,373.4375 325.0156,373.75 L324.8438,373.6719 Z " fill="#000000"/><text fill="#000000" font-family="sans-serif" font-size="14" lengthAdjust="spacing" textLength="127" x="336.5" y="382.8467">ResourceManager</text><line style="stroke:#181818;stroke-width:0.5;" x1="308.5" x2="465.5" y1="394" y2="394"/><line style="stroke:#181818;stroke-width:0.5;" x1="308.5" x2="465.5" y1="402" y2="402"/></g><!--reverse link ContentView to ChiffrementSettingsView--><g id="link_ContentView_ChiffrementSettingsView"><path codeLine="13" d="M273,73.305 C273,88.97 273,92.74 273,114.924 " fill="none" id="ContentView-backto-ChiffrementSettingsView" style="stroke:#181818;stroke-width:1.0;"/><polygon fill="none" points="273,55.305,267,73.305,279,73.305,273,55.305" style="stroke:#181818;stroke-width:1.0;"/></g><!--link ChiffrementSettingsView to ParametersPageViewModel--><g id="link_ChiffrementSettingsView_ParametersPageViewModel"><path codeLine="14" d="M212.829,302.132 C198.377,324.3802 187.4664,341.1767 177.2914,356.8408 " fill="none" id="ChiffrementSettingsView-to-ParametersPageViewModel" style="stroke:#181818;stroke-width:1.0;"/><polygon fill="#181818" points="174.023,361.8724,182.2801,356.5039,176.7467,357.6794,175.5712,352.146,174.023,361.8724" style="stroke:#181818;stroke-width:1.0;"/><text fill="#000000" font-family="sans-serif" font-size="13" lengthAdjust="spacing" textLength="67" x="102.2883" y="350.8517">viewModel</text></g><!--link ChiffrementSettingsView to ResourceManager--><g id="link_ChiffrementSettingsView_ResourceManager"><path codeLine="15" d="M333.171,302.132 C347.623,324.3802 358.5336,341.1767 368.7086,356.8408 " fill="none" id="ChiffrementSettingsView-to-ResourceManager" style="stroke:#181818;stroke-width:1.0;"/><polygon fill="#181818" points="371.977,361.8724,370.4288,352.146,369.2533,357.6794,363.7199,356.5039,371.977,361.8724" style="stroke:#181818;stroke-width:1.0;"/><text fill="#000000" font-family="sans-serif" font-size="13" lengthAdjust="spacing" textLength="118" x="277.0979" y="350.9142">_resourceManager</text></g><!--link ChiffrementSettingsView to List`1--><g id="link_ChiffrementSettingsView_List`1"><path codeLine="16" d="M551.062,208.5 C562.834,208.5 556.606,208.5 568.378,208.5 " fill="none" id="ChiffrementSettingsView-List`1" style="stroke:#181818;stroke-width:1.0;"/><polygon fill="none" points="539.062,208.5,545.062,212.5,551.062,208.5,545.062,204.5,539.062,208.5" style="stroke:#181818;stroke-width:1.0;"/><polygon fill="#181818" points="574.378,208.5,565.378,204.5,569.378,208.5,565.378,212.5,574.378,208.5" style="stroke:#181818;stroke-width:1.0;"/><text fill="#000000" font-family="sans-serif" font-size="13" lengthAdjust="spacing" textLength="223" x="669.0853" y="195.3457">EncryptionExstensionsList&lt;string&gt;</text></g><!--SRC=[hL91JiCm4Bpd5PPFgI07hb4KgKGvaQeLhNejnjwcXjIElDlG0lqxJbDAYmWI4ZvOrevdTaUpiXA8B5lfvTB16WnDWKYR4kSQNbYIrCAH5bMQihU0-NF5SYFThYPjpHtiMCoGdFz_17k4miPV8wkWYYV2YJKGE9o84kQVzS5186A55QgmKbJw5TGCjeJXm3Tfh5R75cFJ4eTr3Q9jV0b77cvPsKgO4bI8O1Ius3u-WQHh1l4Pc3T-og4hyPl2L3JWhTrkYAnPP9MMppyfzT779bUQhFkFCJgblq-o3-GXLrvef8SRdipQ_FP1PWtvlrssxr7KbrVGjn1Hb39-2fEpdZH_voySeDqu2IDXFCjnTdzPwANRblwrWFaMlHtqBsoD9jqgflpa-mC0]--></g></svg>