<?xml version="1.0" encoding="us-ascii" standalone="no"?><svg xmlns="http://www.w3.org/2000/svg" xmlns:xlink="http://www.w3.org/1999/xlink" contentStyleType="text/css" height="1275px" preserveAspectRatio="none" style="width:2245px;height:1275px;background:#FFFFFF;" version="1.1" viewBox="0 0 2245 1275" width="2245px" zoomAndPan="magnify"><defs/><g><!--class Logger--><g id="elem_Logger"><rect codeLine="1" fill="#F1F1F1" height="80.5938" id="Logger" rx="2.5" ry="2.5" style="stroke:#181818;stroke-width:0.5;" width="215" x="573.5" y="400"/><ellipse cx="651.75" cy="416" fill="#A9DCDF" rx="11" ry="11" style="stroke:#181818;stroke-width:1.0;"/><path d="M653.8281,417.8125 L654.2188,418.7969 L653.8281,418.7969 C653.375,418.7969 653.2656,418.8125 653.1094,418.9219 C652.8594,419.0781 652.7031,419.3594 652.7031,419.6563 C652.7031,419.9219 652.8438,420.1719 653.0625,420.3281 C653.2031,420.4531 653.4063,420.5 653.8281,420.5 L656.1875,420.5 C656.5469,420.5 656.7656,420.4688 656.9063,420.375 C657.1563,420.2344 657.3125,419.9375 657.3125,419.6563 C657.3125,419.375 657.1719,419.125 656.9531,418.9688 C656.7813,418.8281 656.625,418.7969 656.1563,418.7969 L652.7656,410.5938 L649.0938,410.5938 C648.6406,410.5938 648.5156,410.6094 648.3594,410.7031 C648.1094,410.875 647.9531,411.1563 647.9531,411.4375 C647.9531,411.7188 648.0938,411.9688 648.3125,412.1406 C648.4844,412.25 648.6563,412.2813 649.0938,412.2813 L650.1719,412.2813 L647.5313,418.7969 C647.1094,418.7969 646.9531,418.8125 646.7969,418.9219 C646.5469,419.0781 646.3906,419.3594 646.3906,419.6563 C646.3906,420.2188 646.7656,420.5 647.5156,420.5 L649.7813,420.5 C650.1406,420.5 650.3594,420.4688 650.4844,420.375 C650.75,420.2344 650.8906,419.9375 650.8906,419.6563 C650.8906,419.375 650.7656,419.125 650.5469,418.9531 C650.375,418.8281 650.2344,418.7969 649.7813,418.7969 L649.3906,418.7969 L649.7813,417.8125 L653.8281,417.8125 Z M653.125,416.1094 L650.4531,416.1094 L651.7969,412.8438 L653.125,416.1094 Z " fill="#000000"/><text fill="#000000" font-family="sans-serif" font-size="14" font-style="italic" lengthAdjust="spacing" textLength="50" x="672.25" y="420.8467">Logger</text><line style="stroke:#181818;stroke-width:0.5;" x1="574.5" x2="787.5" y1="432" y2="432"/><polygon fill="none" points="584.5,440.6484,588.5,444.6484,584.5,448.6484,580.5,444.6484" style="stroke:#B38D22;stroke-width:1.0;"/><text fill="#000000" font-family="sans-serif" font-size="14" lengthAdjust="spacing" textLength="138" x="593.5" y="448.9951">LogFile: FileStream</text><line style="stroke:#181818;stroke-width:0.5;" x1="574.5" x2="787.5" y1="456.2969" y2="456.2969"/><polygon fill="#FFFF44" points="584.5,464.9453,588.5,468.9453,584.5,472.9453,580.5,468.9453" style="stroke:#B38D22;stroke-width:1.0;"/><text fill="#000000" font-family="sans-serif" font-size="14" lengthAdjust="spacing" textLength="189" x="593.5" y="473.292">log(message: string) : void</text></g><!--class LoggerJournalier--><g id="elem_LoggerJournalier"><rect codeLine="7" fill="#F1F1F1" height="129.4844" id="LoggerJournalier" rx="2.5" ry="2.5" style="stroke:#181818;stroke-width:0.5;" width="661" x="350.5" y="655"/><ellipse cx="618.25" cy="671" fill="#ADD1B2" rx="11" ry="11" style="stroke:#181818;stroke-width:1.0;"/><path d="M620.5938,666.6719 C619.6563,666.2344 619.0625,666.0938 618.1875,666.0938 C615.5625,666.0938 613.5625,668.1719 613.5625,670.8906 L613.5625,672.0156 C613.5625,674.5938 615.6719,676.4844 618.5625,676.4844 C619.7813,676.4844 620.9375,676.1875 621.6875,675.6406 C622.2656,675.2344 622.5938,674.7813 622.5938,674.3906 C622.5938,673.9375 622.2031,673.5469 621.7344,673.5469 C621.5156,673.5469 621.3125,673.625 621.125,673.8125 C620.6719,674.2969 620.6719,674.2969 620.4844,674.3906 C620.0625,674.6563 619.375,674.7813 618.6094,674.7813 C616.5625,674.7813 615.2656,673.6875 615.2656,671.9844 L615.2656,670.8906 C615.2656,669.1094 616.5156,667.7969 618.25,667.7969 C618.8281,667.7969 619.4375,667.9531 619.9063,668.2031 C620.3906,668.4844 620.5625,668.7031 620.6563,669.1094 C620.7188,669.5156 620.75,669.6406 620.8906,669.7656 C621.0313,669.9063 621.2656,670.0156 621.4844,670.0156 C621.75,670.0156 622.0156,669.875 622.1875,669.6563 C622.2969,669.5 622.3281,669.3125 622.3281,668.8906 L622.3281,667.4688 C622.3281,667.0313 622.3125,666.9063 622.2188,666.75 C622.0625,666.4844 621.7813,666.3438 621.4844,666.3438 C621.1875,666.3438 620.9844,666.4375 620.7656,666.75 L620.5938,666.6719 Z " fill="#000000"/><text fill="#000000" font-family="sans-serif" font-size="14" lengthAdjust="spacing" textLength="117" x="638.75" y="675.8467">LoggerJournalier</text><line style="stroke:#181818;stroke-width:0.5;" x1="351.5" x2="1010.5" y1="687" y2="687"/><rect fill="none" height="6" style="stroke:#C82930;stroke-width:1.0;" width="6" x="358.5" y="697.6484"/><text fill="#000000" font-family="sans-serif" font-size="14" lengthAdjust="spacing" textLength="179" x="370.5" y="703.9951">_logFileJSON : FileStream</text><rect fill="none" height="6" style="stroke:#C82930;stroke-width:1.0;" width="6" x="358.5" y="713.9453"/><text fill="#000000" font-family="sans-serif" font-size="14" lengthAdjust="spacing" textLength="175" x="370.5" y="720.292">_logFileXML : FileStream</text><line style="stroke:#181818;stroke-width:0.5;" x1="351.5" x2="1010.5" y1="727.5938" y2="727.5938"/><ellipse cx="361.5" cy="741.2422" fill="#84BE84" rx="3" ry="3" style="stroke:#038048;stroke-width:1.0;"/><text fill="#000000" font-family="sans-serif" font-size="14" lengthAdjust="spacing" textLength="127" x="370.5" y="744.5889">LoggerJournalier()</text><rect fill="#F24D5C" height="6" style="stroke:#C82930;stroke-width:1.0;" width="6" x="358.5" y="754.5391"/><text fill="#000000" font-family="sans-serif" font-size="14" lengthAdjust="spacing" textLength="117" x="370.5" y="760.8857">OpenFile() : void</text><ellipse cx="361.5" cy="773.8359" fill="#84BE84" rx="3" ry="3" style="stroke:#038048;stroke-width:1.0;"/><text fill="#000000" font-family="sans-serif" font-size="14" lengthAdjust="spacing" textLength="635" x="370.5" y="777.1826">Log(save_name: string, source: string, target: string, size: int, transfer_time: float) : void</text></g><!--class LoggerEtat--><g id="elem_LoggerEtat"><rect codeLine="17" fill="#F1F1F1" height="129.4844" id="LoggerEtat" rx="2.5" ry="2.5" style="stroke:#181818;stroke-width:0.5;" width="308" x="1047" y="655"/><ellipse cx="1156.25" cy="671" fill="#ADD1B2" rx="11" ry="11" style="stroke:#181818;stroke-width:1.0;"/><path d="M1158.5938,666.6719 C1157.6563,666.2344 1157.0625,666.0938 1156.1875,666.0938 C1153.5625,666.0938 1151.5625,668.1719 1151.5625,670.8906 L1151.5625,672.0156 C1151.5625,674.5938 1153.6719,676.4844 1156.5625,676.4844 C1157.7813,676.4844 1158.9375,676.1875 1159.6875,675.6406 C1160.2656,675.2344 1160.5938,674.7813 1160.5938,674.3906 C1160.5938,673.9375 1160.2031,673.5469 1159.7344,673.5469 C1159.5156,673.5469 1159.3125,673.625 1159.125,673.8125 C1158.6719,674.2969 1158.6719,674.2969 1158.4844,674.3906 C1158.0625,674.6563 1157.375,674.7813 1156.6094,674.7813 C1154.5625,674.7813 1153.2656,673.6875 1153.2656,671.9844 L1153.2656,670.8906 C1153.2656,669.1094 1154.5156,667.7969 1156.25,667.7969 C1156.8281,667.7969 1157.4375,667.9531 1157.9063,668.2031 C1158.3906,668.4844 1158.5625,668.7031 1158.6563,669.1094 C1158.7188,669.5156 1158.75,669.6406 1158.8906,669.7656 C1159.0313,669.9063 1159.2656,670.0156 1159.4844,670.0156 C1159.75,670.0156 1160.0156,669.875 1160.1875,669.6563 C1160.2969,669.5 1160.3281,669.3125 1160.3281,668.8906 L1160.3281,667.4688 C1160.3281,667.0313 1160.3125,666.9063 1160.2188,666.75 C1160.0625,666.4844 1159.7813,666.3438 1159.4844,666.3438 C1159.1875,666.3438 1158.9844,666.4375 1158.7656,666.75 L1158.5938,666.6719 Z " fill="#000000"/><text fill="#000000" font-family="sans-serif" font-size="14" lengthAdjust="spacing" textLength="81" x="1176.75" y="675.8467">LoggerEtat</text><line style="stroke:#181818;stroke-width:0.5;" x1="1048" x2="1354" y1="687" y2="687"/><rect fill="none" height="6" style="stroke:#C82930;stroke-width:1.0;" width="6" x="1055" y="697.6484"/><text fill="#000000" font-family="sans-serif" font-size="14" lengthAdjust="spacing" textLength="282" x="1067" y="703.9951">_saveConfiguration : SaveConfiguration</text><line style="stroke:#181818;stroke-width:0.5;" x1="1048" x2="1354" y1="711.2969" y2="711.2969"/><ellipse cx="1058" cy="724.9453" fill="#84BE84" rx="3" ry="3" style="stroke:#038048;stroke-width:1.0;"/><text fill="#000000" font-family="sans-serif" font-size="14" lengthAdjust="spacing" textLength="91" x="1067" y="728.292">LoggerEtat()</text><rect fill="#F24D5C" height="6" style="stroke:#C82930;stroke-width:1.0;" width="6" x="1055" y="738.2422"/><text fill="#000000" font-family="sans-serif" font-size="14" lengthAdjust="spacing" textLength="134" x="1067" y="744.5889">ReopenFile() : void</text><ellipse cx="1058" cy="757.5391" fill="#84BE84" rx="3" ry="3" style="stroke:#038048;stroke-width:1.0;"/><text fill="#000000" font-family="sans-serif" font-size="14" lengthAdjust="spacing" textLength="190" x="1067" y="760.8857">AddSave(save: Save) : void</text><ellipse cx="1058" cy="773.8359" fill="#84BE84" rx="3" ry="3" style="stroke:#038048;stroke-width:1.0;"/><text fill="#000000" font-family="sans-serif" font-size="14" lengthAdjust="spacing" textLength="183" x="1067" y="777.1826">WriteStatesToFile() : void</text></g><!--class Save--><g id="elem_Save"><rect codeLine="77" fill="#F1F1F1" height="227.2656" id="Save" rx="2.5" ry="2.5" style="stroke:#181818;stroke-width:0.5;" width="668" x="1173" y="885"/><ellipse cx="1485.75" cy="901" fill="#ADD1B2" rx="11" ry="11" style="stroke:#181818;stroke-width:1.0;"/><path d="M1488.0938,896.6719 C1487.1563,896.2344 1486.5625,896.0938 1485.6875,896.0938 C1483.0625,896.0938 1481.0625,898.1719 1481.0625,900.8906 L1481.0625,902.0156 C1481.0625,904.5938 1483.1719,906.4844 1486.0625,906.4844 C1487.2813,906.4844 1488.4375,906.1875 1489.1875,905.6406 C1489.7656,905.2344 1490.0938,904.7813 1490.0938,904.3906 C1490.0938,903.9375 1489.7031,903.5469 1489.2344,903.5469 C1489.0156,903.5469 1488.8125,903.625 1488.625,903.8125 C1488.1719,904.2969 1488.1719,904.2969 1487.9844,904.3906 C1487.5625,904.6563 1486.875,904.7813 1486.1094,904.7813 C1484.0625,904.7813 1482.7656,903.6875 1482.7656,901.9844 L1482.7656,900.8906 C1482.7656,899.1094 1484.0156,897.7969 1485.75,897.7969 C1486.3281,897.7969 1486.9375,897.9531 1487.4063,898.2031 C1487.8906,898.4844 1488.0625,898.7031 1488.1563,899.1094 C1488.2188,899.5156 1488.25,899.6406 1488.3906,899.7656 C1488.5313,899.9063 1488.7656,900.0156 1488.9844,900.0156 C1489.25,900.0156 1489.5156,899.875 1489.6875,899.6563 C1489.7969,899.5 1489.8281,899.3125 1489.8281,898.8906 L1489.8281,897.4688 C1489.8281,897.0313 1489.8125,896.9063 1489.7188,896.75 C1489.5625,896.4844 1489.2813,896.3438 1488.9844,896.3438 C1488.6875,896.3438 1488.4844,896.4375 1488.2656,896.75 L1488.0938,896.6719 Z " fill="#000000"/><text fill="#000000" font-family="sans-serif" font-size="14" lengthAdjust="spacing" textLength="34" x="1506.25" y="905.8467">Save</text><line style="stroke:#181818;stroke-width:0.5;" x1="1174" x2="1840" y1="917" y2="917"/><rect fill="none" height="6" style="stroke:#C82930;stroke-width:1.0;" width="6" x="1181" y="927.6484"/><text fill="#000000" font-family="sans-serif" font-size="14" lengthAdjust="spacing" text-decoration="underline" textLength="135" x="1193" y="933.9951">_idCounter: int = 0</text><ellipse cx="1184" cy="946.9453" fill="none" rx="3" ry="3" style="stroke:#038048;stroke-width:1.0;"/><text fill="#000000" font-family="sans-serif" font-size="14" lengthAdjust="spacing" textLength="42" x="1193" y="950.292">Id: int</text><ellipse cx="1184" cy="963.2422" fill="none" rx="3" ry="3" style="stroke:#038048;stroke-width:1.0;"/><text fill="#000000" font-family="sans-serif" font-size="14" lengthAdjust="spacing" textLength="92" x="1193" y="966.5889">Name: string</text><ellipse cx="1184" cy="979.5391" fill="none" rx="3" ry="3" style="stroke:#038048;stroke-width:1.0;"/><text fill="#000000" font-family="sans-serif" font-size="14" lengthAdjust="spacing" textLength="134" x="1193" y="982.8857">InputFolder: string</text><ellipse cx="1184" cy="995.8359" fill="none" rx="3" ry="3" style="stroke:#038048;stroke-width:1.0;"/><text fill="#000000" font-family="sans-serif" font-size="14" lengthAdjust="spacing" textLength="147" x="1193" y="999.1826">OutputFolder: string</text><ellipse cx="1184" cy="1012.1328" fill="none" rx="3" ry="3" style="stroke:#038048;stroke-width:1.0;"/><text fill="#000000" font-family="sans-serif" font-size="14" lengthAdjust="spacing" textLength="149" x="1193" y="1015.4795">SaveType: SaveType</text><ellipse cx="1184" cy="1028.4297" fill="none" rx="3" ry="3" style="stroke:#038048;stroke-width:1.0;"/><text fill="#000000" font-family="sans-serif" font-size="14" lengthAdjust="spacing" textLength="153" x="1193" y="1031.7764">TotalFilesToCopy: int</text><ellipse cx="1184" cy="1044.7266" fill="none" rx="3" ry="3" style="stroke:#038048;stroke-width:1.0;"/><text fill="#000000" font-family="sans-serif" font-size="14" lengthAdjust="spacing" textLength="128" x="1193" y="1048.0732">TotalFilesSize: int</text><ellipse cx="1184" cy="1061.0234" fill="none" rx="3" ry="3" style="stroke:#038048;stroke-width:1.0;"/><text fill="#000000" font-family="sans-serif" font-size="14" lengthAdjust="spacing" textLength="145" x="1193" y="1064.3701">NbFilesleftToDo: int</text><ellipse cx="1184" cy="1077.3203" fill="none" rx="3" ry="3" style="stroke:#038048;stroke-width:1.0;"/><text fill="#000000" font-family="sans-serif" font-size="14" lengthAdjust="spacing" textLength="123" x="1193" y="1080.667">State: SaveState</text><line style="stroke:#181818;stroke-width:0.5;" x1="1174" x2="1840" y1="1087.9688" y2="1087.9688"/><ellipse cx="1184" cy="1101.6172" fill="#84BE84" rx="3" ry="3" style="stroke:#038048;stroke-width:1.0;"/><text fill="#000000" font-family="sans-serif" font-size="14" lengthAdjust="spacing" textLength="642" x="1193" y="1104.9639">Save(id: int?, name: string, inputFolder: string, outputFolder: string, saveType: SaveType)</text></g><!--class LoggerConfiguration--><g id="elem_LoggerConfiguration"><rect codeLine="26" fill="#F1F1F1" height="113.1875" id="LoggerConfiguration" rx="2.5" ry="2.5" style="stroke:#181818;stroke-width:0.5;" width="308" x="7" y="663"/><ellipse cx="82.75" cy="679" fill="#ADD1B2" rx="11" ry="11" style="stroke:#181818;stroke-width:1.0;"/><path d="M85.0938,674.6719 C84.1563,674.2344 83.5625,674.0938 82.6875,674.0938 C80.0625,674.0938 78.0625,676.1719 78.0625,678.8906 L78.0625,680.0156 C78.0625,682.5938 80.1719,684.4844 83.0625,684.4844 C84.2813,684.4844 85.4375,684.1875 86.1875,683.6406 C86.7656,683.2344 87.0938,682.7813 87.0938,682.3906 C87.0938,681.9375 86.7031,681.5469 86.2344,681.5469 C86.0156,681.5469 85.8125,681.625 85.625,681.8125 C85.1719,682.2969 85.1719,682.2969 84.9844,682.3906 C84.5625,682.6563 83.875,682.7813 83.1094,682.7813 C81.0625,682.7813 79.7656,681.6875 79.7656,679.9844 L79.7656,678.8906 C79.7656,677.1094 81.0156,675.7969 82.75,675.7969 C83.3281,675.7969 83.9375,675.9531 84.4063,676.2031 C84.8906,676.4844 85.0625,676.7031 85.1563,677.1094 C85.2188,677.5156 85.25,677.6406 85.3906,677.7656 C85.5313,677.9063 85.7656,678.0156 85.9844,678.0156 C86.25,678.0156 86.5156,677.875 86.6875,677.6563 C86.7969,677.5 86.8281,677.3125 86.8281,676.8906 L86.8281,675.4688 C86.8281,675.0313 86.8125,674.9063 86.7188,674.75 C86.5625,674.4844 86.2813,674.3438 85.9844,674.3438 C85.6875,674.3438 85.4844,674.4375 85.2656,674.75 L85.0938,674.6719 Z " fill="#000000"/><text fill="#000000" font-family="sans-serif" font-size="14" lengthAdjust="spacing" textLength="148" x="103.25" y="683.8467">LoggerConfiguration</text><line style="stroke:#181818;stroke-width:0.5;" x1="8" x2="314" y1="695" y2="695"/><rect fill="none" height="6" style="stroke:#C82930;stroke-width:1.0;" width="6" x="15" y="705.6484"/><text fill="#000000" font-family="sans-serif" font-size="14" lengthAdjust="spacing" textLength="282" x="27" y="711.9951">_saveConfiguration : SaveConfiguration</text><line style="stroke:#181818;stroke-width:0.5;" x1="8" x2="314" y1="719.2969" y2="719.2969"/><ellipse cx="18" cy="732.9453" fill="#84BE84" rx="3" ry="3" style="stroke:#038048;stroke-width:1.0;"/><text fill="#000000" font-family="sans-serif" font-size="14" lengthAdjust="spacing" textLength="158" x="27" y="736.292">LoggerConfiguration()</text><rect fill="#F24D5C" height="6" style="stroke:#C82930;stroke-width:1.0;" width="6" x="15" y="746.2422"/><text fill="#000000" font-family="sans-serif" font-size="14" lengthAdjust="spacing" textLength="134" x="27" y="752.5889">ReopenFile() : void</text><ellipse cx="18" cy="765.5391" fill="#84BE84" rx="3" ry="3" style="stroke:#038048;stroke-width:1.0;"/><text fill="#000000" font-family="sans-serif" font-size="14" lengthAdjust="spacing" textLength="183" x="27" y="768.8857">WriteConfigToFile() : void</text></g><!--class EasySave--><g id="elem_EasySave"><rect codeLine="36" fill="#F1F1F1" height="227.2656" id="EasySave" rx="2.5" ry="2.5" style="stroke:#181818;stroke-width:0.5;" width="512" x="1021" y="327"/><ellipse cx="1239.75" cy="343" fill="#ADD1B2" rx="11" ry="11" style="stroke:#181818;stroke-width:1.0;"/><path d="M1242.0938,338.6719 C1241.1563,338.2344 1240.5625,338.0938 1239.6875,338.0938 C1237.0625,338.0938 1235.0625,340.1719 1235.0625,342.8906 L1235.0625,344.0156 C1235.0625,346.5938 1237.1719,348.4844 1240.0625,348.4844 C1241.2813,348.4844 1242.4375,348.1875 1243.1875,347.6406 C1243.7656,347.2344 1244.0938,346.7813 1244.0938,346.3906 C1244.0938,345.9375 1243.7031,345.5469 1243.2344,345.5469 C1243.0156,345.5469 1242.8125,345.625 1242.625,345.8125 C1242.1719,346.2969 1242.1719,346.2969 1241.9844,346.3906 C1241.5625,346.6563 1240.875,346.7813 1240.1094,346.7813 C1238.0625,346.7813 1236.7656,345.6875 1236.7656,343.9844 L1236.7656,342.8906 C1236.7656,341.1094 1238.0156,339.7969 1239.75,339.7969 C1240.3281,339.7969 1240.9375,339.9531 1241.4063,340.2031 C1241.8906,340.4844 1242.0625,340.7031 1242.1563,341.1094 C1242.2188,341.5156 1242.25,341.6406 1242.3906,341.7656 C1242.5313,341.9063 1242.7656,342.0156 1242.9844,342.0156 C1243.25,342.0156 1243.5156,341.875 1243.6875,341.6563 C1243.7969,341.5 1243.8281,341.3125 1243.8281,340.8906 L1243.8281,339.4688 C1243.8281,339.0313 1243.8125,338.9063 1243.7188,338.75 C1243.5625,338.4844 1243.2813,338.3438 1242.9844,338.3438 C1242.6875,338.3438 1242.4844,338.4375 1242.2656,338.75 L1242.0938,338.6719 Z " fill="#000000"/><text fill="#000000" font-family="sans-serif" font-size="14" lengthAdjust="spacing" textLength="66" x="1260.25" y="347.8467">EasySave</text><line style="stroke:#181818;stroke-width:0.5;" x1="1022" x2="1532" y1="359" y2="359"/><rect fill="none" height="6" style="stroke:#C82930;stroke-width:1.0;" width="6" x="1029" y="369.6484"/><text fill="#000000" font-family="sans-serif" font-size="14" lengthAdjust="spacing" textLength="278" x="1041" y="375.9951">_saveConfiguration: SaveConfiguration</text><rect fill="none" height="6" style="stroke:#C82930;stroke-width:1.0;" width="6" x="1029" y="385.9453"/><text fill="#000000" font-family="sans-serif" font-size="14" lengthAdjust="spacing" textLength="250" x="1041" y="392.292">_loggerJournalier : LoggerJournalier</text><rect fill="none" height="6" style="stroke:#C82930;stroke-width:1.0;" width="6" x="1029" y="402.2422"/><text fill="#000000" font-family="sans-serif" font-size="14" lengthAdjust="spacing" textLength="178" x="1041" y="408.5889">_loggerEtat : LoggerEtat</text><line style="stroke:#181818;stroke-width:0.5;" x1="1022" x2="1532" y1="415.8906" y2="415.8906"/><ellipse cx="1032" cy="429.5391" fill="#84BE84" rx="3" ry="3" style="stroke:#038048;stroke-width:1.0;"/><text fill="#000000" font-family="sans-serif" font-size="14" lengthAdjust="spacing" textLength="76" x="1041" y="432.8857">EasySave()</text><ellipse cx="1032" cy="445.8359" fill="#84BE84" rx="3" ry="3" style="stroke:#038048;stroke-width:1.0;"/><text fill="#000000" font-family="sans-serif" font-size="14" lengthAdjust="spacing" textLength="305" x="1041" y="449.1826">LancerSauvegarde(listeId: List&lt;int&gt;) : void</text><rect fill="#F24D5C" height="6" style="stroke:#C82930;stroke-width:1.0;" width="6" x="1029" y="459.1328"/><text fill="#000000" font-family="sans-serif" font-size="14" lengthAdjust="spacing" textLength="447" x="1041" y="465.4795">CopyFile(save: Save, sourceFile: string, targetDir: string) : void</text><rect fill="#F24D5C" height="6" style="stroke:#C82930;stroke-width:1.0;" width="6" x="1029" y="475.4297"/><text fill="#000000" font-family="sans-serif" font-size="14" lengthAdjust="spacing" textLength="486" x="1041" y="481.7764">CopyDirectory(save: Save, sourceDir: string, targetDir: string) : void</text><ellipse cx="1032" cy="494.7266" fill="#84BE84" rx="3" ry="3" style="stroke:#038048;stroke-width:1.0;"/><text fill="#000000" font-family="sans-serif" font-size="14" lengthAdjust="spacing" textLength="351" x="1041" y="498.0732">EffectuerSauvegardeComplete(save: Save) : void</text><ellipse cx="1032" cy="511.0234" fill="#84BE84" rx="3" ry="3" style="stroke:#038048;stroke-width:1.0;"/><text fill="#000000" font-family="sans-serif" font-size="14" lengthAdjust="spacing" textLength="376" x="1041" y="514.3701">EffectuerSauvegardeDifferentielle(save: Save) : void</text><ellipse cx="1032" cy="527.3203" fill="#84BE84" rx="3" ry="3" style="stroke:#038048;stroke-width:1.0;"/><text fill="#000000" font-family="sans-serif" font-size="14" lengthAdjust="spacing" text-decoration="underline" textLength="339" x="1041" y="530.667">IsSameContent(file1: string, file2: string) : bool</text><rect fill="#F24D5C" height="6" style="stroke:#C82930;stroke-width:1.0;" width="6" x="1029" y="540.6172"/><text fill="#000000" font-family="sans-serif" font-size="14" lengthAdjust="spacing" textLength="383" x="1041" y="546.9639">UpdateStateSave(save: Save, state: SaveState) : void</text></g><!--class SaveConfiguration--><g id="elem_SaveConfiguration"><rect codeLine="51" fill="#F1F1F1" height="210.9688" id="SaveConfiguration" rx="2.5" ry="2.5" style="stroke:#181818;stroke-width:0.5;" width="848" x="1390" y="614"/><ellipse cx="1743.75" cy="630" fill="#ADD1B2" rx="11" ry="11" style="stroke:#181818;stroke-width:1.0;"/><path d="M1746.0938,625.6719 C1745.1563,625.2344 1744.5625,625.0938 1743.6875,625.0938 C1741.0625,625.0938 1739.0625,627.1719 1739.0625,629.8906 L1739.0625,631.0156 C1739.0625,633.5938 1741.1719,635.4844 1744.0625,635.4844 C1745.2813,635.4844 1746.4375,635.1875 1747.1875,634.6406 C1747.7656,634.2344 1748.0938,633.7813 1748.0938,633.3906 C1748.0938,632.9375 1747.7031,632.5469 1747.2344,632.5469 C1747.0156,632.5469 1746.8125,632.625 1746.625,632.8125 C1746.1719,633.2969 1746.1719,633.2969 1745.9844,633.3906 C1745.5625,633.6563 1744.875,633.7813 1744.1094,633.7813 C1742.0625,633.7813 1740.7656,632.6875 1740.7656,630.9844 L1740.7656,629.8906 C1740.7656,628.1094 1742.0156,626.7969 1743.75,626.7969 C1744.3281,626.7969 1744.9375,626.9531 1745.4063,627.2031 C1745.8906,627.4844 1746.0625,627.7031 1746.1563,628.1094 C1746.2188,628.5156 1746.25,628.6406 1746.3906,628.7656 C1746.5313,628.9063 1746.7656,629.0156 1746.9844,629.0156 C1747.25,629.0156 1747.5156,628.875 1747.6875,628.6563 C1747.7969,628.5 1747.8281,628.3125 1747.8281,627.8906 L1747.8281,626.4688 C1747.8281,626.0313 1747.8125,625.9063 1747.7188,625.75 C1747.5625,625.4844 1747.2813,625.3438 1746.9844,625.3438 C1746.6875,625.3438 1746.4844,625.4375 1746.2656,625.75 L1746.0938,625.6719 Z " fill="#000000"/><text fill="#000000" font-family="sans-serif" font-size="14" lengthAdjust="spacing" textLength="132" x="1764.25" y="634.8467">SaveConfiguration</text><line style="stroke:#181818;stroke-width:0.5;" x1="1391" x2="2237" y1="646" y2="646"/><rect fill="none" height="6" style="stroke:#C82930;stroke-width:1.0;" width="6" x="1398" y="656.6484"/><text fill="#000000" font-family="sans-serif" font-size="14" lengthAdjust="spacing" text-decoration="underline" textLength="209" x="1410" y="662.9951">_instance: SaveConfiguration</text><rect fill="none" height="6" style="stroke:#C82930;stroke-width:1.0;" width="6" x="1398" y="672.9453"/><text fill="#000000" font-family="sans-serif" font-size="14" lengthAdjust="spacing" textLength="224" x="1410" y="679.292">ListeConfiguration: List&lt;Save&gt;</text><line style="stroke:#181818;stroke-width:0.5;" x1="1391" x2="2237" y1="686.5938" y2="686.5938"/><ellipse cx="1401" cy="700.2422" fill="#84BE84" rx="3" ry="3" style="stroke:#038048;stroke-width:1.0;"/><text fill="#000000" font-family="sans-serif" font-size="14" lengthAdjust="spacing" text-decoration="underline" textLength="243" x="1410" y="703.5889">GetInstance() : SaveConfiguration</text><rect fill="#F24D5C" height="6" style="stroke:#C82930;stroke-width:1.0;" width="6" x="1398" y="713.5391"/><text fill="#000000" font-family="sans-serif" font-size="14" lengthAdjust="spacing" text-decoration="underline" textLength="237" x="1410" y="719.8857">GetConfigurations() : List&lt;Save&gt;</text><ellipse cx="1401" cy="732.8359" fill="#84BE84" rx="3" ry="3" style="stroke:#038048;stroke-width:1.0;"/><text fill="#000000" font-family="sans-serif" font-size="14" lengthAdjust="spacing" textLength="230" x="1410" y="736.1826">GetConfiguration() : List&lt;Save&gt;</text><ellipse cx="1401" cy="749.1328" fill="#84BE84" rx="3" ry="3" style="stroke:#038048;stroke-width:1.0;"/><text fill="#000000" font-family="sans-serif" font-size="14" lengthAdjust="spacing" textLength="224" x="1410" y="752.4795">GetConfiguration(id: int) : Save</text><ellipse cx="1401" cy="765.4297" fill="#84BE84" rx="3" ry="3" style="stroke:#038048;stroke-width:1.0;"/><text fill="#000000" font-family="sans-serif" font-size="14" lengthAdjust="spacing" textLength="273" x="1410" y="768.7764">GetConfiguration(name: string) : Save</text><ellipse cx="1401" cy="781.7266" fill="#84BE84" rx="3" ry="3" style="stroke:#038048;stroke-width:1.0;"/><text fill="#000000" font-family="sans-serif" font-size="14" lengthAdjust="spacing" textLength="720" x="1410" y="785.0732">AddConfiguration(name: string, inputFolder: string, outputFolder: string, saveType: SaveType) : void</text><ellipse cx="1401" cy="798.0234" fill="#84BE84" rx="3" ry="3" style="stroke:#038048;stroke-width:1.0;"/><text fill="#000000" font-family="sans-serif" font-size="14" lengthAdjust="spacing" textLength="254" x="1410" y="801.3701">RemoveConfiguration(id: int) : bool</text><ellipse cx="1401" cy="814.3203" fill="#84BE84" rx="3" ry="3" style="stroke:#038048;stroke-width:1.0;"/><text fill="#000000" font-family="sans-serif" font-size="14" lengthAdjust="spacing" textLength="822" x="1410" y="817.667">UpdateConfiguration(id: int, name: string?, inputFolder: string?, outputFolder: string?, saveType: SaveType?) : void</text></g><!--class SaveType--><g id="elem_SaveType"><rect codeLine="64" fill="#F1F1F1" height="80.5938" id="SaveType" rx="2.5" ry="2.5" style="stroke:#181818;stroke-width:0.5;" width="112" x="1377" y="1180"/><ellipse cx="1396.5" cy="1196" fill="#EB937F" rx="11" ry="11" style="stroke:#181818;stroke-width:1.0;"/><path d="M1395.2969,1196.875 L1396.75,1196.875 L1396.75,1196.9844 C1396.75,1197.3906 1396.7813,1197.5469 1396.8594,1197.7031 C1397.0156,1197.9531 1397.2969,1198.1094 1397.5938,1198.1094 C1397.8438,1198.1094 1398.1094,1197.9688 1398.2656,1197.75 C1398.3906,1197.5938 1398.4219,1197.4375 1398.4219,1196.9844 L1398.4219,1195.0625 C1398.4219,1194.9063 1398.4219,1194.8594 1398.4063,1194.7031 C1398.3438,1194.2344 1398.0313,1193.9219 1397.5781,1193.9219 C1397.3281,1193.9219 1397.0625,1194.0625 1396.8906,1194.2813 C1396.7813,1194.4531 1396.75,1194.6094 1396.75,1195.0625 L1396.75,1195.1875 L1395.2969,1195.1875 L1395.2969,1192.7813 L1399.2813,1192.7813 L1399.2813,1193.6406 C1399.2813,1194.0469 1399.3125,1194.2188 1399.3906,1194.375 C1399.5625,1194.625 1399.8438,1194.7813 1400.125,1194.7813 C1400.3906,1194.7813 1400.6563,1194.6406 1400.8281,1194.4219 C1400.9375,1194.25 1400.9688,1194.1094 1400.9688,1193.6406 L1400.9688,1191.0938 L1393.3438,1191.0938 C1392.9063,1191.0938 1392.7813,1191.1094 1392.625,1191.2031 C1392.375,1191.3594 1392.2188,1191.6563 1392.2188,1191.9375 C1392.2188,1192.2188 1392.3594,1192.4688 1392.5781,1192.6406 C1392.7344,1192.75 1392.9219,1192.7813 1393.3438,1192.7813 L1393.5938,1192.7813 L1393.5938,1199.2969 L1393.3438,1199.2969 C1392.9375,1199.2969 1392.7813,1199.3125 1392.625,1199.4219 C1392.375,1199.5938 1392.2188,1199.8594 1392.2188,1200.1563 C1392.2188,1200.4219 1392.3594,1200.6719 1392.5781,1200.8281 C1392.7188,1200.9531 1392.9531,1201 1393.3438,1201 L1401.3438,1201 L1401.3438,1198.4219 C1401.3438,1197.9844 1401.3125,1197.8438 1401.2344,1197.6875 C1401.0625,1197.4375 1400.7813,1197.2813 1400.5,1197.2813 C1400.2344,1197.2813 1399.9688,1197.3906 1399.7969,1197.6406 C1399.6875,1197.7969 1399.6563,1197.9375 1399.6563,1198.4219 L1399.6563,1199.2969 L1395.2969,1199.2969 L1395.2969,1196.875 Z " fill="#000000"/><text fill="#000000" font-family="sans-serif" font-size="14" lengthAdjust="spacing" textLength="70" x="1411.5" y="1200.8467">SaveType</text><line style="stroke:#181818;stroke-width:0.5;" x1="1378" x2="1488" y1="1212" y2="1212"/><text fill="#000000" font-family="sans-serif" font-size="14" lengthAdjust="spacing" textLength="77" x="1383" y="1228.9951">COMPLETE</text><text fill="#000000" font-family="sans-serif" font-size="14" lengthAdjust="spacing" textLength="100" x="1383" y="1245.292">DIFFERENTIAL</text><line style="stroke:#181818;stroke-width:0.5;" x1="1378" x2="1488" y1="1252.5938" y2="1252.5938"/></g><!--class SaveState--><g id="elem_SaveState"><rect codeLine="69" fill="#F1F1F1" height="96.8906" id="SaveState" rx="2.5" ry="2.5" style="stroke:#181818;stroke-width:0.5;" width="116" x="1524" y="1172"/><ellipse cx="1543.5" cy="1188" fill="#EB937F" rx="11" ry="11" style="stroke:#181818;stroke-width:1.0;"/><path d="M1542.2969,1188.875 L1543.75,1188.875 L1543.75,1188.9844 C1543.75,1189.3906 1543.7813,1189.5469 1543.8594,1189.7031 C1544.0156,1189.9531 1544.2969,1190.1094 1544.5938,1190.1094 C1544.8438,1190.1094 1545.1094,1189.9688 1545.2656,1189.75 C1545.3906,1189.5938 1545.4219,1189.4375 1545.4219,1188.9844 L1545.4219,1187.0625 C1545.4219,1186.9063 1545.4219,1186.8594 1545.4063,1186.7031 C1545.3438,1186.2344 1545.0313,1185.9219 1544.5781,1185.9219 C1544.3281,1185.9219 1544.0625,1186.0625 1543.8906,1186.2813 C1543.7813,1186.4531 1543.75,1186.6094 1543.75,1187.0625 L1543.75,1187.1875 L1542.2969,1187.1875 L1542.2969,1184.7813 L1546.2813,1184.7813 L1546.2813,1185.6406 C1546.2813,1186.0469 1546.3125,1186.2188 1546.3906,1186.375 C1546.5625,1186.625 1546.8438,1186.7813 1547.125,1186.7813 C1547.3906,1186.7813 1547.6563,1186.6406 1547.8281,1186.4219 C1547.9375,1186.25 1547.9688,1186.1094 1547.9688,1185.6406 L1547.9688,1183.0938 L1540.3438,1183.0938 C1539.9063,1183.0938 1539.7813,1183.1094 1539.625,1183.2031 C1539.375,1183.3594 1539.2188,1183.6563 1539.2188,1183.9375 C1539.2188,1184.2188 1539.3594,1184.4688 1539.5781,1184.6406 C1539.7344,1184.75 1539.9219,1184.7813 1540.3438,1184.7813 L1540.5938,1184.7813 L1540.5938,1191.2969 L1540.3438,1191.2969 C1539.9375,1191.2969 1539.7813,1191.3125 1539.625,1191.4219 C1539.375,1191.5938 1539.2188,1191.8594 1539.2188,1192.1563 C1539.2188,1192.4219 1539.3594,1192.6719 1539.5781,1192.8281 C1539.7188,1192.9531 1539.9531,1193 1540.3438,1193 L1548.3438,1193 L1548.3438,1190.4219 C1548.3438,1189.9844 1548.3125,1189.8438 1548.2344,1189.6875 C1548.0625,1189.4375 1547.7813,1189.2813 1547.5,1189.2813 C1547.2344,1189.2813 1546.9688,1189.3906 1546.7969,1189.6406 C1546.6875,1189.7969 1546.6563,1189.9375 1546.6563,1190.4219 L1546.6563,1191.2969 L1542.2969,1191.2969 L1542.2969,1188.875 Z " fill="#000000"/><text fill="#000000" font-family="sans-serif" font-size="14" lengthAdjust="spacing" textLength="74" x="1558.5" y="1192.8467">SaveState</text><line style="stroke:#181818;stroke-width:0.5;" x1="1525" x2="1639" y1="1204" y2="1204"/><text fill="#000000" font-family="sans-serif" font-size="14" lengthAdjust="spacing" textLength="104" x="1530" y="1220.9951">NOT_STARTED</text><text fill="#000000" font-family="sans-serif" font-size="14" lengthAdjust="spacing" textLength="99" x="1530" y="1237.292">IN_PROGRESS</text><text fill="#000000" font-family="sans-serif" font-size="14" lengthAdjust="spacing" textLength="65" x="1530" y="1253.5889">FINISHED</text><line style="stroke:#181818;stroke-width:0.5;" x1="1525" x2="1639" y1="1260.8906" y2="1260.8906"/></g><!--class SharedLocalizer--><g id="elem_SharedLocalizer"><rect codeLine="92" fill="#F1F1F1" height="96.8906" id="SharedLocalizer" rx="2.5" ry="2.5" style="stroke:#181818;stroke-width:0.5;" width="306" x="1791" y="392"/><ellipse cx="1882.75" cy="408" fill="#ADD1B2" rx="11" ry="11" style="stroke:#181818;stroke-width:1.0;"/><path d="M1885.0938,403.6719 C1884.1563,403.2344 1883.5625,403.0938 1882.6875,403.0938 C1880.0625,403.0938 1878.0625,405.1719 1878.0625,407.8906 L1878.0625,409.0156 C1878.0625,411.5938 1880.1719,413.4844 1883.0625,413.4844 C1884.2813,413.4844 1885.4375,413.1875 1886.1875,412.6406 C1886.7656,412.2344 1887.0938,411.7813 1887.0938,411.3906 C1887.0938,410.9375 1886.7031,410.5469 1886.2344,410.5469 C1886.0156,410.5469 1885.8125,410.625 1885.625,410.8125 C1885.1719,411.2969 1885.1719,411.2969 1884.9844,411.3906 C1884.5625,411.6563 1883.875,411.7813 1883.1094,411.7813 C1881.0625,411.7813 1879.7656,410.6875 1879.7656,408.9844 L1879.7656,407.8906 C1879.7656,406.1094 1881.0156,404.7969 1882.75,404.7969 C1883.3281,404.7969 1883.9375,404.9531 1884.4063,405.2031 C1884.8906,405.4844 1885.0625,405.7031 1885.1563,406.1094 C1885.2188,406.5156 1885.25,406.6406 1885.3906,406.7656 C1885.5313,406.9063 1885.7656,407.0156 1885.9844,407.0156 C1886.25,407.0156 1886.5156,406.875 1886.6875,406.6563 C1886.7969,406.5 1886.8281,406.3125 1886.8281,405.8906 L1886.8281,404.4688 C1886.8281,404.0313 1886.8125,403.9063 1886.7188,403.75 C1886.5625,403.4844 1886.2813,403.3438 1885.9844,403.3438 C1885.6875,403.3438 1885.4844,403.4375 1885.2656,403.75 L1885.0938,403.6719 Z " fill="#000000"/><text fill="#000000" font-family="sans-serif" font-size="14" lengthAdjust="spacing" textLength="114" x="1903.25" y="412.8467">SharedLocalizer</text><line style="stroke:#181818;stroke-width:0.5;" x1="1792" x2="2096" y1="424" y2="424"/><rect fill="none" height="6" style="stroke:#C82930;stroke-width:1.0;" width="6" x="1799" y="434.6484"/><text fill="#000000" font-family="sans-serif" font-size="14" lengthAdjust="spacing" text-decoration="underline" textLength="266" x="1811" y="440.9951">_resourceManager: ResourceManager</text><line style="stroke:#181818;stroke-width:0.5;" x1="1792" x2="2096" y1="448.2969" y2="448.2969"/><ellipse cx="1802" cy="461.9453" fill="#84BE84" rx="3" ry="3" style="stroke:#038048;stroke-width:1.0;"/><text fill="#000000" font-family="sans-serif" font-size="14" lengthAdjust="spacing" text-decoration="underline" textLength="231" x="1811" y="465.292">SetCulture(culture: string) : void</text><ellipse cx="1802" cy="478.2422" fill="#84BE84" rx="3" ry="3" style="stroke:#038048;stroke-width:1.0;"/><text fill="#000000" font-family="sans-serif" font-size="14" lengthAdjust="spacing" text-decoration="underline" textLength="280" x="1811" y="481.5889">GetLocalizedString(key: string) : string</text></g><!--class CommandInterpretor--><g id="elem_CommandInterpretor"><rect codeLine="101" fill="#F1F1F1" height="259.8594" id="CommandInterpretor" rx="2.5" ry="2.5" style="stroke:#181818;stroke-width:0.5;" width="451" x="1512.5" y="7"/><ellipse cx="1656.25" cy="23" fill="#ADD1B2" rx="11" ry="11" style="stroke:#181818;stroke-width:1.0;"/><path d="M1658.5938,18.6719 C1657.6563,18.2344 1657.0625,18.0938 1656.1875,18.0938 C1653.5625,18.0938 1651.5625,20.1719 1651.5625,22.8906 L1651.5625,24.0156 C1651.5625,26.5938 1653.6719,28.4844 1656.5625,28.4844 C1657.7813,28.4844 1658.9375,28.1875 1659.6875,27.6406 C1660.2656,27.2344 1660.5938,26.7813 1660.5938,26.3906 C1660.5938,25.9375 1660.2031,25.5469 1659.7344,25.5469 C1659.5156,25.5469 1659.3125,25.625 1659.125,25.8125 C1658.6719,26.2969 1658.6719,26.2969 1658.4844,26.3906 C1658.0625,26.6563 1657.375,26.7813 1656.6094,26.7813 C1654.5625,26.7813 1653.2656,25.6875 1653.2656,23.9844 L1653.2656,22.8906 C1653.2656,21.1094 1654.5156,19.7969 1656.25,19.7969 C1656.8281,19.7969 1657.4375,19.9531 1657.9063,20.2031 C1658.3906,20.4844 1658.5625,20.7031 1658.6563,21.1094 C1658.7188,21.5156 1658.75,21.6406 1658.8906,21.7656 C1659.0313,21.9063 1659.2656,22.0156 1659.4844,22.0156 C1659.75,22.0156 1660.0156,21.875 1660.1875,21.6563 C1660.2969,21.5 1660.3281,21.3125 1660.3281,20.8906 L1660.3281,19.4688 C1660.3281,19.0313 1660.3125,18.9063 1660.2188,18.75 C1660.0625,18.4844 1659.7813,18.3438 1659.4844,18.3438 C1659.1875,18.3438 1658.9844,18.4375 1658.7656,18.75 L1658.5938,18.6719 Z " fill="#000000"/><text fill="#000000" font-family="sans-serif" font-size="14" lengthAdjust="spacing" textLength="155" x="1676.75" y="27.8467">CommandInterpretor</text><line style="stroke:#181818;stroke-width:0.5;" x1="1513.5" x2="1962.5" y1="39" y2="39"/><line style="stroke:#181818;stroke-width:0.5;" x1="1513.5" x2="1962.5" y1="47" y2="47"/><ellipse cx="1523.5" cy="60.6484" fill="#84BE84" rx="3" ry="3" style="stroke:#038048;stroke-width:1.0;"/><text fill="#000000" font-family="sans-serif" font-size="14" lengthAdjust="spacing" text-decoration="underline" textLength="284" x="1532.5" y="63.9951">ReadCommand(command: string) : void</text><rect fill="#F24D5C" height="6" style="stroke:#C82930;stroke-width:1.0;" width="6" x="1520.5" y="73.9453"/><text fill="#000000" font-family="sans-serif" font-size="14" lengthAdjust="spacing" text-decoration="underline" textLength="189" x="1532.5" y="80.292">_regexCommand() : Regex</text><rect fill="#F24D5C" height="6" style="stroke:#C82930;stroke-width:1.0;" width="6" x="1520.5" y="90.2422"/><text fill="#000000" font-family="sans-serif" font-size="14" lengthAdjust="spacing" text-decoration="underline" textLength="136" x="1532.5" y="96.5889">_regexIds() : Regex</text><rect fill="#F24D5C" height="6" style="stroke:#C82930;stroke-width:1.0;" width="6" x="1520.5" y="106.5391"/><text fill="#000000" font-family="sans-serif" font-size="14" lengthAdjust="spacing" text-decoration="underline" textLength="161" x="1532.5" y="112.8857">_regexParam() : Regex</text><rect fill="#F24D5C" height="6" style="stroke:#C82930;stroke-width:1.0;" width="6" x="1520.5" y="122.8359"/><text fill="#000000" font-family="sans-serif" font-size="14" lengthAdjust="spacing" text-decoration="underline" textLength="425" x="1532.5" y="129.1826">ExtraireParametre(args: string) : Dictionary&lt;string, string&gt;</text><rect fill="#F24D5C" height="6" style="stroke:#C82930;stroke-width:1.0;" width="6" x="1520.5" y="139.1328"/><text fill="#000000" font-family="sans-serif" font-size="14" lengthAdjust="spacing" text-decoration="underline" textLength="261" x="1532.5" y="145.4795">ArgIdsToList(args: string) : List&lt;int&gt;</text><rect fill="#F24D5C" height="6" style="stroke:#C82930;stroke-width:1.0;" width="6" x="1520.5" y="155.4297"/><text fill="#000000" font-family="sans-serif" font-size="14" lengthAdjust="spacing" text-decoration="underline" textLength="265" x="1532.5" y="161.7764">LancerSauvegarde(args: string) : void</text><rect fill="#F24D5C" height="6" style="stroke:#C82930;stroke-width:1.0;" width="6" x="1520.5" y="171.7266"/><text fill="#000000" font-family="sans-serif" font-size="14" lengthAdjust="spacing" text-decoration="underline" textLength="184" x="1532.5" y="178.0732">ListerSauvegardes() : void</text><rect fill="#F24D5C" height="6" style="stroke:#C82930;stroke-width:1.0;" width="6" x="1520.5" y="188.0234"/><text fill="#000000" font-family="sans-serif" font-size="14" lengthAdjust="spacing" text-decoration="underline" textLength="285" x="1532.5" y="194.3701">AjouterConfiguration(args: string) : void</text><rect fill="#F24D5C" height="6" style="stroke:#C82930;stroke-width:1.0;" width="6" x="1520.5" y="204.3203"/><text fill="#000000" font-family="sans-serif" font-size="14" lengthAdjust="spacing" text-decoration="underline" textLength="291" x="1532.5" y="210.667">ModifierConfiguration(args: string) : void</text><rect fill="#F24D5C" height="6" style="stroke:#C82930;stroke-width:1.0;" width="6" x="1520.5" y="220.6172"/><text fill="#000000" font-family="sans-serif" font-size="14" lengthAdjust="spacing" text-decoration="underline" textLength="308" x="1532.5" y="226.9639">SupprimerConfiguration(args: string) : void</text><rect fill="#F24D5C" height="6" style="stroke:#C82930;stroke-width:1.0;" width="6" x="1520.5" y="236.9141"/><text fill="#000000" font-family="sans-serif" font-size="14" lengthAdjust="spacing" text-decoration="underline" textLength="245" x="1532.5" y="243.2607">ChangerLangue(args: string) : void</text><rect fill="#F24D5C" height="6" style="stroke:#C82930;stroke-width:1.0;" width="6" x="1520.5" y="253.2109"/><text fill="#000000" font-family="sans-serif" font-size="14" lengthAdjust="spacing" text-decoration="underline" textLength="143" x="1532.5" y="259.5576">AfficherAide() : void</text></g><!--reverse link Logger to LoggerJournalier--><g id="link_Logger_LoggerJournalier"><path codeLine="6" d="M681,499.187 C681,544.515 681,601.305 681,654.812 " fill="none" id="Logger-backto-LoggerJournalier" style="stroke:#181818;stroke-width:1.0;"/><polygon fill="none" points="681,481.187,675,499.187,687,499.187,681,481.187" style="stroke:#181818;stroke-width:1.0;"/></g><!--reverse link Logger to LoggerEtat--><g id="link_Logger_LoggerEtat"><path codeLine="15" d="M782.3349,488.8748 C853.4429,522.6178 940.827,565.478 1029,614 C1052.11,626.718 1076.55,641.024 1099.53,654.875 " fill="none" id="Logger-backto-LoggerEtat" style="stroke:#181818;stroke-width:1.0;"/><polygon fill="none" points="766.073,481.158,779.7627,494.2955,784.9072,483.4542,766.073,481.158" style="stroke:#181818;stroke-width:1.0;"/></g><!--reverse link LoggerEtat to Save--><g id="link_LoggerEtat_Save"><path codeLine="16" d="M1280.0968,792.1017 C1313.0968,821.9707 1344.55,850.442 1382.47,884.776 " fill="none" id="LoggerEtat-backto-Save" style="stroke:#181818;stroke-width:1.0;"/><polygon fill="#181818" points="1271.2,784.049,1272.9642,791.041,1280.0968,792.1017,1278.3327,785.1097,1271.2,784.049" style="stroke:#181818;stroke-width:1.0;"/></g><!--reverse link Logger to LoggerConfiguration--><g id="link_Logger_LoggerConfiguration"><path codeLine="25" d="M579.6651,488.8748 C508.5571,522.6178 421.173,565.478 333,614 C305.45,629.161 276.012,646.578 249.419,662.79 " fill="none" id="Logger-backto-LoggerConfiguration" style="stroke:#181818;stroke-width:1.0;"/><polygon fill="none" points="595.927,481.158,577.0928,483.4542,582.2373,494.2955,595.927,481.158" style="stroke:#181818;stroke-width:1.0;"/></g><!--reverse link EasySave to SaveConfiguration--><g id="link_EasySave_SaveConfiguration"><path codeLine="33" d="M1506.0848,559.668 C1544.4148,579.439 1573.49,594.437 1611.37,613.976 " fill="none" id="EasySave-backto-SaveConfiguration" style="stroke:#181818;stroke-width:1.0;"/><polygon fill="#181818" points="1495.42,554.167,1498.9187,560.4725,1506.0848,559.668,1502.5861,553.3626,1495.42,554.167" style="stroke:#181818;stroke-width:1.0;"/></g><!--reverse link EasySave to LoggerJournalier--><g id="link_EasySave_LoggerJournalier"><path codeLine="34" d="M1023.698,559.2248 C949.901,593.5248 882.266,624.959 818.015,654.82 " fill="none" id="EasySave-backto-LoggerJournalier" style="stroke:#181818;stroke-width:1.0;"/><polygon fill="#181818" points="1034.58,554.167,1027.453,553.0686,1023.698,559.2248,1030.8249,560.3233,1034.58,554.167" style="stroke:#181818;stroke-width:1.0;"/></g><!--reverse link EasySave to LoggerEtat--><g id="link_EasySave_LoggerEtat"><path codeLine="35" d="M1242.9152,565.7394 C1233.5052,600.0394 1226.66,624.959 1218.47,654.82 " fill="none" id="EasySave-backto-LoggerEtat" style="stroke:#181818;stroke-width:1.0;"/><polygon fill="#181818" points="1246.09,554.167,1240.6451,558.8949,1242.9152,565.7394,1248.3601,561.0115,1246.09,554.167" style="stroke:#181818;stroke-width:1.0;"/></g><!--reverse link SaveConfiguration to Save--><g id="link_SaveConfiguration_Save"><path codeLine="50" d="M1689.0295,833.2596 C1667.4595,852.7166 1653.76,865.083 1631.94,884.768 " fill="none" id="SaveConfiguration-backto-Save" style="stroke:#181818;stroke-width:1.0;"/><polygon fill="none" points="1697.94,825.222,1690.8056,826.2706,1689.0295,833.2596,1696.164,832.211,1697.94,825.222" style="stroke:#181818;stroke-width:1.0;"/></g><!--link Save to SaveType--><g id="link_Save_SaveType"><path codeLine="75" d="M1469.13,1112.078 C1460.95,1136.393 1454.7413,1154.8526 1448.2813,1174.0758 " fill="none" id="Save-to-SaveType" style="stroke:#181818;stroke-width:1.0;"/><polygon fill="#181818" points="1446.37,1179.7632,1453.0285,1172.5062,1447.9627,1175.0237,1445.4453,1169.9578,1446.37,1179.7632" style="stroke:#181818;stroke-width:1.0;"/></g><!--link Save to SaveState--><g id="link_Save_SaveState"><path codeLine="76" d="M1545.38,1112.078 C1552.55,1133.116 1557.7428,1148.3493 1563.7828,1166.0549 " fill="none" id="Save-to-SaveState" style="stroke:#181818;stroke-width:1.0;"/><polygon fill="#181818" points="1565.72,1171.7336,1566.6,1161.9241,1564.1057,1167.0014,1559.0284,1164.5071,1565.72,1171.7336" style="stroke:#181818;stroke-width:1.0;"/></g><!--link CommandInterpretor to SharedLocalizer--><g id="link_CommandInterpretor_SharedLocalizer"><path codeLine="98" d="M1826.26,267.18 C1856.51,311.448 1885.1057,353.3006 1908.0857,386.9416 " fill="none" id="CommandInterpretor-to-SharedLocalizer" style="stroke:#181818;stroke-width:1.0;"/><polygon fill="#181818" points="1911.47,391.896,1909.6964,382.2081,1908.6497,387.7673,1903.0905,386.7206,1911.47,391.896" style="stroke:#181818;stroke-width:1.0;"/></g><!--reverse link CommandInterpretor to SaveConfiguration--><g id="link_CommandInterpretor_SaveConfiguration"><path codeLine="99" d="M1744.2129,279.0094 C1749.0529,361.4944 1757.19,458.543 1773,554 C1776.22,573.455 1780.57,593.994 1785.22,613.718 " fill="none" id="CommandInterpretor-backto-SaveConfiguration" style="stroke:#181818;stroke-width:1.0;"/><polygon fill="#181818" points="1743.51,267.03,1739.8683,273.254,1744.2129,279.0094,1747.8546,272.7854,1743.51,267.03" style="stroke:#181818;stroke-width:1.0;"/></g><!--reverse link CommandInterpretor to EasySave--><g id="link_CommandInterpretor_EasySave"><path codeLine="100" d="M1530.446,273.7464 C1500.016,293.6404 1478.85,307.485 1449.04,326.982 " fill="none" id="CommandInterpretor-backto-EasySave" style="stroke:#181818;stroke-width:1.0;"/><polygon fill="#181818" points="1540.49,267.18,1533.2792,267.1152,1530.446,273.7464,1537.6568,273.8112,1540.49,267.18" style="stroke:#181818;stroke-width:1.0;"/></g><!--SRC=[fLPBRziu43x7lq90B-ew0hPx3B8n35jkLJXsOAbeRmOZKGftPL4WgQ1ksl- -Gr8FKgAR5fj3JCryy-J78T4Z5mobmajBnBctfKM1cVSoy-3l3NnjI8blFFa_5WoZarQKjF1Fc7DKW18SaAfuwzrupvHain-pMUlbzdiGj1u_qePLg2IOpSn0WnX2NWN7KWVy6EztdXLrq7svttgJXEPZT_vRCDdNk990ly-jm_eSFUDZXKvz-jSU1-FK-1Q85LWOUl8DjAGIe6AeuZbcHq6aXxoaIFoy_b0WCHkMtX-WYI47gnjAeriV76M6Arhbf6WO4eHMu3yUoypYfRKg-u2fk_1bbaaFgdZjpDP_PaH0Lv70FA6slRCeEpsh55kbzlRN2hgQEnnSBEjAvwp1Zfn3nCyoHjzlEvYbdX3LeLNRgElijHStp5cUuh7D_9jfw1wcA75ZHbSxrGM7ncW6e2h5B4RDCouGox1V4Yvmb84bB6w1j7T3pu8LhS-gLGCHElhhusuVWJLXaqEkIfP-G8bJGTdPuSmmVCtNFCnpyDEOHQpegIwnkCnNXysQW8pXIX1SbXSjNpXqagG_vX6FOGR05WamyNCe_jsGiVpyoypsaT8IslUfpb1xJaR72GgNKlsX02OP9spmg3q5fW0uE5skmP5KiAnIxEQLtEWn_zJcI_3Tu6V-7ekezQJEYiDP7nEmbeeh2zFjV0pv1GJ9r1pjWhiWvcWsS331BkEkmMdTY0qjCsmGZpR28PMRbfphjfboPGoL0pxHKLFCf3KFvfe7JjIrPoQsS6QsSAUsSEMsC7c4g-RKQzJuMUtl7xPX4i9o7MqsuI7S9T5oQu4L7HLwjq-ESR8y9E4QlgBTyU6mVty8unY-Dj4kYZ-0ekMh5mHtVInReXmQp1sH5JQgWMF5L3-ylxq_eMEHxWwiTaPxf6BQ7f3k7Uq1SJnf3mWJAb0ffnTSNN8kTO46UTpTtpByenALE1S9NTDE78zERnkiszM5lQt_bsypsUIsVq-8uMnBKnZ_t_HZQ6WbmtgStgCAtblWys0BZBCTmpbgIj4mxAVwTp9jhK7GHSnY1VB_nMVJe6qvf0cp-8IgB98xMZCC0r_pmCxR1NFVl1U0tRtMjiM1CZe3nnHbBSHFzU_bScKV2_ormql0GGecY2ZZFz4-88PEJdtu5Pw5S1ig18QtgGyt7ZSJMfDK5e_O-RQdXVerndEmP0Laa50vGYSU-jlSC9ZS_MEZKH_KHM7WkUy0BVy16ezVOQyulgSPoSbl6iLDNJDuHV-UrUe9LS1yABreNYrucUSaVS9iIJBpTVWV]--></g></svg>