<?xml version="1.0" encoding="us-ascii" standalone="no"?><svg xmlns="http://www.w3.org/2000/svg" xmlns:xlink="http://www.w3.org/1999/xlink" contentStyleType="text/css" height="1308px" preserveAspectRatio="none" style="width:2245px;height:1308px;background:#FFFFFF;" version="1.1" viewBox="0 0 2245 1308" width="2245px" zoomAndPan="magnify"><defs/><g><!--class Logger--><g id="elem_Logger"><rect codeLine="1" fill="#F1F1F1" height="80.5938" id="Logger" rx="2.5" ry="2.5" style="stroke:#181818;stroke-width:0.5;" width="215" x="573.5" y="400"/><ellipse cx="651.75" cy="416" fill="#A9DCDF" rx="11" ry="11" style="stroke:#181818;stroke-width:1.0;"/><path d="M653.8281,417.8125 L654.2188,418.7969 L653.8281,418.7969 C653.375,418.7969 653.2656,418.8125 653.1094,418.9219 C652.8594,419.0781 652.7031,419.3594 652.7031,419.6563 C652.7031,419.9219 652.8438,420.1719 653.0625,420.3281 C653.2031,420.4531 653.4063,420.5 653.8281,420.5 L656.1875,420.5 C656.5469,420.5 656.7656,420.4688 656.9063,420.375 C657.1563,420.2344 657.3125,419.9375 657.3125,419.6563 C657.3125,419.375 657.1719,419.125 656.9531,418.9688 C656.7813,418.8281 656.625,418.7969 656.1563,418.7969 L652.7656,410.5938 L649.0938,410.5938 C648.6406,410.5938 648.5156,410.6094 648.3594,410.7031 C648.1094,410.875 647.9531,411.1563 647.9531,411.4375 C647.9531,411.7188 648.0938,411.9688 648.3125,412.1406 C648.4844,412.25 648.6563,412.2813 649.0938,412.2813 L650.1719,412.2813 L647.5313,418.7969 C647.1094,418.7969 646.9531,418.8125 646.7969,418.9219 C646.5469,419.0781 646.3906,419.3594 646.3906,419.6563 C646.3906,420.2188 646.7656,420.5 647.5156,420.5 L649.7813,420.5 C650.1406,420.5 650.3594,420.4688 650.4844,420.375 C650.75,420.2344 650.8906,419.9375 650.8906,419.6563 C650.8906,419.375 650.7656,419.125 650.5469,418.9531 C650.375,418.8281 650.2344,418.7969 649.7813,418.7969 L649.3906,418.7969 L649.7813,417.8125 L653.8281,417.8125 Z M653.125,416.1094 L650.4531,416.1094 L651.7969,412.8438 L653.125,416.1094 Z " fill="#000000"/><text fill="#000000" font-family="sans-serif" font-size="14" font-style="italic" lengthAdjust="spacing" textLength="50" x="672.25" y="420.8467">Logger</text><line style="stroke:#181818;stroke-width:0.5;" x1="574.5" x2="787.5" y1="432" y2="432"/><polygon fill="none" points="584.5,440.6484,588.5,444.6484,584.5,448.6484,580.5,444.6484" style="stroke:#B38D22;stroke-width:1.0;"/><text fill="#000000" font-family="sans-serif" font-size="14" lengthAdjust="spacing" textLength="138" x="593.5" y="448.9951">LogFile: FileStream</text><line style="stroke:#181818;stroke-width:0.5;" x1="574.5" x2="787.5" y1="456.2969" y2="456.2969"/><polygon fill="#FFFF44" points="584.5,464.9453,588.5,468.9453,584.5,472.9453,580.5,468.9453" style="stroke:#B38D22;stroke-width:1.0;"/><text fill="#000000" font-family="sans-serif" font-size="14" lengthAdjust="spacing" textLength="189" x="593.5" y="473.292">log(message: string) : void</text></g><!--class LoggerJournalier--><g id="elem_LoggerJournalier"><rect codeLine="7" fill="#F1F1F1" height="129.4844" id="LoggerJournalier" rx="2.5" ry="2.5" style="stroke:#181818;stroke-width:0.5;" width="661" x="350.5" y="671.5"/><ellipse cx="618.25" cy="687.5" fill="#ADD1B2" rx="11" ry="11" style="stroke:#181818;stroke-width:1.0;"/><path d="M620.5938,683.1719 C619.6563,682.7344 619.0625,682.5938 618.1875,682.5938 C615.5625,682.5938 613.5625,684.6719 613.5625,687.3906 L613.5625,688.5156 C613.5625,691.0938 615.6719,692.9844 618.5625,692.9844 C619.7813,692.9844 620.9375,692.6875 621.6875,692.1406 C622.2656,691.7344 622.5938,691.2813 622.5938,690.8906 C622.5938,690.4375 622.2031,690.0469 621.7344,690.0469 C621.5156,690.0469 621.3125,690.125 621.125,690.3125 C620.6719,690.7969 620.6719,690.7969 620.4844,690.8906 C620.0625,691.1563 619.375,691.2813 618.6094,691.2813 C616.5625,691.2813 615.2656,690.1875 615.2656,688.4844 L615.2656,687.3906 C615.2656,685.6094 616.5156,684.2969 618.25,684.2969 C618.8281,684.2969 619.4375,684.4531 619.9063,684.7031 C620.3906,684.9844 620.5625,685.2031 620.6563,685.6094 C620.7188,686.0156 620.75,686.1406 620.8906,686.2656 C621.0313,686.4063 621.2656,686.5156 621.4844,686.5156 C621.75,686.5156 622.0156,686.375 622.1875,686.1563 C622.2969,686 622.3281,685.8125 622.3281,685.3906 L622.3281,683.9688 C622.3281,683.5313 622.3125,683.4063 622.2188,683.25 C622.0625,682.9844 621.7813,682.8438 621.4844,682.8438 C621.1875,682.8438 620.9844,682.9375 620.7656,683.25 L620.5938,683.1719 Z " fill="#000000"/><text fill="#000000" font-family="sans-serif" font-size="14" lengthAdjust="spacing" textLength="117" x="638.75" y="692.3467">LoggerJournalier</text><line style="stroke:#181818;stroke-width:0.5;" x1="351.5" x2="1010.5" y1="703.5" y2="703.5"/><rect fill="none" height="6" style="stroke:#C82930;stroke-width:1.0;" width="6" x="358.5" y="714.1484"/><text fill="#000000" font-family="sans-serif" font-size="14" lengthAdjust="spacing" textLength="179" x="370.5" y="720.4951">_logFileJSON : FileStream</text><rect fill="none" height="6" style="stroke:#C82930;stroke-width:1.0;" width="6" x="358.5" y="730.4453"/><text fill="#000000" font-family="sans-serif" font-size="14" lengthAdjust="spacing" textLength="175" x="370.5" y="736.792">_logFileXML : FileStream</text><line style="stroke:#181818;stroke-width:0.5;" x1="351.5" x2="1010.5" y1="744.0938" y2="744.0938"/><ellipse cx="361.5" cy="757.7422" fill="#84BE84" rx="3" ry="3" style="stroke:#038048;stroke-width:1.0;"/><text fill="#000000" font-family="sans-serif" font-size="14" lengthAdjust="spacing" textLength="127" x="370.5" y="761.0889">LoggerJournalier()</text><rect fill="#F24D5C" height="6" style="stroke:#C82930;stroke-width:1.0;" width="6" x="358.5" y="771.0391"/><text fill="#000000" font-family="sans-serif" font-size="14" lengthAdjust="spacing" textLength="117" x="370.5" y="777.3857">OpenFile() : void</text><ellipse cx="361.5" cy="790.3359" fill="#84BE84" rx="3" ry="3" style="stroke:#038048;stroke-width:1.0;"/><text fill="#000000" font-family="sans-serif" font-size="14" lengthAdjust="spacing" textLength="635" x="370.5" y="793.6826">Log(save_name: string, source: string, target: string, size: int, transfer_time: float) : void</text></g><!--class LoggerEtat--><g id="elem_LoggerEtat"><rect codeLine="17" fill="#F1F1F1" height="129.4844" id="LoggerEtat" rx="2.5" ry="2.5" style="stroke:#181818;stroke-width:0.5;" width="308" x="1047" y="671.5"/><ellipse cx="1156.25" cy="687.5" fill="#ADD1B2" rx="11" ry="11" style="stroke:#181818;stroke-width:1.0;"/><path d="M1158.5938,683.1719 C1157.6563,682.7344 1157.0625,682.5938 1156.1875,682.5938 C1153.5625,682.5938 1151.5625,684.6719 1151.5625,687.3906 L1151.5625,688.5156 C1151.5625,691.0938 1153.6719,692.9844 1156.5625,692.9844 C1157.7813,692.9844 1158.9375,692.6875 1159.6875,692.1406 C1160.2656,691.7344 1160.5938,691.2813 1160.5938,690.8906 C1160.5938,690.4375 1160.2031,690.0469 1159.7344,690.0469 C1159.5156,690.0469 1159.3125,690.125 1159.125,690.3125 C1158.6719,690.7969 1158.6719,690.7969 1158.4844,690.8906 C1158.0625,691.1563 1157.375,691.2813 1156.6094,691.2813 C1154.5625,691.2813 1153.2656,690.1875 1153.2656,688.4844 L1153.2656,687.3906 C1153.2656,685.6094 1154.5156,684.2969 1156.25,684.2969 C1156.8281,684.2969 1157.4375,684.4531 1157.9063,684.7031 C1158.3906,684.9844 1158.5625,685.2031 1158.6563,685.6094 C1158.7188,686.0156 1158.75,686.1406 1158.8906,686.2656 C1159.0313,686.4063 1159.2656,686.5156 1159.4844,686.5156 C1159.75,686.5156 1160.0156,686.375 1160.1875,686.1563 C1160.2969,686 1160.3281,685.8125 1160.3281,685.3906 L1160.3281,683.9688 C1160.3281,683.5313 1160.3125,683.4063 1160.2188,683.25 C1160.0625,682.9844 1159.7813,682.8438 1159.4844,682.8438 C1159.1875,682.8438 1158.9844,682.9375 1158.7656,683.25 L1158.5938,683.1719 Z " fill="#000000"/><text fill="#000000" font-family="sans-serif" font-size="14" lengthAdjust="spacing" textLength="81" x="1176.75" y="692.3467">LoggerEtat</text><line style="stroke:#181818;stroke-width:0.5;" x1="1048" x2="1354" y1="703.5" y2="703.5"/><rect fill="none" height="6" style="stroke:#C82930;stroke-width:1.0;" width="6" x="1055" y="714.1484"/><text fill="#000000" font-family="sans-serif" font-size="14" lengthAdjust="spacing" textLength="282" x="1067" y="720.4951">_saveConfiguration : SaveConfiguration</text><line style="stroke:#181818;stroke-width:0.5;" x1="1048" x2="1354" y1="727.7969" y2="727.7969"/><ellipse cx="1058" cy="741.4453" fill="#84BE84" rx="3" ry="3" style="stroke:#038048;stroke-width:1.0;"/><text fill="#000000" font-family="sans-serif" font-size="14" lengthAdjust="spacing" textLength="91" x="1067" y="744.792">LoggerEtat()</text><rect fill="#F24D5C" height="6" style="stroke:#C82930;stroke-width:1.0;" width="6" x="1055" y="754.7422"/><text fill="#000000" font-family="sans-serif" font-size="14" lengthAdjust="spacing" textLength="134" x="1067" y="761.0889">ReopenFile() : void</text><ellipse cx="1058" cy="774.0391" fill="#84BE84" rx="3" ry="3" style="stroke:#038048;stroke-width:1.0;"/><text fill="#000000" font-family="sans-serif" font-size="14" lengthAdjust="spacing" textLength="190" x="1067" y="777.3857">AddSave(save: Save) : void</text><ellipse cx="1058" cy="790.3359" fill="#84BE84" rx="3" ry="3" style="stroke:#038048;stroke-width:1.0;"/><text fill="#000000" font-family="sans-serif" font-size="14" lengthAdjust="spacing" textLength="183" x="1067" y="793.6826">WriteStatesToFile() : void</text></g><!--class Save--><g id="elem_Save"><rect codeLine="79" fill="#F1F1F1" height="227.2656" id="Save" rx="2.5" ry="2.5" style="stroke:#181818;stroke-width:0.5;" width="668" x="1173" y="918"/><ellipse cx="1485.75" cy="934" fill="#ADD1B2" rx="11" ry="11" style="stroke:#181818;stroke-width:1.0;"/><path d="M1488.0938,929.6719 C1487.1563,929.2344 1486.5625,929.0938 1485.6875,929.0938 C1483.0625,929.0938 1481.0625,931.1719 1481.0625,933.8906 L1481.0625,935.0156 C1481.0625,937.5938 1483.1719,939.4844 1486.0625,939.4844 C1487.2813,939.4844 1488.4375,939.1875 1489.1875,938.6406 C1489.7656,938.2344 1490.0938,937.7813 1490.0938,937.3906 C1490.0938,936.9375 1489.7031,936.5469 1489.2344,936.5469 C1489.0156,936.5469 1488.8125,936.625 1488.625,936.8125 C1488.1719,937.2969 1488.1719,937.2969 1487.9844,937.3906 C1487.5625,937.6563 1486.875,937.7813 1486.1094,937.7813 C1484.0625,937.7813 1482.7656,936.6875 1482.7656,934.9844 L1482.7656,933.8906 C1482.7656,932.1094 1484.0156,930.7969 1485.75,930.7969 C1486.3281,930.7969 1486.9375,930.9531 1487.4063,931.2031 C1487.8906,931.4844 1488.0625,931.7031 1488.1563,932.1094 C1488.2188,932.5156 1488.25,932.6406 1488.3906,932.7656 C1488.5313,932.9063 1488.7656,933.0156 1488.9844,933.0156 C1489.25,933.0156 1489.5156,932.875 1489.6875,932.6563 C1489.7969,932.5 1489.8281,932.3125 1489.8281,931.8906 L1489.8281,930.4688 C1489.8281,930.0313 1489.8125,929.9063 1489.7188,929.75 C1489.5625,929.4844 1489.2813,929.3438 1488.9844,929.3438 C1488.6875,929.3438 1488.4844,929.4375 1488.2656,929.75 L1488.0938,929.6719 Z " fill="#000000"/><text fill="#000000" font-family="sans-serif" font-size="14" lengthAdjust="spacing" textLength="34" x="1506.25" y="938.8467">Save</text><line style="stroke:#181818;stroke-width:0.5;" x1="1174" x2="1840" y1="950" y2="950"/><rect fill="none" height="6" style="stroke:#C82930;stroke-width:1.0;" width="6" x="1181" y="960.6484"/><text fill="#000000" font-family="sans-serif" font-size="14" lengthAdjust="spacing" text-decoration="underline" textLength="135" x="1193" y="966.9951">_idCounter: int = 0</text><ellipse cx="1184" cy="979.9453" fill="none" rx="3" ry="3" style="stroke:#038048;stroke-width:1.0;"/><text fill="#000000" font-family="sans-serif" font-size="14" lengthAdjust="spacing" textLength="42" x="1193" y="983.292">Id: int</text><ellipse cx="1184" cy="996.2422" fill="none" rx="3" ry="3" style="stroke:#038048;stroke-width:1.0;"/><text fill="#000000" font-family="sans-serif" font-size="14" lengthAdjust="spacing" textLength="92" x="1193" y="999.5889">Name: string</text><ellipse cx="1184" cy="1012.5391" fill="none" rx="3" ry="3" style="stroke:#038048;stroke-width:1.0;"/><text fill="#000000" font-family="sans-serif" font-size="14" lengthAdjust="spacing" textLength="134" x="1193" y="1015.8857">InputFolder: string</text><ellipse cx="1184" cy="1028.8359" fill="none" rx="3" ry="3" style="stroke:#038048;stroke-width:1.0;"/><text fill="#000000" font-family="sans-serif" font-size="14" lengthAdjust="spacing" textLength="147" x="1193" y="1032.1826">OutputFolder: string</text><ellipse cx="1184" cy="1045.1328" fill="none" rx="3" ry="3" style="stroke:#038048;stroke-width:1.0;"/><text fill="#000000" font-family="sans-serif" font-size="14" lengthAdjust="spacing" textLength="149" x="1193" y="1048.4795">SaveType: SaveType</text><ellipse cx="1184" cy="1061.4297" fill="none" rx="3" ry="3" style="stroke:#038048;stroke-width:1.0;"/><text fill="#000000" font-family="sans-serif" font-size="14" lengthAdjust="spacing" textLength="153" x="1193" y="1064.7764">TotalFilesToCopy: int</text><ellipse cx="1184" cy="1077.7266" fill="none" rx="3" ry="3" style="stroke:#038048;stroke-width:1.0;"/><text fill="#000000" font-family="sans-serif" font-size="14" lengthAdjust="spacing" textLength="128" x="1193" y="1081.0732">TotalFilesSize: int</text><ellipse cx="1184" cy="1094.0234" fill="none" rx="3" ry="3" style="stroke:#038048;stroke-width:1.0;"/><text fill="#000000" font-family="sans-serif" font-size="14" lengthAdjust="spacing" textLength="145" x="1193" y="1097.3701">NbFilesleftToDo: int</text><ellipse cx="1184" cy="1110.3203" fill="none" rx="3" ry="3" style="stroke:#038048;stroke-width:1.0;"/><text fill="#000000" font-family="sans-serif" font-size="14" lengthAdjust="spacing" textLength="123" x="1193" y="1113.667">State: SaveState</text><line style="stroke:#181818;stroke-width:0.5;" x1="1174" x2="1840" y1="1120.9688" y2="1120.9688"/><ellipse cx="1184" cy="1134.6172" fill="#84BE84" rx="3" ry="3" style="stroke:#038048;stroke-width:1.0;"/><text fill="#000000" font-family="sans-serif" font-size="14" lengthAdjust="spacing" textLength="642" x="1193" y="1137.9639">Save(id: int?, name: string, inputFolder: string, outputFolder: string, saveType: SaveType)</text></g><!--class LoggerConfiguration--><g id="elem_LoggerConfiguration"><rect codeLine="26" fill="#F1F1F1" height="113.1875" id="LoggerConfiguration" rx="2.5" ry="2.5" style="stroke:#181818;stroke-width:0.5;" width="308" x="7" y="679.5"/><ellipse cx="82.75" cy="695.5" fill="#ADD1B2" rx="11" ry="11" style="stroke:#181818;stroke-width:1.0;"/><path d="M85.0938,691.1719 C84.1563,690.7344 83.5625,690.5938 82.6875,690.5938 C80.0625,690.5938 78.0625,692.6719 78.0625,695.3906 L78.0625,696.5156 C78.0625,699.0938 80.1719,700.9844 83.0625,700.9844 C84.2813,700.9844 85.4375,700.6875 86.1875,700.1406 C86.7656,699.7344 87.0938,699.2813 87.0938,698.8906 C87.0938,698.4375 86.7031,698.0469 86.2344,698.0469 C86.0156,698.0469 85.8125,698.125 85.625,698.3125 C85.1719,698.7969 85.1719,698.7969 84.9844,698.8906 C84.5625,699.1563 83.875,699.2813 83.1094,699.2813 C81.0625,699.2813 79.7656,698.1875 79.7656,696.4844 L79.7656,695.3906 C79.7656,693.6094 81.0156,692.2969 82.75,692.2969 C83.3281,692.2969 83.9375,692.4531 84.4063,692.7031 C84.8906,692.9844 85.0625,693.2031 85.1563,693.6094 C85.2188,694.0156 85.25,694.1406 85.3906,694.2656 C85.5313,694.4063 85.7656,694.5156 85.9844,694.5156 C86.25,694.5156 86.5156,694.375 86.6875,694.1563 C86.7969,694 86.8281,693.8125 86.8281,693.3906 L86.8281,691.9688 C86.8281,691.5313 86.8125,691.4063 86.7188,691.25 C86.5625,690.9844 86.2813,690.8438 85.9844,690.8438 C85.6875,690.8438 85.4844,690.9375 85.2656,691.25 L85.0938,691.1719 Z " fill="#000000"/><text fill="#000000" font-family="sans-serif" font-size="14" lengthAdjust="spacing" textLength="148" x="103.25" y="700.3467">LoggerConfiguration</text><line style="stroke:#181818;stroke-width:0.5;" x1="8" x2="314" y1="711.5" y2="711.5"/><rect fill="none" height="6" style="stroke:#C82930;stroke-width:1.0;" width="6" x="15" y="722.1484"/><text fill="#000000" font-family="sans-serif" font-size="14" lengthAdjust="spacing" textLength="282" x="27" y="728.4951">_saveConfiguration : SaveConfiguration</text><line style="stroke:#181818;stroke-width:0.5;" x1="8" x2="314" y1="735.7969" y2="735.7969"/><ellipse cx="18" cy="749.4453" fill="#84BE84" rx="3" ry="3" style="stroke:#038048;stroke-width:1.0;"/><text fill="#000000" font-family="sans-serif" font-size="14" lengthAdjust="spacing" textLength="158" x="27" y="752.792">LoggerConfiguration()</text><rect fill="#F24D5C" height="6" style="stroke:#C82930;stroke-width:1.0;" width="6" x="15" y="762.7422"/><text fill="#000000" font-family="sans-serif" font-size="14" lengthAdjust="spacing" textLength="134" x="27" y="769.0889">ReopenFile() : void</text><ellipse cx="18" cy="782.0391" fill="#84BE84" rx="3" ry="3" style="stroke:#038048;stroke-width:1.0;"/><text fill="#000000" font-family="sans-serif" font-size="14" lengthAdjust="spacing" textLength="183" x="27" y="785.3857">WriteConfigToFile() : void</text></g><!--class EasySave--><g id="elem_EasySave"><rect codeLine="36" fill="#F1F1F1" height="227.2656" id="EasySave" rx="2.5" ry="2.5" style="stroke:#181818;stroke-width:0.5;" width="512" x="1021" y="327"/><ellipse cx="1239.75" cy="343" fill="#ADD1B2" rx="11" ry="11" style="stroke:#181818;stroke-width:1.0;"/><path d="M1242.0938,338.6719 C1241.1563,338.2344 1240.5625,338.0938 1239.6875,338.0938 C1237.0625,338.0938 1235.0625,340.1719 1235.0625,342.8906 L1235.0625,344.0156 C1235.0625,346.5938 1237.1719,348.4844 1240.0625,348.4844 C1241.2813,348.4844 1242.4375,348.1875 1243.1875,347.6406 C1243.7656,347.2344 1244.0938,346.7813 1244.0938,346.3906 C1244.0938,345.9375 1243.7031,345.5469 1243.2344,345.5469 C1243.0156,345.5469 1242.8125,345.625 1242.625,345.8125 C1242.1719,346.2969 1242.1719,346.2969 1241.9844,346.3906 C1241.5625,346.6563 1240.875,346.7813 1240.1094,346.7813 C1238.0625,346.7813 1236.7656,345.6875 1236.7656,343.9844 L1236.7656,342.8906 C1236.7656,341.1094 1238.0156,339.7969 1239.75,339.7969 C1240.3281,339.7969 1240.9375,339.9531 1241.4063,340.2031 C1241.8906,340.4844 1242.0625,340.7031 1242.1563,341.1094 C1242.2188,341.5156 1242.25,341.6406 1242.3906,341.7656 C1242.5313,341.9063 1242.7656,342.0156 1242.9844,342.0156 C1243.25,342.0156 1243.5156,341.875 1243.6875,341.6563 C1243.7969,341.5 1243.8281,341.3125 1243.8281,340.8906 L1243.8281,339.4688 C1243.8281,339.0313 1243.8125,338.9063 1243.7188,338.75 C1243.5625,338.4844 1243.2813,338.3438 1242.9844,338.3438 C1242.6875,338.3438 1242.4844,338.4375 1242.2656,338.75 L1242.0938,338.6719 Z " fill="#000000"/><text fill="#000000" font-family="sans-serif" font-size="14" lengthAdjust="spacing" textLength="66" x="1260.25" y="347.8467">EasySave</text><line style="stroke:#181818;stroke-width:0.5;" x1="1022" x2="1532" y1="359" y2="359"/><rect fill="none" height="6" style="stroke:#C82930;stroke-width:1.0;" width="6" x="1029" y="369.6484"/><text fill="#000000" font-family="sans-serif" font-size="14" lengthAdjust="spacing" textLength="278" x="1041" y="375.9951">_saveConfiguration: SaveConfiguration</text><rect fill="none" height="6" style="stroke:#C82930;stroke-width:1.0;" width="6" x="1029" y="385.9453"/><text fill="#000000" font-family="sans-serif" font-size="14" lengthAdjust="spacing" textLength="250" x="1041" y="392.292">_loggerJournalier : LoggerJournalier</text><rect fill="none" height="6" style="stroke:#C82930;stroke-width:1.0;" width="6" x="1029" y="402.2422"/><text fill="#000000" font-family="sans-serif" font-size="14" lengthAdjust="spacing" textLength="178" x="1041" y="408.5889">_loggerEtat : LoggerEtat</text><line style="stroke:#181818;stroke-width:0.5;" x1="1022" x2="1532" y1="415.8906" y2="415.8906"/><ellipse cx="1032" cy="429.5391" fill="#84BE84" rx="3" ry="3" style="stroke:#038048;stroke-width:1.0;"/><text fill="#000000" font-family="sans-serif" font-size="14" lengthAdjust="spacing" textLength="76" x="1041" y="432.8857">EasySave()</text><ellipse cx="1032" cy="445.8359" fill="#84BE84" rx="3" ry="3" style="stroke:#038048;stroke-width:1.0;"/><text fill="#000000" font-family="sans-serif" font-size="14" lengthAdjust="spacing" textLength="305" x="1041" y="449.1826">LancerSauvegarde(listeId: List&lt;int&gt;) : void</text><rect fill="#F24D5C" height="6" style="stroke:#C82930;stroke-width:1.0;" width="6" x="1029" y="459.1328"/><text fill="#000000" font-family="sans-serif" font-size="14" lengthAdjust="spacing" textLength="447" x="1041" y="465.4795">CopyFile(save: Save, sourceFile: string, targetDir: string) : void</text><rect fill="#F24D5C" height="6" style="stroke:#C82930;stroke-width:1.0;" width="6" x="1029" y="475.4297"/><text fill="#000000" font-family="sans-serif" font-size="14" lengthAdjust="spacing" textLength="486" x="1041" y="481.7764">CopyDirectory(save: Save, sourceDir: string, targetDir: string) : void</text><ellipse cx="1032" cy="494.7266" fill="#84BE84" rx="3" ry="3" style="stroke:#038048;stroke-width:1.0;"/><text fill="#000000" font-family="sans-serif" font-size="14" lengthAdjust="spacing" textLength="351" x="1041" y="498.0732">EffectuerSauvegardeComplete(save: Save) : void</text><ellipse cx="1032" cy="511.0234" fill="#84BE84" rx="3" ry="3" style="stroke:#038048;stroke-width:1.0;"/><text fill="#000000" font-family="sans-serif" font-size="14" lengthAdjust="spacing" textLength="376" x="1041" y="514.3701">EffectuerSauvegardeDifferentielle(save: Save) : void</text><ellipse cx="1032" cy="527.3203" fill="#84BE84" rx="3" ry="3" style="stroke:#038048;stroke-width:1.0;"/><text fill="#000000" font-family="sans-serif" font-size="14" lengthAdjust="spacing" text-decoration="underline" textLength="339" x="1041" y="530.667">IsSameContent(file1: string, file2: string) : bool</text><rect fill="#F24D5C" height="6" style="stroke:#C82930;stroke-width:1.0;" width="6" x="1029" y="540.6172"/><text fill="#000000" font-family="sans-serif" font-size="14" lengthAdjust="spacing" textLength="383" x="1041" y="546.9639">UpdateStateSave(save: Save, state: SaveState) : void</text></g><!--class SaveConfiguration--><g id="elem_SaveConfiguration"><rect codeLine="51" fill="#F1F1F1" height="243.5625" id="SaveConfiguration" rx="2.5" ry="2.5" style="stroke:#181818;stroke-width:0.5;" width="848" x="1390" y="614"/><ellipse cx="1743.75" cy="630" fill="#ADD1B2" rx="11" ry="11" style="stroke:#181818;stroke-width:1.0;"/><path d="M1746.0938,625.6719 C1745.1563,625.2344 1744.5625,625.0938 1743.6875,625.0938 C1741.0625,625.0938 1739.0625,627.1719 1739.0625,629.8906 L1739.0625,631.0156 C1739.0625,633.5938 1741.1719,635.4844 1744.0625,635.4844 C1745.2813,635.4844 1746.4375,635.1875 1747.1875,634.6406 C1747.7656,634.2344 1748.0938,633.7813 1748.0938,633.3906 C1748.0938,632.9375 1747.7031,632.5469 1747.2344,632.5469 C1747.0156,632.5469 1746.8125,632.625 1746.625,632.8125 C1746.1719,633.2969 1746.1719,633.2969 1745.9844,633.3906 C1745.5625,633.6563 1744.875,633.7813 1744.1094,633.7813 C1742.0625,633.7813 1740.7656,632.6875 1740.7656,630.9844 L1740.7656,629.8906 C1740.7656,628.1094 1742.0156,626.7969 1743.75,626.7969 C1744.3281,626.7969 1744.9375,626.9531 1745.4063,627.2031 C1745.8906,627.4844 1746.0625,627.7031 1746.1563,628.1094 C1746.2188,628.5156 1746.25,628.6406 1746.3906,628.7656 C1746.5313,628.9063 1746.7656,629.0156 1746.9844,629.0156 C1747.25,629.0156 1747.5156,628.875 1747.6875,628.6563 C1747.7969,628.5 1747.8281,628.3125 1747.8281,627.8906 L1747.8281,626.4688 C1747.8281,626.0313 1747.8125,625.9063 1747.7188,625.75 C1747.5625,625.4844 1747.2813,625.3438 1746.9844,625.3438 C1746.6875,625.3438 1746.4844,625.4375 1746.2656,625.75 L1746.0938,625.6719 Z " fill="#000000"/><text fill="#000000" font-family="sans-serif" font-size="14" lengthAdjust="spacing" textLength="132" x="1764.25" y="634.8467">SaveConfiguration</text><line style="stroke:#181818;stroke-width:0.5;" x1="1391" x2="2237" y1="646" y2="646"/><rect fill="none" height="6" style="stroke:#C82930;stroke-width:1.0;" width="6" x="1398" y="656.6484"/><text fill="#000000" font-family="sans-serif" font-size="14" lengthAdjust="spacing" text-decoration="underline" textLength="209" x="1410" y="662.9951">_instance: SaveConfiguration</text><rect fill="none" height="6" style="stroke:#C82930;stroke-width:1.0;" width="6" x="1398" y="672.9453"/><text fill="#000000" font-family="sans-serif" font-size="14" lengthAdjust="spacing" textLength="224" x="1410" y="679.292">ListeConfiguration: List&lt;Save&gt;</text><line style="stroke:#181818;stroke-width:0.5;" x1="1391" x2="2237" y1="686.5938" y2="686.5938"/><ellipse cx="1401" cy="700.2422" fill="#84BE84" rx="3" ry="3" style="stroke:#038048;stroke-width:1.0;"/><text fill="#000000" font-family="sans-serif" font-size="14" lengthAdjust="spacing" text-decoration="underline" textLength="243" x="1410" y="703.5889">GetInstance() : SaveConfiguration</text><rect fill="#F24D5C" height="6" style="stroke:#C82930;stroke-width:1.0;" width="6" x="1398" y="713.5391"/><text fill="#000000" font-family="sans-serif" font-size="14" lengthAdjust="spacing" text-decoration="underline" textLength="237" x="1410" y="719.8857">GetConfigurations() : List&lt;Save&gt;</text><ellipse cx="1401" cy="732.8359" fill="#84BE84" rx="3" ry="3" style="stroke:#038048;stroke-width:1.0;"/><text fill="#000000" font-family="sans-serif" font-size="14" lengthAdjust="spacing" textLength="230" x="1410" y="736.1826">GetConfiguration() : List&lt;Save&gt;</text><ellipse cx="1401" cy="749.1328" fill="#84BE84" rx="3" ry="3" style="stroke:#038048;stroke-width:1.0;"/><text fill="#000000" font-family="sans-serif" font-size="14" lengthAdjust="spacing" textLength="224" x="1410" y="752.4795">GetConfiguration(id: int) : Save</text><ellipse cx="1401" cy="765.4297" fill="#84BE84" rx="3" ry="3" style="stroke:#038048;stroke-width:1.0;"/><text fill="#000000" font-family="sans-serif" font-size="14" lengthAdjust="spacing" textLength="273" x="1410" y="768.7764">GetConfiguration(name: string) : Save</text><ellipse cx="1401" cy="781.7266" fill="#84BE84" rx="3" ry="3" style="stroke:#038048;stroke-width:1.0;"/><text fill="#000000" font-family="sans-serif" font-size="14" lengthAdjust="spacing" textLength="720" x="1410" y="785.0732">AddConfiguration(name: string, inputFolder: string, outputFolder: string, saveType: SaveType) : void</text><ellipse cx="1401" cy="798.0234" fill="#84BE84" rx="3" ry="3" style="stroke:#038048;stroke-width:1.0;"/><text fill="#000000" font-family="sans-serif" font-size="14" lengthAdjust="spacing" textLength="254" x="1410" y="801.3701">RemoveConfiguration(id: int) : bool</text><ellipse cx="1401" cy="814.3203" fill="#84BE84" rx="3" ry="3" style="stroke:#038048;stroke-width:1.0;"/><text fill="#000000" font-family="sans-serif" font-size="14" lengthAdjust="spacing" textLength="822" x="1410" y="817.667">UpdateConfiguration(id: int, name: string?, inputFolder: string?, outputFolder: string?, saveType: SaveType?) : void</text><rect fill="#F24D5C" height="6" style="stroke:#C82930;stroke-width:1.0;" width="6" x="1398" y="827.6172"/><text fill="#000000" font-family="sans-serif" font-size="14" lengthAdjust="spacing" textLength="177" x="1410" y="833.9639">SaveConfigToFile() : void</text><ellipse cx="1401" cy="846.9141" fill="#84BE84" rx="3" ry="3" style="stroke:#038048;stroke-width:1.0;"/><text fill="#000000" font-family="sans-serif" font-size="14" lengthAdjust="spacing" textLength="218" x="1410" y="850.2607">SetSelectedSave(id: int) : void</text></g><!--class SaveType--><g id="elem_SaveType"><rect codeLine="66" fill="#F1F1F1" height="80.5938" id="SaveType" rx="2.5" ry="2.5" style="stroke:#181818;stroke-width:0.5;" width="112" x="1377" y="1213"/><ellipse cx="1396.5" cy="1229" fill="#EB937F" rx="11" ry="11" style="stroke:#181818;stroke-width:1.0;"/><path d="M1395.2969,1229.875 L1396.75,1229.875 L1396.75,1229.9844 C1396.75,1230.3906 1396.7813,1230.5469 1396.8594,1230.7031 C1397.0156,1230.9531 1397.2969,1231.1094 1397.5938,1231.1094 C1397.8438,1231.1094 1398.1094,1230.9688 1398.2656,1230.75 C1398.3906,1230.5938 1398.4219,1230.4375 1398.4219,1229.9844 L1398.4219,1228.0625 C1398.4219,1227.9063 1398.4219,1227.8594 1398.4063,1227.7031 C1398.3438,1227.2344 1398.0313,1226.9219 1397.5781,1226.9219 C1397.3281,1226.9219 1397.0625,1227.0625 1396.8906,1227.2813 C1396.7813,1227.4531 1396.75,1227.6094 1396.75,1228.0625 L1396.75,1228.1875 L1395.2969,1228.1875 L1395.2969,1225.7813 L1399.2813,1225.7813 L1399.2813,1226.6406 C1399.2813,1227.0469 1399.3125,1227.2188 1399.3906,1227.375 C1399.5625,1227.625 1399.8438,1227.7813 1400.125,1227.7813 C1400.3906,1227.7813 1400.6563,1227.6406 1400.8281,1227.4219 C1400.9375,1227.25 1400.9688,1227.1094 1400.9688,1226.6406 L1400.9688,1224.0938 L1393.3438,1224.0938 C1392.9063,1224.0938 1392.7813,1224.1094 1392.625,1224.2031 C1392.375,1224.3594 1392.2188,1224.6563 1392.2188,1224.9375 C1392.2188,1225.2188 1392.3594,1225.4688 1392.5781,1225.6406 C1392.7344,1225.75 1392.9219,1225.7813 1393.3438,1225.7813 L1393.5938,1225.7813 L1393.5938,1232.2969 L1393.3438,1232.2969 C1392.9375,1232.2969 1392.7813,1232.3125 1392.625,1232.4219 C1392.375,1232.5938 1392.2188,1232.8594 1392.2188,1233.1563 C1392.2188,1233.4219 1392.3594,1233.6719 1392.5781,1233.8281 C1392.7188,1233.9531 1392.9531,1234 1393.3438,1234 L1401.3438,1234 L1401.3438,1231.4219 C1401.3438,1230.9844 1401.3125,1230.8438 1401.2344,1230.6875 C1401.0625,1230.4375 1400.7813,1230.2813 1400.5,1230.2813 C1400.2344,1230.2813 1399.9688,1230.3906 1399.7969,1230.6406 C1399.6875,1230.7969 1399.6563,1230.9375 1399.6563,1231.4219 L1399.6563,1232.2969 L1395.2969,1232.2969 L1395.2969,1229.875 Z " fill="#000000"/><text fill="#000000" font-family="sans-serif" font-size="14" lengthAdjust="spacing" textLength="70" x="1411.5" y="1233.8467">SaveType</text><line style="stroke:#181818;stroke-width:0.5;" x1="1378" x2="1488" y1="1245" y2="1245"/><text fill="#000000" font-family="sans-serif" font-size="14" lengthAdjust="spacing" textLength="77" x="1383" y="1261.9951">COMPLETE</text><text fill="#000000" font-family="sans-serif" font-size="14" lengthAdjust="spacing" textLength="100" x="1383" y="1278.292">DIFFERENTIAL</text><line style="stroke:#181818;stroke-width:0.5;" x1="1378" x2="1488" y1="1285.5938" y2="1285.5938"/></g><!--class SaveState--><g id="elem_SaveState"><rect codeLine="71" fill="#F1F1F1" height="96.8906" id="SaveState" rx="2.5" ry="2.5" style="stroke:#181818;stroke-width:0.5;" width="116" x="1524" y="1205"/><ellipse cx="1543.5" cy="1221" fill="#EB937F" rx="11" ry="11" style="stroke:#181818;stroke-width:1.0;"/><path d="M1542.2969,1221.875 L1543.75,1221.875 L1543.75,1221.9844 C1543.75,1222.3906 1543.7813,1222.5469 1543.8594,1222.7031 C1544.0156,1222.9531 1544.2969,1223.1094 1544.5938,1223.1094 C1544.8438,1223.1094 1545.1094,1222.9688 1545.2656,1222.75 C1545.3906,1222.5938 1545.4219,1222.4375 1545.4219,1221.9844 L1545.4219,1220.0625 C1545.4219,1219.9063 1545.4219,1219.8594 1545.4063,1219.7031 C1545.3438,1219.2344 1545.0313,1218.9219 1544.5781,1218.9219 C1544.3281,1218.9219 1544.0625,1219.0625 1543.8906,1219.2813 C1543.7813,1219.4531 1543.75,1219.6094 1543.75,1220.0625 L1543.75,1220.1875 L1542.2969,1220.1875 L1542.2969,1217.7813 L1546.2813,1217.7813 L1546.2813,1218.6406 C1546.2813,1219.0469 1546.3125,1219.2188 1546.3906,1219.375 C1546.5625,1219.625 1546.8438,1219.7813 1547.125,1219.7813 C1547.3906,1219.7813 1547.6563,1219.6406 1547.8281,1219.4219 C1547.9375,1219.25 1547.9688,1219.1094 1547.9688,1218.6406 L1547.9688,1216.0938 L1540.3438,1216.0938 C1539.9063,1216.0938 1539.7813,1216.1094 1539.625,1216.2031 C1539.375,1216.3594 1539.2188,1216.6563 1539.2188,1216.9375 C1539.2188,1217.2188 1539.3594,1217.4688 1539.5781,1217.6406 C1539.7344,1217.75 1539.9219,1217.7813 1540.3438,1217.7813 L1540.5938,1217.7813 L1540.5938,1224.2969 L1540.3438,1224.2969 C1539.9375,1224.2969 1539.7813,1224.3125 1539.625,1224.4219 C1539.375,1224.5938 1539.2188,1224.8594 1539.2188,1225.1563 C1539.2188,1225.4219 1539.3594,1225.6719 1539.5781,1225.8281 C1539.7188,1225.9531 1539.9531,1226 1540.3438,1226 L1548.3438,1226 L1548.3438,1223.4219 C1548.3438,1222.9844 1548.3125,1222.8438 1548.2344,1222.6875 C1548.0625,1222.4375 1547.7813,1222.2813 1547.5,1222.2813 C1547.2344,1222.2813 1546.9688,1222.3906 1546.7969,1222.6406 C1546.6875,1222.7969 1546.6563,1222.9375 1546.6563,1223.4219 L1546.6563,1224.2969 L1542.2969,1224.2969 L1542.2969,1221.875 Z " fill="#000000"/><text fill="#000000" font-family="sans-serif" font-size="14" lengthAdjust="spacing" textLength="74" x="1558.5" y="1225.8467">SaveState</text><line style="stroke:#181818;stroke-width:0.5;" x1="1525" x2="1639" y1="1237" y2="1237"/><text fill="#000000" font-family="sans-serif" font-size="14" lengthAdjust="spacing" textLength="104" x="1530" y="1253.9951">NOT_STARTED</text><text fill="#000000" font-family="sans-serif" font-size="14" lengthAdjust="spacing" textLength="99" x="1530" y="1270.292">IN_PROGRESS</text><text fill="#000000" font-family="sans-serif" font-size="14" lengthAdjust="spacing" textLength="65" x="1530" y="1286.5889">FINISHED</text><line style="stroke:#181818;stroke-width:0.5;" x1="1525" x2="1639" y1="1293.8906" y2="1293.8906"/></g><!--class SharedLocalizer--><g id="elem_SharedLocalizer"><rect codeLine="94" fill="#F1F1F1" height="96.8906" id="SharedLocalizer" rx="2.5" ry="2.5" style="stroke:#181818;stroke-width:0.5;" width="306" x="1791" y="392"/><ellipse cx="1882.75" cy="408" fill="#ADD1B2" rx="11" ry="11" style="stroke:#181818;stroke-width:1.0;"/><path d="M1885.0938,403.6719 C1884.1563,403.2344 1883.5625,403.0938 1882.6875,403.0938 C1880.0625,403.0938 1878.0625,405.1719 1878.0625,407.8906 L1878.0625,409.0156 C1878.0625,411.5938 1880.1719,413.4844 1883.0625,413.4844 C1884.2813,413.4844 1885.4375,413.1875 1886.1875,412.6406 C1886.7656,412.2344 1887.0938,411.7813 1887.0938,411.3906 C1887.0938,410.9375 1886.7031,410.5469 1886.2344,410.5469 C1886.0156,410.5469 1885.8125,410.625 1885.625,410.8125 C1885.1719,411.2969 1885.1719,411.2969 1884.9844,411.3906 C1884.5625,411.6563 1883.875,411.7813 1883.1094,411.7813 C1881.0625,411.7813 1879.7656,410.6875 1879.7656,408.9844 L1879.7656,407.8906 C1879.7656,406.1094 1881.0156,404.7969 1882.75,404.7969 C1883.3281,404.7969 1883.9375,404.9531 1884.4063,405.2031 C1884.8906,405.4844 1885.0625,405.7031 1885.1563,406.1094 C1885.2188,406.5156 1885.25,406.6406 1885.3906,406.7656 C1885.5313,406.9063 1885.7656,407.0156 1885.9844,407.0156 C1886.25,407.0156 1886.5156,406.875 1886.6875,406.6563 C1886.7969,406.5 1886.8281,406.3125 1886.8281,405.8906 L1886.8281,404.4688 C1886.8281,404.0313 1886.8125,403.9063 1886.7188,403.75 C1886.5625,403.4844 1886.2813,403.3438 1885.9844,403.3438 C1885.6875,403.3438 1885.4844,403.4375 1885.2656,403.75 L1885.0938,403.6719 Z " fill="#000000"/><text fill="#000000" font-family="sans-serif" font-size="14" lengthAdjust="spacing" textLength="114" x="1903.25" y="412.8467">SharedLocalizer</text><line style="stroke:#181818;stroke-width:0.5;" x1="1792" x2="2096" y1="424" y2="424"/><rect fill="none" height="6" style="stroke:#C82930;stroke-width:1.0;" width="6" x="1799" y="434.6484"/><text fill="#000000" font-family="sans-serif" font-size="14" lengthAdjust="spacing" text-decoration="underline" textLength="266" x="1811" y="440.9951">_resourceManager: ResourceManager</text><line style="stroke:#181818;stroke-width:0.5;" x1="1792" x2="2096" y1="448.2969" y2="448.2969"/><ellipse cx="1802" cy="461.9453" fill="#84BE84" rx="3" ry="3" style="stroke:#038048;stroke-width:1.0;"/><text fill="#000000" font-family="sans-serif" font-size="14" lengthAdjust="spacing" text-decoration="underline" textLength="231" x="1811" y="465.292">SetCulture(culture: string) : void</text><ellipse cx="1802" cy="478.2422" fill="#84BE84" rx="3" ry="3" style="stroke:#038048;stroke-width:1.0;"/><text fill="#000000" font-family="sans-serif" font-size="14" lengthAdjust="spacing" text-decoration="underline" textLength="280" x="1811" y="481.5889">GetLocalizedString(key: string) : string</text></g><!--class CommandInterpretor--><g id="elem_CommandInterpretor"><rect codeLine="103" fill="#F1F1F1" height="259.8594" id="CommandInterpretor" rx="2.5" ry="2.5" style="stroke:#181818;stroke-width:0.5;" width="451" x="1512.5" y="7"/><ellipse cx="1656.25" cy="23" fill="#ADD1B2" rx="11" ry="11" style="stroke:#181818;stroke-width:1.0;"/><path d="M1658.5938,18.6719 C1657.6563,18.2344 1657.0625,18.0938 1656.1875,18.0938 C1653.5625,18.0938 1651.5625,20.1719 1651.5625,22.8906 L1651.5625,24.0156 C1651.5625,26.5938 1653.6719,28.4844 1656.5625,28.4844 C1657.7813,28.4844 1658.9375,28.1875 1659.6875,27.6406 C1660.2656,27.2344 1660.5938,26.7813 1660.5938,26.3906 C1660.5938,25.9375 1660.2031,25.5469 1659.7344,25.5469 C1659.5156,25.5469 1659.3125,25.625 1659.125,25.8125 C1658.6719,26.2969 1658.6719,26.2969 1658.4844,26.3906 C1658.0625,26.6563 1657.375,26.7813 1656.6094,26.7813 C1654.5625,26.7813 1653.2656,25.6875 1653.2656,23.9844 L1653.2656,22.8906 C1653.2656,21.1094 1654.5156,19.7969 1656.25,19.7969 C1656.8281,19.7969 1657.4375,19.9531 1657.9063,20.2031 C1658.3906,20.4844 1658.5625,20.7031 1658.6563,21.1094 C1658.7188,21.5156 1658.75,21.6406 1658.8906,21.7656 C1659.0313,21.9063 1659.2656,22.0156 1659.4844,22.0156 C1659.75,22.0156 1660.0156,21.875 1660.1875,21.6563 C1660.2969,21.5 1660.3281,21.3125 1660.3281,20.8906 L1660.3281,19.4688 C1660.3281,19.0313 1660.3125,18.9063 1660.2188,18.75 C1660.0625,18.4844 1659.7813,18.3438 1659.4844,18.3438 C1659.1875,18.3438 1658.9844,18.4375 1658.7656,18.75 L1658.5938,18.6719 Z " fill="#000000"/><text fill="#000000" font-family="sans-serif" font-size="14" lengthAdjust="spacing" textLength="155" x="1676.75" y="27.8467">CommandInterpretor</text><line style="stroke:#181818;stroke-width:0.5;" x1="1513.5" x2="1962.5" y1="39" y2="39"/><line style="stroke:#181818;stroke-width:0.5;" x1="1513.5" x2="1962.5" y1="47" y2="47"/><ellipse cx="1523.5" cy="60.6484" fill="#84BE84" rx="3" ry="3" style="stroke:#038048;stroke-width:1.0;"/><text fill="#000000" font-family="sans-serif" font-size="14" lengthAdjust="spacing" text-decoration="underline" textLength="284" x="1532.5" y="63.9951">ReadCommand(command: string) : void</text><rect fill="#F24D5C" height="6" style="stroke:#C82930;stroke-width:1.0;" width="6" x="1520.5" y="73.9453"/><text fill="#000000" font-family="sans-serif" font-size="14" lengthAdjust="spacing" text-decoration="underline" textLength="189" x="1532.5" y="80.292">_regexCommand() : Regex</text><rect fill="#F24D5C" height="6" style="stroke:#C82930;stroke-width:1.0;" width="6" x="1520.5" y="90.2422"/><text fill="#000000" font-family="sans-serif" font-size="14" lengthAdjust="spacing" text-decoration="underline" textLength="136" x="1532.5" y="96.5889">_regexIds() : Regex</text><rect fill="#F24D5C" height="6" style="stroke:#C82930;stroke-width:1.0;" width="6" x="1520.5" y="106.5391"/><text fill="#000000" font-family="sans-serif" font-size="14" lengthAdjust="spacing" text-decoration="underline" textLength="161" x="1532.5" y="112.8857">_regexParam() : Regex</text><rect fill="#F24D5C" height="6" style="stroke:#C82930;stroke-width:1.0;" width="6" x="1520.5" y="122.8359"/><text fill="#000000" font-family="sans-serif" font-size="14" lengthAdjust="spacing" text-decoration="underline" textLength="425" x="1532.5" y="129.1826">ExtraireParametre(args: string) : Dictionary&lt;string, string&gt;</text><rect fill="#F24D5C" height="6" style="stroke:#C82930;stroke-width:1.0;" width="6" x="1520.5" y="139.1328"/><text fill="#000000" font-family="sans-serif" font-size="14" lengthAdjust="spacing" text-decoration="underline" textLength="261" x="1532.5" y="145.4795">ArgIdsToList(args: string) : List&lt;int&gt;</text><rect fill="#F24D5C" height="6" style="stroke:#C82930;stroke-width:1.0;" width="6" x="1520.5" y="155.4297"/><text fill="#000000" font-family="sans-serif" font-size="14" lengthAdjust="spacing" text-decoration="underline" textLength="265" x="1532.5" y="161.7764">LancerSauvegarde(args: string) : void</text><rect fill="#F24D5C" height="6" style="stroke:#C82930;stroke-width:1.0;" width="6" x="1520.5" y="171.7266"/><text fill="#000000" font-family="sans-serif" font-size="14" lengthAdjust="spacing" text-decoration="underline" textLength="184" x="1532.5" y="178.0732">ListerSauvegardes() : void</text><rect fill="#F24D5C" height="6" style="stroke:#C82930;stroke-width:1.0;" width="6" x="1520.5" y="188.0234"/><text fill="#000000" font-family="sans-serif" font-size="14" lengthAdjust="spacing" text-decoration="underline" textLength="285" x="1532.5" y="194.3701">AjouterConfiguration(args: string) : void</text><rect fill="#F24D5C" height="6" style="stroke:#C82930;stroke-width:1.0;" width="6" x="1520.5" y="204.3203"/><text fill="#000000" font-family="sans-serif" font-size="14" lengthAdjust="spacing" text-decoration="underline" textLength="291" x="1532.5" y="210.667">ModifierConfiguration(args: string) : void</text><rect fill="#F24D5C" height="6" style="stroke:#C82930;stroke-width:1.0;" width="6" x="1520.5" y="220.6172"/><text fill="#000000" font-family="sans-serif" font-size="14" lengthAdjust="spacing" text-decoration="underline" textLength="308" x="1532.5" y="226.9639">SupprimerConfiguration(args: string) : void</text><rect fill="#F24D5C" height="6" style="stroke:#C82930;stroke-width:1.0;" width="6" x="1520.5" y="236.9141"/><text fill="#000000" font-family="sans-serif" font-size="14" lengthAdjust="spacing" text-decoration="underline" textLength="245" x="1532.5" y="243.2607">ChangerLangue(args: string) : void</text><rect fill="#F24D5C" height="6" style="stroke:#C82930;stroke-width:1.0;" width="6" x="1520.5" y="253.2109"/><text fill="#000000" font-family="sans-serif" font-size="14" lengthAdjust="spacing" text-decoration="underline" textLength="143" x="1532.5" y="259.5576">AfficherAide() : void</text></g><!--reverse link Logger to LoggerJournalier--><g id="link_Logger_LoggerJournalier"><path codeLine="6" d="M681,499.083 C681,547.902 681,613.512 681,671.383 " fill="none" id="Logger-backto-LoggerJournalier" style="stroke:#181818;stroke-width:1.0;"/><polygon fill="none" points="681,481.083,675,499.083,687,499.083,681,481.083" style="stroke:#181818;stroke-width:1.0;"/></g><!--reverse link Logger to LoggerEtat--><g id="link_Logger_LoggerEtat"><path codeLine="15" d="M786.5659,488.6384 C858.0659,521.4814 943.808,563.323 1029,614 C1058.18,631.359 1088.86,652.074 1116.1,671.416 " fill="none" id="Logger-backto-LoggerEtat" style="stroke:#181818;stroke-width:1.0;"/><polygon fill="none" points="770.209,481.125,784.0614,494.0907,789.0704,483.1861,770.209,481.125" style="stroke:#181818;stroke-width:1.0;"/></g><!--reverse link LoggerEtat to Save--><g id="link_LoggerEtat_Save"><path codeLine="16" d="M1276.06,808.9919 C1311.74,843.2169 1348.13,878.122 1389.52,917.815 " fill="none" id="LoggerEtat-backto-Save" style="stroke:#181818;stroke-width:1.0;"/><polygon fill="#181818" points="1267.4,800.685,1268.9611,807.7251,1276.06,808.9919,1274.499,801.9518,1267.4,800.685" style="stroke:#181818;stroke-width:1.0;"/></g><!--reverse link Logger to LoggerConfiguration--><g id="link_Logger_LoggerConfiguration"><path codeLine="25" d="M575.4341,488.6384 C503.9341,521.4814 418.192,563.323 333,614 C299.739,633.785 264.534,657.931 234.696,679.434 " fill="none" id="Logger-backto-LoggerConfiguration" style="stroke:#181818;stroke-width:1.0;"/><polygon fill="none" points="591.791,481.125,572.9296,483.1861,577.9386,494.0907,591.791,481.125" style="stroke:#181818;stroke-width:1.0;"/></g><!--reverse link EasySave to SaveConfiguration--><g id="link_EasySave_SaveConfiguration"><path codeLine="33" d="M1493.6099,559.8901 C1529.3999,579.4511 1556.23,594.113 1592.41,613.888 " fill="none" id="EasySave-backto-SaveConfiguration" style="stroke:#181818;stroke-width:1.0;"/><polygon fill="#181818" points="1483.08,554.135,1486.4266,560.5225,1493.6099,559.8901,1490.2633,553.5026,1483.08,554.135" style="stroke:#181818;stroke-width:1.0;"/></g><!--reverse link EasySave to LoggerJournalier--><g id="link_EasySave_LoggerJournalier"><path codeLine="34" d="M1037.5144,559.4362 C956.7544,599.2042 879.58,637.209 810.002,671.473 " fill="none" id="EasySave-backto-LoggerJournalier" style="stroke:#181818;stroke-width:1.0;"/><polygon fill="#181818" points="1048.28,554.135,1041.1302,553.1971,1037.5144,559.4362,1044.6643,560.3741,1048.28,554.135" style="stroke:#181818;stroke-width:1.0;"/></g><!--reverse link EasySave to LoggerEtat--><g id="link_EasySave_LoggerEtat"><path codeLine="35" d="M1244.824,565.7524 C1234.534,605.5204 1226.32,637.209 1217.45,671.473 " fill="none" id="EasySave-backto-LoggerEtat" style="stroke:#181818;stroke-width:1.0;"/><polygon fill="#181818" points="1247.83,554.135,1242.4545,558.9417,1244.824,565.7524,1250.1995,560.9457,1247.83,554.135" style="stroke:#181818;stroke-width:1.0;"/></g><!--reverse link SaveConfiguration to Save--><g id="link_SaveConfiguration_Save"><path codeLine="50" d="M1678.6853,866.3636 C1658.0353,886.1016 1645.4,898.188 1624.97,917.717 " fill="none" id="SaveConfiguration-backto-Save" style="stroke:#181818;stroke-width:1.0;"/><polygon fill="none" points="1687.36,858.072,1680.2588,859.3262,1678.6853,866.3636,1685.7865,865.1093,1687.36,858.072" style="stroke:#181818;stroke-width:1.0;"/></g><!--link Save to SaveType--><g id="link_Save_SaveType"><path codeLine="77" d="M1469.13,1145.078 C1460.95,1169.393 1454.7413,1187.8526 1448.2813,1207.0758 " fill="none" id="Save-to-SaveType" style="stroke:#181818;stroke-width:1.0;"/><polygon fill="#181818" points="1446.37,1212.7632,1453.0285,1205.5062,1447.9627,1208.0237,1445.4453,1202.9578,1446.37,1212.7632" style="stroke:#181818;stroke-width:1.0;"/></g><!--link Save to SaveState--><g id="link_Save_SaveState"><path codeLine="78" d="M1545.38,1145.078 C1552.55,1166.116 1557.7428,1181.3493 1563.7828,1199.0549 " fill="none" id="Save-to-SaveState" style="stroke:#181818;stroke-width:1.0;"/><polygon fill="#181818" points="1565.72,1204.7336,1566.6,1194.9241,1564.1057,1200.0014,1559.0284,1197.5071,1565.72,1204.7336" style="stroke:#181818;stroke-width:1.0;"/></g><!--link CommandInterpretor to SharedLocalizer--><g id="link_CommandInterpretor_SharedLocalizer"><path codeLine="100" d="M1826.26,267.18 C1856.51,311.448 1885.1057,353.3006 1908.0857,386.9416 " fill="none" id="CommandInterpretor-to-SharedLocalizer" style="stroke:#181818;stroke-width:1.0;"/><polygon fill="#181818" points="1911.47,391.896,1909.6964,382.2081,1908.6497,387.7673,1903.0905,386.7206,1911.47,391.896" style="stroke:#181818;stroke-width:1.0;"/></g><!--reverse link CommandInterpretor to SaveConfiguration--><g id="link_CommandInterpretor_SaveConfiguration"><path codeLine="101" d="M1744.9943,279.3569 C1750.1143,361.7429 1758.25,458.557 1773,554 C1776,573.423 1779.9,593.867 1784.1,613.742 " fill="none" id="CommandInterpretor-backto-SaveConfiguration" style="stroke:#181818;stroke-width:1.0;"/><polygon fill="#181818" points="1744.25,267.38,1740.6299,273.6166,1744.9943,279.3569,1748.6145,273.1203,1744.25,267.38" style="stroke:#181818;stroke-width:1.0;"/></g><!--reverse link CommandInterpretor to EasySave--><g id="link_CommandInterpretor_EasySave"><path codeLine="102" d="M1530.4454,273.7455 C1500.0154,293.6355 1478.85,307.485 1449.04,326.982 " fill="none" id="CommandInterpretor-backto-EasySave" style="stroke:#181818;stroke-width:1.0;"/><polygon fill="#181818" points="1540.49,267.18,1533.2792,267.1145,1530.4454,273.7455,1537.6562,273.8109,1540.49,267.18" style="stroke:#181818;stroke-width:1.0;"/></g><!--SRC=[fLPBR-Cs43x7lq90Bzew0jeUWpI6OSjRBHmxi5IqDuEHHWfRMJGeAbZluxztIEf1IlHc5yqXfcQ-UVBZaEIv5foamajBKjVUbXK5SE_ppCE_d_1hGqkuy-J_M70W9wqeMU6VeAv9WKfqGAlYdNVdlJAQpRxEPgsN-oz1q7hym1fUaP82dvc11Z66l0cEfGxu8TxlF2lgeFlxSUjD4fgFtVdlq6H_Xae2_Jwt3klNv1ME5JdrwTzwDHgdnhSWl01XwEadrD9Ae8gJgiw17mML7lAI4V7j-aD1n6nOUZ-Z9iOSh6ueZMvzS9GPhbYLqwBXH51MeVzuB3EBbzQgx0CmT-7BB9CULF7QcQt_YrE1NIK2weJPziwYxFIiKcoLsjllA-Xcxd1mjQmRdRC6Et8EINsHCVf-sy4izOIe3gtQHbrdhxswOSxo58zjvjzDG_SmHOaxCxhQgIuuDaOpW5Gfy9Wqhr0Gde5Vqbf0bA4bBkwHj0z3pu8LErzKgmOYTFJNnzq-0clA9uTSbIpze19ImVZ5uSmmVClNFCnpzDEOHQpOwLo2kCvNXysQeen39IYKvLNBppLsagPVvr4Tump0BH9eukTO_Az3nlBpDpFRPyPARD-VvuoqvsHqdB1mATKV2c2ISS86ZzbJO0h0WzFb6XnfXSig1JUlv4QF-QSsNu8V1Z_pzo2YrfCwAmvdVKp4MgfQMPXkvsF8To1efkPe5zm5CKUpWSC9TXrtYqxFZTYmCWE3UAmH3gdSjEHoRfifLyPGES29ZPfY9grvCDSySA9kFJEnXJEpXJkrXIktXN5wX_qQ3xoRUGmYXX8F1UX9RoJTiH2gvjJxLSDhjNzyseP9YCjrjDc4Xt2NHCkj1LPaLkZTFZd6oVAGX6lyYdR7fyF-_I6CO_pQHBie_WCLBTkz87ZeOzaIvT3W_OZgkCqD7agkqlT-ztx1uY9T3AvsHdEbOjfSbEuTpPKjcZGNXGaJf9JDn8jFJhKkq22FkzjVXdzMeX9oaR0rwyJnwEotmRfDMDYa-BzidSacj_rx8HooBKlnylYadr93ApdeOVn8AdojeS-3BJ0c0x9drPIYuU2d-dSogwqnqaNCOWNo_uMBQT2s7DF4INuYLHR97JrpmEj2yy3EsmLptzjNWDsjsBR5WJ8wWuUSP2t4J_NlzN9b7mlusE4bu2054qIKrT_GFX5EJavz-14VbNYNAWJWozR7-x8s4rhJL1PF-EM-fuNwDOPxiEG5Pf0mEO0d7lgtW64mUJcCZKPzKDUCWQzz1sZv3z9u_8Pxm_4ZosXEVz0eRivdZc_m7xDQlP0AcO-b5ysR1I_pdAOlm9SqCz-M_m40]--></g></svg>