<?xml version="1.0" encoding="us-ascii" standalone="no"?><svg xmlns="http://www.w3.org/2000/svg" xmlns:xlink="http://www.w3.org/1999/xlink" contentStyleType="text/css" height="1275px" preserveAspectRatio="none" style="width:1956px;height:1275px;background:#FFFFFF;" version="1.1" viewBox="0 0 1956 1275" width="1956px" zoomAndPan="magnify"><defs/><g><!--class Logger--><g id="elem_Logger"><rect codeLine="1" fill="#F1F1F1" height="80.5938" id="Logger" rx="2.5" ry="2.5" style="stroke:#181818;stroke-width:0.5;" width="215" x="348.5" y="400"/><ellipse cx="426.75" cy="416" fill="#A9DCDF" rx="11" ry="11" style="stroke:#181818;stroke-width:1.0;"/><path d="M428.8281,417.8125 L429.2188,418.7969 L428.8281,418.7969 C428.375,418.7969 428.2656,418.8125 428.1094,418.9219 C427.8594,419.0781 427.7031,419.3594 427.7031,419.6563 C427.7031,419.9219 427.8438,420.1719 428.0625,420.3281 C428.2031,420.4531 428.4063,420.5 428.8281,420.5 L431.1875,420.5 C431.5469,420.5 431.7656,420.4688 431.9063,420.375 C432.1563,420.2344 432.3125,419.9375 432.3125,419.6563 C432.3125,419.375 432.1719,419.125 431.9531,418.9688 C431.7813,418.8281 431.625,418.7969 431.1563,418.7969 L427.7656,410.5938 L424.0938,410.5938 C423.6406,410.5938 423.5156,410.6094 423.3594,410.7031 C423.1094,410.875 422.9531,411.1563 422.9531,411.4375 C422.9531,411.7188 423.0938,411.9688 423.3125,412.1406 C423.4844,412.25 423.6563,412.2813 424.0938,412.2813 L425.1719,412.2813 L422.5313,418.7969 C422.1094,418.7969 421.9531,418.8125 421.7969,418.9219 C421.5469,419.0781 421.3906,419.3594 421.3906,419.6563 C421.3906,420.2188 421.7656,420.5 422.5156,420.5 L424.7813,420.5 C425.1406,420.5 425.3594,420.4688 425.4844,420.375 C425.75,420.2344 425.8906,419.9375 425.8906,419.6563 C425.8906,419.375 425.7656,419.125 425.5469,418.9531 C425.375,418.8281 425.2344,418.7969 424.7813,418.7969 L424.3906,418.7969 L424.7813,417.8125 L428.8281,417.8125 Z M428.125,416.1094 L425.4531,416.1094 L426.7969,412.8438 L428.125,416.1094 Z " fill="#000000"/><text fill="#000000" font-family="sans-serif" font-size="14" font-style="italic" lengthAdjust="spacing" textLength="50" x="447.25" y="420.8467">Logger</text><line style="stroke:#181818;stroke-width:0.5;" x1="349.5" x2="562.5" y1="432" y2="432"/><polygon fill="none" points="359.5,440.6484,363.5,444.6484,359.5,448.6484,355.5,444.6484" style="stroke:#B38D22;stroke-width:1.0;"/><text fill="#000000" font-family="sans-serif" font-size="14" lengthAdjust="spacing" textLength="138" x="368.5" y="448.9951">LogFile: FileStream</text><line style="stroke:#181818;stroke-width:0.5;" x1="349.5" x2="562.5" y1="456.2969" y2="456.2969"/><polygon fill="#FFFF44" points="359.5,464.9453,363.5,468.9453,359.5,472.9453,355.5,468.9453" style="stroke:#B38D22;stroke-width:1.0;"/><text fill="#000000" font-family="sans-serif" font-size="14" lengthAdjust="spacing" textLength="189" x="368.5" y="473.292">log(message: string) : void</text></g><!--class LoggerJournalier--><g id="elem_LoggerJournalier"><rect codeLine="7" fill="#F1F1F1" height="80.5938" id="LoggerJournalier" rx="2.5" ry="2.5" style="stroke:#181818;stroke-width:0.5;" width="661" x="404.5" y="679"/><ellipse cx="672.25" cy="695" fill="#ADD1B2" rx="11" ry="11" style="stroke:#181818;stroke-width:1.0;"/><path d="M674.5938,690.6719 C673.6563,690.2344 673.0625,690.0938 672.1875,690.0938 C669.5625,690.0938 667.5625,692.1719 667.5625,694.8906 L667.5625,696.0156 C667.5625,698.5938 669.6719,700.4844 672.5625,700.4844 C673.7813,700.4844 674.9375,700.1875 675.6875,699.6406 C676.2656,699.2344 676.5938,698.7813 676.5938,698.3906 C676.5938,697.9375 676.2031,697.5469 675.7344,697.5469 C675.5156,697.5469 675.3125,697.625 675.125,697.8125 C674.6719,698.2969 674.6719,698.2969 674.4844,698.3906 C674.0625,698.6563 673.375,698.7813 672.6094,698.7813 C670.5625,698.7813 669.2656,697.6875 669.2656,695.9844 L669.2656,694.8906 C669.2656,693.1094 670.5156,691.7969 672.25,691.7969 C672.8281,691.7969 673.4375,691.9531 673.9063,692.2031 C674.3906,692.4844 674.5625,692.7031 674.6563,693.1094 C674.7188,693.5156 674.75,693.6406 674.8906,693.7656 C675.0313,693.9063 675.2656,694.0156 675.4844,694.0156 C675.75,694.0156 676.0156,693.875 676.1875,693.6563 C676.2969,693.5 676.3281,693.3125 676.3281,692.8906 L676.3281,691.4688 C676.3281,691.0313 676.3125,690.9063 676.2188,690.75 C676.0625,690.4844 675.7813,690.3438 675.4844,690.3438 C675.1875,690.3438 674.9844,690.4375 674.7656,690.75 L674.5938,690.6719 Z " fill="#000000"/><text fill="#000000" font-family="sans-serif" font-size="14" lengthAdjust="spacing" textLength="117" x="692.75" y="699.8467">LoggerJournalier</text><line style="stroke:#181818;stroke-width:0.5;" x1="405.5" x2="1064.5" y1="711" y2="711"/><line style="stroke:#181818;stroke-width:0.5;" x1="405.5" x2="1064.5" y1="719" y2="719"/><ellipse cx="415.5" cy="732.6484" fill="#84BE84" rx="3" ry="3" style="stroke:#038048;stroke-width:1.0;"/><text fill="#000000" font-family="sans-serif" font-size="14" lengthAdjust="spacing" textLength="127" x="424.5" y="735.9951">LoggerJournalier()</text><ellipse cx="415.5" cy="748.9453" fill="#84BE84" rx="3" ry="3" style="stroke:#038048;stroke-width:1.0;"/><text fill="#000000" font-family="sans-serif" font-size="14" lengthAdjust="spacing" textLength="635" x="424.5" y="752.292">Log(save_name: string, source: string, target: string, size: int, transfer_time: float) : void</text></g><!--class LoggerEtat--><g id="elem_LoggerEtat"><rect codeLine="14" fill="#F1F1F1" height="113.1875" id="LoggerEtat" rx="2.5" ry="2.5" style="stroke:#181818;stroke-width:0.5;" width="308" x="61" y="663"/><ellipse cx="170.25" cy="679" fill="#ADD1B2" rx="11" ry="11" style="stroke:#181818;stroke-width:1.0;"/><path d="M172.5938,674.6719 C171.6563,674.2344 171.0625,674.0938 170.1875,674.0938 C167.5625,674.0938 165.5625,676.1719 165.5625,678.8906 L165.5625,680.0156 C165.5625,682.5938 167.6719,684.4844 170.5625,684.4844 C171.7813,684.4844 172.9375,684.1875 173.6875,683.6406 C174.2656,683.2344 174.5938,682.7813 174.5938,682.3906 C174.5938,681.9375 174.2031,681.5469 173.7344,681.5469 C173.5156,681.5469 173.3125,681.625 173.125,681.8125 C172.6719,682.2969 172.6719,682.2969 172.4844,682.3906 C172.0625,682.6563 171.375,682.7813 170.6094,682.7813 C168.5625,682.7813 167.2656,681.6875 167.2656,679.9844 L167.2656,678.8906 C167.2656,677.1094 168.5156,675.7969 170.25,675.7969 C170.8281,675.7969 171.4375,675.9531 171.9063,676.2031 C172.3906,676.4844 172.5625,676.7031 172.6563,677.1094 C172.7188,677.5156 172.75,677.6406 172.8906,677.7656 C173.0313,677.9063 173.2656,678.0156 173.4844,678.0156 C173.75,678.0156 174.0156,677.875 174.1875,677.6563 C174.2969,677.5 174.3281,677.3125 174.3281,676.8906 L174.3281,675.4688 C174.3281,675.0313 174.3125,674.9063 174.2188,674.75 C174.0625,674.4844 173.7813,674.3438 173.4844,674.3438 C173.1875,674.3438 172.9844,674.4375 172.7656,674.75 L172.5938,674.6719 Z " fill="#000000"/><text fill="#000000" font-family="sans-serif" font-size="14" lengthAdjust="spacing" textLength="81" x="190.75" y="683.8467">LoggerEtat</text><line style="stroke:#181818;stroke-width:0.5;" x1="62" x2="368" y1="695" y2="695"/><rect fill="none" height="6" style="stroke:#C82930;stroke-width:1.0;" width="6" x="69" y="705.6484"/><text fill="#000000" font-family="sans-serif" font-size="14" lengthAdjust="spacing" textLength="282" x="81" y="711.9951">_saveConfiguration : SaveConfiguration</text><line style="stroke:#181818;stroke-width:0.5;" x1="62" x2="368" y1="719.2969" y2="719.2969"/><ellipse cx="72" cy="732.9453" fill="#84BE84" rx="3" ry="3" style="stroke:#038048;stroke-width:1.0;"/><text fill="#000000" font-family="sans-serif" font-size="14" lengthAdjust="spacing" textLength="91" x="81" y="736.292">LoggerEtat()</text><ellipse cx="72" cy="749.2422" fill="#84BE84" rx="3" ry="3" style="stroke:#038048;stroke-width:1.0;"/><text fill="#000000" font-family="sans-serif" font-size="14" lengthAdjust="spacing" textLength="190" x="81" y="752.5889">AddSave(save: Save) : void</text><ellipse cx="72" cy="765.5391" fill="#84BE84" rx="3" ry="3" style="stroke:#038048;stroke-width:1.0;"/><text fill="#000000" font-family="sans-serif" font-size="14" lengthAdjust="spacing" textLength="183" x="81" y="768.8857">WriteStatesToFile() : void</text></g><!--class Save--><g id="elem_Save"><rect codeLine="65" fill="#F1F1F1" height="227.2656" id="Save" rx="2.5" ry="2.5" style="stroke:#181818;stroke-width:0.5;" width="668" x="536" y="885"/><ellipse cx="848.75" cy="901" fill="#ADD1B2" rx="11" ry="11" style="stroke:#181818;stroke-width:1.0;"/><path d="M851.0938,896.6719 C850.1563,896.2344 849.5625,896.0938 848.6875,896.0938 C846.0625,896.0938 844.0625,898.1719 844.0625,900.8906 L844.0625,902.0156 C844.0625,904.5938 846.1719,906.4844 849.0625,906.4844 C850.2813,906.4844 851.4375,906.1875 852.1875,905.6406 C852.7656,905.2344 853.0938,904.7813 853.0938,904.3906 C853.0938,903.9375 852.7031,903.5469 852.2344,903.5469 C852.0156,903.5469 851.8125,903.625 851.625,903.8125 C851.1719,904.2969 851.1719,904.2969 850.9844,904.3906 C850.5625,904.6563 849.875,904.7813 849.1094,904.7813 C847.0625,904.7813 845.7656,903.6875 845.7656,901.9844 L845.7656,900.8906 C845.7656,899.1094 847.0156,897.7969 848.75,897.7969 C849.3281,897.7969 849.9375,897.9531 850.4063,898.2031 C850.8906,898.4844 851.0625,898.7031 851.1563,899.1094 C851.2188,899.5156 851.25,899.6406 851.3906,899.7656 C851.5313,899.9063 851.7656,900.0156 851.9844,900.0156 C852.25,900.0156 852.5156,899.875 852.6875,899.6563 C852.7969,899.5 852.8281,899.3125 852.8281,898.8906 L852.8281,897.4688 C852.8281,897.0313 852.8125,896.9063 852.7188,896.75 C852.5625,896.4844 852.2813,896.3438 851.9844,896.3438 C851.6875,896.3438 851.4844,896.4375 851.2656,896.75 L851.0938,896.6719 Z " fill="#000000"/><text fill="#000000" font-family="sans-serif" font-size="14" lengthAdjust="spacing" textLength="34" x="869.25" y="905.8467">Save</text><line style="stroke:#181818;stroke-width:0.5;" x1="537" x2="1203" y1="917" y2="917"/><rect fill="none" height="6" style="stroke:#C82930;stroke-width:1.0;" width="6" x="544" y="927.6484"/><text fill="#000000" font-family="sans-serif" font-size="14" lengthAdjust="spacing" text-decoration="underline" textLength="135" x="556" y="933.9951">_idCounter: int = 0</text><ellipse cx="547" cy="946.9453" fill="none" rx="3" ry="3" style="stroke:#038048;stroke-width:1.0;"/><text fill="#000000" font-family="sans-serif" font-size="14" lengthAdjust="spacing" textLength="42" x="556" y="950.292">Id: int</text><ellipse cx="547" cy="963.2422" fill="none" rx="3" ry="3" style="stroke:#038048;stroke-width:1.0;"/><text fill="#000000" font-family="sans-serif" font-size="14" lengthAdjust="spacing" textLength="92" x="556" y="966.5889">Name: string</text><ellipse cx="547" cy="979.5391" fill="none" rx="3" ry="3" style="stroke:#038048;stroke-width:1.0;"/><text fill="#000000" font-family="sans-serif" font-size="14" lengthAdjust="spacing" textLength="134" x="556" y="982.8857">InputFolder: string</text><ellipse cx="547" cy="995.8359" fill="none" rx="3" ry="3" style="stroke:#038048;stroke-width:1.0;"/><text fill="#000000" font-family="sans-serif" font-size="14" lengthAdjust="spacing" textLength="147" x="556" y="999.1826">OutputFolder: string</text><ellipse cx="547" cy="1012.1328" fill="none" rx="3" ry="3" style="stroke:#038048;stroke-width:1.0;"/><text fill="#000000" font-family="sans-serif" font-size="14" lengthAdjust="spacing" textLength="149" x="556" y="1015.4795">SaveType: SaveType</text><ellipse cx="547" cy="1028.4297" fill="none" rx="3" ry="3" style="stroke:#038048;stroke-width:1.0;"/><text fill="#000000" font-family="sans-serif" font-size="14" lengthAdjust="spacing" textLength="153" x="556" y="1031.7764">TotalFilesToCopy: int</text><ellipse cx="547" cy="1044.7266" fill="none" rx="3" ry="3" style="stroke:#038048;stroke-width:1.0;"/><text fill="#000000" font-family="sans-serif" font-size="14" lengthAdjust="spacing" textLength="128" x="556" y="1048.0732">TotalFilesSize: int</text><ellipse cx="547" cy="1061.0234" fill="none" rx="3" ry="3" style="stroke:#038048;stroke-width:1.0;"/><text fill="#000000" font-family="sans-serif" font-size="14" lengthAdjust="spacing" textLength="145" x="556" y="1064.3701">NbFilesleftToDo: int</text><ellipse cx="547" cy="1077.3203" fill="none" rx="3" ry="3" style="stroke:#038048;stroke-width:1.0;"/><text fill="#000000" font-family="sans-serif" font-size="14" lengthAdjust="spacing" textLength="123" x="556" y="1080.667">State: SaveState</text><line style="stroke:#181818;stroke-width:0.5;" x1="537" x2="1203" y1="1087.9688" y2="1087.9688"/><ellipse cx="547" cy="1101.6172" fill="#84BE84" rx="3" ry="3" style="stroke:#038048;stroke-width:1.0;"/><text fill="#000000" font-family="sans-serif" font-size="14" lengthAdjust="spacing" textLength="642" x="556" y="1104.9639">Save(id: int?, name: string, inputFolder: string, outputFolder: string, saveType: SaveType)</text></g><!--class EasySave--><g id="elem_EasySave"><rect codeLine="24" fill="#F1F1F1" height="227.2656" id="EasySave" rx="2.5" ry="2.5" style="stroke:#181818;stroke-width:0.5;" width="512" x="599" y="327"/><ellipse cx="817.75" cy="343" fill="#ADD1B2" rx="11" ry="11" style="stroke:#181818;stroke-width:1.0;"/><path d="M820.0938,338.6719 C819.1563,338.2344 818.5625,338.0938 817.6875,338.0938 C815.0625,338.0938 813.0625,340.1719 813.0625,342.8906 L813.0625,344.0156 C813.0625,346.5938 815.1719,348.4844 818.0625,348.4844 C819.2813,348.4844 820.4375,348.1875 821.1875,347.6406 C821.7656,347.2344 822.0938,346.7813 822.0938,346.3906 C822.0938,345.9375 821.7031,345.5469 821.2344,345.5469 C821.0156,345.5469 820.8125,345.625 820.625,345.8125 C820.1719,346.2969 820.1719,346.2969 819.9844,346.3906 C819.5625,346.6563 818.875,346.7813 818.1094,346.7813 C816.0625,346.7813 814.7656,345.6875 814.7656,343.9844 L814.7656,342.8906 C814.7656,341.1094 816.0156,339.7969 817.75,339.7969 C818.3281,339.7969 818.9375,339.9531 819.4063,340.2031 C819.8906,340.4844 820.0625,340.7031 820.1563,341.1094 C820.2188,341.5156 820.25,341.6406 820.3906,341.7656 C820.5313,341.9063 820.7656,342.0156 820.9844,342.0156 C821.25,342.0156 821.5156,341.875 821.6875,341.6563 C821.7969,341.5 821.8281,341.3125 821.8281,340.8906 L821.8281,339.4688 C821.8281,339.0313 821.8125,338.9063 821.7188,338.75 C821.5625,338.4844 821.2813,338.3438 820.9844,338.3438 C820.6875,338.3438 820.4844,338.4375 820.2656,338.75 L820.0938,338.6719 Z " fill="#000000"/><text fill="#000000" font-family="sans-serif" font-size="14" lengthAdjust="spacing" textLength="66" x="838.25" y="347.8467">EasySave</text><line style="stroke:#181818;stroke-width:0.5;" x1="600" x2="1110" y1="359" y2="359"/><rect fill="none" height="6" style="stroke:#C82930;stroke-width:1.0;" width="6" x="607" y="369.6484"/><text fill="#000000" font-family="sans-serif" font-size="14" lengthAdjust="spacing" textLength="278" x="619" y="375.9951">_saveConfiguration: SaveConfiguration</text><rect fill="none" height="6" style="stroke:#C82930;stroke-width:1.0;" width="6" x="607" y="385.9453"/><text fill="#000000" font-family="sans-serif" font-size="14" lengthAdjust="spacing" textLength="250" x="619" y="392.292">_loggerJournalier : LoggerJournalier</text><rect fill="none" height="6" style="stroke:#C82930;stroke-width:1.0;" width="6" x="607" y="402.2422"/><text fill="#000000" font-family="sans-serif" font-size="14" lengthAdjust="spacing" textLength="178" x="619" y="408.5889">_loggerEtat : LoggerEtat</text><line style="stroke:#181818;stroke-width:0.5;" x1="600" x2="1110" y1="415.8906" y2="415.8906"/><ellipse cx="610" cy="429.5391" fill="#84BE84" rx="3" ry="3" style="stroke:#038048;stroke-width:1.0;"/><text fill="#000000" font-family="sans-serif" font-size="14" lengthAdjust="spacing" textLength="76" x="619" y="432.8857">EasySave()</text><ellipse cx="610" cy="445.8359" fill="#84BE84" rx="3" ry="3" style="stroke:#038048;stroke-width:1.0;"/><text fill="#000000" font-family="sans-serif" font-size="14" lengthAdjust="spacing" textLength="305" x="619" y="449.1826">LancerSauvegarde(listeId: List&lt;int&gt;) : void</text><rect fill="#F24D5C" height="6" style="stroke:#C82930;stroke-width:1.0;" width="6" x="607" y="459.1328"/><text fill="#000000" font-family="sans-serif" font-size="14" lengthAdjust="spacing" textLength="447" x="619" y="465.4795">CopyFile(save: Save, sourceFile: string, targetDir: string) : void</text><rect fill="#F24D5C" height="6" style="stroke:#C82930;stroke-width:1.0;" width="6" x="607" y="475.4297"/><text fill="#000000" font-family="sans-serif" font-size="14" lengthAdjust="spacing" textLength="486" x="619" y="481.7764">CopyDirectory(save: Save, sourceDir: string, targetDir: string) : void</text><ellipse cx="610" cy="494.7266" fill="#84BE84" rx="3" ry="3" style="stroke:#038048;stroke-width:1.0;"/><text fill="#000000" font-family="sans-serif" font-size="14" lengthAdjust="spacing" textLength="351" x="619" y="498.0732">EffectuerSauvegardeComplete(save: Save) : void</text><ellipse cx="610" cy="511.0234" fill="#84BE84" rx="3" ry="3" style="stroke:#038048;stroke-width:1.0;"/><text fill="#000000" font-family="sans-serif" font-size="14" lengthAdjust="spacing" textLength="376" x="619" y="514.3701">EffectuerSauvegardeDifferentielle(save: Save) : void</text><ellipse cx="610" cy="527.3203" fill="#84BE84" rx="3" ry="3" style="stroke:#038048;stroke-width:1.0;"/><text fill="#000000" font-family="sans-serif" font-size="14" lengthAdjust="spacing" text-decoration="underline" textLength="339" x="619" y="530.667">IsSameContent(file1: string, file2: string) : bool</text><rect fill="#F24D5C" height="6" style="stroke:#C82930;stroke-width:1.0;" width="6" x="607" y="540.6172"/><text fill="#000000" font-family="sans-serif" font-size="14" lengthAdjust="spacing" textLength="383" x="619" y="546.9639">UpdateStateSave(save: Save, state: SaveState) : void</text></g><!--class SaveConfiguration--><g id="elem_SaveConfiguration"><rect codeLine="39" fill="#F1F1F1" height="210.9688" id="SaveConfiguration" rx="2.5" ry="2.5" style="stroke:#181818;stroke-width:0.5;" width="848" x="1101" y="614"/><ellipse cx="1454.75" cy="630" fill="#ADD1B2" rx="11" ry="11" style="stroke:#181818;stroke-width:1.0;"/><path d="M1457.0938,625.6719 C1456.1563,625.2344 1455.5625,625.0938 1454.6875,625.0938 C1452.0625,625.0938 1450.0625,627.1719 1450.0625,629.8906 L1450.0625,631.0156 C1450.0625,633.5938 1452.1719,635.4844 1455.0625,635.4844 C1456.2813,635.4844 1457.4375,635.1875 1458.1875,634.6406 C1458.7656,634.2344 1459.0938,633.7813 1459.0938,633.3906 C1459.0938,632.9375 1458.7031,632.5469 1458.2344,632.5469 C1458.0156,632.5469 1457.8125,632.625 1457.625,632.8125 C1457.1719,633.2969 1457.1719,633.2969 1456.9844,633.3906 C1456.5625,633.6563 1455.875,633.7813 1455.1094,633.7813 C1453.0625,633.7813 1451.7656,632.6875 1451.7656,630.9844 L1451.7656,629.8906 C1451.7656,628.1094 1453.0156,626.7969 1454.75,626.7969 C1455.3281,626.7969 1455.9375,626.9531 1456.4063,627.2031 C1456.8906,627.4844 1457.0625,627.7031 1457.1563,628.1094 C1457.2188,628.5156 1457.25,628.6406 1457.3906,628.7656 C1457.5313,628.9063 1457.7656,629.0156 1457.9844,629.0156 C1458.25,629.0156 1458.5156,628.875 1458.6875,628.6563 C1458.7969,628.5 1458.8281,628.3125 1458.8281,627.8906 L1458.8281,626.4688 C1458.8281,626.0313 1458.8125,625.9063 1458.7188,625.75 C1458.5625,625.4844 1458.2813,625.3438 1457.9844,625.3438 C1457.6875,625.3438 1457.4844,625.4375 1457.2656,625.75 L1457.0938,625.6719 Z " fill="#000000"/><text fill="#000000" font-family="sans-serif" font-size="14" lengthAdjust="spacing" textLength="132" x="1475.25" y="634.8467">SaveConfiguration</text><line style="stroke:#181818;stroke-width:0.5;" x1="1102" x2="1948" y1="646" y2="646"/><rect fill="none" height="6" style="stroke:#C82930;stroke-width:1.0;" width="6" x="1109" y="656.6484"/><text fill="#000000" font-family="sans-serif" font-size="14" lengthAdjust="spacing" text-decoration="underline" textLength="209" x="1121" y="662.9951">_instance: SaveConfiguration</text><rect fill="none" height="6" style="stroke:#C82930;stroke-width:1.0;" width="6" x="1109" y="672.9453"/><text fill="#000000" font-family="sans-serif" font-size="14" lengthAdjust="spacing" textLength="224" x="1121" y="679.292">ListeConfiguration: List&lt;Save&gt;</text><line style="stroke:#181818;stroke-width:0.5;" x1="1102" x2="1948" y1="686.5938" y2="686.5938"/><ellipse cx="1112" cy="700.2422" fill="#84BE84" rx="3" ry="3" style="stroke:#038048;stroke-width:1.0;"/><text fill="#000000" font-family="sans-serif" font-size="14" lengthAdjust="spacing" text-decoration="underline" textLength="243" x="1121" y="703.5889">GetInstance() : SaveConfiguration</text><rect fill="#F24D5C" height="6" style="stroke:#C82930;stroke-width:1.0;" width="6" x="1109" y="713.5391"/><text fill="#000000" font-family="sans-serif" font-size="14" lengthAdjust="spacing" text-decoration="underline" textLength="237" x="1121" y="719.8857">GetConfigurations() : List&lt;Save&gt;</text><ellipse cx="1112" cy="732.8359" fill="#84BE84" rx="3" ry="3" style="stroke:#038048;stroke-width:1.0;"/><text fill="#000000" font-family="sans-serif" font-size="14" lengthAdjust="spacing" textLength="230" x="1121" y="736.1826">GetConfiguration() : List&lt;Save&gt;</text><ellipse cx="1112" cy="749.1328" fill="#84BE84" rx="3" ry="3" style="stroke:#038048;stroke-width:1.0;"/><text fill="#000000" font-family="sans-serif" font-size="14" lengthAdjust="spacing" textLength="224" x="1121" y="752.4795">GetConfiguration(id: int) : Save</text><ellipse cx="1112" cy="765.4297" fill="#84BE84" rx="3" ry="3" style="stroke:#038048;stroke-width:1.0;"/><text fill="#000000" font-family="sans-serif" font-size="14" lengthAdjust="spacing" textLength="273" x="1121" y="768.7764">GetConfiguration(name: string) : Save</text><ellipse cx="1112" cy="781.7266" fill="#84BE84" rx="3" ry="3" style="stroke:#038048;stroke-width:1.0;"/><text fill="#000000" font-family="sans-serif" font-size="14" lengthAdjust="spacing" textLength="720" x="1121" y="785.0732">AddConfiguration(name: string, inputFolder: string, outputFolder: string, saveType: SaveType) : void</text><ellipse cx="1112" cy="798.0234" fill="#84BE84" rx="3" ry="3" style="stroke:#038048;stroke-width:1.0;"/><text fill="#000000" font-family="sans-serif" font-size="14" lengthAdjust="spacing" textLength="254" x="1121" y="801.3701">RemoveConfiguration(id: int) : bool</text><ellipse cx="1112" cy="814.3203" fill="#84BE84" rx="3" ry="3" style="stroke:#038048;stroke-width:1.0;"/><text fill="#000000" font-family="sans-serif" font-size="14" lengthAdjust="spacing" textLength="822" x="1121" y="817.667">UpdateConfiguration(id: int, name: string?, inputFolder: string?, outputFolder: string?, saveType: SaveType?) : void</text></g><!--class SaveType--><g id="elem_SaveType"><rect codeLine="52" fill="#F1F1F1" height="80.5938" id="SaveType" rx="2.5" ry="2.5" style="stroke:#181818;stroke-width:0.5;" width="112" x="740" y="1180"/><ellipse cx="759.5" cy="1196" fill="#EB937F" rx="11" ry="11" style="stroke:#181818;stroke-width:1.0;"/><path d="M758.2969,1196.875 L759.75,1196.875 L759.75,1196.9844 C759.75,1197.3906 759.7813,1197.5469 759.8594,1197.7031 C760.0156,1197.9531 760.2969,1198.1094 760.5938,1198.1094 C760.8438,1198.1094 761.1094,1197.9688 761.2656,1197.75 C761.3906,1197.5938 761.4219,1197.4375 761.4219,1196.9844 L761.4219,1195.0625 C761.4219,1194.9063 761.4219,1194.8594 761.4063,1194.7031 C761.3438,1194.2344 761.0313,1193.9219 760.5781,1193.9219 C760.3281,1193.9219 760.0625,1194.0625 759.8906,1194.2813 C759.7813,1194.4531 759.75,1194.6094 759.75,1195.0625 L759.75,1195.1875 L758.2969,1195.1875 L758.2969,1192.7813 L762.2813,1192.7813 L762.2813,1193.6406 C762.2813,1194.0469 762.3125,1194.2188 762.3906,1194.375 C762.5625,1194.625 762.8438,1194.7813 763.125,1194.7813 C763.3906,1194.7813 763.6563,1194.6406 763.8281,1194.4219 C763.9375,1194.25 763.9688,1194.1094 763.9688,1193.6406 L763.9688,1191.0938 L756.3438,1191.0938 C755.9063,1191.0938 755.7813,1191.1094 755.625,1191.2031 C755.375,1191.3594 755.2188,1191.6563 755.2188,1191.9375 C755.2188,1192.2188 755.3594,1192.4688 755.5781,1192.6406 C755.7344,1192.75 755.9219,1192.7813 756.3438,1192.7813 L756.5938,1192.7813 L756.5938,1199.2969 L756.3438,1199.2969 C755.9375,1199.2969 755.7813,1199.3125 755.625,1199.4219 C755.375,1199.5938 755.2188,1199.8594 755.2188,1200.1563 C755.2188,1200.4219 755.3594,1200.6719 755.5781,1200.8281 C755.7188,1200.9531 755.9531,1201 756.3438,1201 L764.3438,1201 L764.3438,1198.4219 C764.3438,1197.9844 764.3125,1197.8438 764.2344,1197.6875 C764.0625,1197.4375 763.7813,1197.2813 763.5,1197.2813 C763.2344,1197.2813 762.9688,1197.3906 762.7969,1197.6406 C762.6875,1197.7969 762.6563,1197.9375 762.6563,1198.4219 L762.6563,1199.2969 L758.2969,1199.2969 L758.2969,1196.875 Z " fill="#000000"/><text fill="#000000" font-family="sans-serif" font-size="14" lengthAdjust="spacing" textLength="70" x="774.5" y="1200.8467">SaveType</text><line style="stroke:#181818;stroke-width:0.5;" x1="741" x2="851" y1="1212" y2="1212"/><text fill="#000000" font-family="sans-serif" font-size="14" lengthAdjust="spacing" textLength="77" x="746" y="1228.9951">COMPLETE</text><text fill="#000000" font-family="sans-serif" font-size="14" lengthAdjust="spacing" textLength="100" x="746" y="1245.292">DIFFERENTIAL</text><line style="stroke:#181818;stroke-width:0.5;" x1="741" x2="851" y1="1252.5938" y2="1252.5938"/></g><!--class SaveState--><g id="elem_SaveState"><rect codeLine="57" fill="#F1F1F1" height="96.8906" id="SaveState" rx="2.5" ry="2.5" style="stroke:#181818;stroke-width:0.5;" width="116" x="887" y="1172"/><ellipse cx="906.5" cy="1188" fill="#EB937F" rx="11" ry="11" style="stroke:#181818;stroke-width:1.0;"/><path d="M905.2969,1188.875 L906.75,1188.875 L906.75,1188.9844 C906.75,1189.3906 906.7813,1189.5469 906.8594,1189.7031 C907.0156,1189.9531 907.2969,1190.1094 907.5938,1190.1094 C907.8438,1190.1094 908.1094,1189.9688 908.2656,1189.75 C908.3906,1189.5938 908.4219,1189.4375 908.4219,1188.9844 L908.4219,1187.0625 C908.4219,1186.9063 908.4219,1186.8594 908.4063,1186.7031 C908.3438,1186.2344 908.0313,1185.9219 907.5781,1185.9219 C907.3281,1185.9219 907.0625,1186.0625 906.8906,1186.2813 C906.7813,1186.4531 906.75,1186.6094 906.75,1187.0625 L906.75,1187.1875 L905.2969,1187.1875 L905.2969,1184.7813 L909.2813,1184.7813 L909.2813,1185.6406 C909.2813,1186.0469 909.3125,1186.2188 909.3906,1186.375 C909.5625,1186.625 909.8438,1186.7813 910.125,1186.7813 C910.3906,1186.7813 910.6563,1186.6406 910.8281,1186.4219 C910.9375,1186.25 910.9688,1186.1094 910.9688,1185.6406 L910.9688,1183.0938 L903.3438,1183.0938 C902.9063,1183.0938 902.7813,1183.1094 902.625,1183.2031 C902.375,1183.3594 902.2188,1183.6563 902.2188,1183.9375 C902.2188,1184.2188 902.3594,1184.4688 902.5781,1184.6406 C902.7344,1184.75 902.9219,1184.7813 903.3438,1184.7813 L903.5938,1184.7813 L903.5938,1191.2969 L903.3438,1191.2969 C902.9375,1191.2969 902.7813,1191.3125 902.625,1191.4219 C902.375,1191.5938 902.2188,1191.8594 902.2188,1192.1563 C902.2188,1192.4219 902.3594,1192.6719 902.5781,1192.8281 C902.7188,1192.9531 902.9531,1193 903.3438,1193 L911.3438,1193 L911.3438,1190.4219 C911.3438,1189.9844 911.3125,1189.8438 911.2344,1189.6875 C911.0625,1189.4375 910.7813,1189.2813 910.5,1189.2813 C910.2344,1189.2813 909.9688,1189.3906 909.7969,1189.6406 C909.6875,1189.7969 909.6563,1189.9375 909.6563,1190.4219 L909.6563,1191.2969 L905.2969,1191.2969 L905.2969,1188.875 Z " fill="#000000"/><text fill="#000000" font-family="sans-serif" font-size="14" lengthAdjust="spacing" textLength="74" x="921.5" y="1192.8467">SaveState</text><line style="stroke:#181818;stroke-width:0.5;" x1="888" x2="1002" y1="1204" y2="1204"/><text fill="#000000" font-family="sans-serif" font-size="14" lengthAdjust="spacing" textLength="104" x="893" y="1220.9951">NOT_STARTED</text><text fill="#000000" font-family="sans-serif" font-size="14" lengthAdjust="spacing" textLength="99" x="893" y="1237.292">IN_PROGRESS</text><text fill="#000000" font-family="sans-serif" font-size="14" lengthAdjust="spacing" textLength="65" x="893" y="1253.5889">FINISHED</text><line style="stroke:#181818;stroke-width:0.5;" x1="888" x2="1002" y1="1260.8906" y2="1260.8906"/></g><!--class SharedLocalizer--><g id="elem_SharedLocalizer"><rect codeLine="80" fill="#F1F1F1" height="96.8906" id="SharedLocalizer" rx="2.5" ry="2.5" style="stroke:#181818;stroke-width:0.5;" width="306" x="7" y="392"/><ellipse cx="98.75" cy="408" fill="#ADD1B2" rx="11" ry="11" style="stroke:#181818;stroke-width:1.0;"/><path d="M101.0938,403.6719 C100.1563,403.2344 99.5625,403.0938 98.6875,403.0938 C96.0625,403.0938 94.0625,405.1719 94.0625,407.8906 L94.0625,409.0156 C94.0625,411.5938 96.1719,413.4844 99.0625,413.4844 C100.2813,413.4844 101.4375,413.1875 102.1875,412.6406 C102.7656,412.2344 103.0938,411.7813 103.0938,411.3906 C103.0938,410.9375 102.7031,410.5469 102.2344,410.5469 C102.0156,410.5469 101.8125,410.625 101.625,410.8125 C101.1719,411.2969 101.1719,411.2969 100.9844,411.3906 C100.5625,411.6563 99.875,411.7813 99.1094,411.7813 C97.0625,411.7813 95.7656,410.6875 95.7656,408.9844 L95.7656,407.8906 C95.7656,406.1094 97.0156,404.7969 98.75,404.7969 C99.3281,404.7969 99.9375,404.9531 100.4063,405.2031 C100.8906,405.4844 101.0625,405.7031 101.1563,406.1094 C101.2188,406.5156 101.25,406.6406 101.3906,406.7656 C101.5313,406.9063 101.7656,407.0156 101.9844,407.0156 C102.25,407.0156 102.5156,406.875 102.6875,406.6563 C102.7969,406.5 102.8281,406.3125 102.8281,405.8906 L102.8281,404.4688 C102.8281,404.0313 102.8125,403.9063 102.7188,403.75 C102.5625,403.4844 102.2813,403.3438 101.9844,403.3438 C101.6875,403.3438 101.4844,403.4375 101.2656,403.75 L101.0938,403.6719 Z " fill="#000000"/><text fill="#000000" font-family="sans-serif" font-size="14" lengthAdjust="spacing" textLength="114" x="119.25" y="412.8467">SharedLocalizer</text><line style="stroke:#181818;stroke-width:0.5;" x1="8" x2="312" y1="424" y2="424"/><rect fill="none" height="6" style="stroke:#C82930;stroke-width:1.0;" width="6" x="15" y="434.6484"/><text fill="#000000" font-family="sans-serif" font-size="14" lengthAdjust="spacing" text-decoration="underline" textLength="266" x="27" y="440.9951">_resourceManager: ResourceManager</text><line style="stroke:#181818;stroke-width:0.5;" x1="8" x2="312" y1="448.2969" y2="448.2969"/><ellipse cx="18" cy="461.9453" fill="#84BE84" rx="3" ry="3" style="stroke:#038048;stroke-width:1.0;"/><text fill="#000000" font-family="sans-serif" font-size="14" lengthAdjust="spacing" text-decoration="underline" textLength="231" x="27" y="465.292">SetCulture(culture: string) : void</text><ellipse cx="18" cy="478.2422" fill="#84BE84" rx="3" ry="3" style="stroke:#038048;stroke-width:1.0;"/><text fill="#000000" font-family="sans-serif" font-size="14" lengthAdjust="spacing" text-decoration="underline" textLength="280" x="27" y="481.5889">GetLocalizedString(key: string) : string</text></g><!--class CommandInterpretor--><g id="elem_CommandInterpretor"><rect codeLine="89" fill="#F1F1F1" height="259.8594" id="CommandInterpretor" rx="2.5" ry="2.5" style="stroke:#181818;stroke-width:0.5;" width="451" x="629.5" y="7"/><ellipse cx="773.25" cy="23" fill="#ADD1B2" rx="11" ry="11" style="stroke:#181818;stroke-width:1.0;"/><path d="M775.5938,18.6719 C774.6563,18.2344 774.0625,18.0938 773.1875,18.0938 C770.5625,18.0938 768.5625,20.1719 768.5625,22.8906 L768.5625,24.0156 C768.5625,26.5938 770.6719,28.4844 773.5625,28.4844 C774.7813,28.4844 775.9375,28.1875 776.6875,27.6406 C777.2656,27.2344 777.5938,26.7813 777.5938,26.3906 C777.5938,25.9375 777.2031,25.5469 776.7344,25.5469 C776.5156,25.5469 776.3125,25.625 776.125,25.8125 C775.6719,26.2969 775.6719,26.2969 775.4844,26.3906 C775.0625,26.6563 774.375,26.7813 773.6094,26.7813 C771.5625,26.7813 770.2656,25.6875 770.2656,23.9844 L770.2656,22.8906 C770.2656,21.1094 771.5156,19.7969 773.25,19.7969 C773.8281,19.7969 774.4375,19.9531 774.9063,20.2031 C775.3906,20.4844 775.5625,20.7031 775.6563,21.1094 C775.7188,21.5156 775.75,21.6406 775.8906,21.7656 C776.0313,21.9063 776.2656,22.0156 776.4844,22.0156 C776.75,22.0156 777.0156,21.875 777.1875,21.6563 C777.2969,21.5 777.3281,21.3125 777.3281,20.8906 L777.3281,19.4688 C777.3281,19.0313 777.3125,18.9063 777.2188,18.75 C777.0625,18.4844 776.7813,18.3438 776.4844,18.3438 C776.1875,18.3438 775.9844,18.4375 775.7656,18.75 L775.5938,18.6719 Z " fill="#000000"/><text fill="#000000" font-family="sans-serif" font-size="14" lengthAdjust="spacing" textLength="155" x="793.75" y="27.8467">CommandInterpretor</text><line style="stroke:#181818;stroke-width:0.5;" x1="630.5" x2="1079.5" y1="39" y2="39"/><line style="stroke:#181818;stroke-width:0.5;" x1="630.5" x2="1079.5" y1="47" y2="47"/><ellipse cx="640.5" cy="60.6484" fill="#84BE84" rx="3" ry="3" style="stroke:#038048;stroke-width:1.0;"/><text fill="#000000" font-family="sans-serif" font-size="14" lengthAdjust="spacing" text-decoration="underline" textLength="284" x="649.5" y="63.9951">ReadCommand(command: string) : void</text><rect fill="#F24D5C" height="6" style="stroke:#C82930;stroke-width:1.0;" width="6" x="637.5" y="73.9453"/><text fill="#000000" font-family="sans-serif" font-size="14" lengthAdjust="spacing" text-decoration="underline" textLength="189" x="649.5" y="80.292">_regexCommand() : Regex</text><rect fill="#F24D5C" height="6" style="stroke:#C82930;stroke-width:1.0;" width="6" x="637.5" y="90.2422"/><text fill="#000000" font-family="sans-serif" font-size="14" lengthAdjust="spacing" text-decoration="underline" textLength="136" x="649.5" y="96.5889">_regexIds() : Regex</text><rect fill="#F24D5C" height="6" style="stroke:#C82930;stroke-width:1.0;" width="6" x="637.5" y="106.5391"/><text fill="#000000" font-family="sans-serif" font-size="14" lengthAdjust="spacing" text-decoration="underline" textLength="161" x="649.5" y="112.8857">_regexParam() : Regex</text><rect fill="#F24D5C" height="6" style="stroke:#C82930;stroke-width:1.0;" width="6" x="637.5" y="122.8359"/><text fill="#000000" font-family="sans-serif" font-size="14" lengthAdjust="spacing" text-decoration="underline" textLength="425" x="649.5" y="129.1826">ExtraireParametre(args: string) : Dictionary&lt;string, string&gt;</text><rect fill="#F24D5C" height="6" style="stroke:#C82930;stroke-width:1.0;" width="6" x="637.5" y="139.1328"/><text fill="#000000" font-family="sans-serif" font-size="14" lengthAdjust="spacing" text-decoration="underline" textLength="261" x="649.5" y="145.4795">ArgIdsToList(args: string) : List&lt;int&gt;</text><rect fill="#F24D5C" height="6" style="stroke:#C82930;stroke-width:1.0;" width="6" x="637.5" y="155.4297"/><text fill="#000000" font-family="sans-serif" font-size="14" lengthAdjust="spacing" text-decoration="underline" textLength="265" x="649.5" y="161.7764">LancerSauvegarde(args: string) : void</text><rect fill="#F24D5C" height="6" style="stroke:#C82930;stroke-width:1.0;" width="6" x="637.5" y="171.7266"/><text fill="#000000" font-family="sans-serif" font-size="14" lengthAdjust="spacing" text-decoration="underline" textLength="184" x="649.5" y="178.0732">ListerSauvegardes() : void</text><rect fill="#F24D5C" height="6" style="stroke:#C82930;stroke-width:1.0;" width="6" x="637.5" y="188.0234"/><text fill="#000000" font-family="sans-serif" font-size="14" lengthAdjust="spacing" text-decoration="underline" textLength="285" x="649.5" y="194.3701">AjouterConfiguration(args: string) : void</text><rect fill="#F24D5C" height="6" style="stroke:#C82930;stroke-width:1.0;" width="6" x="637.5" y="204.3203"/><text fill="#000000" font-family="sans-serif" font-size="14" lengthAdjust="spacing" text-decoration="underline" textLength="291" x="649.5" y="210.667">ModifierConfiguration(args: string) : void</text><rect fill="#F24D5C" height="6" style="stroke:#C82930;stroke-width:1.0;" width="6" x="637.5" y="220.6172"/><text fill="#000000" font-family="sans-serif" font-size="14" lengthAdjust="spacing" text-decoration="underline" textLength="308" x="649.5" y="226.9639">SupprimerConfiguration(args: string) : void</text><rect fill="#F24D5C" height="6" style="stroke:#C82930;stroke-width:1.0;" width="6" x="637.5" y="236.9141"/><text fill="#000000" font-family="sans-serif" font-size="14" lengthAdjust="spacing" text-decoration="underline" textLength="245" x="649.5" y="243.2607">ChangerLangue(args: string) : void</text><rect fill="#F24D5C" height="6" style="stroke:#C82930;stroke-width:1.0;" width="6" x="637.5" y="253.2109"/><text fill="#000000" font-family="sans-serif" font-size="14" lengthAdjust="spacing" text-decoration="underline" textLength="143" x="649.5" y="259.5576">AfficherAide() : void</text></g><!--reverse link Logger to LoggerJournalier--><g id="link_Logger_LoggerJournalier"><path codeLine="6" d="M508.7476,493.8691 C561.7856,546.5271 642.1,626.266 695.1,678.886 " fill="none" id="Logger-backto-LoggerJournalier" style="stroke:#181818;stroke-width:1.0;"/><polygon fill="none" points="495.974,481.187,504.5202,498.1269,512.975,489.6112,495.974,481.187" style="stroke:#181818;stroke-width:1.0;"/></g><!--reverse link Logger to LoggerEtat--><g id="link_Logger_LoggerEtat"><path codeLine="12" d="M409.6562,494.7668 C368.2022,542.4138 310.239,609.034 263.418,662.85 " fill="none" id="Logger-backto-LoggerEtat" style="stroke:#181818;stroke-width:1.0;"/><polygon fill="none" points="421.471,481.187,405.1296,490.8286,414.1828,498.7051,421.471,481.187" style="stroke:#181818;stroke-width:1.0;"/></g><!--reverse link LoggerEtat to Save--><g id="link_LoggerEtat_Save"><path codeLine="13" d="M309.051,782.4107 C336.495,799.3347 357.347,810.877 387,825 C434.229,847.494 485.218,868.749 535.755,888.148 " fill="none" id="LoggerEtat-backto-Save" style="stroke:#181818;stroke-width:1.0;"/><polygon fill="#181818" points="298.837,776.112,301.8444,782.666,309.051,782.4107,306.0436,775.8567,298.837,776.112" style="stroke:#181818;stroke-width:1.0;"/></g><!--reverse link EasySave to SaveConfiguration--><g id="link_EasySave_SaveConfiguration"><path codeLine="21" d="M1122.2594,551.9923 C1174.9894,573.7953 1219.4,592.155 1272.02,613.91 " fill="none" id="EasySave-backto-SaveConfiguration" style="stroke:#181818;stroke-width:1.0;"/><polygon fill="#181818" points="1111.17,547.407,1115.1863,553.3961,1122.2594,551.9923,1118.2431,546.0032,1111.17,547.407" style="stroke:#181818;stroke-width:1.0;"/></g><!--reverse link EasySave to LoggerJournalier--><g id="link_EasySave_LoggerJournalier"><path codeLine="22" d="M801.4208,565.1781 C782.2788,609.3641 766.332,646.176 752.209,678.776 " fill="none" id="EasySave-backto-LoggerJournalier" style="stroke:#181818;stroke-width:1.0;"/><polygon fill="#181818" points="806.191,554.167,800.1355,558.0825,801.4208,565.1781,807.4763,561.2626,806.191,554.167" style="stroke:#181818;stroke-width:1.0;"/></g><!--reverse link EasySave to LoggerEtat--><g id="link_EasySave_LoggerEtat"><path codeLine="23" d="M587.6902,551.6184 C581.6602,553.8454 586.929,551.871 581,554 C496.059,584.503 469.299,576.956 387,614 C356.572,627.696 324.91,645.716 297.169,662.928 " fill="none" id="EasySave-backto-LoggerEtat" style="stroke:#181818;stroke-width:1.0;"/><polygon fill="#181818" points="598.947,547.461,591.9328,545.7874,587.6902,551.6184,594.7044,553.292,598.947,547.461" style="stroke:#181818;stroke-width:1.0;"/></g><!--reverse link SaveConfiguration to Save--><g id="link_SaveConfiguration_Save"><path codeLine="38" d="M1266.7878,829.6984 C1220.4878,849.2804 1182.95,865.154 1136.1,884.967 " fill="none" id="SaveConfiguration-backto-Save" style="stroke:#181818;stroke-width:1.0;"/><polygon fill="none" points="1277.84,825.024,1270.7558,823.6771,1266.7878,829.6984,1273.872,831.0452,1277.84,825.024" style="stroke:#181818;stroke-width:1.0;"/></g><!--link Save to SaveType--><g id="link_Save_SaveType"><path codeLine="63" d="M832.133,1112.078 C823.954,1136.393 817.7449,1154.8531 811.2789,1174.0763 " fill="none" id="Save-to-SaveType" style="stroke:#181818;stroke-width:1.0;"/><polygon fill="#181818" points="809.366,1179.7632,816.0266,1172.5081,810.9601,1175.0241,808.444,1169.9576,809.366,1179.7632" style="stroke:#181818;stroke-width:1.0;"/></g><!--link Save to SaveState--><g id="link_Save_SaveState"><path codeLine="64" d="M908.379,1112.078 C915.551,1133.116 920.744,1148.3489 926.78,1166.0545 " fill="none" id="Save-to-SaveState" style="stroke:#181818;stroke-width:1.0;"/><polygon fill="#181818" points="928.716,1171.7336,929.598,1161.9243,927.1026,1167.001,922.0259,1164.5057,928.716,1171.7336" style="stroke:#181818;stroke-width:1.0;"/></g><!--link CommandInterpretor to SharedLocalizer--><g id="link_CommandInterpretor_SharedLocalizer"><path codeLine="86" d="M629.309,206.39 C535.004,238.27 425.59,279.659 331,327 C294.137,345.449 260.4991,366.8555 229.3421,388.4935 " fill="none" id="CommandInterpretor-to-SharedLocalizer" style="stroke:#181818;stroke-width:1.0;"/><polygon fill="#181818" points="224.414,391.916,234.0879,390.0677,228.5208,389.0639,229.5245,383.4968,224.414,391.916" style="stroke:#181818;stroke-width:1.0;"/></g><!--reverse link CommandInterpretor to SaveConfiguration--><g id="link_CommandInterpretor_SaveConfiguration"><path codeLine="87" d="M1060.1642,274.2189 C1086.7642,293.5679 1103.59,306.77 1128,327 C1236.82,417.176 1350.64,531.833 1428.37,613.717 " fill="none" id="CommandInterpretor-backto-SaveConfiguration" style="stroke:#181818;stroke-width:1.0;"/><polygon fill="#181818" points="1050.46,267.16,1052.9591,273.9242,1060.1642,274.2189,1057.6651,267.4547,1050.46,267.16" style="stroke:#181818;stroke-width:1.0;"/></g><!--reverse link CommandInterpretor to EasySave--><g id="link_CommandInterpretor_EasySave"><path codeLine="88" d="M855,279.18 C855,298.994 855,307.321 855,326.747 " fill="none" id="CommandInterpretor-backto-EasySave" style="stroke:#181818;stroke-width:1.0;"/><polygon fill="#181818" points="855,267.18,851,273.18,855,279.18,859,273.18,855,267.18" style="stroke:#181818;stroke-width:1.0;"/></g><!--SRC=[fLPRRvim57uklm9fBtGfqhR7g6iK9QHZIfCgCEqnSi5GRu2HRQgcNV_xZiqb1fnsrVhGm3dVkNy-1jrnmL0ax2X3dDjhcgQOsS-M3NyVu6r5CZorvVz0C8poMf7HrCanvoW59JWWHNfkJ-q7IcBhnR8QBvT_NBVn-9rMh40PmSpI0nt5JSZ9KEwSTtA7emUyBr3UnRomEG0ZxLqWbcAXwSaJQ4aXGCLGmHFCze983qb6aNWzQKyWOHqVxO-W2I27NWbAKoVlxcM62rea9AqO4eGMu3yOolH2fNLRuZoE9LQLMPjrwIdzJqO4J049p4Cg9-BewNk87wHDbsK_Payzceb1gugl2-sq9yiqLNdcxhFXaAVZq1rCDNAgHrTLjy4x8g0YmYn0rGDE4Oknan4ki1-39JnSmgYlkhQSkGjQ7bIhZarjILCpkq-S9M4ZFgkIfHzGuaXGTZ0uqmpVyZNnaWJyL7eH2vgN6HQdPs-mMHAGCLm8WhFifEKpXqwIw6NYym1E3en8W8cJGF6VZndBrozwjdUKPj2-7sMC6iuDg0c5IsdzeW0w6KTii6d_x8m1pzPPcwkx9mKy5X4syqeEUiW_DNm9lZhwcLnZuJUUr5anEEjY0hQduif2TpiPGlu1GMArVThW9eY-q3GSR8FJk0jmMbPYHRCOQyIZbJ18vT32GzaqKpuT3yXaXtCwQ8gUTCs3ISq38-h2rXER6JERcLERcNARwJp2HPLt6hL-5jkRsxKNUl2uz5ShR-TjGd- -xe4L7HLwimttGJZVXTuItlpD_dQtlTvvGG1lAt_Z1zz0qV3LTjshBbPVeXngp1sG5GPLmR5YgX_sL_iJTColkmDF6wqzKZ5k3qYtXlQ0E1Yr1uGX5IYJsmkk0RcNsa17UT3UUZBydH9bE14XNT9M70nERnEidUgiFzR_vPibczpqxnun7Azf1El_ITtxMYiPhjVf3IhWqm9yxle2xMm7S8wgJ5GCEr7zEzgslKNGHem31N9-uuDkqBGSqeHTdACYzkL4IuPXuTSywETjWfbltXF0zbvhsc90QPs1OuhY1k94zU_fScKVK_pOuYLW9mKZX1_pLxItYA7SgFSUuMCARaE5mF1TwC2Dn_M4bYIInIDskEneeNwrzUpEMGePX5Ikq967xZRN34Pt_z1eq0TrKMXuxXX0yrz0Oypwo-qDnpSq9Wbvfr5GbIM3Ry_tMItkKG7CXzBJwis2vqb2edlCvYJMlmx_0W00]--></g></svg>