<?xml version="1.0" encoding="us-ascii" standalone="no"?><svg xmlns="http://www.w3.org/2000/svg" xmlns:xlink="http://www.w3.org/1999/xlink" contentStyleType="text/css" height="1383px" preserveAspectRatio="none" style="width:1405px;height:1383px;background:#FFFFFF;" version="1.1" viewBox="0 0 1405 1383" width="1405px" zoomAndPan="magnify"><defs/><g><!--class Logger--><g id="elem_Logger"><rect codeLine="1" fill="#F1F1F1" height="80.5938" id="Logger" rx="2.5" ry="2.5" style="stroke:#181818;stroke-width:0.5;" width="215" x="300" y="614"/><ellipse cx="378.25" cy="630" fill="#A9DCDF" rx="11" ry="11" style="stroke:#181818;stroke-width:1.0;"/><path d="M380.3281,631.8125 L380.7188,632.7969 L380.3281,632.7969 C379.875,632.7969 379.7656,632.8125 379.6094,632.9219 C379.3594,633.0781 379.2031,633.3594 379.2031,633.6563 C379.2031,633.9219 379.3438,634.1719 379.5625,634.3281 C379.7031,634.4531 379.9063,634.5 380.3281,634.5 L382.6875,634.5 C383.0469,634.5 383.2656,634.4688 383.4063,634.375 C383.6563,634.2344 383.8125,633.9375 383.8125,633.6563 C383.8125,633.375 383.6719,633.125 383.4531,632.9688 C383.2813,632.8281 383.125,632.7969 382.6563,632.7969 L379.2656,624.5938 L375.5938,624.5938 C375.1406,624.5938 375.0156,624.6094 374.8594,624.7031 C374.6094,624.875 374.4531,625.1563 374.4531,625.4375 C374.4531,625.7188 374.5938,625.9688 374.8125,626.1406 C374.9844,626.25 375.1563,626.2813 375.5938,626.2813 L376.6719,626.2813 L374.0313,632.7969 C373.6094,632.7969 373.4531,632.8125 373.2969,632.9219 C373.0469,633.0781 372.8906,633.3594 372.8906,633.6563 C372.8906,634.2188 373.2656,634.5 374.0156,634.5 L376.2813,634.5 C376.6406,634.5 376.8594,634.4688 376.9844,634.375 C377.25,634.2344 377.3906,633.9375 377.3906,633.6563 C377.3906,633.375 377.2656,633.125 377.0469,632.9531 C376.875,632.8281 376.7344,632.7969 376.2813,632.7969 L375.8906,632.7969 L376.2813,631.8125 L380.3281,631.8125 Z M379.625,630.1094 L376.9531,630.1094 L378.2969,626.8438 L379.625,630.1094 Z " fill="#000000"/><text fill="#000000" font-family="sans-serif" font-size="14" font-style="italic" lengthAdjust="spacing" textLength="50" x="398.75" y="634.8467">Logger</text><line style="stroke:#181818;stroke-width:0.5;" x1="301" x2="514" y1="646" y2="646"/><polygon fill="none" points="311,654.6484,315,658.6484,311,662.6484,307,658.6484" style="stroke:#B38D22;stroke-width:1.0;"/><text fill="#000000" font-family="sans-serif" font-size="14" lengthAdjust="spacing" textLength="138" x="320" y="662.9951">LogFile: FileStream</text><line style="stroke:#181818;stroke-width:0.5;" x1="301" x2="514" y1="670.2969" y2="670.2969"/><ellipse cx="311" cy="683.9453" fill="#84BE84" rx="3" ry="3" style="stroke:#038048;stroke-width:1.0;"/><text fill="#000000" font-family="sans-serif" font-size="14" lengthAdjust="spacing" textLength="189" x="320" y="687.292">log(message: string) : void</text></g><!--class LoggerJournalier--><g id="elem_LoggerJournalier"><rect codeLine="7" fill="#F1F1F1" height="80.5938" id="LoggerJournalier" rx="2.5" ry="2.5" style="stroke:#181818;stroke-width:0.5;" width="661" x="9" y="836"/><ellipse cx="276.75" cy="852" fill="#ADD1B2" rx="11" ry="11" style="stroke:#181818;stroke-width:1.0;"/><path d="M279.0938,847.6719 C278.1563,847.2344 277.5625,847.0938 276.6875,847.0938 C274.0625,847.0938 272.0625,849.1719 272.0625,851.8906 L272.0625,853.0156 C272.0625,855.5938 274.1719,857.4844 277.0625,857.4844 C278.2813,857.4844 279.4375,857.1875 280.1875,856.6406 C280.7656,856.2344 281.0938,855.7813 281.0938,855.3906 C281.0938,854.9375 280.7031,854.5469 280.2344,854.5469 C280.0156,854.5469 279.8125,854.625 279.625,854.8125 C279.1719,855.2969 279.1719,855.2969 278.9844,855.3906 C278.5625,855.6563 277.875,855.7813 277.1094,855.7813 C275.0625,855.7813 273.7656,854.6875 273.7656,852.9844 L273.7656,851.8906 C273.7656,850.1094 275.0156,848.7969 276.75,848.7969 C277.3281,848.7969 277.9375,848.9531 278.4063,849.2031 C278.8906,849.4844 279.0625,849.7031 279.1563,850.1094 C279.2188,850.5156 279.25,850.6406 279.3906,850.7656 C279.5313,850.9063 279.7656,851.0156 279.9844,851.0156 C280.25,851.0156 280.5156,850.875 280.6875,850.6563 C280.7969,850.5 280.8281,850.3125 280.8281,849.8906 L280.8281,848.4688 C280.8281,848.0313 280.8125,847.9063 280.7188,847.75 C280.5625,847.4844 280.2813,847.3438 279.9844,847.3438 C279.6875,847.3438 279.4844,847.4375 279.2656,847.75 L279.0938,847.6719 Z " fill="#000000"/><text fill="#000000" font-family="sans-serif" font-size="14" lengthAdjust="spacing" textLength="117" x="297.25" y="856.8467">LoggerJournalier</text><line style="stroke:#181818;stroke-width:0.5;" x1="10" x2="669" y1="868" y2="868"/><line style="stroke:#181818;stroke-width:0.5;" x1="10" x2="669" y1="876" y2="876"/><ellipse cx="20" cy="889.6484" fill="#84BE84" rx="3" ry="3" style="stroke:#038048;stroke-width:1.0;"/><text fill="#000000" font-family="sans-serif" font-size="14" lengthAdjust="spacing" textLength="127" x="29" y="892.9951">LoggerJournalier()</text><polygon fill="#FFFF44" points="20,900.9453,24,904.9453,20,908.9453,16,904.9453" style="stroke:#B38D22;stroke-width:1.0;"/><text fill="#000000" font-family="sans-serif" font-size="14" lengthAdjust="spacing" textLength="635" x="29" y="909.292">Log(save_name: string, source: string, target: string, size: int, transfer_time: float) : void</text></g><!--class LoggerEtat--><g id="elem_LoggerEtat"><rect codeLine="14" fill="#F1F1F1" height="113.1875" id="LoggerEtat" rx="2.5" ry="2.5" style="stroke:#181818;stroke-width:0.5;" width="216" x="705.5" y="820"/><ellipse cx="768.75" cy="836" fill="#ADD1B2" rx="11" ry="11" style="stroke:#181818;stroke-width:1.0;"/><path d="M771.0938,831.6719 C770.1563,831.2344 769.5625,831.0938 768.6875,831.0938 C766.0625,831.0938 764.0625,833.1719 764.0625,835.8906 L764.0625,837.0156 C764.0625,839.5938 766.1719,841.4844 769.0625,841.4844 C770.2813,841.4844 771.4375,841.1875 772.1875,840.6406 C772.7656,840.2344 773.0938,839.7813 773.0938,839.3906 C773.0938,838.9375 772.7031,838.5469 772.2344,838.5469 C772.0156,838.5469 771.8125,838.625 771.625,838.8125 C771.1719,839.2969 771.1719,839.2969 770.9844,839.3906 C770.5625,839.6563 769.875,839.7813 769.1094,839.7813 C767.0625,839.7813 765.7656,838.6875 765.7656,836.9844 L765.7656,835.8906 C765.7656,834.1094 767.0156,832.7969 768.75,832.7969 C769.3281,832.7969 769.9375,832.9531 770.4063,833.2031 C770.8906,833.4844 771.0625,833.7031 771.1563,834.1094 C771.2188,834.5156 771.25,834.6406 771.3906,834.7656 C771.5313,834.9063 771.7656,835.0156 771.9844,835.0156 C772.25,835.0156 772.5156,834.875 772.6875,834.6563 C772.7969,834.5 772.8281,834.3125 772.8281,833.8906 L772.8281,832.4688 C772.8281,832.0313 772.8125,831.9063 772.7188,831.75 C772.5625,831.4844 772.2813,831.3438 771.9844,831.3438 C771.6875,831.3438 771.4844,831.4375 771.2656,831.75 L771.0938,831.6719 Z " fill="#000000"/><text fill="#000000" font-family="sans-serif" font-size="14" lengthAdjust="spacing" textLength="81" x="789.25" y="840.8467">LoggerEtat</text><line style="stroke:#181818;stroke-width:0.5;" x1="706.5" x2="920.5" y1="852" y2="852"/><ellipse cx="716.5" cy="865.6484" fill="none" rx="3" ry="3" style="stroke:#038048;stroke-width:1.0;"/><text fill="#000000" font-family="sans-serif" font-size="14" lengthAdjust="spacing" textLength="130" x="725.5" y="868.9951">saves: List&lt;Save&gt;</text><line style="stroke:#181818;stroke-width:0.5;" x1="706.5" x2="920.5" y1="876.2969" y2="876.2969"/><ellipse cx="716.5" cy="889.9453" fill="#84BE84" rx="3" ry="3" style="stroke:#038048;stroke-width:1.0;"/><text fill="#000000" font-family="sans-serif" font-size="14" lengthAdjust="spacing" textLength="91" x="725.5" y="893.292">LoggerEtat()</text><ellipse cx="716.5" cy="906.2422" fill="#84BE84" rx="3" ry="3" style="stroke:#038048;stroke-width:1.0;"/><text fill="#000000" font-family="sans-serif" font-size="14" lengthAdjust="spacing" textLength="190" x="725.5" y="909.5889">AddSave(save: Save) : void</text><ellipse cx="716.5" cy="922.5391" fill="#84BE84" rx="3" ry="3" style="stroke:#038048;stroke-width:1.0;"/><text fill="#000000" font-family="sans-serif" font-size="14" lengthAdjust="spacing" textLength="183" x="725.5" y="925.8857">WriteStatesToFile() : void</text></g><!--class Save--><g id="elem_Save"><rect codeLine="60" fill="#F1F1F1" height="227.2656" id="Save" rx="2.5" ry="2.5" style="stroke:#181818;stroke-width:0.5;" width="668" x="559.5" y="993"/><ellipse cx="872.25" cy="1009" fill="#ADD1B2" rx="11" ry="11" style="stroke:#181818;stroke-width:1.0;"/><path d="M874.5938,1004.6719 C873.6563,1004.2344 873.0625,1004.0938 872.1875,1004.0938 C869.5625,1004.0938 867.5625,1006.1719 867.5625,1008.8906 L867.5625,1010.0156 C867.5625,1012.5938 869.6719,1014.4844 872.5625,1014.4844 C873.7813,1014.4844 874.9375,1014.1875 875.6875,1013.6406 C876.2656,1013.2344 876.5938,1012.7813 876.5938,1012.3906 C876.5938,1011.9375 876.2031,1011.5469 875.7344,1011.5469 C875.5156,1011.5469 875.3125,1011.625 875.125,1011.8125 C874.6719,1012.2969 874.6719,1012.2969 874.4844,1012.3906 C874.0625,1012.6563 873.375,1012.7813 872.6094,1012.7813 C870.5625,1012.7813 869.2656,1011.6875 869.2656,1009.9844 L869.2656,1008.8906 C869.2656,1007.1094 870.5156,1005.7969 872.25,1005.7969 C872.8281,1005.7969 873.4375,1005.9531 873.9063,1006.2031 C874.3906,1006.4844 874.5625,1006.7031 874.6563,1007.1094 C874.7188,1007.5156 874.75,1007.6406 874.8906,1007.7656 C875.0313,1007.9063 875.2656,1008.0156 875.4844,1008.0156 C875.75,1008.0156 876.0156,1007.875 876.1875,1007.6563 C876.2969,1007.5 876.3281,1007.3125 876.3281,1006.8906 L876.3281,1005.4688 C876.3281,1005.0313 876.3125,1004.9063 876.2188,1004.75 C876.0625,1004.4844 875.7813,1004.3438 875.4844,1004.3438 C875.1875,1004.3438 874.9844,1004.4375 874.7656,1004.75 L874.5938,1004.6719 Z " fill="#000000"/><text fill="#000000" font-family="sans-serif" font-size="14" lengthAdjust="spacing" textLength="34" x="892.75" y="1013.8467">Save</text><line style="stroke:#181818;stroke-width:0.5;" x1="560.5" x2="1226.5" y1="1025" y2="1025"/><rect fill="none" height="6" style="stroke:#C82930;stroke-width:1.0;" width="6" x="567.5" y="1035.6484"/><text fill="#000000" font-family="sans-serif" font-size="14" lengthAdjust="spacing" text-decoration="underline" textLength="135" x="579.5" y="1041.9951">_idCounter: int = 0</text><ellipse cx="570.5" cy="1054.9453" fill="none" rx="3" ry="3" style="stroke:#038048;stroke-width:1.0;"/><text fill="#000000" font-family="sans-serif" font-size="14" lengthAdjust="spacing" textLength="42" x="579.5" y="1058.292">Id: int</text><ellipse cx="570.5" cy="1071.2422" fill="none" rx="3" ry="3" style="stroke:#038048;stroke-width:1.0;"/><text fill="#000000" font-family="sans-serif" font-size="14" lengthAdjust="spacing" textLength="92" x="579.5" y="1074.5889">Name: string</text><ellipse cx="570.5" cy="1087.5391" fill="none" rx="3" ry="3" style="stroke:#038048;stroke-width:1.0;"/><text fill="#000000" font-family="sans-serif" font-size="14" lengthAdjust="spacing" textLength="134" x="579.5" y="1090.8857">InputFolder: string</text><ellipse cx="570.5" cy="1103.8359" fill="none" rx="3" ry="3" style="stroke:#038048;stroke-width:1.0;"/><text fill="#000000" font-family="sans-serif" font-size="14" lengthAdjust="spacing" textLength="147" x="579.5" y="1107.1826">OutputFolder: string</text><ellipse cx="570.5" cy="1120.1328" fill="none" rx="3" ry="3" style="stroke:#038048;stroke-width:1.0;"/><text fill="#000000" font-family="sans-serif" font-size="14" lengthAdjust="spacing" textLength="149" x="579.5" y="1123.4795">SaveType: SaveType</text><ellipse cx="570.5" cy="1136.4297" fill="none" rx="3" ry="3" style="stroke:#038048;stroke-width:1.0;"/><text fill="#000000" font-family="sans-serif" font-size="14" lengthAdjust="spacing" textLength="153" x="579.5" y="1139.7764">TotalFilesToCopy: int</text><ellipse cx="570.5" cy="1152.7266" fill="none" rx="3" ry="3" style="stroke:#038048;stroke-width:1.0;"/><text fill="#000000" font-family="sans-serif" font-size="14" lengthAdjust="spacing" textLength="128" x="579.5" y="1156.0732">TotalFilesSize: int</text><ellipse cx="570.5" cy="1169.0234" fill="none" rx="3" ry="3" style="stroke:#038048;stroke-width:1.0;"/><text fill="#000000" font-family="sans-serif" font-size="14" lengthAdjust="spacing" textLength="145" x="579.5" y="1172.3701">NbFilesleftToDo: int</text><ellipse cx="570.5" cy="1185.3203" fill="none" rx="3" ry="3" style="stroke:#038048;stroke-width:1.0;"/><text fill="#000000" font-family="sans-serif" font-size="14" lengthAdjust="spacing" textLength="123" x="579.5" y="1188.667">State: SaveState</text><line style="stroke:#181818;stroke-width:0.5;" x1="560.5" x2="1226.5" y1="1195.9688" y2="1195.9688"/><ellipse cx="570.5" cy="1209.6172" fill="#84BE84" rx="3" ry="3" style="stroke:#038048;stroke-width:1.0;"/><text fill="#000000" font-family="sans-serif" font-size="14" lengthAdjust="spacing" textLength="642" x="579.5" y="1212.9639">Save(id: int?, name: string, inputFolder: string, outputFolder: string, saveType: SaveType)</text></g><!--class EasySave--><g id="elem_EasySave"><rect codeLine="23" fill="#F1F1F1" height="162.0781" id="EasySave" rx="2.5" ry="2.5" style="stroke:#181818;stroke-width:0.5;" width="429" x="492" y="327"/><ellipse cx="669.25" cy="343" fill="#ADD1B2" rx="11" ry="11" style="stroke:#181818;stroke-width:1.0;"/><path d="M671.5938,338.6719 C670.6563,338.2344 670.0625,338.0938 669.1875,338.0938 C666.5625,338.0938 664.5625,340.1719 664.5625,342.8906 L664.5625,344.0156 C664.5625,346.5938 666.6719,348.4844 669.5625,348.4844 C670.7813,348.4844 671.9375,348.1875 672.6875,347.6406 C673.2656,347.2344 673.5938,346.7813 673.5938,346.3906 C673.5938,345.9375 673.2031,345.5469 672.7344,345.5469 C672.5156,345.5469 672.3125,345.625 672.125,345.8125 C671.6719,346.2969 671.6719,346.2969 671.4844,346.3906 C671.0625,346.6563 670.375,346.7813 669.6094,346.7813 C667.5625,346.7813 666.2656,345.6875 666.2656,343.9844 L666.2656,342.8906 C666.2656,341.1094 667.5156,339.7969 669.25,339.7969 C669.8281,339.7969 670.4375,339.9531 670.9063,340.2031 C671.3906,340.4844 671.5625,340.7031 671.6563,341.1094 C671.7188,341.5156 671.75,341.6406 671.8906,341.7656 C672.0313,341.9063 672.2656,342.0156 672.4844,342.0156 C672.75,342.0156 673.0156,341.875 673.1875,341.6563 C673.2969,341.5 673.3281,341.3125 673.3281,340.8906 L673.3281,339.4688 C673.3281,339.0313 673.3125,338.9063 673.2188,338.75 C673.0625,338.4844 672.7813,338.3438 672.4844,338.3438 C672.1875,338.3438 671.9844,338.4375 671.7656,338.75 L671.5938,338.6719 Z " fill="#000000"/><text fill="#000000" font-family="sans-serif" font-size="14" lengthAdjust="spacing" textLength="66" x="689.75" y="347.8467">EasySave</text><line style="stroke:#181818;stroke-width:0.5;" x1="493" x2="920" y1="359" y2="359"/><rect fill="none" height="6" style="stroke:#C82930;stroke-width:1.0;" width="6" x="500" y="369.6484"/><text fill="#000000" font-family="sans-serif" font-size="14" lengthAdjust="spacing" textLength="278" x="512" y="375.9951">_saveConfiguration: SaveConfiguration</text><line style="stroke:#181818;stroke-width:0.5;" x1="493" x2="920" y1="383.2969" y2="383.2969"/><ellipse cx="503" cy="396.9453" fill="#84BE84" rx="3" ry="3" style="stroke:#038048;stroke-width:1.0;"/><text fill="#000000" font-family="sans-serif" font-size="14" lengthAdjust="spacing" textLength="76" x="512" y="400.292">EasySave()</text><ellipse cx="503" cy="413.2422" fill="#84BE84" rx="3" ry="3" style="stroke:#038048;stroke-width:1.0;"/><text fill="#000000" font-family="sans-serif" font-size="14" lengthAdjust="spacing" textLength="305" x="512" y="416.5889">LancerSauvegarde(listeId: List&lt;int&gt;) : void</text><rect fill="#F24D5C" height="6" style="stroke:#C82930;stroke-width:1.0;" width="6" x="500" y="426.5391"/><text fill="#000000" font-family="sans-serif" font-size="14" lengthAdjust="spacing" textLength="403" x="512" y="432.8857">CopyDirectory(sourceDir: string, targetDir: string) : void</text><ellipse cx="503" cy="445.8359" fill="#84BE84" rx="3" ry="3" style="stroke:#038048;stroke-width:1.0;"/><text fill="#000000" font-family="sans-serif" font-size="14" lengthAdjust="spacing" textLength="351" x="512" y="449.1826">EffectuerSauvegardeComplete(save: Save) : void</text><ellipse cx="503" cy="462.1328" fill="#84BE84" rx="3" ry="3" style="stroke:#038048;stroke-width:1.0;"/><text fill="#000000" font-family="sans-serif" font-size="14" lengthAdjust="spacing" textLength="376" x="512" y="465.4795">EffectuerSauvegardeDifferentielle(save: Save) : void</text><ellipse cx="503" cy="478.4297" fill="#84BE84" rx="3" ry="3" style="stroke:#038048;stroke-width:1.0;"/><text fill="#000000" font-family="sans-serif" font-size="14" lengthAdjust="spacing" text-decoration="underline" textLength="339" x="512" y="481.7764">IsSameContent(file1: string, file2: string) : bool</text></g><!--class SaveConfiguration--><g id="elem_SaveConfiguration"><rect codeLine="34" fill="#F1F1F1" height="210.9688" id="SaveConfiguration" rx="2.5" ry="2.5" style="stroke:#181818;stroke-width:0.5;" width="848" x="550.5" y="549"/><ellipse cx="904.25" cy="565" fill="#ADD1B2" rx="11" ry="11" style="stroke:#181818;stroke-width:1.0;"/><path d="M906.5938,560.6719 C905.6563,560.2344 905.0625,560.0938 904.1875,560.0938 C901.5625,560.0938 899.5625,562.1719 899.5625,564.8906 L899.5625,566.0156 C899.5625,568.5938 901.6719,570.4844 904.5625,570.4844 C905.7813,570.4844 906.9375,570.1875 907.6875,569.6406 C908.2656,569.2344 908.5938,568.7813 908.5938,568.3906 C908.5938,567.9375 908.2031,567.5469 907.7344,567.5469 C907.5156,567.5469 907.3125,567.625 907.125,567.8125 C906.6719,568.2969 906.6719,568.2969 906.4844,568.3906 C906.0625,568.6563 905.375,568.7813 904.6094,568.7813 C902.5625,568.7813 901.2656,567.6875 901.2656,565.9844 L901.2656,564.8906 C901.2656,563.1094 902.5156,561.7969 904.25,561.7969 C904.8281,561.7969 905.4375,561.9531 905.9063,562.2031 C906.3906,562.4844 906.5625,562.7031 906.6563,563.1094 C906.7188,563.5156 906.75,563.6406 906.8906,563.7656 C907.0313,563.9063 907.2656,564.0156 907.4844,564.0156 C907.75,564.0156 908.0156,563.875 908.1875,563.6563 C908.2969,563.5 908.3281,563.3125 908.3281,562.8906 L908.3281,561.4688 C908.3281,561.0313 908.3125,560.9063 908.2188,560.75 C908.0625,560.4844 907.7813,560.3438 907.4844,560.3438 C907.1875,560.3438 906.9844,560.4375 906.7656,560.75 L906.5938,560.6719 Z " fill="#000000"/><text fill="#000000" font-family="sans-serif" font-size="14" lengthAdjust="spacing" textLength="132" x="924.75" y="569.8467">SaveConfiguration</text><line style="stroke:#181818;stroke-width:0.5;" x1="551.5" x2="1397.5" y1="581" y2="581"/><rect fill="none" height="6" style="stroke:#C82930;stroke-width:1.0;" width="6" x="558.5" y="591.6484"/><text fill="#000000" font-family="sans-serif" font-size="14" lengthAdjust="spacing" text-decoration="underline" textLength="209" x="570.5" y="597.9951">_instance: SaveConfiguration</text><rect fill="none" height="6" style="stroke:#C82930;stroke-width:1.0;" width="6" x="558.5" y="607.9453"/><text fill="#000000" font-family="sans-serif" font-size="14" lengthAdjust="spacing" textLength="224" x="570.5" y="614.292">ListeConfiguration: List&lt;Save&gt;</text><line style="stroke:#181818;stroke-width:0.5;" x1="551.5" x2="1397.5" y1="621.5938" y2="621.5938"/><ellipse cx="561.5" cy="635.2422" fill="#84BE84" rx="3" ry="3" style="stroke:#038048;stroke-width:1.0;"/><text fill="#000000" font-family="sans-serif" font-size="14" lengthAdjust="spacing" text-decoration="underline" textLength="243" x="570.5" y="638.5889">GetInstance() : SaveConfiguration</text><rect fill="#F24D5C" height="6" style="stroke:#C82930;stroke-width:1.0;" width="6" x="558.5" y="648.5391"/><text fill="#000000" font-family="sans-serif" font-size="14" lengthAdjust="spacing" textLength="237" x="570.5" y="654.8857">GetConfigurations() : List&lt;Save&gt;</text><ellipse cx="561.5" cy="667.8359" fill="#84BE84" rx="3" ry="3" style="stroke:#038048;stroke-width:1.0;"/><text fill="#000000" font-family="sans-serif" font-size="14" lengthAdjust="spacing" textLength="230" x="570.5" y="671.1826">GetConfiguration() : List&lt;Save&gt;</text><ellipse cx="561.5" cy="684.1328" fill="#84BE84" rx="3" ry="3" style="stroke:#038048;stroke-width:1.0;"/><text fill="#000000" font-family="sans-serif" font-size="14" lengthAdjust="spacing" textLength="224" x="570.5" y="687.4795">GetConfiguration(id: int) : Save</text><ellipse cx="561.5" cy="700.4297" fill="#84BE84" rx="3" ry="3" style="stroke:#038048;stroke-width:1.0;"/><text fill="#000000" font-family="sans-serif" font-size="14" lengthAdjust="spacing" textLength="273" x="570.5" y="703.7764">GetConfiguration(name: string) : Save</text><ellipse cx="561.5" cy="716.7266" fill="#84BE84" rx="3" ry="3" style="stroke:#038048;stroke-width:1.0;"/><text fill="#000000" font-family="sans-serif" font-size="14" lengthAdjust="spacing" textLength="720" x="570.5" y="720.0732">AddConfiguration(name: string, inputFolder: string, outputFolder: string, saveType: SaveType) : void</text><ellipse cx="561.5" cy="733.0234" fill="#84BE84" rx="3" ry="3" style="stroke:#038048;stroke-width:1.0;"/><text fill="#000000" font-family="sans-serif" font-size="14" lengthAdjust="spacing" textLength="254" x="570.5" y="736.3701">RemoveConfiguration(id: int) : bool</text><ellipse cx="561.5" cy="749.3203" fill="#84BE84" rx="3" ry="3" style="stroke:#038048;stroke-width:1.0;"/><text fill="#000000" font-family="sans-serif" font-size="14" lengthAdjust="spacing" textLength="822" x="570.5" y="752.667">UpdateConfiguration(id: int, name: string?, inputFolder: string?, outputFolder: string?, saveType: SaveType?) : void</text></g><!--class SaveType--><g id="elem_SaveType"><rect codeLine="47" fill="#F1F1F1" height="80.5938" id="SaveType" rx="2.5" ry="2.5" style="stroke:#181818;stroke-width:0.5;" width="112" x="763.5" y="1288"/><ellipse cx="783" cy="1304" fill="#EB937F" rx="11" ry="11" style="stroke:#181818;stroke-width:1.0;"/><path d="M781.7969,1304.875 L783.25,1304.875 L783.25,1304.9844 C783.25,1305.3906 783.2813,1305.5469 783.3594,1305.7031 C783.5156,1305.9531 783.7969,1306.1094 784.0938,1306.1094 C784.3438,1306.1094 784.6094,1305.9688 784.7656,1305.75 C784.8906,1305.5938 784.9219,1305.4375 784.9219,1304.9844 L784.9219,1303.0625 C784.9219,1302.9063 784.9219,1302.8594 784.9063,1302.7031 C784.8438,1302.2344 784.5313,1301.9219 784.0781,1301.9219 C783.8281,1301.9219 783.5625,1302.0625 783.3906,1302.2813 C783.2813,1302.4531 783.25,1302.6094 783.25,1303.0625 L783.25,1303.1875 L781.7969,1303.1875 L781.7969,1300.7813 L785.7813,1300.7813 L785.7813,1301.6406 C785.7813,1302.0469 785.8125,1302.2188 785.8906,1302.375 C786.0625,1302.625 786.3438,1302.7813 786.625,1302.7813 C786.8906,1302.7813 787.1563,1302.6406 787.3281,1302.4219 C787.4375,1302.25 787.4688,1302.1094 787.4688,1301.6406 L787.4688,1299.0938 L779.8438,1299.0938 C779.4063,1299.0938 779.2813,1299.1094 779.125,1299.2031 C778.875,1299.3594 778.7188,1299.6563 778.7188,1299.9375 C778.7188,1300.2188 778.8594,1300.4688 779.0781,1300.6406 C779.2344,1300.75 779.4219,1300.7813 779.8438,1300.7813 L780.0938,1300.7813 L780.0938,1307.2969 L779.8438,1307.2969 C779.4375,1307.2969 779.2813,1307.3125 779.125,1307.4219 C778.875,1307.5938 778.7188,1307.8594 778.7188,1308.1563 C778.7188,1308.4219 778.8594,1308.6719 779.0781,1308.8281 C779.2188,1308.9531 779.4531,1309 779.8438,1309 L787.8438,1309 L787.8438,1306.4219 C787.8438,1305.9844 787.8125,1305.8438 787.7344,1305.6875 C787.5625,1305.4375 787.2813,1305.2813 787,1305.2813 C786.7344,1305.2813 786.4688,1305.3906 786.2969,1305.6406 C786.1875,1305.7969 786.1563,1305.9375 786.1563,1306.4219 L786.1563,1307.2969 L781.7969,1307.2969 L781.7969,1304.875 Z " fill="#000000"/><text fill="#000000" font-family="sans-serif" font-size="14" lengthAdjust="spacing" textLength="70" x="798" y="1308.8467">SaveType</text><line style="stroke:#181818;stroke-width:0.5;" x1="764.5" x2="874.5" y1="1320" y2="1320"/><text fill="#000000" font-family="sans-serif" font-size="14" lengthAdjust="spacing" textLength="77" x="769.5" y="1336.9951">COMPLETE</text><text fill="#000000" font-family="sans-serif" font-size="14" lengthAdjust="spacing" textLength="100" x="769.5" y="1353.292">DIFFERENTIAL</text><line style="stroke:#181818;stroke-width:0.5;" x1="764.5" x2="874.5" y1="1360.5938" y2="1360.5938"/></g><!--class SaveState--><g id="elem_SaveState"><rect codeLine="52" fill="#F1F1F1" height="96.8906" id="SaveState" rx="2.5" ry="2.5" style="stroke:#181818;stroke-width:0.5;" width="116" x="910.5" y="1280"/><ellipse cx="930" cy="1296" fill="#EB937F" rx="11" ry="11" style="stroke:#181818;stroke-width:1.0;"/><path d="M928.7969,1296.875 L930.25,1296.875 L930.25,1296.9844 C930.25,1297.3906 930.2813,1297.5469 930.3594,1297.7031 C930.5156,1297.9531 930.7969,1298.1094 931.0938,1298.1094 C931.3438,1298.1094 931.6094,1297.9688 931.7656,1297.75 C931.8906,1297.5938 931.9219,1297.4375 931.9219,1296.9844 L931.9219,1295.0625 C931.9219,1294.9063 931.9219,1294.8594 931.9063,1294.7031 C931.8438,1294.2344 931.5313,1293.9219 931.0781,1293.9219 C930.8281,1293.9219 930.5625,1294.0625 930.3906,1294.2813 C930.2813,1294.4531 930.25,1294.6094 930.25,1295.0625 L930.25,1295.1875 L928.7969,1295.1875 L928.7969,1292.7813 L932.7813,1292.7813 L932.7813,1293.6406 C932.7813,1294.0469 932.8125,1294.2188 932.8906,1294.375 C933.0625,1294.625 933.3438,1294.7813 933.625,1294.7813 C933.8906,1294.7813 934.1563,1294.6406 934.3281,1294.4219 C934.4375,1294.25 934.4688,1294.1094 934.4688,1293.6406 L934.4688,1291.0938 L926.8438,1291.0938 C926.4063,1291.0938 926.2813,1291.1094 926.125,1291.2031 C925.875,1291.3594 925.7188,1291.6563 925.7188,1291.9375 C925.7188,1292.2188 925.8594,1292.4688 926.0781,1292.6406 C926.2344,1292.75 926.4219,1292.7813 926.8438,1292.7813 L927.0938,1292.7813 L927.0938,1299.2969 L926.8438,1299.2969 C926.4375,1299.2969 926.2813,1299.3125 926.125,1299.4219 C925.875,1299.5938 925.7188,1299.8594 925.7188,1300.1563 C925.7188,1300.4219 925.8594,1300.6719 926.0781,1300.8281 C926.2188,1300.9531 926.4531,1301 926.8438,1301 L934.8438,1301 L934.8438,1298.4219 C934.8438,1297.9844 934.8125,1297.8438 934.7344,1297.6875 C934.5625,1297.4375 934.2813,1297.2813 934,1297.2813 C933.7344,1297.2813 933.4688,1297.3906 933.2969,1297.6406 C933.1875,1297.7969 933.1563,1297.9375 933.1563,1298.4219 L933.1563,1299.2969 L928.7969,1299.2969 L928.7969,1296.875 Z " fill="#000000"/><text fill="#000000" font-family="sans-serif" font-size="14" lengthAdjust="spacing" textLength="74" x="945" y="1300.8467">SaveState</text><line style="stroke:#181818;stroke-width:0.5;" x1="911.5" x2="1025.5" y1="1312" y2="1312"/><text fill="#000000" font-family="sans-serif" font-size="14" lengthAdjust="spacing" textLength="104" x="916.5" y="1328.9951">NOT_STARTED</text><text fill="#000000" font-family="sans-serif" font-size="14" lengthAdjust="spacing" textLength="99" x="916.5" y="1345.292">IN_PROGRESS</text><text fill="#000000" font-family="sans-serif" font-size="14" lengthAdjust="spacing" textLength="65" x="916.5" y="1361.5889">FINISHED</text><line style="stroke:#181818;stroke-width:0.5;" x1="911.5" x2="1025.5" y1="1368.8906" y2="1368.8906"/></g><!--class SharedLocalizer--><g id="elem_SharedLocalizer"><rect codeLine="75" fill="#F1F1F1" height="96.8906" id="SharedLocalizer" rx="2.5" ry="2.5" style="stroke:#181818;stroke-width:0.5;" width="306" x="1027.5" y="359.5"/><ellipse cx="1119.25" cy="375.5" fill="#ADD1B2" rx="11" ry="11" style="stroke:#181818;stroke-width:1.0;"/><path d="M1121.5938,371.1719 C1120.6563,370.7344 1120.0625,370.5938 1119.1875,370.5938 C1116.5625,370.5938 1114.5625,372.6719 1114.5625,375.3906 L1114.5625,376.5156 C1114.5625,379.0938 1116.6719,380.9844 1119.5625,380.9844 C1120.7813,380.9844 1121.9375,380.6875 1122.6875,380.1406 C1123.2656,379.7344 1123.5938,379.2813 1123.5938,378.8906 C1123.5938,378.4375 1123.2031,378.0469 1122.7344,378.0469 C1122.5156,378.0469 1122.3125,378.125 1122.125,378.3125 C1121.6719,378.7969 1121.6719,378.7969 1121.4844,378.8906 C1121.0625,379.1563 1120.375,379.2813 1119.6094,379.2813 C1117.5625,379.2813 1116.2656,378.1875 1116.2656,376.4844 L1116.2656,375.3906 C1116.2656,373.6094 1117.5156,372.2969 1119.25,372.2969 C1119.8281,372.2969 1120.4375,372.4531 1120.9063,372.7031 C1121.3906,372.9844 1121.5625,373.2031 1121.6563,373.6094 C1121.7188,374.0156 1121.75,374.1406 1121.8906,374.2656 C1122.0313,374.4063 1122.2656,374.5156 1122.4844,374.5156 C1122.75,374.5156 1123.0156,374.375 1123.1875,374.1563 C1123.2969,374 1123.3281,373.8125 1123.3281,373.3906 L1123.3281,371.9688 C1123.3281,371.5313 1123.3125,371.4063 1123.2188,371.25 C1123.0625,370.9844 1122.7813,370.8438 1122.4844,370.8438 C1122.1875,370.8438 1121.9844,370.9375 1121.7656,371.25 L1121.5938,371.1719 Z " fill="#000000"/><text fill="#000000" font-family="sans-serif" font-size="14" lengthAdjust="spacing" textLength="114" x="1139.75" y="380.3467">SharedLocalizer</text><line style="stroke:#181818;stroke-width:0.5;" x1="1028.5" x2="1332.5" y1="391.5" y2="391.5"/><rect fill="none" height="6" style="stroke:#C82930;stroke-width:1.0;" width="6" x="1035.5" y="402.1484"/><text fill="#000000" font-family="sans-serif" font-size="14" lengthAdjust="spacing" text-decoration="underline" textLength="266" x="1047.5" y="408.4951">_resourceManager: ResourceManager</text><line style="stroke:#181818;stroke-width:0.5;" x1="1028.5" x2="1332.5" y1="415.7969" y2="415.7969"/><ellipse cx="1038.5" cy="429.4453" fill="#84BE84" rx="3" ry="3" style="stroke:#038048;stroke-width:1.0;"/><text fill="#000000" font-family="sans-serif" font-size="14" lengthAdjust="spacing" text-decoration="underline" textLength="231" x="1047.5" y="432.792">SetCulture(culture: string) : void</text><ellipse cx="1038.5" cy="445.7422" fill="#84BE84" rx="3" ry="3" style="stroke:#038048;stroke-width:1.0;"/><text fill="#000000" font-family="sans-serif" font-size="14" lengthAdjust="spacing" text-decoration="underline" textLength="280" x="1047.5" y="449.0889">GetLocalizedString(key: string) : string</text></g><!--class CommandInterpretor--><g id="elem_CommandInterpretor"><rect codeLine="84" fill="#F1F1F1" height="259.8594" id="CommandInterpretor" rx="2.5" ry="2.5" style="stroke:#181818;stroke-width:0.5;" width="451" x="749" y="7"/><ellipse cx="892.75" cy="23" fill="#ADD1B2" rx="11" ry="11" style="stroke:#181818;stroke-width:1.0;"/><path d="M895.0938,18.6719 C894.1563,18.2344 893.5625,18.0938 892.6875,18.0938 C890.0625,18.0938 888.0625,20.1719 888.0625,22.8906 L888.0625,24.0156 C888.0625,26.5938 890.1719,28.4844 893.0625,28.4844 C894.2813,28.4844 895.4375,28.1875 896.1875,27.6406 C896.7656,27.2344 897.0938,26.7813 897.0938,26.3906 C897.0938,25.9375 896.7031,25.5469 896.2344,25.5469 C896.0156,25.5469 895.8125,25.625 895.625,25.8125 C895.1719,26.2969 895.1719,26.2969 894.9844,26.3906 C894.5625,26.6563 893.875,26.7813 893.1094,26.7813 C891.0625,26.7813 889.7656,25.6875 889.7656,23.9844 L889.7656,22.8906 C889.7656,21.1094 891.0156,19.7969 892.75,19.7969 C893.3281,19.7969 893.9375,19.9531 894.4063,20.2031 C894.8906,20.4844 895.0625,20.7031 895.1563,21.1094 C895.2188,21.5156 895.25,21.6406 895.3906,21.7656 C895.5313,21.9063 895.7656,22.0156 895.9844,22.0156 C896.25,22.0156 896.5156,21.875 896.6875,21.6563 C896.7969,21.5 896.8281,21.3125 896.8281,20.8906 L896.8281,19.4688 C896.8281,19.0313 896.8125,18.9063 896.7188,18.75 C896.5625,18.4844 896.2813,18.3438 895.9844,18.3438 C895.6875,18.3438 895.4844,18.4375 895.2656,18.75 L895.0938,18.6719 Z " fill="#000000"/><text fill="#000000" font-family="sans-serif" font-size="14" lengthAdjust="spacing" textLength="155" x="913.25" y="27.8467">CommandInterpretor</text><line style="stroke:#181818;stroke-width:0.5;" x1="750" x2="1199" y1="39" y2="39"/><line style="stroke:#181818;stroke-width:0.5;" x1="750" x2="1199" y1="47" y2="47"/><ellipse cx="760" cy="60.6484" fill="#84BE84" rx="3" ry="3" style="stroke:#038048;stroke-width:1.0;"/><text fill="#000000" font-family="sans-serif" font-size="14" lengthAdjust="spacing" text-decoration="underline" textLength="284" x="769" y="63.9951">ReadCommand(command: string) : void</text><rect fill="#F24D5C" height="6" style="stroke:#C82930;stroke-width:1.0;" width="6" x="757" y="73.9453"/><text fill="#000000" font-family="sans-serif" font-size="14" lengthAdjust="spacing" text-decoration="underline" textLength="189" x="769" y="80.292">_regexCommand() : Regex</text><rect fill="#F24D5C" height="6" style="stroke:#C82930;stroke-width:1.0;" width="6" x="757" y="90.2422"/><text fill="#000000" font-family="sans-serif" font-size="14" lengthAdjust="spacing" text-decoration="underline" textLength="136" x="769" y="96.5889">_regexIds() : Regex</text><rect fill="#F24D5C" height="6" style="stroke:#C82930;stroke-width:1.0;" width="6" x="757" y="106.5391"/><text fill="#000000" font-family="sans-serif" font-size="14" lengthAdjust="spacing" text-decoration="underline" textLength="161" x="769" y="112.8857">_regexParam() : Regex</text><rect fill="#F24D5C" height="6" style="stroke:#C82930;stroke-width:1.0;" width="6" x="757" y="122.8359"/><text fill="#000000" font-family="sans-serif" font-size="14" lengthAdjust="spacing" text-decoration="underline" textLength="425" x="769" y="129.1826">ExtraireParametre(args: string) : Dictionary&lt;string, string&gt;</text><rect fill="#F24D5C" height="6" style="stroke:#C82930;stroke-width:1.0;" width="6" x="757" y="139.1328"/><text fill="#000000" font-family="sans-serif" font-size="14" lengthAdjust="spacing" text-decoration="underline" textLength="261" x="769" y="145.4795">ArgIdsToList(args: string) : List&lt;int&gt;</text><rect fill="#F24D5C" height="6" style="stroke:#C82930;stroke-width:1.0;" width="6" x="757" y="155.4297"/><text fill="#000000" font-family="sans-serif" font-size="14" lengthAdjust="spacing" text-decoration="underline" textLength="265" x="769" y="161.7764">LancerSauvegarde(args: string) : void</text><rect fill="#F24D5C" height="6" style="stroke:#C82930;stroke-width:1.0;" width="6" x="757" y="171.7266"/><text fill="#000000" font-family="sans-serif" font-size="14" lengthAdjust="spacing" text-decoration="underline" textLength="184" x="769" y="178.0732">ListerSauvegardes() : void</text><rect fill="#F24D5C" height="6" style="stroke:#C82930;stroke-width:1.0;" width="6" x="757" y="188.0234"/><text fill="#000000" font-family="sans-serif" font-size="14" lengthAdjust="spacing" text-decoration="underline" textLength="285" x="769" y="194.3701">AjouterConfiguration(args: string) : void</text><rect fill="#F24D5C" height="6" style="stroke:#C82930;stroke-width:1.0;" width="6" x="757" y="204.3203"/><text fill="#000000" font-family="sans-serif" font-size="14" lengthAdjust="spacing" text-decoration="underline" textLength="291" x="769" y="210.667">ModifierConfiguration(args: string) : void</text><rect fill="#F24D5C" height="6" style="stroke:#C82930;stroke-width:1.0;" width="6" x="757" y="220.6172"/><text fill="#000000" font-family="sans-serif" font-size="14" lengthAdjust="spacing" text-decoration="underline" textLength="308" x="769" y="226.9639">SupprimerConfiguration(args: string) : void</text><rect fill="#F24D5C" height="6" style="stroke:#C82930;stroke-width:1.0;" width="6" x="757" y="236.9141"/><text fill="#000000" font-family="sans-serif" font-size="14" lengthAdjust="spacing" text-decoration="underline" textLength="245" x="769" y="243.2607">ChangerLangue(args: string) : void</text><rect fill="#F24D5C" height="6" style="stroke:#C82930;stroke-width:1.0;" width="6" x="757" y="253.2109"/><text fill="#000000" font-family="sans-serif" font-size="14" lengthAdjust="spacing" text-decoration="underline" textLength="143" x="769" y="259.5576">AfficherAide() : void</text></g><!--reverse link Logger to LoggerJournalier--><g id="link_Logger_LoggerJournalier"><path codeLine="6" d="M389.9486,712.2833 C377.6366,752.1173 364.07,796.008 351.752,835.862 " fill="none" id="Logger-backto-LoggerJournalier" style="stroke:#181818;stroke-width:1.0;"/><polygon fill="none" points="395.264,695.086,384.2162,710.5115,395.681,714.0551,395.264,695.086" style="stroke:#181818;stroke-width:1.0;"/></g><!--reverse link Logger to LoggerEtat--><g id="link_Logger_LoggerEtat"><path codeLine="12" d="M461.2822,707.3637 C484.5732,728.6417 501.922,741.968 532.5,760 C596.13,797.523 619.237,791.771 687.5,820 C693.354,822.421 699.345,824.935 705.384,827.497 " fill="none" id="Logger-backto-LoggerEtat" style="stroke:#181818;stroke-width:1.0;"/><polygon fill="none" points="447.993,695.223,457.2354,711.7934,465.3291,702.9339,447.993,695.223" style="stroke:#181818;stroke-width:1.0;"/></g><!--reverse link LoggerEtat to Save--><g id="link_LoggerEtat_Save"><path codeLine="13" d="M837.0429,944.5982 C843.3799,962.6592 846.68,972.063 853.933,992.735 " fill="none" id="LoggerEtat-backto-Save" style="stroke:#181818;stroke-width:1.0;"/><polygon fill="none" points="833.07,933.275,831.2821,940.2609,837.0429,944.5982,838.8309,937.6123,833.07,933.275" style="stroke:#181818;stroke-width:1.0;"/></g><!--reverse link EasySave to SaveConfiguration--><g id="link_EasySave_SaveConfiguration"><path codeLine="21" d="M803.1179,497.1459 C824.0319,516.2269 837.794,528.781 859.72,548.785 " fill="none" id="EasySave-backto-SaveConfiguration" style="stroke:#181818;stroke-width:1.0;"/><polygon fill="#181818" points="794.253,489.058,795.9895,496.0569,803.1179,497.1459,801.3814,490.147,794.253,489.058" style="stroke:#181818;stroke-width:1.0;"/></g><!--link EasySave to Logger--><g id="link_EasySave_Logger"><path codeLine="22" d="M606.406,489.006 C582.144,508.544 556.333,529.453 532.5,549 C506.583,570.256 482.471,590.3668 459.11,609.9818 " fill="none" id="EasySave-to-Logger" style="stroke:#181818;stroke-width:1.0;"/><polygon fill="#181818" points="454.515,613.84,463.9797,611.116,458.3442,610.6248,458.8354,604.9893,454.515,613.84" style="stroke:#181818;stroke-width:1.0;"/></g><!--reverse link SaveConfiguration to Save--><g id="link_SaveConfiguration_Save"><path codeLine="33" d="M962.7185,772.0246 C956.7225,824.2216 949.537,876.252 938.5,933 C934.718,952.444 930.015,972.947 925.087,992.764 " fill="none" id="SaveConfiguration-backto-Save" style="stroke:#181818;stroke-width:1.0;"/><polygon fill="none" points="964.088,760.103,959.4294,765.6073,962.7185,772.0246,967.3771,766.5203,964.088,760.103" style="stroke:#181818;stroke-width:1.0;"/></g><!--link Save to SaveType--><g id="link_Save_SaveType"><path codeLine="58" d="M855.633,1220.078 C847.454,1244.393 841.2449,1262.8531 834.7789,1282.0763 " fill="none" id="Save-to-SaveType" style="stroke:#181818;stroke-width:1.0;"/><polygon fill="#181818" points="832.866,1287.7632,839.5266,1280.5081,834.4601,1283.0241,831.944,1277.9576,832.866,1287.7632" style="stroke:#181818;stroke-width:1.0;"/></g><!--link Save to SaveState--><g id="link_Save_SaveState"><path codeLine="59" d="M931.879,1220.078 C939.051,1241.116 944.244,1256.3489 950.28,1274.0545 " fill="none" id="Save-to-SaveState" style="stroke:#181818;stroke-width:1.0;"/><polygon fill="#181818" points="952.216,1279.7336,953.098,1269.9243,950.6026,1275.001,945.5259,1272.5057,952.216,1279.7336" style="stroke:#181818;stroke-width:1.0;"/></g><!--link CommandInterpretor to SharedLocalizer--><g id="link_CommandInterpretor_SharedLocalizer"><path codeLine="81" d="M1073.58,267.38 C1098.73,300.22 1120.5426,328.7059 1140.3026,354.5159 " fill="none" id="CommandInterpretor-to-SharedLocalizer" style="stroke:#181818;stroke-width:1.0;"/><polygon fill="#181818" points="1143.95,359.28,1141.655,349.7023,1140.9105,355.3099,1135.3029,354.5654,1143.95,359.28" style="stroke:#181818;stroke-width:1.0;"/></g><!--reverse link CommandInterpretor to SaveConfiguration--><g id="link_CommandInterpretor_SaveConfiguration"><path codeLine="82" d="M974.5,279.08 C974.5,366.02 974.5,467.218 974.5,548.595 " fill="none" id="CommandInterpretor-backto-SaveConfiguration" style="stroke:#181818;stroke-width:1.0;"/><polygon fill="#181818" points="974.5,267.08,970.5,273.08,974.5,279.08,978.5,273.08,974.5,267.08" style="stroke:#181818;stroke-width:1.0;"/></g><!--reverse link CommandInterpretor to EasySave--><g id="link_CommandInterpretor_EasySave"><path codeLine="83" d="M837.1318,275.8803 C816.8838,296.2003 804.95,308.18 786.243,326.96 " fill="none" id="CommandInterpretor-backto-EasySave" style="stroke:#181818;stroke-width:1.0;"/><polygon fill="#181818" points="845.602,267.38,838.5335,268.8068,837.1318,275.8803,844.2003,274.4536,845.602,267.38" style="stroke:#181818;stroke-width:1.0;"/></g><!--SRC=[fLRVRvim47uEVmNINkWeqhR7g6iK9QHZIjCgCEqnSi5GRu0ZsrHDk_xlEviVCU2qgvQ7WE- -EzzzTpw3xhXWA1Psd2FExJNDCipiPyk6tmTOhKYEfxRy3mN3g50ADwUPKs3EKGPAS43AxCoUsW-K9DQBPJLUBlvuNkFnEwrOYNA2cQLlT1GtMxf3kNFMXU9mz81t9IgwFSzj3i1OMml4CYmqFNa2BIa5g1WgUOhPJX3f8Sqf4gy7xGiahEEhJK4JGWoz59Ic2Lu6oAVscd1n8O6NUauIs6JZpfD4wbL6K-MpYqJfVp8YW70aC8-e9D_H8_KHFqWR-sCJq8AMASagXWIXvL7jUPTDa4t4dQQErzlneV7Ku4z5r9gs6QnH6MCMeke1PuWbsCaXQHmaJVR0-6Kl9Mz1zuSbOJWMb1sSkcwm7fPE4_KfyTCKR2jzpmKjzZaMfsaqs2m9o1Wk1S5vVjBocGFt97vn0nv2lm4V0aoS52hn-HYnN7xHexsZD9S56d4uR9qnuDcQj9jwErB2QnbZKpKcdYHuM3MjvJe_xXKMGUD9zO_96M1w8gwGkZjt2Fa714dKeMitDK7qSwpXu6ISnfs3qtqbLZHFiDOvj186gInjTDWt9CgthiGJTuiBEY133reLSkB-s2T8c57djXxOp1ZPp1pQp1JRJ3_WkAoAJgCEw-Bc-dRjHpwyBeFLoj_wcoYOhtjWDIyKUdCJxS9elety9Qo2pUvsUtErzSCGLgjW4uJVGD7qgPeIxLvzYNAeTUoWIQ5G5PmBflYmlzgVWB6WPWVUDXezKZ6c1wGt1df078xe0M541ShbB8IHA8T9kz5H7hR3Ncv_fqGvJaL4bxGLgvIcMdRrPcrLP_so_c-_MPBaXhzxn72ofZ7SQa_gkjEePBYUXzUeX1iLV6xx0krCXt2EgbnK33jn_HoDozu0Q7TCGWLoVkE3Rj1G3c72C2rGcGIoedk6OKhNVT2FsmGptq8dWEqzqj1YG6dCm355IGDnulfvEbt9OuOVMxm4RALWX0WI_ehs5Z5K6FN-8tn3m1Mc41W-XnouihWUq9B4Cdd43XTTMwYdDfQzESiWWeZA4JhoqDsUci7ehXqQ3NXG5uI6vuu1DFy5ROnPVxYzuVYQ9YGbxpGAg_sUmIVN-wmMzwY4peVKi-hDXETfIk9xpEOaqR-K_W80]--></g></svg>