<?xml version="1.0" encoding="us-ascii" standalone="no"?><svg xmlns="http://www.w3.org/2000/svg" xmlns:xlink="http://www.w3.org/1999/xlink" contentStyleType="text/css" height="1383px" preserveAspectRatio="none" style="width:1403px;height:1383px;background:#FFFFFF;" version="1.1" viewBox="0 0 1403 1383" width="1403px" zoomAndPan="magnify"><defs/><g><!--class Logger--><g id="elem_Logger"><rect codeLine="1" fill="#F1F1F1" height="80.5938" id="Logger" rx="2.5" ry="2.5" style="stroke:#181818;stroke-width:0.5;" width="215" x="298" y="614"/><ellipse cx="376.25" cy="630" fill="#A9DCDF" rx="11" ry="11" style="stroke:#181818;stroke-width:1.0;"/><path d="M378.3281,631.8125 L378.7188,632.7969 L378.3281,632.7969 C377.875,632.7969 377.7656,632.8125 377.6094,632.9219 C377.3594,633.0781 377.2031,633.3594 377.2031,633.6563 C377.2031,633.9219 377.3438,634.1719 377.5625,634.3281 C377.7031,634.4531 377.9063,634.5 378.3281,634.5 L380.6875,634.5 C381.0469,634.5 381.2656,634.4688 381.4063,634.375 C381.6563,634.2344 381.8125,633.9375 381.8125,633.6563 C381.8125,633.375 381.6719,633.125 381.4531,632.9688 C381.2813,632.8281 381.125,632.7969 380.6563,632.7969 L377.2656,624.5938 L373.5938,624.5938 C373.1406,624.5938 373.0156,624.6094 372.8594,624.7031 C372.6094,624.875 372.4531,625.1563 372.4531,625.4375 C372.4531,625.7188 372.5938,625.9688 372.8125,626.1406 C372.9844,626.25 373.1563,626.2813 373.5938,626.2813 L374.6719,626.2813 L372.0313,632.7969 C371.6094,632.7969 371.4531,632.8125 371.2969,632.9219 C371.0469,633.0781 370.8906,633.3594 370.8906,633.6563 C370.8906,634.2188 371.2656,634.5 372.0156,634.5 L374.2813,634.5 C374.6406,634.5 374.8594,634.4688 374.9844,634.375 C375.25,634.2344 375.3906,633.9375 375.3906,633.6563 C375.3906,633.375 375.2656,633.125 375.0469,632.9531 C374.875,632.8281 374.7344,632.7969 374.2813,632.7969 L373.8906,632.7969 L374.2813,631.8125 L378.3281,631.8125 Z M377.625,630.1094 L374.9531,630.1094 L376.2969,626.8438 L377.625,630.1094 Z " fill="#000000"/><text fill="#000000" font-family="sans-serif" font-size="14" font-style="italic" lengthAdjust="spacing" textLength="50" x="396.75" y="634.8467">Logger</text><line style="stroke:#181818;stroke-width:0.5;" x1="299" x2="512" y1="646" y2="646"/><polygon fill="none" points="309,654.6484,313,658.6484,309,662.6484,305,658.6484" style="stroke:#B38D22;stroke-width:1.0;"/><text fill="#000000" font-family="sans-serif" font-size="14" lengthAdjust="spacing" textLength="138" x="318" y="662.9951">LogFile: FileStream</text><line style="stroke:#181818;stroke-width:0.5;" x1="299" x2="512" y1="670.2969" y2="670.2969"/><ellipse cx="309" cy="683.9453" fill="#84BE84" rx="3" ry="3" style="stroke:#038048;stroke-width:1.0;"/><text fill="#000000" font-family="sans-serif" font-size="14" lengthAdjust="spacing" textLength="189" x="318" y="687.292">log(message: string) : void</text></g><!--class LoggerJournalier--><g id="elem_LoggerJournalier"><rect codeLine="7" fill="#F1F1F1" height="80.5938" id="LoggerJournalier" rx="2.5" ry="2.5" style="stroke:#181818;stroke-width:0.5;" width="661" x="7" y="836"/><ellipse cx="274.75" cy="852" fill="#ADD1B2" rx="11" ry="11" style="stroke:#181818;stroke-width:1.0;"/><path d="M277.0938,847.6719 C276.1563,847.2344 275.5625,847.0938 274.6875,847.0938 C272.0625,847.0938 270.0625,849.1719 270.0625,851.8906 L270.0625,853.0156 C270.0625,855.5938 272.1719,857.4844 275.0625,857.4844 C276.2813,857.4844 277.4375,857.1875 278.1875,856.6406 C278.7656,856.2344 279.0938,855.7813 279.0938,855.3906 C279.0938,854.9375 278.7031,854.5469 278.2344,854.5469 C278.0156,854.5469 277.8125,854.625 277.625,854.8125 C277.1719,855.2969 277.1719,855.2969 276.9844,855.3906 C276.5625,855.6563 275.875,855.7813 275.1094,855.7813 C273.0625,855.7813 271.7656,854.6875 271.7656,852.9844 L271.7656,851.8906 C271.7656,850.1094 273.0156,848.7969 274.75,848.7969 C275.3281,848.7969 275.9375,848.9531 276.4063,849.2031 C276.8906,849.4844 277.0625,849.7031 277.1563,850.1094 C277.2188,850.5156 277.25,850.6406 277.3906,850.7656 C277.5313,850.9063 277.7656,851.0156 277.9844,851.0156 C278.25,851.0156 278.5156,850.875 278.6875,850.6563 C278.7969,850.5 278.8281,850.3125 278.8281,849.8906 L278.8281,848.4688 C278.8281,848.0313 278.8125,847.9063 278.7188,847.75 C278.5625,847.4844 278.2813,847.3438 277.9844,847.3438 C277.6875,847.3438 277.4844,847.4375 277.2656,847.75 L277.0938,847.6719 Z " fill="#000000"/><text fill="#000000" font-family="sans-serif" font-size="14" lengthAdjust="spacing" textLength="117" x="295.25" y="856.8467">LoggerJournalier</text><line style="stroke:#181818;stroke-width:0.5;" x1="8" x2="667" y1="868" y2="868"/><line style="stroke:#181818;stroke-width:0.5;" x1="8" x2="667" y1="876" y2="876"/><ellipse cx="18" cy="889.6484" fill="#84BE84" rx="3" ry="3" style="stroke:#038048;stroke-width:1.0;"/><text fill="#000000" font-family="sans-serif" font-size="14" lengthAdjust="spacing" textLength="127" x="27" y="892.9951">LoggerJournalier()</text><ellipse cx="18" cy="905.9453" fill="#84BE84" rx="3" ry="3" style="stroke:#038048;stroke-width:1.0;"/><text fill="#000000" font-family="sans-serif" font-size="14" lengthAdjust="spacing" textLength="635" x="27" y="909.292">Log(save_name: string, source: string, target: string, size: int, transfer_time: float) : void</text></g><!--class LoggerEtat--><g id="elem_LoggerEtat"><rect codeLine="14" fill="#F1F1F1" height="113.1875" id="LoggerEtat" rx="2.5" ry="2.5" style="stroke:#181818;stroke-width:0.5;" width="216" x="703.5" y="820"/><ellipse cx="766.75" cy="836" fill="#ADD1B2" rx="11" ry="11" style="stroke:#181818;stroke-width:1.0;"/><path d="M769.0938,831.6719 C768.1563,831.2344 767.5625,831.0938 766.6875,831.0938 C764.0625,831.0938 762.0625,833.1719 762.0625,835.8906 L762.0625,837.0156 C762.0625,839.5938 764.1719,841.4844 767.0625,841.4844 C768.2813,841.4844 769.4375,841.1875 770.1875,840.6406 C770.7656,840.2344 771.0938,839.7813 771.0938,839.3906 C771.0938,838.9375 770.7031,838.5469 770.2344,838.5469 C770.0156,838.5469 769.8125,838.625 769.625,838.8125 C769.1719,839.2969 769.1719,839.2969 768.9844,839.3906 C768.5625,839.6563 767.875,839.7813 767.1094,839.7813 C765.0625,839.7813 763.7656,838.6875 763.7656,836.9844 L763.7656,835.8906 C763.7656,834.1094 765.0156,832.7969 766.75,832.7969 C767.3281,832.7969 767.9375,832.9531 768.4063,833.2031 C768.8906,833.4844 769.0625,833.7031 769.1563,834.1094 C769.2188,834.5156 769.25,834.6406 769.3906,834.7656 C769.5313,834.9063 769.7656,835.0156 769.9844,835.0156 C770.25,835.0156 770.5156,834.875 770.6875,834.6563 C770.7969,834.5 770.8281,834.3125 770.8281,833.8906 L770.8281,832.4688 C770.8281,832.0313 770.8125,831.9063 770.7188,831.75 C770.5625,831.4844 770.2813,831.3438 769.9844,831.3438 C769.6875,831.3438 769.4844,831.4375 769.2656,831.75 L769.0938,831.6719 Z " fill="#000000"/><text fill="#000000" font-family="sans-serif" font-size="14" lengthAdjust="spacing" textLength="81" x="787.25" y="840.8467">LoggerEtat</text><line style="stroke:#181818;stroke-width:0.5;" x1="704.5" x2="918.5" y1="852" y2="852"/><ellipse cx="714.5" cy="865.6484" fill="none" rx="3" ry="3" style="stroke:#038048;stroke-width:1.0;"/><text fill="#000000" font-family="sans-serif" font-size="14" lengthAdjust="spacing" textLength="130" x="723.5" y="868.9951">saves: List&lt;Save&gt;</text><line style="stroke:#181818;stroke-width:0.5;" x1="704.5" x2="918.5" y1="876.2969" y2="876.2969"/><ellipse cx="714.5" cy="889.9453" fill="#84BE84" rx="3" ry="3" style="stroke:#038048;stroke-width:1.0;"/><text fill="#000000" font-family="sans-serif" font-size="14" lengthAdjust="spacing" textLength="91" x="723.5" y="893.292">LoggerEtat()</text><ellipse cx="714.5" cy="906.2422" fill="#84BE84" rx="3" ry="3" style="stroke:#038048;stroke-width:1.0;"/><text fill="#000000" font-family="sans-serif" font-size="14" lengthAdjust="spacing" textLength="190" x="723.5" y="909.5889">AddSave(save: Save) : void</text><ellipse cx="714.5" cy="922.5391" fill="#84BE84" rx="3" ry="3" style="stroke:#038048;stroke-width:1.0;"/><text fill="#000000" font-family="sans-serif" font-size="14" lengthAdjust="spacing" textLength="183" x="723.5" y="925.8857">WriteStatesToFile() : void</text></g><!--class Save--><g id="elem_Save"><rect codeLine="60" fill="#F1F1F1" height="227.2656" id="Save" rx="2.5" ry="2.5" style="stroke:#181818;stroke-width:0.5;" width="668" x="557.5" y="993"/><ellipse cx="870.25" cy="1009" fill="#ADD1B2" rx="11" ry="11" style="stroke:#181818;stroke-width:1.0;"/><path d="M872.5938,1004.6719 C871.6563,1004.2344 871.0625,1004.0938 870.1875,1004.0938 C867.5625,1004.0938 865.5625,1006.1719 865.5625,1008.8906 L865.5625,1010.0156 C865.5625,1012.5938 867.6719,1014.4844 870.5625,1014.4844 C871.7813,1014.4844 872.9375,1014.1875 873.6875,1013.6406 C874.2656,1013.2344 874.5938,1012.7813 874.5938,1012.3906 C874.5938,1011.9375 874.2031,1011.5469 873.7344,1011.5469 C873.5156,1011.5469 873.3125,1011.625 873.125,1011.8125 C872.6719,1012.2969 872.6719,1012.2969 872.4844,1012.3906 C872.0625,1012.6563 871.375,1012.7813 870.6094,1012.7813 C868.5625,1012.7813 867.2656,1011.6875 867.2656,1009.9844 L867.2656,1008.8906 C867.2656,1007.1094 868.5156,1005.7969 870.25,1005.7969 C870.8281,1005.7969 871.4375,1005.9531 871.9063,1006.2031 C872.3906,1006.4844 872.5625,1006.7031 872.6563,1007.1094 C872.7188,1007.5156 872.75,1007.6406 872.8906,1007.7656 C873.0313,1007.9063 873.2656,1008.0156 873.4844,1008.0156 C873.75,1008.0156 874.0156,1007.875 874.1875,1007.6563 C874.2969,1007.5 874.3281,1007.3125 874.3281,1006.8906 L874.3281,1005.4688 C874.3281,1005.0313 874.3125,1004.9063 874.2188,1004.75 C874.0625,1004.4844 873.7813,1004.3438 873.4844,1004.3438 C873.1875,1004.3438 872.9844,1004.4375 872.7656,1004.75 L872.5938,1004.6719 Z " fill="#000000"/><text fill="#000000" font-family="sans-serif" font-size="14" lengthAdjust="spacing" textLength="34" x="890.75" y="1013.8467">Save</text><line style="stroke:#181818;stroke-width:0.5;" x1="558.5" x2="1224.5" y1="1025" y2="1025"/><rect fill="none" height="6" style="stroke:#C82930;stroke-width:1.0;" width="6" x="565.5" y="1035.6484"/><text fill="#000000" font-family="sans-serif" font-size="14" lengthAdjust="spacing" text-decoration="underline" textLength="135" x="577.5" y="1041.9951">_idCounter: int = 0</text><ellipse cx="568.5" cy="1054.9453" fill="none" rx="3" ry="3" style="stroke:#038048;stroke-width:1.0;"/><text fill="#000000" font-family="sans-serif" font-size="14" lengthAdjust="spacing" textLength="42" x="577.5" y="1058.292">Id: int</text><ellipse cx="568.5" cy="1071.2422" fill="none" rx="3" ry="3" style="stroke:#038048;stroke-width:1.0;"/><text fill="#000000" font-family="sans-serif" font-size="14" lengthAdjust="spacing" textLength="92" x="577.5" y="1074.5889">Name: string</text><ellipse cx="568.5" cy="1087.5391" fill="none" rx="3" ry="3" style="stroke:#038048;stroke-width:1.0;"/><text fill="#000000" font-family="sans-serif" font-size="14" lengthAdjust="spacing" textLength="134" x="577.5" y="1090.8857">InputFolder: string</text><ellipse cx="568.5" cy="1103.8359" fill="none" rx="3" ry="3" style="stroke:#038048;stroke-width:1.0;"/><text fill="#000000" font-family="sans-serif" font-size="14" lengthAdjust="spacing" textLength="147" x="577.5" y="1107.1826">OutputFolder: string</text><ellipse cx="568.5" cy="1120.1328" fill="none" rx="3" ry="3" style="stroke:#038048;stroke-width:1.0;"/><text fill="#000000" font-family="sans-serif" font-size="14" lengthAdjust="spacing" textLength="149" x="577.5" y="1123.4795">SaveType: SaveType</text><ellipse cx="568.5" cy="1136.4297" fill="none" rx="3" ry="3" style="stroke:#038048;stroke-width:1.0;"/><text fill="#000000" font-family="sans-serif" font-size="14" lengthAdjust="spacing" textLength="153" x="577.5" y="1139.7764">TotalFilesToCopy: int</text><ellipse cx="568.5" cy="1152.7266" fill="none" rx="3" ry="3" style="stroke:#038048;stroke-width:1.0;"/><text fill="#000000" font-family="sans-serif" font-size="14" lengthAdjust="spacing" textLength="128" x="577.5" y="1156.0732">TotalFilesSize: int</text><ellipse cx="568.5" cy="1169.0234" fill="none" rx="3" ry="3" style="stroke:#038048;stroke-width:1.0;"/><text fill="#000000" font-family="sans-serif" font-size="14" lengthAdjust="spacing" textLength="145" x="577.5" y="1172.3701">NbFilesleftToDo: int</text><ellipse cx="568.5" cy="1185.3203" fill="none" rx="3" ry="3" style="stroke:#038048;stroke-width:1.0;"/><text fill="#000000" font-family="sans-serif" font-size="14" lengthAdjust="spacing" textLength="123" x="577.5" y="1188.667">State: SaveState</text><line style="stroke:#181818;stroke-width:0.5;" x1="558.5" x2="1224.5" y1="1195.9688" y2="1195.9688"/><ellipse cx="568.5" cy="1209.6172" fill="#84BE84" rx="3" ry="3" style="stroke:#038048;stroke-width:1.0;"/><text fill="#000000" font-family="sans-serif" font-size="14" lengthAdjust="spacing" textLength="642" x="577.5" y="1212.9639">Save(id: int?, name: string, inputFolder: string, outputFolder: string, saveType: SaveType)</text></g><!--class EasySave--><g id="elem_EasySave"><rect codeLine="23" fill="#F1F1F1" height="162.0781" id="EasySave" rx="2.5" ry="2.5" style="stroke:#181818;stroke-width:0.5;" width="429" x="490" y="327"/><ellipse cx="667.25" cy="343" fill="#ADD1B2" rx="11" ry="11" style="stroke:#181818;stroke-width:1.0;"/><path d="M669.5938,338.6719 C668.6563,338.2344 668.0625,338.0938 667.1875,338.0938 C664.5625,338.0938 662.5625,340.1719 662.5625,342.8906 L662.5625,344.0156 C662.5625,346.5938 664.6719,348.4844 667.5625,348.4844 C668.7813,348.4844 669.9375,348.1875 670.6875,347.6406 C671.2656,347.2344 671.5938,346.7813 671.5938,346.3906 C671.5938,345.9375 671.2031,345.5469 670.7344,345.5469 C670.5156,345.5469 670.3125,345.625 670.125,345.8125 C669.6719,346.2969 669.6719,346.2969 669.4844,346.3906 C669.0625,346.6563 668.375,346.7813 667.6094,346.7813 C665.5625,346.7813 664.2656,345.6875 664.2656,343.9844 L664.2656,342.8906 C664.2656,341.1094 665.5156,339.7969 667.25,339.7969 C667.8281,339.7969 668.4375,339.9531 668.9063,340.2031 C669.3906,340.4844 669.5625,340.7031 669.6563,341.1094 C669.7188,341.5156 669.75,341.6406 669.8906,341.7656 C670.0313,341.9063 670.2656,342.0156 670.4844,342.0156 C670.75,342.0156 671.0156,341.875 671.1875,341.6563 C671.2969,341.5 671.3281,341.3125 671.3281,340.8906 L671.3281,339.4688 C671.3281,339.0313 671.3125,338.9063 671.2188,338.75 C671.0625,338.4844 670.7813,338.3438 670.4844,338.3438 C670.1875,338.3438 669.9844,338.4375 669.7656,338.75 L669.5938,338.6719 Z " fill="#000000"/><text fill="#000000" font-family="sans-serif" font-size="14" lengthAdjust="spacing" textLength="66" x="687.75" y="347.8467">EasySave</text><line style="stroke:#181818;stroke-width:0.5;" x1="491" x2="918" y1="359" y2="359"/><rect fill="none" height="6" style="stroke:#C82930;stroke-width:1.0;" width="6" x="498" y="369.6484"/><text fill="#000000" font-family="sans-serif" font-size="14" lengthAdjust="spacing" textLength="278" x="510" y="375.9951">_saveConfiguration: SaveConfiguration</text><line style="stroke:#181818;stroke-width:0.5;" x1="491" x2="918" y1="383.2969" y2="383.2969"/><ellipse cx="501" cy="396.9453" fill="#84BE84" rx="3" ry="3" style="stroke:#038048;stroke-width:1.0;"/><text fill="#000000" font-family="sans-serif" font-size="14" lengthAdjust="spacing" textLength="76" x="510" y="400.292">EasySave()</text><ellipse cx="501" cy="413.2422" fill="#84BE84" rx="3" ry="3" style="stroke:#038048;stroke-width:1.0;"/><text fill="#000000" font-family="sans-serif" font-size="14" lengthAdjust="spacing" textLength="305" x="510" y="416.5889">LancerSauvegarde(listeId: List&lt;int&gt;) : void</text><rect fill="#F24D5C" height="6" style="stroke:#C82930;stroke-width:1.0;" width="6" x="498" y="426.5391"/><text fill="#000000" font-family="sans-serif" font-size="14" lengthAdjust="spacing" textLength="403" x="510" y="432.8857">CopyDirectory(sourceDir: string, targetDir: string) : void</text><ellipse cx="501" cy="445.8359" fill="#84BE84" rx="3" ry="3" style="stroke:#038048;stroke-width:1.0;"/><text fill="#000000" font-family="sans-serif" font-size="14" lengthAdjust="spacing" textLength="351" x="510" y="449.1826">EffectuerSauvegardeComplete(save: Save) : void</text><ellipse cx="501" cy="462.1328" fill="#84BE84" rx="3" ry="3" style="stroke:#038048;stroke-width:1.0;"/><text fill="#000000" font-family="sans-serif" font-size="14" lengthAdjust="spacing" textLength="376" x="510" y="465.4795">EffectuerSauvegardeDifferentielle(save: Save) : void</text><ellipse cx="501" cy="478.4297" fill="#84BE84" rx="3" ry="3" style="stroke:#038048;stroke-width:1.0;"/><text fill="#000000" font-family="sans-serif" font-size="14" lengthAdjust="spacing" text-decoration="underline" textLength="339" x="510" y="481.7764">IsSameContent(file1: string, file2: string) : bool</text></g><!--class SaveConfiguration--><g id="elem_SaveConfiguration"><rect codeLine="34" fill="#F1F1F1" height="210.9688" id="SaveConfiguration" rx="2.5" ry="2.5" style="stroke:#181818;stroke-width:0.5;" width="848" x="548.5" y="549"/><ellipse cx="902.25" cy="565" fill="#ADD1B2" rx="11" ry="11" style="stroke:#181818;stroke-width:1.0;"/><path d="M904.5938,560.6719 C903.6563,560.2344 903.0625,560.0938 902.1875,560.0938 C899.5625,560.0938 897.5625,562.1719 897.5625,564.8906 L897.5625,566.0156 C897.5625,568.5938 899.6719,570.4844 902.5625,570.4844 C903.7813,570.4844 904.9375,570.1875 905.6875,569.6406 C906.2656,569.2344 906.5938,568.7813 906.5938,568.3906 C906.5938,567.9375 906.2031,567.5469 905.7344,567.5469 C905.5156,567.5469 905.3125,567.625 905.125,567.8125 C904.6719,568.2969 904.6719,568.2969 904.4844,568.3906 C904.0625,568.6563 903.375,568.7813 902.6094,568.7813 C900.5625,568.7813 899.2656,567.6875 899.2656,565.9844 L899.2656,564.8906 C899.2656,563.1094 900.5156,561.7969 902.25,561.7969 C902.8281,561.7969 903.4375,561.9531 903.9063,562.2031 C904.3906,562.4844 904.5625,562.7031 904.6563,563.1094 C904.7188,563.5156 904.75,563.6406 904.8906,563.7656 C905.0313,563.9063 905.2656,564.0156 905.4844,564.0156 C905.75,564.0156 906.0156,563.875 906.1875,563.6563 C906.2969,563.5 906.3281,563.3125 906.3281,562.8906 L906.3281,561.4688 C906.3281,561.0313 906.3125,560.9063 906.2188,560.75 C906.0625,560.4844 905.7813,560.3438 905.4844,560.3438 C905.1875,560.3438 904.9844,560.4375 904.7656,560.75 L904.5938,560.6719 Z " fill="#000000"/><text fill="#000000" font-family="sans-serif" font-size="14" lengthAdjust="spacing" textLength="132" x="922.75" y="569.8467">SaveConfiguration</text><line style="stroke:#181818;stroke-width:0.5;" x1="549.5" x2="1395.5" y1="581" y2="581"/><rect fill="none" height="6" style="stroke:#C82930;stroke-width:1.0;" width="6" x="556.5" y="591.6484"/><text fill="#000000" font-family="sans-serif" font-size="14" lengthAdjust="spacing" text-decoration="underline" textLength="209" x="568.5" y="597.9951">_instance: SaveConfiguration</text><rect fill="none" height="6" style="stroke:#C82930;stroke-width:1.0;" width="6" x="556.5" y="607.9453"/><text fill="#000000" font-family="sans-serif" font-size="14" lengthAdjust="spacing" textLength="224" x="568.5" y="614.292">ListeConfiguration: List&lt;Save&gt;</text><line style="stroke:#181818;stroke-width:0.5;" x1="549.5" x2="1395.5" y1="621.5938" y2="621.5938"/><ellipse cx="559.5" cy="635.2422" fill="#84BE84" rx="3" ry="3" style="stroke:#038048;stroke-width:1.0;"/><text fill="#000000" font-family="sans-serif" font-size="14" lengthAdjust="spacing" text-decoration="underline" textLength="243" x="568.5" y="638.5889">GetInstance() : SaveConfiguration</text><rect fill="#F24D5C" height="6" style="stroke:#C82930;stroke-width:1.0;" width="6" x="556.5" y="648.5391"/><text fill="#000000" font-family="sans-serif" font-size="14" lengthAdjust="spacing" textLength="237" x="568.5" y="654.8857">GetConfigurations() : List&lt;Save&gt;</text><ellipse cx="559.5" cy="667.8359" fill="#84BE84" rx="3" ry="3" style="stroke:#038048;stroke-width:1.0;"/><text fill="#000000" font-family="sans-serif" font-size="14" lengthAdjust="spacing" textLength="230" x="568.5" y="671.1826">GetConfiguration() : List&lt;Save&gt;</text><ellipse cx="559.5" cy="684.1328" fill="#84BE84" rx="3" ry="3" style="stroke:#038048;stroke-width:1.0;"/><text fill="#000000" font-family="sans-serif" font-size="14" lengthAdjust="spacing" textLength="224" x="568.5" y="687.4795">GetConfiguration(id: int) : Save</text><ellipse cx="559.5" cy="700.4297" fill="#84BE84" rx="3" ry="3" style="stroke:#038048;stroke-width:1.0;"/><text fill="#000000" font-family="sans-serif" font-size="14" lengthAdjust="spacing" textLength="273" x="568.5" y="703.7764">GetConfiguration(name: string) : Save</text><ellipse cx="559.5" cy="716.7266" fill="#84BE84" rx="3" ry="3" style="stroke:#038048;stroke-width:1.0;"/><text fill="#000000" font-family="sans-serif" font-size="14" lengthAdjust="spacing" textLength="720" x="568.5" y="720.0732">AddConfiguration(name: string, inputFolder: string, outputFolder: string, saveType: SaveType) : void</text><ellipse cx="559.5" cy="733.0234" fill="#84BE84" rx="3" ry="3" style="stroke:#038048;stroke-width:1.0;"/><text fill="#000000" font-family="sans-serif" font-size="14" lengthAdjust="spacing" textLength="254" x="568.5" y="736.3701">RemoveConfiguration(id: int) : bool</text><ellipse cx="559.5" cy="749.3203" fill="#84BE84" rx="3" ry="3" style="stroke:#038048;stroke-width:1.0;"/><text fill="#000000" font-family="sans-serif" font-size="14" lengthAdjust="spacing" textLength="822" x="568.5" y="752.667">UpdateConfiguration(id: int, name: string?, inputFolder: string?, outputFolder: string?, saveType: SaveType?) : void</text></g><!--class SaveType--><g id="elem_SaveType"><rect codeLine="47" fill="#F1F1F1" height="80.5938" id="SaveType" rx="2.5" ry="2.5" style="stroke:#181818;stroke-width:0.5;" width="112" x="761.5" y="1288"/><ellipse cx="781" cy="1304" fill="#EB937F" rx="11" ry="11" style="stroke:#181818;stroke-width:1.0;"/><path d="M779.7969,1304.875 L781.25,1304.875 L781.25,1304.9844 C781.25,1305.3906 781.2813,1305.5469 781.3594,1305.7031 C781.5156,1305.9531 781.7969,1306.1094 782.0938,1306.1094 C782.3438,1306.1094 782.6094,1305.9688 782.7656,1305.75 C782.8906,1305.5938 782.9219,1305.4375 782.9219,1304.9844 L782.9219,1303.0625 C782.9219,1302.9063 782.9219,1302.8594 782.9063,1302.7031 C782.8438,1302.2344 782.5313,1301.9219 782.0781,1301.9219 C781.8281,1301.9219 781.5625,1302.0625 781.3906,1302.2813 C781.2813,1302.4531 781.25,1302.6094 781.25,1303.0625 L781.25,1303.1875 L779.7969,1303.1875 L779.7969,1300.7813 L783.7813,1300.7813 L783.7813,1301.6406 C783.7813,1302.0469 783.8125,1302.2188 783.8906,1302.375 C784.0625,1302.625 784.3438,1302.7813 784.625,1302.7813 C784.8906,1302.7813 785.1563,1302.6406 785.3281,1302.4219 C785.4375,1302.25 785.4688,1302.1094 785.4688,1301.6406 L785.4688,1299.0938 L777.8438,1299.0938 C777.4063,1299.0938 777.2813,1299.1094 777.125,1299.2031 C776.875,1299.3594 776.7188,1299.6563 776.7188,1299.9375 C776.7188,1300.2188 776.8594,1300.4688 777.0781,1300.6406 C777.2344,1300.75 777.4219,1300.7813 777.8438,1300.7813 L778.0938,1300.7813 L778.0938,1307.2969 L777.8438,1307.2969 C777.4375,1307.2969 777.2813,1307.3125 777.125,1307.4219 C776.875,1307.5938 776.7188,1307.8594 776.7188,1308.1563 C776.7188,1308.4219 776.8594,1308.6719 777.0781,1308.8281 C777.2188,1308.9531 777.4531,1309 777.8438,1309 L785.8438,1309 L785.8438,1306.4219 C785.8438,1305.9844 785.8125,1305.8438 785.7344,1305.6875 C785.5625,1305.4375 785.2813,1305.2813 785,1305.2813 C784.7344,1305.2813 784.4688,1305.3906 784.2969,1305.6406 C784.1875,1305.7969 784.1563,1305.9375 784.1563,1306.4219 L784.1563,1307.2969 L779.7969,1307.2969 L779.7969,1304.875 Z " fill="#000000"/><text fill="#000000" font-family="sans-serif" font-size="14" lengthAdjust="spacing" textLength="70" x="796" y="1308.8467">SaveType</text><line style="stroke:#181818;stroke-width:0.5;" x1="762.5" x2="872.5" y1="1320" y2="1320"/><text fill="#000000" font-family="sans-serif" font-size="14" lengthAdjust="spacing" textLength="77" x="767.5" y="1336.9951">COMPLETE</text><text fill="#000000" font-family="sans-serif" font-size="14" lengthAdjust="spacing" textLength="100" x="767.5" y="1353.292">DIFFERENTIAL</text><line style="stroke:#181818;stroke-width:0.5;" x1="762.5" x2="872.5" y1="1360.5938" y2="1360.5938"/></g><!--class SaveState--><g id="elem_SaveState"><rect codeLine="52" fill="#F1F1F1" height="96.8906" id="SaveState" rx="2.5" ry="2.5" style="stroke:#181818;stroke-width:0.5;" width="116" x="908.5" y="1280"/><ellipse cx="928" cy="1296" fill="#EB937F" rx="11" ry="11" style="stroke:#181818;stroke-width:1.0;"/><path d="M926.7969,1296.875 L928.25,1296.875 L928.25,1296.9844 C928.25,1297.3906 928.2813,1297.5469 928.3594,1297.7031 C928.5156,1297.9531 928.7969,1298.1094 929.0938,1298.1094 C929.3438,1298.1094 929.6094,1297.9688 929.7656,1297.75 C929.8906,1297.5938 929.9219,1297.4375 929.9219,1296.9844 L929.9219,1295.0625 C929.9219,1294.9063 929.9219,1294.8594 929.9063,1294.7031 C929.8438,1294.2344 929.5313,1293.9219 929.0781,1293.9219 C928.8281,1293.9219 928.5625,1294.0625 928.3906,1294.2813 C928.2813,1294.4531 928.25,1294.6094 928.25,1295.0625 L928.25,1295.1875 L926.7969,1295.1875 L926.7969,1292.7813 L930.7813,1292.7813 L930.7813,1293.6406 C930.7813,1294.0469 930.8125,1294.2188 930.8906,1294.375 C931.0625,1294.625 931.3438,1294.7813 931.625,1294.7813 C931.8906,1294.7813 932.1563,1294.6406 932.3281,1294.4219 C932.4375,1294.25 932.4688,1294.1094 932.4688,1293.6406 L932.4688,1291.0938 L924.8438,1291.0938 C924.4063,1291.0938 924.2813,1291.1094 924.125,1291.2031 C923.875,1291.3594 923.7188,1291.6563 923.7188,1291.9375 C923.7188,1292.2188 923.8594,1292.4688 924.0781,1292.6406 C924.2344,1292.75 924.4219,1292.7813 924.8438,1292.7813 L925.0938,1292.7813 L925.0938,1299.2969 L924.8438,1299.2969 C924.4375,1299.2969 924.2813,1299.3125 924.125,1299.4219 C923.875,1299.5938 923.7188,1299.8594 923.7188,1300.1563 C923.7188,1300.4219 923.8594,1300.6719 924.0781,1300.8281 C924.2188,1300.9531 924.4531,1301 924.8438,1301 L932.8438,1301 L932.8438,1298.4219 C932.8438,1297.9844 932.8125,1297.8438 932.7344,1297.6875 C932.5625,1297.4375 932.2813,1297.2813 932,1297.2813 C931.7344,1297.2813 931.4688,1297.3906 931.2969,1297.6406 C931.1875,1297.7969 931.1563,1297.9375 931.1563,1298.4219 L931.1563,1299.2969 L926.7969,1299.2969 L926.7969,1296.875 Z " fill="#000000"/><text fill="#000000" font-family="sans-serif" font-size="14" lengthAdjust="spacing" textLength="74" x="943" y="1300.8467">SaveState</text><line style="stroke:#181818;stroke-width:0.5;" x1="909.5" x2="1023.5" y1="1312" y2="1312"/><text fill="#000000" font-family="sans-serif" font-size="14" lengthAdjust="spacing" textLength="104" x="914.5" y="1328.9951">NOT_STARTED</text><text fill="#000000" font-family="sans-serif" font-size="14" lengthAdjust="spacing" textLength="99" x="914.5" y="1345.292">IN_PROGRESS</text><text fill="#000000" font-family="sans-serif" font-size="14" lengthAdjust="spacing" textLength="65" x="914.5" y="1361.5889">FINISHED</text><line style="stroke:#181818;stroke-width:0.5;" x1="909.5" x2="1023.5" y1="1368.8906" y2="1368.8906"/></g><!--class SharedLocalizer--><g id="elem_SharedLocalizer"><rect codeLine="75" fill="#F1F1F1" height="96.8906" id="SharedLocalizer" rx="2.5" ry="2.5" style="stroke:#181818;stroke-width:0.5;" width="306" x="1025.5" y="359.5"/><ellipse cx="1117.25" cy="375.5" fill="#ADD1B2" rx="11" ry="11" style="stroke:#181818;stroke-width:1.0;"/><path d="M1119.5938,371.1719 C1118.6563,370.7344 1118.0625,370.5938 1117.1875,370.5938 C1114.5625,370.5938 1112.5625,372.6719 1112.5625,375.3906 L1112.5625,376.5156 C1112.5625,379.0938 1114.6719,380.9844 1117.5625,380.9844 C1118.7813,380.9844 1119.9375,380.6875 1120.6875,380.1406 C1121.2656,379.7344 1121.5938,379.2813 1121.5938,378.8906 C1121.5938,378.4375 1121.2031,378.0469 1120.7344,378.0469 C1120.5156,378.0469 1120.3125,378.125 1120.125,378.3125 C1119.6719,378.7969 1119.6719,378.7969 1119.4844,378.8906 C1119.0625,379.1563 1118.375,379.2813 1117.6094,379.2813 C1115.5625,379.2813 1114.2656,378.1875 1114.2656,376.4844 L1114.2656,375.3906 C1114.2656,373.6094 1115.5156,372.2969 1117.25,372.2969 C1117.8281,372.2969 1118.4375,372.4531 1118.9063,372.7031 C1119.3906,372.9844 1119.5625,373.2031 1119.6563,373.6094 C1119.7188,374.0156 1119.75,374.1406 1119.8906,374.2656 C1120.0313,374.4063 1120.2656,374.5156 1120.4844,374.5156 C1120.75,374.5156 1121.0156,374.375 1121.1875,374.1563 C1121.2969,374 1121.3281,373.8125 1121.3281,373.3906 L1121.3281,371.9688 C1121.3281,371.5313 1121.3125,371.4063 1121.2188,371.25 C1121.0625,370.9844 1120.7813,370.8438 1120.4844,370.8438 C1120.1875,370.8438 1119.9844,370.9375 1119.7656,371.25 L1119.5938,371.1719 Z " fill="#000000"/><text fill="#000000" font-family="sans-serif" font-size="14" lengthAdjust="spacing" textLength="114" x="1137.75" y="380.3467">SharedLocalizer</text><line style="stroke:#181818;stroke-width:0.5;" x1="1026.5" x2="1330.5" y1="391.5" y2="391.5"/><rect fill="none" height="6" style="stroke:#C82930;stroke-width:1.0;" width="6" x="1033.5" y="402.1484"/><text fill="#000000" font-family="sans-serif" font-size="14" lengthAdjust="spacing" text-decoration="underline" textLength="266" x="1045.5" y="408.4951">_resourceManager: ResourceManager</text><line style="stroke:#181818;stroke-width:0.5;" x1="1026.5" x2="1330.5" y1="415.7969" y2="415.7969"/><ellipse cx="1036.5" cy="429.4453" fill="#84BE84" rx="3" ry="3" style="stroke:#038048;stroke-width:1.0;"/><text fill="#000000" font-family="sans-serif" font-size="14" lengthAdjust="spacing" text-decoration="underline" textLength="231" x="1045.5" y="432.792">SetCulture(culture: string) : void</text><ellipse cx="1036.5" cy="445.7422" fill="#84BE84" rx="3" ry="3" style="stroke:#038048;stroke-width:1.0;"/><text fill="#000000" font-family="sans-serif" font-size="14" lengthAdjust="spacing" text-decoration="underline" textLength="280" x="1045.5" y="449.0889">GetLocalizedString(key: string) : string</text></g><!--class CommandInterpretor--><g id="elem_CommandInterpretor"><rect codeLine="84" fill="#F1F1F1" height="259.8594" id="CommandInterpretor" rx="2.5" ry="2.5" style="stroke:#181818;stroke-width:0.5;" width="451" x="747" y="7"/><ellipse cx="890.75" cy="23" fill="#ADD1B2" rx="11" ry="11" style="stroke:#181818;stroke-width:1.0;"/><path d="M893.0938,18.6719 C892.1563,18.2344 891.5625,18.0938 890.6875,18.0938 C888.0625,18.0938 886.0625,20.1719 886.0625,22.8906 L886.0625,24.0156 C886.0625,26.5938 888.1719,28.4844 891.0625,28.4844 C892.2813,28.4844 893.4375,28.1875 894.1875,27.6406 C894.7656,27.2344 895.0938,26.7813 895.0938,26.3906 C895.0938,25.9375 894.7031,25.5469 894.2344,25.5469 C894.0156,25.5469 893.8125,25.625 893.625,25.8125 C893.1719,26.2969 893.1719,26.2969 892.9844,26.3906 C892.5625,26.6563 891.875,26.7813 891.1094,26.7813 C889.0625,26.7813 887.7656,25.6875 887.7656,23.9844 L887.7656,22.8906 C887.7656,21.1094 889.0156,19.7969 890.75,19.7969 C891.3281,19.7969 891.9375,19.9531 892.4063,20.2031 C892.8906,20.4844 893.0625,20.7031 893.1563,21.1094 C893.2188,21.5156 893.25,21.6406 893.3906,21.7656 C893.5313,21.9063 893.7656,22.0156 893.9844,22.0156 C894.25,22.0156 894.5156,21.875 894.6875,21.6563 C894.7969,21.5 894.8281,21.3125 894.8281,20.8906 L894.8281,19.4688 C894.8281,19.0313 894.8125,18.9063 894.7188,18.75 C894.5625,18.4844 894.2813,18.3438 893.9844,18.3438 C893.6875,18.3438 893.4844,18.4375 893.2656,18.75 L893.0938,18.6719 Z " fill="#000000"/><text fill="#000000" font-family="sans-serif" font-size="14" lengthAdjust="spacing" textLength="155" x="911.25" y="27.8467">CommandInterpretor</text><line style="stroke:#181818;stroke-width:0.5;" x1="748" x2="1197" y1="39" y2="39"/><line style="stroke:#181818;stroke-width:0.5;" x1="748" x2="1197" y1="47" y2="47"/><ellipse cx="758" cy="60.6484" fill="#84BE84" rx="3" ry="3" style="stroke:#038048;stroke-width:1.0;"/><text fill="#000000" font-family="sans-serif" font-size="14" lengthAdjust="spacing" text-decoration="underline" textLength="284" x="767" y="63.9951">ReadCommand(command: string) : void</text><rect fill="#F24D5C" height="6" style="stroke:#C82930;stroke-width:1.0;" width="6" x="755" y="73.9453"/><text fill="#000000" font-family="sans-serif" font-size="14" lengthAdjust="spacing" text-decoration="underline" textLength="189" x="767" y="80.292">_regexCommand() : Regex</text><rect fill="#F24D5C" height="6" style="stroke:#C82930;stroke-width:1.0;" width="6" x="755" y="90.2422"/><text fill="#000000" font-family="sans-serif" font-size="14" lengthAdjust="spacing" text-decoration="underline" textLength="136" x="767" y="96.5889">_regexIds() : Regex</text><rect fill="#F24D5C" height="6" style="stroke:#C82930;stroke-width:1.0;" width="6" x="755" y="106.5391"/><text fill="#000000" font-family="sans-serif" font-size="14" lengthAdjust="spacing" text-decoration="underline" textLength="161" x="767" y="112.8857">_regexParam() : Regex</text><rect fill="#F24D5C" height="6" style="stroke:#C82930;stroke-width:1.0;" width="6" x="755" y="122.8359"/><text fill="#000000" font-family="sans-serif" font-size="14" lengthAdjust="spacing" text-decoration="underline" textLength="425" x="767" y="129.1826">ExtraireParametre(args: string) : Dictionary&lt;string, string&gt;</text><rect fill="#F24D5C" height="6" style="stroke:#C82930;stroke-width:1.0;" width="6" x="755" y="139.1328"/><text fill="#000000" font-family="sans-serif" font-size="14" lengthAdjust="spacing" text-decoration="underline" textLength="261" x="767" y="145.4795">ArgIdsToList(args: string) : List&lt;int&gt;</text><rect fill="#F24D5C" height="6" style="stroke:#C82930;stroke-width:1.0;" width="6" x="755" y="155.4297"/><text fill="#000000" font-family="sans-serif" font-size="14" lengthAdjust="spacing" text-decoration="underline" textLength="265" x="767" y="161.7764">LancerSauvegarde(args: string) : void</text><rect fill="#F24D5C" height="6" style="stroke:#C82930;stroke-width:1.0;" width="6" x="755" y="171.7266"/><text fill="#000000" font-family="sans-serif" font-size="14" lengthAdjust="spacing" text-decoration="underline" textLength="184" x="767" y="178.0732">ListerSauvegardes() : void</text><rect fill="#F24D5C" height="6" style="stroke:#C82930;stroke-width:1.0;" width="6" x="755" y="188.0234"/><text fill="#000000" font-family="sans-serif" font-size="14" lengthAdjust="spacing" text-decoration="underline" textLength="285" x="767" y="194.3701">AjouterConfiguration(args: string) : void</text><rect fill="#F24D5C" height="6" style="stroke:#C82930;stroke-width:1.0;" width="6" x="755" y="204.3203"/><text fill="#000000" font-family="sans-serif" font-size="14" lengthAdjust="spacing" text-decoration="underline" textLength="291" x="767" y="210.667">ModifierConfiguration(args: string) : void</text><rect fill="#F24D5C" height="6" style="stroke:#C82930;stroke-width:1.0;" width="6" x="755" y="220.6172"/><text fill="#000000" font-family="sans-serif" font-size="14" lengthAdjust="spacing" text-decoration="underline" textLength="308" x="767" y="226.9639">SupprimerConfiguration(args: string) : void</text><rect fill="#F24D5C" height="6" style="stroke:#C82930;stroke-width:1.0;" width="6" x="755" y="236.9141"/><text fill="#000000" font-family="sans-serif" font-size="14" lengthAdjust="spacing" text-decoration="underline" textLength="245" x="767" y="243.2607">ChangerLangue(args: string) : void</text><rect fill="#F24D5C" height="6" style="stroke:#C82930;stroke-width:1.0;" width="6" x="755" y="253.2109"/><text fill="#000000" font-family="sans-serif" font-size="14" lengthAdjust="spacing" text-decoration="underline" textLength="143" x="767" y="259.5576">AfficherAide() : void</text></g><!--reverse link Logger to LoggerJournalier--><g id="link_Logger_LoggerJournalier"><path codeLine="6" d="M387.9486,712.2833 C375.6366,752.1173 362.07,796.008 349.752,835.862 " fill="none" id="Logger-backto-LoggerJournalier" style="stroke:#181818;stroke-width:1.0;"/><polygon fill="none" points="393.264,695.086,382.2162,710.5115,393.681,714.0551,393.264,695.086" style="stroke:#181818;stroke-width:1.0;"/></g><!--reverse link Logger to LoggerEtat--><g id="link_Logger_LoggerEtat"><path codeLine="12" d="M459.2822,707.3637 C482.5732,728.6417 499.922,741.968 530.5,760 C594.13,797.523 617.237,791.771 685.5,820 C691.354,822.421 697.345,824.935 703.384,827.497 " fill="none" id="Logger-backto-LoggerEtat" style="stroke:#181818;stroke-width:1.0;"/><polygon fill="none" points="445.993,695.223,455.2354,711.7934,463.3291,702.9339,445.993,695.223" style="stroke:#181818;stroke-width:1.0;"/></g><!--reverse link LoggerEtat to Save--><g id="link_LoggerEtat_Save"><path codeLine="13" d="M835.0429,944.5982 C841.3799,962.6592 844.68,972.063 851.933,992.735 " fill="none" id="LoggerEtat-backto-Save" style="stroke:#181818;stroke-width:1.0;"/><polygon fill="none" points="831.07,933.275,829.2821,940.2609,835.0429,944.5982,836.8309,937.6123,831.07,933.275" style="stroke:#181818;stroke-width:1.0;"/></g><!--reverse link EasySave to SaveConfiguration--><g id="link_EasySave_SaveConfiguration"><path codeLine="21" d="M801.1179,497.1459 C822.0319,516.2269 835.794,528.781 857.72,548.785 " fill="none" id="EasySave-backto-SaveConfiguration" style="stroke:#181818;stroke-width:1.0;"/><polygon fill="#181818" points="792.253,489.058,793.9895,496.0569,801.1179,497.1459,799.3814,490.147,792.253,489.058" style="stroke:#181818;stroke-width:1.0;"/></g><!--link EasySave to Logger--><g id="link_EasySave_Logger"><path codeLine="22" d="M604.406,489.006 C580.144,508.544 554.333,529.453 530.5,549 C504.583,570.256 480.471,590.3668 457.11,609.9818 " fill="none" id="EasySave-to-Logger" style="stroke:#181818;stroke-width:1.0;"/><polygon fill="#181818" points="452.515,613.84,461.9797,611.116,456.3442,610.6248,456.8354,604.9893,452.515,613.84" style="stroke:#181818;stroke-width:1.0;"/></g><!--reverse link SaveConfiguration to Save--><g id="link_SaveConfiguration_Save"><path codeLine="33" d="M960.7185,772.0246 C954.7225,824.2216 947.537,876.252 936.5,933 C932.718,952.444 928.015,972.947 923.087,992.764 " fill="none" id="SaveConfiguration-backto-Save" style="stroke:#181818;stroke-width:1.0;"/><polygon fill="none" points="962.088,760.103,957.4294,765.6073,960.7185,772.0246,965.3771,766.5203,962.088,760.103" style="stroke:#181818;stroke-width:1.0;"/></g><!--link Save to SaveType--><g id="link_Save_SaveType"><path codeLine="58" d="M853.633,1220.078 C845.454,1244.393 839.2449,1262.8531 832.7789,1282.0763 " fill="none" id="Save-to-SaveType" style="stroke:#181818;stroke-width:1.0;"/><polygon fill="#181818" points="830.866,1287.7632,837.5266,1280.5081,832.4601,1283.0241,829.944,1277.9576,830.866,1287.7632" style="stroke:#181818;stroke-width:1.0;"/></g><!--link Save to SaveState--><g id="link_Save_SaveState"><path codeLine="59" d="M929.879,1220.078 C937.051,1241.116 942.244,1256.3489 948.28,1274.0545 " fill="none" id="Save-to-SaveState" style="stroke:#181818;stroke-width:1.0;"/><polygon fill="#181818" points="950.216,1279.7336,951.098,1269.9243,948.6026,1275.001,943.5259,1272.5057,950.216,1279.7336" style="stroke:#181818;stroke-width:1.0;"/></g><!--link CommandInterpretor to SharedLocalizer--><g id="link_CommandInterpretor_SharedLocalizer"><path codeLine="81" d="M1071.58,267.38 C1096.73,300.22 1118.5426,328.7059 1138.3026,354.5159 " fill="none" id="CommandInterpretor-to-SharedLocalizer" style="stroke:#181818;stroke-width:1.0;"/><polygon fill="#181818" points="1141.95,359.28,1139.655,349.7023,1138.9105,355.3099,1133.3029,354.5654,1141.95,359.28" style="stroke:#181818;stroke-width:1.0;"/></g><!--reverse link CommandInterpretor to SaveConfiguration--><g id="link_CommandInterpretor_SaveConfiguration"><path codeLine="82" d="M972.5,279.08 C972.5,366.02 972.5,467.218 972.5,548.595 " fill="none" id="CommandInterpretor-backto-SaveConfiguration" style="stroke:#181818;stroke-width:1.0;"/><polygon fill="#181818" points="972.5,267.08,968.5,273.08,972.5,279.08,976.5,273.08,972.5,267.08" style="stroke:#181818;stroke-width:1.0;"/></g><!--reverse link CommandInterpretor to EasySave--><g id="link_CommandInterpretor_EasySave"><path codeLine="83" d="M835.1318,275.8803 C814.8838,296.2003 802.95,308.18 784.243,326.96 " fill="none" id="CommandInterpretor-backto-EasySave" style="stroke:#181818;stroke-width:1.0;"/><polygon fill="#181818" points="843.602,267.38,836.5335,268.8068,835.1318,275.8803,842.2003,274.4536,843.602,267.38" style="stroke:#181818;stroke-width:1.0;"/></g><!--SRC=[fLRVRvim47uEVmNINkXIf6sFKTSeIaZ7bAPLODfZv8AXtW0ZsrHDk_xlEviVCU2qgvQ7WE- -EzzzTpw3xhXWA19sb27ExGrDKypiPyk6tmTOhKc6PxRy3mJ3A5UAQKPJ9yUSenIKu80KwPazinyeYQqNosgyNFnntSRZTrgn0cK4CqlVw2XkjfmEvSvP9tSuUi3x0kNTdkSs1s2ahGLYAHQQdZo1bXG2L0mLFC5iBuZqa6GKYTU3zWGIrl7Lfg0988PU2ahJ12y3v3DxGxYuaC1BFIS9RBDPnB7KguncocSNYTB_P4G0uKXW7b99lgD7wY5-a3RsnoQW9IqIabOC2KABezfrBviWcuWxJHslk-T3uvd1dugeDUtgWOe8im1L3pX5BCPE1abZFswo1yOlUocvIreULeJXI51sSEgwmNfOEatKfyHB4h2jz3sND2ypB4xJQB1P4P0nN0Y2i-oavJC7xadqClLv0Fq6V0WmSHAenETZn7BvHO_sZj9C5cZ4uR1rne1dQz9kwkv90Qz5X4tLcBYIu67Lj9Rh_4oliF0RJwf_JCu0qnDnXTJTJOUGVq2GM1swTbCJH3_76WvEncdSEJWjAx6cMOorpg6LC4XbQSD3sP0etxeIJwOxdDC16NhGgf2JwOyoHiACEhVrmER6oERcqEQcsERw0ST5bNSQTLYNDzUt6o_qu7NbhzVUpjk6_cBJ0wjveT3Rct0VX8jTwArWvM_tjxkRgvqN1B1Q-ri_-0QAfa_Lb6ZtwakKGwrZ1qqAXQhWN335X_tL_WIC-JKxyBRLw96ACJqWlJ7G0-9WH0y8GofG9cSXZ4GvJDgDZlAW7VPo-pibod0YGhgYhLYbDDEogpThgphlb_L_-ysI93VytIE6umsDu5PxKjUTHYN3zJoyHWNSgE1prnTePpg0SrHbecBOYUhdQ5ps1a2xOnmeaFCR7tI3Xd884uPfZehObnKj6OOfNVT1FsuJp7mBdG2szqX3Ym6bCGF75CKDn8dgv-bq9OyfVcpn4h2JWX72Z_ahsbl4K6xKUu_m3G5Nc49W-1nouChYUa0h4ida4JjST6sXdjfOTXSiXGX2AaVeo4DtUse6exjsQ3JWGLqG6fux1j3Y5xGnPltXzeRZQngJXBpJAAZAai4dr_kiblUeWCw7rDFgpOGNIKAYUymM9DQ_bFu2]--></g></svg>