<?xml version="1.0" encoding="us-ascii" standalone="no"?><svg xmlns="http://www.w3.org/2000/svg" xmlns:xlink="http://www.w3.org/1999/xlink" contentStyleType="text/css" height="1063px" preserveAspectRatio="none" style="width:1403px;height:1063px;background:#FFFFFF;" version="1.1" viewBox="0 0 1403 1063" width="1403px" zoomAndPan="magnify"><defs/><g><!--class Logger--><g id="elem_Logger"><rect codeLine="1" fill="#F1F1F1" height="80.5938" id="Logger" rx="2.5" ry="2.5" style="stroke:#181818;stroke-width:0.5;" width="215" x="298" y="294"/><ellipse cx="376.25" cy="310" fill="#A9DCDF" rx="11" ry="11" style="stroke:#181818;stroke-width:1.0;"/><path d="M378.3281,311.8125 L378.7188,312.7969 L378.3281,312.7969 C377.875,312.7969 377.7656,312.8125 377.6094,312.9219 C377.3594,313.0781 377.2031,313.3594 377.2031,313.6563 C377.2031,313.9219 377.3438,314.1719 377.5625,314.3281 C377.7031,314.4531 377.9063,314.5 378.3281,314.5 L380.6875,314.5 C381.0469,314.5 381.2656,314.4688 381.4063,314.375 C381.6563,314.2344 381.8125,313.9375 381.8125,313.6563 C381.8125,313.375 381.6719,313.125 381.4531,312.9688 C381.2813,312.8281 381.125,312.7969 380.6563,312.7969 L377.2656,304.5938 L373.5938,304.5938 C373.1406,304.5938 373.0156,304.6094 372.8594,304.7031 C372.6094,304.875 372.4531,305.1563 372.4531,305.4375 C372.4531,305.7188 372.5938,305.9688 372.8125,306.1406 C372.9844,306.25 373.1563,306.2813 373.5938,306.2813 L374.6719,306.2813 L372.0313,312.7969 C371.6094,312.7969 371.4531,312.8125 371.2969,312.9219 C371.0469,313.0781 370.8906,313.3594 370.8906,313.6563 C370.8906,314.2188 371.2656,314.5 372.0156,314.5 L374.2813,314.5 C374.6406,314.5 374.8594,314.4688 374.9844,314.375 C375.25,314.2344 375.3906,313.9375 375.3906,313.6563 C375.3906,313.375 375.2656,313.125 375.0469,312.9531 C374.875,312.8281 374.7344,312.7969 374.2813,312.7969 L373.8906,312.7969 L374.2813,311.8125 L378.3281,311.8125 Z M377.625,310.1094 L374.9531,310.1094 L376.2969,306.8438 L377.625,310.1094 Z " fill="#000000"/><text fill="#000000" font-family="sans-serif" font-size="14" font-style="italic" lengthAdjust="spacing" textLength="50" x="396.75" y="314.8467">Logger</text><line style="stroke:#181818;stroke-width:0.5;" x1="299" x2="512" y1="326" y2="326"/><polygon fill="none" points="309,334.6484,313,338.6484,309,342.6484,305,338.6484" style="stroke:#B38D22;stroke-width:1.0;"/><text fill="#000000" font-family="sans-serif" font-size="14" lengthAdjust="spacing" textLength="138" x="318" y="342.9951">LogFile: FileStream</text><line style="stroke:#181818;stroke-width:0.5;" x1="299" x2="512" y1="350.2969" y2="350.2969"/><ellipse cx="309" cy="363.9453" fill="#84BE84" rx="3" ry="3" style="stroke:#038048;stroke-width:1.0;"/><text fill="#000000" font-family="sans-serif" font-size="14" lengthAdjust="spacing" textLength="189" x="318" y="367.292">log(message: string) : void</text></g><!--class LoggerJournalier--><g id="elem_LoggerJournalier"><rect codeLine="7" fill="#F1F1F1" height="80.5938" id="LoggerJournalier" rx="2.5" ry="2.5" style="stroke:#181818;stroke-width:0.5;" width="661" x="7" y="516"/><ellipse cx="274.75" cy="532" fill="#ADD1B2" rx="11" ry="11" style="stroke:#181818;stroke-width:1.0;"/><path d="M277.0938,527.6719 C276.1563,527.2344 275.5625,527.0938 274.6875,527.0938 C272.0625,527.0938 270.0625,529.1719 270.0625,531.8906 L270.0625,533.0156 C270.0625,535.5938 272.1719,537.4844 275.0625,537.4844 C276.2813,537.4844 277.4375,537.1875 278.1875,536.6406 C278.7656,536.2344 279.0938,535.7813 279.0938,535.3906 C279.0938,534.9375 278.7031,534.5469 278.2344,534.5469 C278.0156,534.5469 277.8125,534.625 277.625,534.8125 C277.1719,535.2969 277.1719,535.2969 276.9844,535.3906 C276.5625,535.6563 275.875,535.7813 275.1094,535.7813 C273.0625,535.7813 271.7656,534.6875 271.7656,532.9844 L271.7656,531.8906 C271.7656,530.1094 273.0156,528.7969 274.75,528.7969 C275.3281,528.7969 275.9375,528.9531 276.4063,529.2031 C276.8906,529.4844 277.0625,529.7031 277.1563,530.1094 C277.2188,530.5156 277.25,530.6406 277.3906,530.7656 C277.5313,530.9063 277.7656,531.0156 277.9844,531.0156 C278.25,531.0156 278.5156,530.875 278.6875,530.6563 C278.7969,530.5 278.8281,530.3125 278.8281,529.8906 L278.8281,528.4688 C278.8281,528.0313 278.8125,527.9063 278.7188,527.75 C278.5625,527.4844 278.2813,527.3438 277.9844,527.3438 C277.6875,527.3438 277.4844,527.4375 277.2656,527.75 L277.0938,527.6719 Z " fill="#000000"/><text fill="#000000" font-family="sans-serif" font-size="14" lengthAdjust="spacing" textLength="117" x="295.25" y="536.8467">LoggerJournalier</text><line style="stroke:#181818;stroke-width:0.5;" x1="8" x2="667" y1="548" y2="548"/><line style="stroke:#181818;stroke-width:0.5;" x1="8" x2="667" y1="556" y2="556"/><ellipse cx="18" cy="569.6484" fill="#84BE84" rx="3" ry="3" style="stroke:#038048;stroke-width:1.0;"/><text fill="#000000" font-family="sans-serif" font-size="14" lengthAdjust="spacing" textLength="127" x="27" y="572.9951">LoggerJournalier()</text><ellipse cx="18" cy="585.9453" fill="#84BE84" rx="3" ry="3" style="stroke:#038048;stroke-width:1.0;"/><text fill="#000000" font-family="sans-serif" font-size="14" lengthAdjust="spacing" textLength="635" x="27" y="589.292">Log(save_name: string, source: string, target: string, size: int, transfer_time: float) : void</text></g><!--class LoggerEtat--><g id="elem_LoggerEtat"><rect codeLine="14" fill="#F1F1F1" height="113.1875" id="LoggerEtat" rx="2.5" ry="2.5" style="stroke:#181818;stroke-width:0.5;" width="216" x="703.5" y="500"/><ellipse cx="766.75" cy="516" fill="#ADD1B2" rx="11" ry="11" style="stroke:#181818;stroke-width:1.0;"/><path d="M769.0938,511.6719 C768.1563,511.2344 767.5625,511.0938 766.6875,511.0938 C764.0625,511.0938 762.0625,513.1719 762.0625,515.8906 L762.0625,517.0156 C762.0625,519.5938 764.1719,521.4844 767.0625,521.4844 C768.2813,521.4844 769.4375,521.1875 770.1875,520.6406 C770.7656,520.2344 771.0938,519.7813 771.0938,519.3906 C771.0938,518.9375 770.7031,518.5469 770.2344,518.5469 C770.0156,518.5469 769.8125,518.625 769.625,518.8125 C769.1719,519.2969 769.1719,519.2969 768.9844,519.3906 C768.5625,519.6563 767.875,519.7813 767.1094,519.7813 C765.0625,519.7813 763.7656,518.6875 763.7656,516.9844 L763.7656,515.8906 C763.7656,514.1094 765.0156,512.7969 766.75,512.7969 C767.3281,512.7969 767.9375,512.9531 768.4063,513.2031 C768.8906,513.4844 769.0625,513.7031 769.1563,514.1094 C769.2188,514.5156 769.25,514.6406 769.3906,514.7656 C769.5313,514.9063 769.7656,515.0156 769.9844,515.0156 C770.25,515.0156 770.5156,514.875 770.6875,514.6563 C770.7969,514.5 770.8281,514.3125 770.8281,513.8906 L770.8281,512.4688 C770.8281,512.0313 770.8125,511.9063 770.7188,511.75 C770.5625,511.4844 770.2813,511.3438 769.9844,511.3438 C769.6875,511.3438 769.4844,511.4375 769.2656,511.75 L769.0938,511.6719 Z " fill="#000000"/><text fill="#000000" font-family="sans-serif" font-size="14" lengthAdjust="spacing" textLength="81" x="787.25" y="520.8467">LoggerEtat</text><line style="stroke:#181818;stroke-width:0.5;" x1="704.5" x2="918.5" y1="532" y2="532"/><ellipse cx="714.5" cy="545.6484" fill="none" rx="3" ry="3" style="stroke:#038048;stroke-width:1.0;"/><text fill="#000000" font-family="sans-serif" font-size="14" lengthAdjust="spacing" textLength="130" x="723.5" y="548.9951">saves: List&lt;Save&gt;</text><line style="stroke:#181818;stroke-width:0.5;" x1="704.5" x2="918.5" y1="556.2969" y2="556.2969"/><ellipse cx="714.5" cy="569.9453" fill="#84BE84" rx="3" ry="3" style="stroke:#038048;stroke-width:1.0;"/><text fill="#000000" font-family="sans-serif" font-size="14" lengthAdjust="spacing" textLength="91" x="723.5" y="573.292">LoggerEtat()</text><ellipse cx="714.5" cy="586.2422" fill="#84BE84" rx="3" ry="3" style="stroke:#038048;stroke-width:1.0;"/><text fill="#000000" font-family="sans-serif" font-size="14" lengthAdjust="spacing" textLength="190" x="723.5" y="589.5889">AddSave(save: Save) : void</text><ellipse cx="714.5" cy="602.5391" fill="#84BE84" rx="3" ry="3" style="stroke:#038048;stroke-width:1.0;"/><text fill="#000000" font-family="sans-serif" font-size="14" lengthAdjust="spacing" textLength="183" x="723.5" y="605.8857">WriteStatesToFile() : void</text></g><!--class Save--><g id="elem_Save"><rect codeLine="60" fill="#F1F1F1" height="227.2656" id="Save" rx="2.5" ry="2.5" style="stroke:#181818;stroke-width:0.5;" width="668" x="557.5" y="673"/><ellipse cx="870.25" cy="689" fill="#ADD1B2" rx="11" ry="11" style="stroke:#181818;stroke-width:1.0;"/><path d="M872.5938,684.6719 C871.6563,684.2344 871.0625,684.0938 870.1875,684.0938 C867.5625,684.0938 865.5625,686.1719 865.5625,688.8906 L865.5625,690.0156 C865.5625,692.5938 867.6719,694.4844 870.5625,694.4844 C871.7813,694.4844 872.9375,694.1875 873.6875,693.6406 C874.2656,693.2344 874.5938,692.7813 874.5938,692.3906 C874.5938,691.9375 874.2031,691.5469 873.7344,691.5469 C873.5156,691.5469 873.3125,691.625 873.125,691.8125 C872.6719,692.2969 872.6719,692.2969 872.4844,692.3906 C872.0625,692.6563 871.375,692.7813 870.6094,692.7813 C868.5625,692.7813 867.2656,691.6875 867.2656,689.9844 L867.2656,688.8906 C867.2656,687.1094 868.5156,685.7969 870.25,685.7969 C870.8281,685.7969 871.4375,685.9531 871.9063,686.2031 C872.3906,686.4844 872.5625,686.7031 872.6563,687.1094 C872.7188,687.5156 872.75,687.6406 872.8906,687.7656 C873.0313,687.9063 873.2656,688.0156 873.4844,688.0156 C873.75,688.0156 874.0156,687.875 874.1875,687.6563 C874.2969,687.5 874.3281,687.3125 874.3281,686.8906 L874.3281,685.4688 C874.3281,685.0313 874.3125,684.9063 874.2188,684.75 C874.0625,684.4844 873.7813,684.3438 873.4844,684.3438 C873.1875,684.3438 872.9844,684.4375 872.7656,684.75 L872.5938,684.6719 Z " fill="#000000"/><text fill="#000000" font-family="sans-serif" font-size="14" lengthAdjust="spacing" textLength="34" x="890.75" y="693.8467">Save</text><line style="stroke:#181818;stroke-width:0.5;" x1="558.5" x2="1224.5" y1="705" y2="705"/><rect fill="none" height="6" style="stroke:#C82930;stroke-width:1.0;" width="6" x="565.5" y="715.6484"/><text fill="#000000" font-family="sans-serif" font-size="14" lengthAdjust="spacing" text-decoration="underline" textLength="135" x="577.5" y="721.9951">_idCounter: int = 0</text><ellipse cx="568.5" cy="734.9453" fill="none" rx="3" ry="3" style="stroke:#038048;stroke-width:1.0;"/><text fill="#000000" font-family="sans-serif" font-size="14" lengthAdjust="spacing" textLength="42" x="577.5" y="738.292">Id: int</text><ellipse cx="568.5" cy="751.2422" fill="none" rx="3" ry="3" style="stroke:#038048;stroke-width:1.0;"/><text fill="#000000" font-family="sans-serif" font-size="14" lengthAdjust="spacing" textLength="92" x="577.5" y="754.5889">Name: string</text><ellipse cx="568.5" cy="767.5391" fill="none" rx="3" ry="3" style="stroke:#038048;stroke-width:1.0;"/><text fill="#000000" font-family="sans-serif" font-size="14" lengthAdjust="spacing" textLength="134" x="577.5" y="770.8857">InputFolder: string</text><ellipse cx="568.5" cy="783.8359" fill="none" rx="3" ry="3" style="stroke:#038048;stroke-width:1.0;"/><text fill="#000000" font-family="sans-serif" font-size="14" lengthAdjust="spacing" textLength="147" x="577.5" y="787.1826">OutputFolder: string</text><ellipse cx="568.5" cy="800.1328" fill="none" rx="3" ry="3" style="stroke:#038048;stroke-width:1.0;"/><text fill="#000000" font-family="sans-serif" font-size="14" lengthAdjust="spacing" textLength="149" x="577.5" y="803.4795">SaveType: SaveType</text><ellipse cx="568.5" cy="816.4297" fill="none" rx="3" ry="3" style="stroke:#038048;stroke-width:1.0;"/><text fill="#000000" font-family="sans-serif" font-size="14" lengthAdjust="spacing" textLength="153" x="577.5" y="819.7764">TotalFilesToCopy: int</text><ellipse cx="568.5" cy="832.7266" fill="none" rx="3" ry="3" style="stroke:#038048;stroke-width:1.0;"/><text fill="#000000" font-family="sans-serif" font-size="14" lengthAdjust="spacing" textLength="128" x="577.5" y="836.0732">TotalFilesSize: int</text><ellipse cx="568.5" cy="849.0234" fill="none" rx="3" ry="3" style="stroke:#038048;stroke-width:1.0;"/><text fill="#000000" font-family="sans-serif" font-size="14" lengthAdjust="spacing" textLength="145" x="577.5" y="852.3701">NbFilesleftToDo: int</text><ellipse cx="568.5" cy="865.3203" fill="none" rx="3" ry="3" style="stroke:#038048;stroke-width:1.0;"/><text fill="#000000" font-family="sans-serif" font-size="14" lengthAdjust="spacing" textLength="123" x="577.5" y="868.667">State: SaveState</text><line style="stroke:#181818;stroke-width:0.5;" x1="558.5" x2="1224.5" y1="875.9688" y2="875.9688"/><ellipse cx="568.5" cy="889.6172" fill="#84BE84" rx="3" ry="3" style="stroke:#038048;stroke-width:1.0;"/><text fill="#000000" font-family="sans-serif" font-size="14" lengthAdjust="spacing" textLength="642" x="577.5" y="892.9639">Save(id: int?, name: string, inputFolder: string, outputFolder: string, saveType: SaveType)</text></g><!--class EasySave--><g id="elem_EasySave"><rect codeLine="23" fill="#F1F1F1" height="162.0781" id="EasySave" rx="2.5" ry="2.5" style="stroke:#181818;stroke-width:0.5;" width="429" x="474" y="7"/><ellipse cx="651.25" cy="23" fill="#ADD1B2" rx="11" ry="11" style="stroke:#181818;stroke-width:1.0;"/><path d="M653.5938,18.6719 C652.6563,18.2344 652.0625,18.0938 651.1875,18.0938 C648.5625,18.0938 646.5625,20.1719 646.5625,22.8906 L646.5625,24.0156 C646.5625,26.5938 648.6719,28.4844 651.5625,28.4844 C652.7813,28.4844 653.9375,28.1875 654.6875,27.6406 C655.2656,27.2344 655.5938,26.7813 655.5938,26.3906 C655.5938,25.9375 655.2031,25.5469 654.7344,25.5469 C654.5156,25.5469 654.3125,25.625 654.125,25.8125 C653.6719,26.2969 653.6719,26.2969 653.4844,26.3906 C653.0625,26.6563 652.375,26.7813 651.6094,26.7813 C649.5625,26.7813 648.2656,25.6875 648.2656,23.9844 L648.2656,22.8906 C648.2656,21.1094 649.5156,19.7969 651.25,19.7969 C651.8281,19.7969 652.4375,19.9531 652.9063,20.2031 C653.3906,20.4844 653.5625,20.7031 653.6563,21.1094 C653.7188,21.5156 653.75,21.6406 653.8906,21.7656 C654.0313,21.9063 654.2656,22.0156 654.4844,22.0156 C654.75,22.0156 655.0156,21.875 655.1875,21.6563 C655.2969,21.5 655.3281,21.3125 655.3281,20.8906 L655.3281,19.4688 C655.3281,19.0313 655.3125,18.9063 655.2188,18.75 C655.0625,18.4844 654.7813,18.3438 654.4844,18.3438 C654.1875,18.3438 653.9844,18.4375 653.7656,18.75 L653.5938,18.6719 Z " fill="#000000"/><text fill="#000000" font-family="sans-serif" font-size="14" lengthAdjust="spacing" textLength="66" x="671.75" y="27.8467">EasySave</text><line style="stroke:#181818;stroke-width:0.5;" x1="475" x2="902" y1="39" y2="39"/><rect fill="none" height="6" style="stroke:#C82930;stroke-width:1.0;" width="6" x="482" y="49.6484"/><text fill="#000000" font-family="sans-serif" font-size="14" lengthAdjust="spacing" textLength="278" x="494" y="55.9951">_saveConfiguration: SaveConfiguration</text><line style="stroke:#181818;stroke-width:0.5;" x1="475" x2="902" y1="63.2969" y2="63.2969"/><ellipse cx="485" cy="76.9453" fill="#84BE84" rx="3" ry="3" style="stroke:#038048;stroke-width:1.0;"/><text fill="#000000" font-family="sans-serif" font-size="14" lengthAdjust="spacing" textLength="76" x="494" y="80.292">EasySave()</text><ellipse cx="485" cy="93.2422" fill="#84BE84" rx="3" ry="3" style="stroke:#038048;stroke-width:1.0;"/><text fill="#000000" font-family="sans-serif" font-size="14" lengthAdjust="spacing" textLength="305" x="494" y="96.5889">LancerSauvegarde(listeId: List&lt;int&gt;) : void</text><rect fill="#F24D5C" height="6" style="stroke:#C82930;stroke-width:1.0;" width="6" x="482" y="106.5391"/><text fill="#000000" font-family="sans-serif" font-size="14" lengthAdjust="spacing" textLength="403" x="494" y="112.8857">CopyDirectory(sourceDir: string, targetDir: string) : void</text><ellipse cx="485" cy="125.8359" fill="#84BE84" rx="3" ry="3" style="stroke:#038048;stroke-width:1.0;"/><text fill="#000000" font-family="sans-serif" font-size="14" lengthAdjust="spacing" textLength="351" x="494" y="129.1826">EffectuerSauvegardeComplete(save: Save) : void</text><ellipse cx="485" cy="142.1328" fill="#84BE84" rx="3" ry="3" style="stroke:#038048;stroke-width:1.0;"/><text fill="#000000" font-family="sans-serif" font-size="14" lengthAdjust="spacing" textLength="376" x="494" y="145.4795">EffectuerSauvegardeDifferentielle(save: Save) : void</text><ellipse cx="485" cy="158.4297" fill="#84BE84" rx="3" ry="3" style="stroke:#038048;stroke-width:1.0;"/><text fill="#000000" font-family="sans-serif" font-size="14" lengthAdjust="spacing" text-decoration="underline" textLength="339" x="494" y="161.7764">IsSameContent(file1: string, file2: string) : bool</text></g><!--class SaveConfiguration--><g id="elem_SaveConfiguration"><rect codeLine="34" fill="#F1F1F1" height="210.9688" id="SaveConfiguration" rx="2.5" ry="2.5" style="stroke:#181818;stroke-width:0.5;" width="848" x="548.5" y="229"/><ellipse cx="902.25" cy="245" fill="#ADD1B2" rx="11" ry="11" style="stroke:#181818;stroke-width:1.0;"/><path d="M904.5938,240.6719 C903.6563,240.2344 903.0625,240.0938 902.1875,240.0938 C899.5625,240.0938 897.5625,242.1719 897.5625,244.8906 L897.5625,246.0156 C897.5625,248.5938 899.6719,250.4844 902.5625,250.4844 C903.7813,250.4844 904.9375,250.1875 905.6875,249.6406 C906.2656,249.2344 906.5938,248.7813 906.5938,248.3906 C906.5938,247.9375 906.2031,247.5469 905.7344,247.5469 C905.5156,247.5469 905.3125,247.625 905.125,247.8125 C904.6719,248.2969 904.6719,248.2969 904.4844,248.3906 C904.0625,248.6563 903.375,248.7813 902.6094,248.7813 C900.5625,248.7813 899.2656,247.6875 899.2656,245.9844 L899.2656,244.8906 C899.2656,243.1094 900.5156,241.7969 902.25,241.7969 C902.8281,241.7969 903.4375,241.9531 903.9063,242.2031 C904.3906,242.4844 904.5625,242.7031 904.6563,243.1094 C904.7188,243.5156 904.75,243.6406 904.8906,243.7656 C905.0313,243.9063 905.2656,244.0156 905.4844,244.0156 C905.75,244.0156 906.0156,243.875 906.1875,243.6563 C906.2969,243.5 906.3281,243.3125 906.3281,242.8906 L906.3281,241.4688 C906.3281,241.0313 906.3125,240.9063 906.2188,240.75 C906.0625,240.4844 905.7813,240.3438 905.4844,240.3438 C905.1875,240.3438 904.9844,240.4375 904.7656,240.75 L904.5938,240.6719 Z " fill="#000000"/><text fill="#000000" font-family="sans-serif" font-size="14" lengthAdjust="spacing" textLength="132" x="922.75" y="249.8467">SaveConfiguration</text><line style="stroke:#181818;stroke-width:0.5;" x1="549.5" x2="1395.5" y1="261" y2="261"/><rect fill="none" height="6" style="stroke:#C82930;stroke-width:1.0;" width="6" x="556.5" y="271.6484"/><text fill="#000000" font-family="sans-serif" font-size="14" lengthAdjust="spacing" text-decoration="underline" textLength="209" x="568.5" y="277.9951">_instance: SaveConfiguration</text><rect fill="none" height="6" style="stroke:#C82930;stroke-width:1.0;" width="6" x="556.5" y="287.9453"/><text fill="#000000" font-family="sans-serif" font-size="14" lengthAdjust="spacing" textLength="224" x="568.5" y="294.292">ListeConfiguration: List&lt;Save&gt;</text><line style="stroke:#181818;stroke-width:0.5;" x1="549.5" x2="1395.5" y1="301.5938" y2="301.5938"/><ellipse cx="559.5" cy="315.2422" fill="#84BE84" rx="3" ry="3" style="stroke:#038048;stroke-width:1.0;"/><text fill="#000000" font-family="sans-serif" font-size="14" lengthAdjust="spacing" text-decoration="underline" textLength="243" x="568.5" y="318.5889">GetInstance() : SaveConfiguration</text><rect fill="#F24D5C" height="6" style="stroke:#C82930;stroke-width:1.0;" width="6" x="556.5" y="328.5391"/><text fill="#000000" font-family="sans-serif" font-size="14" lengthAdjust="spacing" textLength="237" x="568.5" y="334.8857">GetConfigurations() : List&lt;Save&gt;</text><ellipse cx="559.5" cy="347.8359" fill="#84BE84" rx="3" ry="3" style="stroke:#038048;stroke-width:1.0;"/><text fill="#000000" font-family="sans-serif" font-size="14" lengthAdjust="spacing" textLength="230" x="568.5" y="351.1826">GetConfiguration() : List&lt;Save&gt;</text><ellipse cx="559.5" cy="364.1328" fill="#84BE84" rx="3" ry="3" style="stroke:#038048;stroke-width:1.0;"/><text fill="#000000" font-family="sans-serif" font-size="14" lengthAdjust="spacing" textLength="224" x="568.5" y="367.4795">GetConfiguration(id: int) : Save</text><ellipse cx="559.5" cy="380.4297" fill="#84BE84" rx="3" ry="3" style="stroke:#038048;stroke-width:1.0;"/><text fill="#000000" font-family="sans-serif" font-size="14" lengthAdjust="spacing" textLength="273" x="568.5" y="383.7764">GetConfiguration(name: string) : Save</text><ellipse cx="559.5" cy="396.7266" fill="#84BE84" rx="3" ry="3" style="stroke:#038048;stroke-width:1.0;"/><text fill="#000000" font-family="sans-serif" font-size="14" lengthAdjust="spacing" textLength="720" x="568.5" y="400.0732">AddConfiguration(name: string, inputFolder: string, outputFolder: string, saveType: SaveType) : void</text><ellipse cx="559.5" cy="413.0234" fill="#84BE84" rx="3" ry="3" style="stroke:#038048;stroke-width:1.0;"/><text fill="#000000" font-family="sans-serif" font-size="14" lengthAdjust="spacing" textLength="254" x="568.5" y="416.3701">RemoveConfiguration(id: int) : bool</text><ellipse cx="559.5" cy="429.3203" fill="#84BE84" rx="3" ry="3" style="stroke:#038048;stroke-width:1.0;"/><text fill="#000000" font-family="sans-serif" font-size="14" lengthAdjust="spacing" textLength="822" x="568.5" y="432.667">UpdateConfiguration(id: int, name: string?, inputFolder: string?, outputFolder: string?, saveType: SaveType?) : void</text></g><!--class SaveType--><g id="elem_SaveType"><rect codeLine="47" fill="#F1F1F1" height="80.5938" id="SaveType" rx="2.5" ry="2.5" style="stroke:#181818;stroke-width:0.5;" width="112" x="761.5" y="968"/><ellipse cx="781" cy="984" fill="#EB937F" rx="11" ry="11" style="stroke:#181818;stroke-width:1.0;"/><path d="M779.7969,984.875 L781.25,984.875 L781.25,984.9844 C781.25,985.3906 781.2813,985.5469 781.3594,985.7031 C781.5156,985.9531 781.7969,986.1094 782.0938,986.1094 C782.3438,986.1094 782.6094,985.9688 782.7656,985.75 C782.8906,985.5938 782.9219,985.4375 782.9219,984.9844 L782.9219,983.0625 C782.9219,982.9063 782.9219,982.8594 782.9063,982.7031 C782.8438,982.2344 782.5313,981.9219 782.0781,981.9219 C781.8281,981.9219 781.5625,982.0625 781.3906,982.2813 C781.2813,982.4531 781.25,982.6094 781.25,983.0625 L781.25,983.1875 L779.7969,983.1875 L779.7969,980.7813 L783.7813,980.7813 L783.7813,981.6406 C783.7813,982.0469 783.8125,982.2188 783.8906,982.375 C784.0625,982.625 784.3438,982.7813 784.625,982.7813 C784.8906,982.7813 785.1563,982.6406 785.3281,982.4219 C785.4375,982.25 785.4688,982.1094 785.4688,981.6406 L785.4688,979.0938 L777.8438,979.0938 C777.4063,979.0938 777.2813,979.1094 777.125,979.2031 C776.875,979.3594 776.7188,979.6563 776.7188,979.9375 C776.7188,980.2188 776.8594,980.4688 777.0781,980.6406 C777.2344,980.75 777.4219,980.7813 777.8438,980.7813 L778.0938,980.7813 L778.0938,987.2969 L777.8438,987.2969 C777.4375,987.2969 777.2813,987.3125 777.125,987.4219 C776.875,987.5938 776.7188,987.8594 776.7188,988.1563 C776.7188,988.4219 776.8594,988.6719 777.0781,988.8281 C777.2188,988.9531 777.4531,989 777.8438,989 L785.8438,989 L785.8438,986.4219 C785.8438,985.9844 785.8125,985.8438 785.7344,985.6875 C785.5625,985.4375 785.2813,985.2813 785,985.2813 C784.7344,985.2813 784.4688,985.3906 784.2969,985.6406 C784.1875,985.7969 784.1563,985.9375 784.1563,986.4219 L784.1563,987.2969 L779.7969,987.2969 L779.7969,984.875 Z " fill="#000000"/><text fill="#000000" font-family="sans-serif" font-size="14" lengthAdjust="spacing" textLength="70" x="796" y="988.8467">SaveType</text><line style="stroke:#181818;stroke-width:0.5;" x1="762.5" x2="872.5" y1="1000" y2="1000"/><text fill="#000000" font-family="sans-serif" font-size="14" lengthAdjust="spacing" textLength="77" x="767.5" y="1016.9951">COMPLETE</text><text fill="#000000" font-family="sans-serif" font-size="14" lengthAdjust="spacing" textLength="100" x="767.5" y="1033.292">DIFFERENTIAL</text><line style="stroke:#181818;stroke-width:0.5;" x1="762.5" x2="872.5" y1="1040.5938" y2="1040.5938"/></g><!--class SaveState--><g id="elem_SaveState"><rect codeLine="52" fill="#F1F1F1" height="96.8906" id="SaveState" rx="2.5" ry="2.5" style="stroke:#181818;stroke-width:0.5;" width="116" x="908.5" y="960"/><ellipse cx="928" cy="976" fill="#EB937F" rx="11" ry="11" style="stroke:#181818;stroke-width:1.0;"/><path d="M926.7969,976.875 L928.25,976.875 L928.25,976.9844 C928.25,977.3906 928.2813,977.5469 928.3594,977.7031 C928.5156,977.9531 928.7969,978.1094 929.0938,978.1094 C929.3438,978.1094 929.6094,977.9688 929.7656,977.75 C929.8906,977.5938 929.9219,977.4375 929.9219,976.9844 L929.9219,975.0625 C929.9219,974.9063 929.9219,974.8594 929.9063,974.7031 C929.8438,974.2344 929.5313,973.9219 929.0781,973.9219 C928.8281,973.9219 928.5625,974.0625 928.3906,974.2813 C928.2813,974.4531 928.25,974.6094 928.25,975.0625 L928.25,975.1875 L926.7969,975.1875 L926.7969,972.7813 L930.7813,972.7813 L930.7813,973.6406 C930.7813,974.0469 930.8125,974.2188 930.8906,974.375 C931.0625,974.625 931.3438,974.7813 931.625,974.7813 C931.8906,974.7813 932.1563,974.6406 932.3281,974.4219 C932.4375,974.25 932.4688,974.1094 932.4688,973.6406 L932.4688,971.0938 L924.8438,971.0938 C924.4063,971.0938 924.2813,971.1094 924.125,971.2031 C923.875,971.3594 923.7188,971.6563 923.7188,971.9375 C923.7188,972.2188 923.8594,972.4688 924.0781,972.6406 C924.2344,972.75 924.4219,972.7813 924.8438,972.7813 L925.0938,972.7813 L925.0938,979.2969 L924.8438,979.2969 C924.4375,979.2969 924.2813,979.3125 924.125,979.4219 C923.875,979.5938 923.7188,979.8594 923.7188,980.1563 C923.7188,980.4219 923.8594,980.6719 924.0781,980.8281 C924.2188,980.9531 924.4531,981 924.8438,981 L932.8438,981 L932.8438,978.4219 C932.8438,977.9844 932.8125,977.8438 932.7344,977.6875 C932.5625,977.4375 932.2813,977.2813 932,977.2813 C931.7344,977.2813 931.4688,977.3906 931.2969,977.6406 C931.1875,977.7969 931.1563,977.9375 931.1563,978.4219 L931.1563,979.2969 L926.7969,979.2969 L926.7969,976.875 Z " fill="#000000"/><text fill="#000000" font-family="sans-serif" font-size="14" lengthAdjust="spacing" textLength="74" x="943" y="980.8467">SaveState</text><line style="stroke:#181818;stroke-width:0.5;" x1="909.5" x2="1023.5" y1="992" y2="992"/><text fill="#000000" font-family="sans-serif" font-size="14" lengthAdjust="spacing" textLength="104" x="914.5" y="1008.9951">NOT_STARTED</text><text fill="#000000" font-family="sans-serif" font-size="14" lengthAdjust="spacing" textLength="99" x="914.5" y="1025.292">IN_PROGRESS</text><text fill="#000000" font-family="sans-serif" font-size="14" lengthAdjust="spacing" textLength="65" x="914.5" y="1041.5889">FINISHED</text><line style="stroke:#181818;stroke-width:0.5;" x1="909.5" x2="1023.5" y1="1048.8906" y2="1048.8906"/></g><!--class SharedLocalizer--><g id="elem_SharedLocalizer"><rect codeLine="75" fill="#F1F1F1" height="96.8906" id="SharedLocalizer" rx="2.5" ry="2.5" style="stroke:#181818;stroke-width:0.5;" width="306" x="938.5" y="39.5"/><ellipse cx="1030.25" cy="55.5" fill="#ADD1B2" rx="11" ry="11" style="stroke:#181818;stroke-width:1.0;"/><path d="M1032.5938,51.1719 C1031.6563,50.7344 1031.0625,50.5938 1030.1875,50.5938 C1027.5625,50.5938 1025.5625,52.6719 1025.5625,55.3906 L1025.5625,56.5156 C1025.5625,59.0938 1027.6719,60.9844 1030.5625,60.9844 C1031.7813,60.9844 1032.9375,60.6875 1033.6875,60.1406 C1034.2656,59.7344 1034.5938,59.2813 1034.5938,58.8906 C1034.5938,58.4375 1034.2031,58.0469 1033.7344,58.0469 C1033.5156,58.0469 1033.3125,58.125 1033.125,58.3125 C1032.6719,58.7969 1032.6719,58.7969 1032.4844,58.8906 C1032.0625,59.1563 1031.375,59.2813 1030.6094,59.2813 C1028.5625,59.2813 1027.2656,58.1875 1027.2656,56.4844 L1027.2656,55.3906 C1027.2656,53.6094 1028.5156,52.2969 1030.25,52.2969 C1030.8281,52.2969 1031.4375,52.4531 1031.9063,52.7031 C1032.3906,52.9844 1032.5625,53.2031 1032.6563,53.6094 C1032.7188,54.0156 1032.75,54.1406 1032.8906,54.2656 C1033.0313,54.4063 1033.2656,54.5156 1033.4844,54.5156 C1033.75,54.5156 1034.0156,54.375 1034.1875,54.1563 C1034.2969,54 1034.3281,53.8125 1034.3281,53.3906 L1034.3281,51.9688 C1034.3281,51.5313 1034.3125,51.4063 1034.2188,51.25 C1034.0625,50.9844 1033.7813,50.8438 1033.4844,50.8438 C1033.1875,50.8438 1032.9844,50.9375 1032.7656,51.25 L1032.5938,51.1719 Z " fill="#000000"/><text fill="#000000" font-family="sans-serif" font-size="14" lengthAdjust="spacing" textLength="114" x="1050.75" y="60.3467">SharedLocalizer</text><line style="stroke:#181818;stroke-width:0.5;" x1="939.5" x2="1243.5" y1="71.5" y2="71.5"/><rect fill="none" height="6" style="stroke:#C82930;stroke-width:1.0;" width="6" x="946.5" y="82.1484"/><text fill="#000000" font-family="sans-serif" font-size="14" lengthAdjust="spacing" text-decoration="underline" textLength="266" x="958.5" y="88.4951">_resourceManager: ResourceManager</text><line style="stroke:#181818;stroke-width:0.5;" x1="939.5" x2="1243.5" y1="95.7969" y2="95.7969"/><ellipse cx="949.5" cy="109.4453" fill="#84BE84" rx="3" ry="3" style="stroke:#038048;stroke-width:1.0;"/><text fill="#000000" font-family="sans-serif" font-size="14" lengthAdjust="spacing" text-decoration="underline" textLength="231" x="958.5" y="112.792">SetCulture(culture: string) : void</text><ellipse cx="949.5" cy="125.7422" fill="#84BE84" rx="3" ry="3" style="stroke:#038048;stroke-width:1.0;"/><text fill="#000000" font-family="sans-serif" font-size="14" lengthAdjust="spacing" text-decoration="underline" textLength="280" x="958.5" y="129.0889">GetLocalizedString(key: string) : string</text></g><!--reverse link Logger to LoggerJournalier--><g id="link_Logger_LoggerJournalier"><path codeLine="6" d="M387.9486,392.2833 C375.6366,432.1173 362.07,476.008 349.752,515.862 " fill="none" id="Logger-backto-LoggerJournalier" style="stroke:#181818;stroke-width:1.0;"/><polygon fill="none" points="393.264,375.086,382.2162,390.5115,393.681,394.0551,393.264,375.086" style="stroke:#181818;stroke-width:1.0;"/></g><!--reverse link Logger to LoggerEtat--><g id="link_Logger_LoggerEtat"><path codeLine="12" d="M459.2822,387.3637 C482.5732,408.6417 499.922,421.968 530.5,440 C594.13,477.523 617.237,471.771 685.5,500 C691.354,502.421 697.345,504.935 703.384,507.497 " fill="none" id="Logger-backto-LoggerEtat" style="stroke:#181818;stroke-width:1.0;"/><polygon fill="none" points="445.993,375.223,455.2354,391.7934,463.3291,382.9339,445.993,375.223" style="stroke:#181818;stroke-width:1.0;"/></g><!--reverse link LoggerEtat to Save--><g id="link_LoggerEtat_Save"><path codeLine="13" d="M835.0429,624.5982 C841.3799,642.6592 844.68,652.063 851.933,672.735 " fill="none" id="LoggerEtat-backto-Save" style="stroke:#181818;stroke-width:1.0;"/><polygon fill="none" points="831.07,613.275,829.2821,620.2609,835.0429,624.5982,836.8309,617.6123,831.07,613.275" style="stroke:#181818;stroke-width:1.0;"/></g><!--reverse link EasySave to SaveConfiguration--><g id="link_EasySave_SaveConfiguration"><path codeLine="21" d="M790.586,176.8874 C812.749,195.9684 827.633,208.781 850.868,228.785 " fill="none" id="EasySave-backto-SaveConfiguration" style="stroke:#181818;stroke-width:1.0;"/><polygon fill="#181818" points="781.492,169.058,783.4292,176.004,790.586,176.8874,788.6488,169.9414,781.492,169.058" style="stroke:#181818;stroke-width:1.0;"/></g><!--link EasySave to Logger--><g id="link_EasySave_Logger"><path codeLine="22" d="M595.835,169.058 C547.475,210.84 494.9812,256.1925 456.0402,289.8355 " fill="none" id="EasySave-to-Logger" style="stroke:#181818;stroke-width:1.0;"/><polygon fill="#181818" points="451.5,293.758,460.9254,290.901,455.2835,290.4892,455.6953,284.8474,451.5,293.758" style="stroke:#181818;stroke-width:1.0;"/></g><!--reverse link SaveConfiguration to Save--><g id="link_SaveConfiguration_Save"><path codeLine="33" d="M960.7185,452.0246 C954.7225,504.2216 947.537,556.252 936.5,613 C932.718,632.444 928.015,652.947 923.087,672.764 " fill="none" id="SaveConfiguration-backto-Save" style="stroke:#181818;stroke-width:1.0;"/><polygon fill="none" points="962.088,440.103,957.4294,445.6073,960.7185,452.0246,965.3771,446.5203,962.088,440.103" style="stroke:#181818;stroke-width:1.0;"/></g><!--link Save to SaveType--><g id="link_Save_SaveType"><path codeLine="58" d="M853.633,900.078 C845.454,924.393 839.2449,942.8531 832.7789,962.0763 " fill="none" id="Save-to-SaveType" style="stroke:#181818;stroke-width:1.0;"/><polygon fill="#181818" points="830.866,967.7632,837.5266,960.5081,832.4601,963.0241,829.944,957.9576,830.866,967.7632" style="stroke:#181818;stroke-width:1.0;"/></g><!--link Save to SaveState--><g id="link_Save_SaveState"><path codeLine="59" d="M929.879,900.078 C937.051,921.116 942.244,936.3489 948.28,954.0545 " fill="none" id="Save-to-SaveState" style="stroke:#181818;stroke-width:1.0;"/><polygon fill="#181818" points="950.216,959.7336,951.098,949.9243,948.6026,955.001,943.5259,952.5057,950.216,959.7336" style="stroke:#181818;stroke-width:1.0;"/></g><!--SRC=[fLNVRvim47uEVuMblT1Hf6sFqTQeIaZ7b2PLODfZvCB1h3auiasbjEl_lhC3n10wJLeVKllkVFVTTp-WZqfBcccISQeKMOco14bUF89_x_2sP1ocnFmcMWBTMqN0HUdlGIbQeX8TiAgy8bFo95ZklNfUu-Npxp1iF7uJjQmePo0zDz1Pt8GCXdB_gfFxYZx1hgBxBkOrKMYOENTDPGdQqRDdrB9AeqhIIXKWTveP3mKNLFyTTAIfziv78b2J88PU2bRJW3S0rPIicDAVZU6DcvCnRBEvpNEZjnbDhSyEYTN_a4mZuLI3IeKXttUHHbGTpHlolW4q5rN1obfIpKHrLeVXJGEoGTnfJdZ3dHe-dexuiuZQfrqzQ9M1J6Zz12MLEVWSauOuRx97nczwAOLpSJWkc8HC2tdqJtN3-x1qZgXFILGK-BPsOyx5_i11lqtZo9i5Gvc4IZFW_CsNBmgvPzbh4Ai4-mtvqFZ4Bx0I7y-8pVMJY_PH26uATC7Xi7Kk3LwyIHiqtB4AZrK6OzMOX8RWOTMSbkly17UWuyQJxPynPsZJ4obhwReBXYR_OC5oEtHjq34JTuuTEvoCj-skqUcXral1St0wHzHwH6fAcnuF3Odcr9Lu4cnXBmPakA1j8IV1zqDEzRZLDN61pKQHpSQXpSQmpTm1XwhUTnexhFFD_SCgIYCyBkBbCjf6wpI-NVMCxRwmrkjDkalIssqQBV0MhtSFsytTDaeIl2tZTPnyHKNJftPBjB7w4klGwTX1asAXQfmBQVaWNyW7P2m-iOEdjKEFKLpIWzBD23qeJYxeGM4gDELc5-9ADCka3NIM9-soD-4VhOX3eLEn4AtOfZHriZi5QwiwwvVrV_lDCoGt_Fsa4lALoF2hzcm_TmwL4axxy9vM-4L5dzk-m9df1EUevhgMu6Ud_nVhihS0seXvOetyNt1q7pIKl_u1]--></g></svg>