<?xml version="1.0" encoding="us-ascii" standalone="no"?><svg xmlns="http://www.w3.org/2000/svg" xmlns:xlink="http://www.w3.org/1999/xlink" contentStyleType="text/css" height="365px" preserveAspectRatio="none" style="width:846px;height:365px;background:#FFFFFF;" version="1.1" viewBox="0 0 846 365" width="846px" zoomAndPan="magnify"><defs/><g><!--class EasySave--><g id="elem_EasySave"><rect codeLine="1" fill="#F1F1F1" height="178.375" id="EasySave" rx="2.5" ry="2.5" style="stroke:#181818;stroke-width:0.5;" width="500" x="7" y="72.553"/><ellipse cx="219.75" cy="88.553" fill="#ADD1B2" rx="11" ry="11" style="stroke:#181818;stroke-width:1.0;"/><path d="M222.0938,84.2249 C221.1563,83.7874 220.5625,83.6468 219.6875,83.6468 C217.0625,83.6468 215.0625,85.7249 215.0625,88.4436 L215.0625,89.5686 C215.0625,92.1468 217.1719,94.0374 220.0625,94.0374 C221.2813,94.0374 222.4375,93.7405 223.1875,93.1936 C223.7656,92.7874 224.0938,92.3343 224.0938,91.9436 C224.0938,91.4905 223.7031,91.0999 223.2344,91.0999 C223.0156,91.0999 222.8125,91.178 222.625,91.3655 C222.1719,91.8499 222.1719,91.8499 221.9844,91.9436 C221.5625,92.2093 220.875,92.3343 220.1094,92.3343 C218.0625,92.3343 216.7656,91.2405 216.7656,89.5374 L216.7656,88.4436 C216.7656,86.6624 218.0156,85.3499 219.75,85.3499 C220.3281,85.3499 220.9375,85.5061 221.4063,85.7561 C221.8906,86.0374 222.0625,86.2561 222.1563,86.6624 C222.2188,87.0686 222.25,87.1936 222.3906,87.3186 C222.5313,87.4593 222.7656,87.5686 222.9844,87.5686 C223.25,87.5686 223.5156,87.428 223.6875,87.2093 C223.7969,87.053 223.8281,86.8655 223.8281,86.4436 L223.8281,85.0218 C223.8281,84.5843 223.8125,84.4593 223.7188,84.303 C223.5625,84.0374 223.2813,83.8968 222.9844,83.8968 C222.6875,83.8968 222.4844,83.9905 222.2656,84.303 L222.0938,84.2249 Z " fill="#000000"/><text fill="#000000" font-family="sans-serif" font-size="14" lengthAdjust="spacing" textLength="66" x="240.25" y="93.3997">EasySave</text><line style="stroke:#181818;stroke-width:0.5;" x1="8" x2="506" y1="104.553" y2="104.553"/><line style="stroke:#181818;stroke-width:0.5;" x1="8" x2="506" y1="112.553" y2="112.553"/><ellipse cx="18" cy="126.2014" fill="#84BE84" rx="3" ry="3" style="stroke:#038048;stroke-width:1.0;"/><text fill="#000000" font-family="sans-serif" font-size="14" lengthAdjust="spacing" textLength="76" x="27" y="129.5481">EasySave()</text><ellipse cx="18" cy="142.4983" fill="#84BE84" rx="3" ry="3" style="stroke:#038048;stroke-width:1.0;"/><text fill="#000000" font-family="sans-serif" font-size="14" lengthAdjust="spacing" textLength="301" x="27" y="145.845">LancerSauvegarde(listeId:List&lt;int&gt;) : void</text><rect fill="#F24D5C" height="6" style="stroke:#C82930;stroke-width:1.0;" width="6" x="15" y="155.7952"/><text fill="#000000" font-family="sans-serif" font-size="14" lengthAdjust="spacing" textLength="435" x="27" y="162.1419">CopyFile(save:Save, sourceFile:string, targetDir:string) : void</text><rect fill="#F24D5C" height="6" style="stroke:#C82930;stroke-width:1.0;" width="6" x="15" y="172.0921"/><text fill="#000000" font-family="sans-serif" font-size="14" lengthAdjust="spacing" textLength="474" x="27" y="178.4387">CopyDirectory(save:Save, sourceDir:string, targetDir:string) : void</text><ellipse cx="18" cy="191.3889" fill="#84BE84" rx="3" ry="3" style="stroke:#038048;stroke-width:1.0;"/><text fill="#000000" font-family="sans-serif" font-size="14" lengthAdjust="spacing" textLength="347" x="27" y="194.7356">EffectuerSauvegardeComplete(save:Save) : void</text><ellipse cx="18" cy="207.6858" fill="#84BE84" rx="3" ry="3" style="stroke:#038048;stroke-width:1.0;"/><text fill="#000000" font-family="sans-serif" font-size="14" lengthAdjust="spacing" textLength="372" x="27" y="211.0325">EffectuerSauvegardeDifferentielle(save:Save) : void</text><rect fill="#F24D5C" height="6" style="stroke:#C82930;stroke-width:1.0;" width="6" x="15" y="220.9827"/><text fill="#000000" font-family="sans-serif" font-size="14" lengthAdjust="spacing" text-decoration="underline" textLength="331" x="27" y="227.3294">IsSameContent(file1:string, file2:string) : bool</text><rect fill="#F24D5C" height="6" style="stroke:#C82930;stroke-width:1.0;" width="6" x="15" y="237.2796"/><text fill="#000000" font-family="sans-serif" font-size="14" lengthAdjust="spacing" textLength="375" x="27" y="243.6262">UpdateSaveState(save:Save, state:SaveState) : void</text></g><!--class SaveConfiguration--><g id="elem_SaveConfiguration"><rect fill="#F1F1F1" height="48" id="SaveConfiguration" rx="2.5" ry="2.5" style="stroke:#181818;stroke-width:0.5;" width="164" x="175" y="310.553"/><ellipse cx="190" cy="326.553" fill="#ADD1B2" rx="11" ry="11" style="stroke:#181818;stroke-width:1.0;"/><path d="M192.3438,322.2249 C191.4063,321.7874 190.8125,321.6468 189.9375,321.6468 C187.3125,321.6468 185.3125,323.7249 185.3125,326.4436 L185.3125,327.5686 C185.3125,330.1468 187.4219,332.0374 190.3125,332.0374 C191.5313,332.0374 192.6875,331.7405 193.4375,331.1936 C194.0156,330.7874 194.3438,330.3343 194.3438,329.9436 C194.3438,329.4905 193.9531,329.0999 193.4844,329.0999 C193.2656,329.0999 193.0625,329.178 192.875,329.3655 C192.4219,329.8499 192.4219,329.8499 192.2344,329.9436 C191.8125,330.2093 191.125,330.3343 190.3594,330.3343 C188.3125,330.3343 187.0156,329.2405 187.0156,327.5374 L187.0156,326.4436 C187.0156,324.6624 188.2656,323.3499 190,323.3499 C190.5781,323.3499 191.1875,323.5061 191.6563,323.7561 C192.1406,324.0374 192.3125,324.2561 192.4063,324.6624 C192.4688,325.0686 192.5,325.1936 192.6406,325.3186 C192.7813,325.4593 193.0156,325.5686 193.2344,325.5686 C193.5,325.5686 193.7656,325.428 193.9375,325.2093 C194.0469,325.053 194.0781,324.8655 194.0781,324.4436 L194.0781,323.0218 C194.0781,322.5843 194.0625,322.4593 193.9688,322.303 C193.8125,322.0374 193.5313,321.8968 193.2344,321.8968 C192.9375,321.8968 192.7344,321.9905 192.5156,322.303 L192.3438,322.2249 Z " fill="#000000"/><text fill="#000000" font-family="sans-serif" font-size="14" lengthAdjust="spacing" textLength="132" x="204" y="331.3997">SaveConfiguration</text><line style="stroke:#181818;stroke-width:0.5;" x1="176" x2="338" y1="342.553" y2="342.553"/><line style="stroke:#181818;stroke-width:0.5;" x1="176" x2="338" y1="350.553" y2="350.553"/></g><!--class LoggerJournalier--><g id="elem_LoggerJournalier"><rect fill="#F1F1F1" height="48" id="LoggerJournalier" rx="2.5" ry="2.5" style="stroke:#181818;stroke-width:0.5;" width="149" x="690.5" y="137.553"/><ellipse cx="705.5" cy="153.553" fill="#ADD1B2" rx="11" ry="11" style="stroke:#181818;stroke-width:1.0;"/><path d="M707.8438,149.2249 C706.9063,148.7874 706.3125,148.6468 705.4375,148.6468 C702.8125,148.6468 700.8125,150.7249 700.8125,153.4436 L700.8125,154.5686 C700.8125,157.1468 702.9219,159.0374 705.8125,159.0374 C707.0313,159.0374 708.1875,158.7405 708.9375,158.1936 C709.5156,157.7874 709.8438,157.3343 709.8438,156.9436 C709.8438,156.4905 709.4531,156.0999 708.9844,156.0999 C708.7656,156.0999 708.5625,156.178 708.375,156.3655 C707.9219,156.8499 707.9219,156.8499 707.7344,156.9436 C707.3125,157.2093 706.625,157.3343 705.8594,157.3343 C703.8125,157.3343 702.5156,156.2405 702.5156,154.5374 L702.5156,153.4436 C702.5156,151.6624 703.7656,150.3499 705.5,150.3499 C706.0781,150.3499 706.6875,150.5061 707.1563,150.7561 C707.6406,151.0374 707.8125,151.2561 707.9063,151.6624 C707.9688,152.0686 708,152.1936 708.1406,152.3186 C708.2813,152.4593 708.5156,152.5686 708.7344,152.5686 C709,152.5686 709.2656,152.428 709.4375,152.2093 C709.5469,152.053 709.5781,151.8655 709.5781,151.4436 L709.5781,150.0218 C709.5781,149.5843 709.5625,149.4593 709.4688,149.303 C709.3125,149.0374 709.0313,148.8968 708.7344,148.8968 C708.4375,148.8968 708.2344,148.9905 708.0156,149.303 L707.8438,149.2249 Z " fill="#000000"/><text fill="#000000" font-family="sans-serif" font-size="14" lengthAdjust="spacing" textLength="117" x="719.5" y="158.3997">LoggerJournalier</text><line style="stroke:#181818;stroke-width:0.5;" x1="691.5" x2="838.5" y1="169.553" y2="169.553"/><line style="stroke:#181818;stroke-width:0.5;" x1="691.5" x2="838.5" y1="177.553" y2="177.553"/></g><!--class LoggerEtat--><g id="elem_LoggerEtat"><rect fill="#F1F1F1" height="48" id="LoggerEtat" rx="2.5" ry="2.5" style="stroke:#181818;stroke-width:0.5;" width="113" x="542.5" y="137.553"/><ellipse cx="557.5" cy="153.553" fill="#ADD1B2" rx="11" ry="11" style="stroke:#181818;stroke-width:1.0;"/><path d="M559.8438,149.2249 C558.9063,148.7874 558.3125,148.6468 557.4375,148.6468 C554.8125,148.6468 552.8125,150.7249 552.8125,153.4436 L552.8125,154.5686 C552.8125,157.1468 554.9219,159.0374 557.8125,159.0374 C559.0313,159.0374 560.1875,158.7405 560.9375,158.1936 C561.5156,157.7874 561.8438,157.3343 561.8438,156.9436 C561.8438,156.4905 561.4531,156.0999 560.9844,156.0999 C560.7656,156.0999 560.5625,156.178 560.375,156.3655 C559.9219,156.8499 559.9219,156.8499 559.7344,156.9436 C559.3125,157.2093 558.625,157.3343 557.8594,157.3343 C555.8125,157.3343 554.5156,156.2405 554.5156,154.5374 L554.5156,153.4436 C554.5156,151.6624 555.7656,150.3499 557.5,150.3499 C558.0781,150.3499 558.6875,150.5061 559.1563,150.7561 C559.6406,151.0374 559.8125,151.2561 559.9063,151.6624 C559.9688,152.0686 560,152.1936 560.1406,152.3186 C560.2813,152.4593 560.5156,152.5686 560.7344,152.5686 C561,152.5686 561.2656,152.428 561.4375,152.2093 C561.5469,152.053 561.5781,151.8655 561.5781,151.4436 L561.5781,150.0218 C561.5781,149.5843 561.5625,149.4593 561.4688,149.303 C561.3125,149.0374 561.0313,148.8968 560.7344,148.8968 C560.4375,148.8968 560.2344,148.9905 560.0156,149.303 L559.8438,149.2249 Z " fill="#000000"/><text fill="#000000" font-family="sans-serif" font-size="14" lengthAdjust="spacing" textLength="81" x="571.5" y="158.3997">LoggerEtat</text><line style="stroke:#181818;stroke-width:0.5;" x1="543.5" x2="654.5" y1="169.553" y2="169.553"/><line style="stroke:#181818;stroke-width:0.5;" x1="543.5" x2="654.5" y1="177.553" y2="177.553"/></g><!--link EasySave to SaveConfiguration--><g id="link_EasySave_SaveConfiguration"><path codeLine="11" d="M257,250.558 C257,272.6528 257,288.5248 257,304.2645 " fill="none" id="EasySave-to-SaveConfiguration" style="stroke:#181818;stroke-width:1.0;"/><polygon fill="#181818" points="257,310.2645,261,301.2645,257,305.2645,253,301.2645,257,310.2645" style="stroke:#181818;stroke-width:1.0;"/><text fill="#000000" font-family="sans-serif" font-size="13" lengthAdjust="spacing" textLength="124" x="117.8875" y="299.5991">_saveConfiguration</text></g><!--link EasySave to LoggerJournalier--><g id="link_EasySave_LoggerJournalier"><path codeLine="12" d="M407.248,67.1041 C485.131,28.9801 572.191,6 655.5,42.553 C699.592,61.899 730.6031,103.6225 748.3501,132.4315 " fill="none" id="EasySave-LoggerJournalier" style="stroke:#181818;stroke-width:1.0;"/><polygon fill="none" points="396.47,72.38,403.6176,73.3347,407.248,67.1041,400.1004,66.1494,396.47,72.38" style="stroke:#181818;stroke-width:1.0;"/><polygon fill="#181818" points="751.497,137.54,750.1822,127.7793,748.8745,133.2829,743.3709,131.9752,751.497,137.54" style="stroke:#181818;stroke-width:1.0;"/><text fill="#000000" font-family="sans-serif" font-size="13" lengthAdjust="spacing" textLength="107" x="627.4553" y="126.487">_loggerJournalier</text></g><!--link EasySave to LoggerEtat--><g id="link_EasySave_LoggerEtat"><path codeLine="13" d="M519.154,161.553 C530.874,161.553 524.594,161.553 536.314,161.553 " fill="none" id="EasySave-LoggerEtat" style="stroke:#181818;stroke-width:1.0;"/><polygon fill="none" points="507.154,161.553,513.154,165.553,519.154,161.553,513.154,157.553,507.154,161.553" style="stroke:#181818;stroke-width:1.0;"/><polygon fill="#181818" points="542.314,161.553,533.314,157.553,537.314,161.553,533.314,165.553,542.314,161.553" style="stroke:#181818;stroke-width:1.0;"/><text fill="#000000" font-family="sans-serif" font-size="13" lengthAdjust="spacing" textLength="73" x="461.9643" y="147.2712">_loggerEtat</text></g><!--SRC=[XP4nQyCm48Nt_8h3aqFZeHrDoPAaaEBDP2wgVHO2HJAdiy64_FUSWkkuQKgqI7hIz-wTL5aL0knK64hL8vmM8EDb4jBbA1JALKYbwdhKYcfChGcC-pelP7utZjTBoA7tfhu26MnyEtmOYsaGcpnwhI3uZYgCQXwOZDChO4KQUMjeL1wuo25Mx6duQtNZdZX9HqqZBjsyXuq_jXPv5l4vipMY4JesQEr_P0Qdm8fDTOPzADLHAZaM9csazTSfSTozpT9-Usz7_j3MYZ4QbsBq-n6Za4z7K-7pOlh5B5j3yXKPATmOtP64yIw1ybwwCVxAMAyrqgSyhbFM82LGt2cFYPr4-RaRrnS0]--></g></svg>