<?xml version="1.0" encoding="us-ascii" standalone="no"?><svg xmlns="http://www.w3.org/2000/svg" xmlns:xlink="http://www.w3.org/1999/xlink" contentStyleType="text/css" height="449px" preserveAspectRatio="none" style="width:949px;height:449px;background:#FFFFFF;" version="1.1" viewBox="0 0 949 449" width="949px" zoomAndPan="magnify"><defs/><g><!--class GeneralSettingsView--><g id="elem_GeneralSettingsView"><rect codeLine="1" fill="#F1F1F1" height="219.2344" id="GeneralSettingsView" rx="2.5" ry="2.5" style="stroke:#181818;stroke-width:0.5;" width="586" x="33.5" y="115"/><ellipse cx="246.75" cy="135.1328" fill="#ADD1B2" rx="11" ry="11" style="stroke:#181818;stroke-width:1.0;"/><path d="M249.0938,130.8047 C248.1563,130.3672 247.5625,130.2266 246.6875,130.2266 C244.0625,130.2266 242.0625,132.3047 242.0625,135.0234 L242.0625,136.1484 C242.0625,138.7266 244.1719,140.6172 247.0625,140.6172 C248.2813,140.6172 249.4375,140.3203 250.1875,139.7734 C250.7656,139.3672 251.0938,138.9141 251.0938,138.5234 C251.0938,138.0703 250.7031,137.6797 250.2344,137.6797 C250.0156,137.6797 249.8125,137.7578 249.625,137.9453 C249.1719,138.4297 249.1719,138.4297 248.9844,138.5234 C248.5625,138.7891 247.875,138.9141 247.1094,138.9141 C245.0625,138.9141 243.7656,137.8203 243.7656,136.1172 L243.7656,135.0234 C243.7656,133.2422 245.0156,131.9297 246.75,131.9297 C247.3281,131.9297 247.9375,132.0859 248.4063,132.3359 C248.8906,132.6172 249.0625,132.8359 249.1563,133.2422 C249.2188,133.6484 249.25,133.7734 249.3906,133.8984 C249.5313,134.0391 249.7656,134.1484 249.9844,134.1484 C250.25,134.1484 250.5156,134.0078 250.6875,133.7891 C250.7969,133.6328 250.8281,133.4453 250.8281,133.0234 L250.8281,131.6016 C250.8281,131.1641 250.8125,131.0391 250.7188,130.8828 C250.5625,130.6172 250.2813,130.4766 249.9844,130.4766 C249.6875,130.4766 249.4844,130.5703 249.2656,130.8828 L249.0938,130.8047 Z " fill="#000000"/><text fill="#000000" font-family="sans-serif" font-size="12" font-style="italic" lengthAdjust="spacing" textLength="52" x="316.75" y="131.1387">&#171;partial&#187;</text><text fill="#000000" font-family="sans-serif" font-size="14" lengthAdjust="spacing" textLength="151" x="267.25" y="146.9639">GeneralSettingsView</text><line style="stroke:#181818;stroke-width:0.5;" x1="34.5" x2="618.5" y1="155.2656" y2="155.2656"/><ellipse cx="44.5" cy="168.9141" fill="none" rx="3" ry="3" style="stroke:#038048;stroke-width:1.0;"/><text fill="#000000" font-family="sans-serif" font-size="14" lengthAdjust="spacing" textLength="161" x="53.5" y="172.2607">EncryptionKey : string</text><ellipse cx="44.5" cy="185.2109" fill="none" rx="3" ry="3" style="stroke:#038048;stroke-width:1.0;"/><text fill="#000000" font-family="sans-serif" font-size="14" lengthAdjust="spacing" textLength="116" x="53.5" y="188.5576">MaxFileSize : int</text><line style="stroke:#181818;stroke-width:0.5;" x1="34.5" x2="618.5" y1="195.8594" y2="195.8594"/><ellipse cx="44.5" cy="209.5078" fill="#84BE84" rx="3" ry="3" style="stroke:#038048;stroke-width:1.0;"/><text fill="#000000" font-family="sans-serif" font-size="14" lengthAdjust="spacing" textLength="436" x="53.5" y="212.8545">GeneralSettingsView(viewModel:ParametersPageViewModel)</text><rect fill="#F24D5C" height="6" style="stroke:#C82930;stroke-width:1.0;" width="6" x="41.5" y="222.8047"/><text fill="#000000" font-family="sans-serif" font-size="14" lengthAdjust="spacing" textLength="194" x="53.5" y="229.1514">LoadLocalizedTexts() : void</text><ellipse cx="44.5" cy="242.1016" fill="#84BE84" rx="3" ry="3" style="stroke:#038048;stroke-width:1.0;"/><text fill="#000000" font-family="sans-serif" font-size="14" lengthAdjust="spacing" textLength="183" x="53.5" y="245.4482">OnPageAppearing() : void</text><rect fill="#F24D5C" height="6" style="stroke:#C82930;stroke-width:1.0;" width="6" x="41.5" y="255.3984"/><text fill="#000000" font-family="sans-serif" font-size="14" lengthAdjust="spacing" textLength="373" x="53.5" y="261.7451">OnValiderClicked(sender:object, e:EventArgs) : void</text><rect fill="#F24D5C" height="6" style="stroke:#C82930;stroke-width:1.0;" width="6" x="41.5" y="271.6953"/><text fill="#000000" font-family="sans-serif" font-size="14" lengthAdjust="spacing" textLength="559" x="53.5" y="278.042">OnEditorPriorityTextChanged(sender:object, e:TextChangedEventArgs) : void</text><rect fill="#F24D5C" height="6" style="stroke:#C82930;stroke-width:1.0;" width="6" x="41.5" y="287.9922"/><text fill="#000000" font-family="sans-serif" font-size="14" lengthAdjust="spacing" textLength="448" x="53.5" y="294.3389">OnEditorPriorityCompleted(sender:object, e:EventArgs) : void</text><rect fill="#F24D5C" height="6" style="stroke:#C82930;stroke-width:1.0;" width="6" x="41.5" y="304.2891"/><text fill="#000000" font-family="sans-serif" font-size="14" lengthAdjust="spacing" textLength="560" x="53.5" y="310.6357">OnEditorMetiersTextChanged(sender:object, e:TextChangedEventArgs) : void</text><rect fill="#F24D5C" height="6" style="stroke:#C82930;stroke-width:1.0;" width="6" x="41.5" y="320.5859"/><text fill="#000000" font-family="sans-serif" font-size="14" lengthAdjust="spacing" textLength="449" x="53.5" y="326.9326">OnEditorMetiersCompleted(sender:object, e:EventArgs) : void</text></g><!--class List`1--><g id="elem_List`1"><rect codeLine="13" fill="#F1F1F1" height="48" id="List`1" rx="2.5" ry="2.5" style="stroke:#181818;stroke-width:0.5;" width="85" x="655" y="200.5"/><ellipse cx="670" cy="216.5" fill="#ADD1B2" rx="11" ry="11" style="stroke:#181818;stroke-width:1.0;"/><path d="M672.3438,212.1719 C671.4063,211.7344 670.8125,211.5938 669.9375,211.5938 C667.3125,211.5938 665.3125,213.6719 665.3125,216.3906 L665.3125,217.5156 C665.3125,220.0938 667.4219,221.9844 670.3125,221.9844 C671.5313,221.9844 672.6875,221.6875 673.4375,221.1406 C674.0156,220.7344 674.3438,220.2813 674.3438,219.8906 C674.3438,219.4375 673.9531,219.0469 673.4844,219.0469 C673.2656,219.0469 673.0625,219.125 672.875,219.3125 C672.4219,219.7969 672.4219,219.7969 672.2344,219.8906 C671.8125,220.1563 671.125,220.2813 670.3594,220.2813 C668.3125,220.2813 667.0156,219.1875 667.0156,217.4844 L667.0156,216.3906 C667.0156,214.6094 668.2656,213.2969 670,213.2969 C670.5781,213.2969 671.1875,213.4531 671.6563,213.7031 C672.1406,213.9844 672.3125,214.2031 672.4063,214.6094 C672.4688,215.0156 672.5,215.1406 672.6406,215.2656 C672.7813,215.4063 673.0156,215.5156 673.2344,215.5156 C673.5,215.5156 673.7656,215.375 673.9375,215.1563 C674.0469,215 674.0781,214.8125 674.0781,214.3906 L674.0781,212.9688 C674.0781,212.5313 674.0625,212.4063 673.9688,212.25 C673.8125,211.9844 673.5313,211.8438 673.2344,211.8438 C672.9375,211.8438 672.7344,211.9375 672.5156,212.25 L672.3438,212.1719 Z " fill="#000000"/><text fill="#000000" font-family="sans-serif" font-size="14" lengthAdjust="spacing" textLength="42" x="684" y="221.3467">List`1</text><rect fill="#FFFFFF" height="15.9688" style="stroke:#181818;stroke-width:1.0;stroke-dasharray:2.0,2.0;" width="9" x="734" y="197.5"/><text fill="#000000" font-family="sans-serif" font-size="12" font-style="italic" lengthAdjust="spacing" textLength="7" x="735" y="209.6387">T</text><line style="stroke:#181818;stroke-width:0.5;" x1="656" x2="739" y1="232.5" y2="232.5"/><line style="stroke:#181818;stroke-width:0.5;" x1="656" x2="739" y1="240.5" y2="240.5"/></g><!--class ContentView--><g id="elem_ContentView"><rect fill="#F1F1F1" height="48" id="ContentView" rx="2.5" ry="2.5" style="stroke:#181818;stroke-width:0.5;" width="126" x="263.5" y="7"/><ellipse cx="278.5" cy="23" fill="#ADD1B2" rx="11" ry="11" style="stroke:#181818;stroke-width:1.0;"/><path d="M280.8438,18.6719 C279.9063,18.2344 279.3125,18.0938 278.4375,18.0938 C275.8125,18.0938 273.8125,20.1719 273.8125,22.8906 L273.8125,24.0156 C273.8125,26.5938 275.9219,28.4844 278.8125,28.4844 C280.0313,28.4844 281.1875,28.1875 281.9375,27.6406 C282.5156,27.2344 282.8438,26.7813 282.8438,26.3906 C282.8438,25.9375 282.4531,25.5469 281.9844,25.5469 C281.7656,25.5469 281.5625,25.625 281.375,25.8125 C280.9219,26.2969 280.9219,26.2969 280.7344,26.3906 C280.3125,26.6563 279.625,26.7813 278.8594,26.7813 C276.8125,26.7813 275.5156,25.6875 275.5156,23.9844 L275.5156,22.8906 C275.5156,21.1094 276.7656,19.7969 278.5,19.7969 C279.0781,19.7969 279.6875,19.9531 280.1563,20.2031 C280.6406,20.4844 280.8125,20.7031 280.9063,21.1094 C280.9688,21.5156 281,21.6406 281.1406,21.7656 C281.2813,21.9063 281.5156,22.0156 281.7344,22.0156 C282,22.0156 282.2656,21.875 282.4375,21.6563 C282.5469,21.5 282.5781,21.3125 282.5781,20.8906 L282.5781,19.4688 C282.5781,19.0313 282.5625,18.9063 282.4688,18.75 C282.3125,18.4844 282.0313,18.3438 281.7344,18.3438 C281.4375,18.3438 281.2344,18.4375 281.0156,18.75 L280.8438,18.6719 Z " fill="#000000"/><text fill="#000000" font-family="sans-serif" font-size="14" lengthAdjust="spacing" textLength="94" x="292.5" y="27.8467">ContentView</text><line style="stroke:#181818;stroke-width:0.5;" x1="264.5" x2="388.5" y1="39" y2="39"/><line style="stroke:#181818;stroke-width:0.5;" x1="264.5" x2="388.5" y1="47" y2="47"/></g><!--class ParametersPageViewModel--><g id="elem_ParametersPageViewModel"><rect fill="#F1F1F1" height="48" id="ParametersPageViewModel" rx="2.5" ry="2.5" style="stroke:#181818;stroke-width:0.5;" width="227" x="7" y="394"/><ellipse cx="22" cy="410" fill="#ADD1B2" rx="11" ry="11" style="stroke:#181818;stroke-width:1.0;"/><path d="M24.3438,405.6719 C23.4063,405.2344 22.8125,405.0938 21.9375,405.0938 C19.3125,405.0938 17.3125,407.1719 17.3125,409.8906 L17.3125,411.0156 C17.3125,413.5938 19.4219,415.4844 22.3125,415.4844 C23.5313,415.4844 24.6875,415.1875 25.4375,414.6406 C26.0156,414.2344 26.3438,413.7813 26.3438,413.3906 C26.3438,412.9375 25.9531,412.5469 25.4844,412.5469 C25.2656,412.5469 25.0625,412.625 24.875,412.8125 C24.4219,413.2969 24.4219,413.2969 24.2344,413.3906 C23.8125,413.6563 23.125,413.7813 22.3594,413.7813 C20.3125,413.7813 19.0156,412.6875 19.0156,410.9844 L19.0156,409.8906 C19.0156,408.1094 20.2656,406.7969 22,406.7969 C22.5781,406.7969 23.1875,406.9531 23.6563,407.2031 C24.1406,407.4844 24.3125,407.7031 24.4063,408.1094 C24.4688,408.5156 24.5,408.6406 24.6406,408.7656 C24.7813,408.9063 25.0156,409.0156 25.2344,409.0156 C25.5,409.0156 25.7656,408.875 25.9375,408.6563 C26.0469,408.5 26.0781,408.3125 26.0781,407.8906 L26.0781,406.4688 C26.0781,406.0313 26.0625,405.9063 25.9688,405.75 C25.8125,405.4844 25.5313,405.3438 25.2344,405.3438 C24.9375,405.3438 24.7344,405.4375 24.5156,405.75 L24.3438,405.6719 Z " fill="#000000"/><text fill="#000000" font-family="sans-serif" font-size="14" lengthAdjust="spacing" textLength="195" x="36" y="414.8467">ParametersPageViewModel</text><line style="stroke:#181818;stroke-width:0.5;" x1="8" x2="233" y1="426" y2="426"/><line style="stroke:#181818;stroke-width:0.5;" x1="8" x2="233" y1="434" y2="434"/></g><!--class Parameters--><g id="elem_Parameters"><rect fill="#F1F1F1" height="48" id="Parameters" rx="2.5" ry="2.5" style="stroke:#181818;stroke-width:0.5;" width="115" x="269" y="394"/><ellipse cx="284" cy="410" fill="#ADD1B2" rx="11" ry="11" style="stroke:#181818;stroke-width:1.0;"/><path d="M286.3438,405.6719 C285.4063,405.2344 284.8125,405.0938 283.9375,405.0938 C281.3125,405.0938 279.3125,407.1719 279.3125,409.8906 L279.3125,411.0156 C279.3125,413.5938 281.4219,415.4844 284.3125,415.4844 C285.5313,415.4844 286.6875,415.1875 287.4375,414.6406 C288.0156,414.2344 288.3438,413.7813 288.3438,413.3906 C288.3438,412.9375 287.9531,412.5469 287.4844,412.5469 C287.2656,412.5469 287.0625,412.625 286.875,412.8125 C286.4219,413.2969 286.4219,413.2969 286.2344,413.3906 C285.8125,413.6563 285.125,413.7813 284.3594,413.7813 C282.3125,413.7813 281.0156,412.6875 281.0156,410.9844 L281.0156,409.8906 C281.0156,408.1094 282.2656,406.7969 284,406.7969 C284.5781,406.7969 285.1875,406.9531 285.6563,407.2031 C286.1406,407.4844 286.3125,407.7031 286.4063,408.1094 C286.4688,408.5156 286.5,408.6406 286.6406,408.7656 C286.7813,408.9063 287.0156,409.0156 287.2344,409.0156 C287.5,409.0156 287.7656,408.875 287.9375,408.6563 C288.0469,408.5 288.0781,408.3125 288.0781,407.8906 L288.0781,406.4688 C288.0781,406.0313 288.0625,405.9063 287.9688,405.75 C287.8125,405.4844 287.5313,405.3438 287.2344,405.3438 C286.9375,405.3438 286.7344,405.4375 286.5156,405.75 L286.3438,405.6719 Z " fill="#000000"/><text fill="#000000" font-family="sans-serif" font-size="14" lengthAdjust="spacing" textLength="83" x="298" y="414.8467">Parameters</text><line style="stroke:#181818;stroke-width:0.5;" x1="270" x2="383" y1="426" y2="426"/><line style="stroke:#181818;stroke-width:0.5;" x1="270" x2="383" y1="434" y2="434"/></g><!--class ResourceManager--><g id="elem_ResourceManager"><rect fill="#F1F1F1" height="48" id="ResourceManager" rx="2.5" ry="2.5" style="stroke:#181818;stroke-width:0.5;" width="159" x="419" y="394"/><ellipse cx="434" cy="410" fill="#ADD1B2" rx="11" ry="11" style="stroke:#181818;stroke-width:1.0;"/><path d="M436.3438,405.6719 C435.4063,405.2344 434.8125,405.0938 433.9375,405.0938 C431.3125,405.0938 429.3125,407.1719 429.3125,409.8906 L429.3125,411.0156 C429.3125,413.5938 431.4219,415.4844 434.3125,415.4844 C435.5313,415.4844 436.6875,415.1875 437.4375,414.6406 C438.0156,414.2344 438.3438,413.7813 438.3438,413.3906 C438.3438,412.9375 437.9531,412.5469 437.4844,412.5469 C437.2656,412.5469 437.0625,412.625 436.875,412.8125 C436.4219,413.2969 436.4219,413.2969 436.2344,413.3906 C435.8125,413.6563 435.125,413.7813 434.3594,413.7813 C432.3125,413.7813 431.0156,412.6875 431.0156,410.9844 L431.0156,409.8906 C431.0156,408.1094 432.2656,406.7969 434,406.7969 C434.5781,406.7969 435.1875,406.9531 435.6563,407.2031 C436.1406,407.4844 436.3125,407.7031 436.4063,408.1094 C436.4688,408.5156 436.5,408.6406 436.6406,408.7656 C436.7813,408.9063 437.0156,409.0156 437.2344,409.0156 C437.5,409.0156 437.7656,408.875 437.9375,408.6563 C438.0469,408.5 438.0781,408.3125 438.0781,407.8906 L438.0781,406.4688 C438.0781,406.0313 438.0625,405.9063 437.9688,405.75 C437.8125,405.4844 437.5313,405.3438 437.2344,405.3438 C436.9375,405.3438 436.7344,405.4375 436.5156,405.75 L436.3438,405.6719 Z " fill="#000000"/><text fill="#000000" font-family="sans-serif" font-size="14" lengthAdjust="spacing" textLength="127" x="448" y="414.8467">ResourceManager</text><line style="stroke:#181818;stroke-width:0.5;" x1="420" x2="577" y1="426" y2="426"/><line style="stroke:#181818;stroke-width:0.5;" x1="420" x2="577" y1="434" y2="434"/></g><!--reverse link ContentView to GeneralSettingsView--><g id="link_ContentView_GeneralSettingsView"><path codeLine="15" d="M326.5,73.099 C326.5,88.618 326.5,92.313 326.5,114.981 " fill="none" id="ContentView-backto-GeneralSettingsView" style="stroke:#181818;stroke-width:1.0;"/><polygon fill="none" points="326.5,55.099,320.5,73.099,332.5,73.099,326.5,55.099" style="stroke:#181818;stroke-width:1.0;"/></g><!--link GeneralSettingsView to ParametersPageViewModel--><g id="link_GeneralSettingsView_ParametersPageViewModel"><path codeLine="16" d="M209.656,334.119 C185.319,356.7431 166.4276,374.3059 149.7586,389.8007 " fill="none" id="GeneralSettingsView-to-ParametersPageViewModel" style="stroke:#181818;stroke-width:1.0;"/><polygon fill="#181818" points="145.364,393.8857,154.6793,390.6879,149.0262,390.4815,149.2325,384.8284,145.364,393.8857" style="stroke:#181818;stroke-width:1.0;"/><text fill="#000000" font-family="sans-serif" font-size="13" lengthAdjust="spacing" textLength="67" x="76.1515" y="382.8684">viewModel</text></g><!--link GeneralSettingsView to Parameters--><g id="link_GeneralSettingsView_Parameters"><path codeLine="17" d="M326.5,334.119 C326.5,356.7431 326.5,372.3909 326.5,387.8857 " fill="none" id="GeneralSettingsView-to-Parameters" style="stroke:#181818;stroke-width:1.0;"/><polygon fill="#181818" points="326.5,393.8857,330.5,384.8857,326.5,388.8857,322.5,384.8857,326.5,393.8857" style="stroke:#181818;stroke-width:1.0;"/><text fill="#000000" font-family="sans-serif" font-size="13" lengthAdjust="spacing" textLength="61" x="257.6844" y="382.8684">_instance</text></g><!--link GeneralSettingsView to List`1--><g id="link_GeneralSettingsView_List`1"><path codeLine="18" d="M630.2784,273.5085 C646.4054,265.2255 647.0454,264.1451 663.1724,252.1381 " fill="none" id="GeneralSettingsView-List`1" style="stroke:#181818;stroke-width:1.0;"/><polygon fill="none" points="619.604,278.991,626.7687,279.8079,630.2784,273.5085,623.1137,272.6916,619.604,278.991" style="stroke:#181818;stroke-width:1.0;"/><polygon fill="#181818" points="667.985,248.555,658.3773,250.7213,663.9745,251.5409,663.1548,257.1381,667.985,248.555" style="stroke:#181818;stroke-width:1.0;"/><text fill="#000000" font-family="sans-serif" font-size="13" lengthAdjust="spacing" textLength="223" x="688.9937" y="268.7249">EncryptionExstensionsList&lt;string&gt;</text></g><!--link GeneralSettingsView to List`1--><g id="link_GeneralSettingsView_List`1"><path codeLine="20" d="M631.604,224.5 C643.37,224.5 637.135,224.5 648.901,224.5 " fill="none" id="GeneralSettingsView-List`1-1" style="stroke:#181818;stroke-width:1.0;"/><polygon fill="none" points="619.604,224.5,625.604,228.5,631.604,224.5,625.604,220.5,619.604,224.5" style="stroke:#181818;stroke-width:1.0;"/><polygon fill="#181818" points="654.901,224.5,645.901,220.5,649.901,224.5,645.901,228.5,654.901,224.5" style="stroke:#181818;stroke-width:1.0;"/><text fill="#000000" font-family="sans-serif" font-size="13" lengthAdjust="spacing" textLength="193" x="749.2277" y="208.5581">PriorityExtensionsList&lt;string&gt;</text></g><!--link GeneralSettingsView to List`1--><g id="link_GeneralSettingsView_List`1"><path codeLine="21" d="M630.2784,175.4915 C646.4054,183.7745 647.0454,184.8549 663.1724,196.8619 " fill="none" id="GeneralSettingsView-List`1-2" style="stroke:#181818;stroke-width:1.0;"/><polygon fill="none" points="619.604,170.009,623.1137,176.3084,630.2784,175.4915,626.7687,169.1921,619.604,170.009" style="stroke:#181818;stroke-width:1.0;"/><polygon fill="#181818" points="667.985,200.445,663.1548,191.8619,663.9745,197.4591,658.3773,198.2787,667.985,200.445" style="stroke:#181818;stroke-width:1.0;"/><text fill="#000000" font-family="sans-serif" font-size="13" lengthAdjust="spacing" textLength="211" x="687.4562" y="189.4429">BusinessApplicationsList&lt;string&gt;</text></g><!--link GeneralSettingsView to ResourceManager--><g id="link_GeneralSettingsView_ResourceManager"><path codeLine="19" d="M424.059,334.119 C444.379,356.7431 459.8127,373.9271 473.7297,389.4219 " fill="none" id="GeneralSettingsView-to-ResourceManager" style="stroke:#181818;stroke-width:1.0;"/><polygon fill="#181818" points="477.739,393.8857,474.701,384.5171,474.3979,390.1659,468.7492,389.8628,477.739,393.8857" style="stroke:#181818;stroke-width:1.0;"/><text fill="#000000" font-family="sans-serif" font-size="13" lengthAdjust="spacing" textLength="118" x="383.3752" y="382.8684">_resourceManager</text></g><!--SRC=[hP91JuD048Nl_8eDfpRAmIiX9BL13vROsAPNNPS9hj9TiZEjLEr_TsXfRICORUH0O6RUcxVmgK8YYcimu6Gn0I9jSfnfU1LHL4f7MXPnBDuzmTUPI8nogvAqDJUm4g50SZpVD5DPNUa29leDkAKDDVKMyzwIRwdDe0Z7qiav43WSonncktf_8mx4oCfiP9Kis3MRGaNOwxFxqkgiiRyrjN1GbY3hCCVjWDip5cVWXeLMBv3r40o_XVRn6HIT2mYJ9HWQk1o_APDCatLZfwtJjAgt3v-aoTjC3fg_zHlQULdmoK-8b09f_cB_bQYn-rEWjQSswFWZZVHmuKVJ6fErDxI6U7QBq4SGjFr-hust88Y5l-V25nrWT6lljK6IHi6XjdNSrkDVB2SLScJa9wmF4ssfZltzsNxOwG3jmYb8fU6KpXTtnuNk_JiCakg4vHk7omLg0uZCFhCjgTlZ4m00]--></g></svg>