<?xml version="1.0" encoding="us-ascii" standalone="no"?><svg xmlns="http://www.w3.org/2000/svg" xmlns:xlink="http://www.w3.org/1999/xlink" contentStyleType="text/css" height="319px" preserveAspectRatio="none" style="width:480px;height:319px;background:#FFFFFF;" version="1.1" viewBox="0 0 480 319" width="480px" zoomAndPan="magnify"><defs/><g><!--class JournauxSettingsView--><g id="elem_JournauxSettingsView"><rect codeLine="1" fill="#F1F1F1" height="88.8594" id="JournauxSettingsView" rx="2.5" ry="2.5" style="stroke:#181818;stroke-width:0.5;" width="466" x="7" y="115"/><ellipse cx="158.25" cy="135.1328" fill="#ADD1B2" rx="11" ry="11" style="stroke:#181818;stroke-width:1.0;"/><path d="M160.5938,130.8047 C159.6563,130.3672 159.0625,130.2266 158.1875,130.2266 C155.5625,130.2266 153.5625,132.3047 153.5625,135.0234 L153.5625,136.1484 C153.5625,138.7266 155.6719,140.6172 158.5625,140.6172 C159.7813,140.6172 160.9375,140.3203 161.6875,139.7734 C162.2656,139.3672 162.5938,138.9141 162.5938,138.5234 C162.5938,138.0703 162.2031,137.6797 161.7344,137.6797 C161.5156,137.6797 161.3125,137.7578 161.125,137.9453 C160.6719,138.4297 160.6719,138.4297 160.4844,138.5234 C160.0625,138.7891 159.375,138.9141 158.6094,138.9141 C156.5625,138.9141 155.2656,137.8203 155.2656,136.1172 L155.2656,135.0234 C155.2656,133.2422 156.5156,131.9297 158.25,131.9297 C158.8281,131.9297 159.4375,132.0859 159.9063,132.3359 C160.3906,132.6172 160.5625,132.8359 160.6563,133.2422 C160.7188,133.6484 160.75,133.7734 160.8906,133.8984 C161.0313,134.0391 161.2656,134.1484 161.4844,134.1484 C161.75,134.1484 162.0156,134.0078 162.1875,133.7891 C162.2969,133.6328 162.3281,133.4453 162.3281,133.0234 L162.3281,131.6016 C162.3281,131.1641 162.3125,131.0391 162.2188,130.8828 C162.0625,130.6172 161.7813,130.4766 161.4844,130.4766 C161.1875,130.4766 160.9844,130.5703 160.7656,130.8828 L160.5938,130.8047 Z " fill="#000000"/><text fill="#000000" font-family="sans-serif" font-size="12" font-style="italic" lengthAdjust="spacing" textLength="52" x="230.25" y="131.1387">&#171;partial&#187;</text><text fill="#000000" font-family="sans-serif" font-size="14" lengthAdjust="spacing" textLength="155" x="178.75" y="146.9639">JournauxSettingsView</text><line style="stroke:#181818;stroke-width:0.5;" x1="8" x2="472" y1="155.2656" y2="155.2656"/><line style="stroke:#181818;stroke-width:0.5;" x1="8" x2="472" y1="163.2656" y2="163.2656"/><ellipse cx="18" cy="176.9141" fill="#84BE84" rx="3" ry="3" style="stroke:#038048;stroke-width:1.0;"/><text fill="#000000" font-family="sans-serif" font-size="14" lengthAdjust="spacing" textLength="440" x="27" y="180.2607">JournauxSettingsView(viewModel:ParametersPageViewModel)</text><rect fill="#F24D5C" height="6" style="stroke:#C82930;stroke-width:1.0;" width="6" x="15" y="190.2109"/><text fill="#000000" font-family="sans-serif" font-size="14" lengthAdjust="spacing" textLength="194" x="27" y="196.5576">LoadLocalizedTexts() : void</text></g><!--class ContentView--><g id="elem_ContentView"><rect fill="#F1F1F1" height="48" id="ContentView" rx="2.5" ry="2.5" style="stroke:#181818;stroke-width:0.5;" width="126" x="177" y="7"/><ellipse cx="192" cy="23" fill="#ADD1B2" rx="11" ry="11" style="stroke:#181818;stroke-width:1.0;"/><path d="M194.3438,18.6719 C193.4063,18.2344 192.8125,18.0938 191.9375,18.0938 C189.3125,18.0938 187.3125,20.1719 187.3125,22.8906 L187.3125,24.0156 C187.3125,26.5938 189.4219,28.4844 192.3125,28.4844 C193.5313,28.4844 194.6875,28.1875 195.4375,27.6406 C196.0156,27.2344 196.3438,26.7813 196.3438,26.3906 C196.3438,25.9375 195.9531,25.5469 195.4844,25.5469 C195.2656,25.5469 195.0625,25.625 194.875,25.8125 C194.4219,26.2969 194.4219,26.2969 194.2344,26.3906 C193.8125,26.6563 193.125,26.7813 192.3594,26.7813 C190.3125,26.7813 189.0156,25.6875 189.0156,23.9844 L189.0156,22.8906 C189.0156,21.1094 190.2656,19.7969 192,19.7969 C192.5781,19.7969 193.1875,19.9531 193.6563,20.2031 C194.1406,20.4844 194.3125,20.7031 194.4063,21.1094 C194.4688,21.5156 194.5,21.6406 194.6406,21.7656 C194.7813,21.9063 195.0156,22.0156 195.2344,22.0156 C195.5,22.0156 195.7656,21.875 195.9375,21.6563 C196.0469,21.5 196.0781,21.3125 196.0781,20.8906 L196.0781,19.4688 C196.0781,19.0313 196.0625,18.9063 195.9688,18.75 C195.8125,18.4844 195.5313,18.3438 195.2344,18.3438 C194.9375,18.3438 194.7344,18.4375 194.5156,18.75 L194.3438,18.6719 Z " fill="#000000"/><text fill="#000000" font-family="sans-serif" font-size="14" lengthAdjust="spacing" textLength="94" x="206" y="27.8467">ContentView</text><line style="stroke:#181818;stroke-width:0.5;" x1="178" x2="302" y1="39" y2="39"/><line style="stroke:#181818;stroke-width:0.5;" x1="178" x2="302" y1="47" y2="47"/></g><!--class ParametersPageViewModel--><g id="elem_ParametersPageViewModel"><rect fill="#F1F1F1" height="48" id="ParametersPageViewModel" rx="2.5" ry="2.5" style="stroke:#181818;stroke-width:0.5;" width="227" x="12.5" y="264"/><ellipse cx="27.5" cy="280" fill="#ADD1B2" rx="11" ry="11" style="stroke:#181818;stroke-width:1.0;"/><path d="M29.8438,275.6719 C28.9063,275.2344 28.3125,275.0938 27.4375,275.0938 C24.8125,275.0938 22.8125,277.1719 22.8125,279.8906 L22.8125,281.0156 C22.8125,283.5938 24.9219,285.4844 27.8125,285.4844 C29.0313,285.4844 30.1875,285.1875 30.9375,284.6406 C31.5156,284.2344 31.8438,283.7813 31.8438,283.3906 C31.8438,282.9375 31.4531,282.5469 30.9844,282.5469 C30.7656,282.5469 30.5625,282.625 30.375,282.8125 C29.9219,283.2969 29.9219,283.2969 29.7344,283.3906 C29.3125,283.6563 28.625,283.7813 27.8594,283.7813 C25.8125,283.7813 24.5156,282.6875 24.5156,280.9844 L24.5156,279.8906 C24.5156,278.1094 25.7656,276.7969 27.5,276.7969 C28.0781,276.7969 28.6875,276.9531 29.1563,277.2031 C29.6406,277.4844 29.8125,277.7031 29.9063,278.1094 C29.9688,278.5156 30,278.6406 30.1406,278.7656 C30.2813,278.9063 30.5156,279.0156 30.7344,279.0156 C31,279.0156 31.2656,278.875 31.4375,278.6563 C31.5469,278.5 31.5781,278.3125 31.5781,277.8906 L31.5781,276.4688 C31.5781,276.0313 31.5625,275.9063 31.4688,275.75 C31.3125,275.4844 31.0313,275.3438 30.7344,275.3438 C30.4375,275.3438 30.2344,275.4375 30.0156,275.75 L29.8438,275.6719 Z " fill="#000000"/><text fill="#000000" font-family="sans-serif" font-size="14" lengthAdjust="spacing" textLength="195" x="41.5" y="284.8467">ParametersPageViewModel</text><line style="stroke:#181818;stroke-width:0.5;" x1="13.5" x2="238.5" y1="296" y2="296"/><line style="stroke:#181818;stroke-width:0.5;" x1="13.5" x2="238.5" y1="304" y2="304"/></g><!--class ResourceManager--><g id="elem_ResourceManager"><rect fill="#F1F1F1" height="48" id="ResourceManager" rx="2.5" ry="2.5" style="stroke:#181818;stroke-width:0.5;" width="159" x="274.5" y="264"/><ellipse cx="289.5" cy="280" fill="#ADD1B2" rx="11" ry="11" style="stroke:#181818;stroke-width:1.0;"/><path d="M291.8438,275.6719 C290.9063,275.2344 290.3125,275.0938 289.4375,275.0938 C286.8125,275.0938 284.8125,277.1719 284.8125,279.8906 L284.8125,281.0156 C284.8125,283.5938 286.9219,285.4844 289.8125,285.4844 C291.0313,285.4844 292.1875,285.1875 292.9375,284.6406 C293.5156,284.2344 293.8438,283.7813 293.8438,283.3906 C293.8438,282.9375 293.4531,282.5469 292.9844,282.5469 C292.7656,282.5469 292.5625,282.625 292.375,282.8125 C291.9219,283.2969 291.9219,283.2969 291.7344,283.3906 C291.3125,283.6563 290.625,283.7813 289.8594,283.7813 C287.8125,283.7813 286.5156,282.6875 286.5156,280.9844 L286.5156,279.8906 C286.5156,278.1094 287.7656,276.7969 289.5,276.7969 C290.0781,276.7969 290.6875,276.9531 291.1563,277.2031 C291.6406,277.4844 291.8125,277.7031 291.9063,278.1094 C291.9688,278.5156 292,278.6406 292.1406,278.7656 C292.2813,278.9063 292.5156,279.0156 292.7344,279.0156 C293,279.0156 293.2656,278.875 293.4375,278.6563 C293.5469,278.5 293.5781,278.3125 293.5781,277.8906 L293.5781,276.4688 C293.5781,276.0313 293.5625,275.9063 293.4688,275.75 C293.3125,275.4844 293.0313,275.3438 292.7344,275.3438 C292.4375,275.3438 292.2344,275.4375 292.0156,275.75 L291.8438,275.6719 Z " fill="#000000"/><text fill="#000000" font-family="sans-serif" font-size="14" lengthAdjust="spacing" textLength="127" x="303.5" y="284.8467">ResourceManager</text><line style="stroke:#181818;stroke-width:0.5;" x1="275.5" x2="432.5" y1="296" y2="296"/><line style="stroke:#181818;stroke-width:0.5;" x1="275.5" x2="432.5" y1="304" y2="304"/></g><!--reverse link ContentView to JournauxSettingsView--><g id="link_ContentView_JournauxSettingsView"><path codeLine="5" d="M240,73.202 C240,89.893 240,94.904 240,114.971 " fill="none" id="ContentView-backto-JournauxSettingsView" style="stroke:#181818;stroke-width:1.0;"/><polygon fill="none" points="240,55.202,234,73.202,246,73.202,240,55.202" style="stroke:#181818;stroke-width:1.0;"/></g><!--link JournauxSettingsView to ParametersPageViewModel--><g id="link_JournauxSettingsView_ParametersPageViewModel"><path codeLine="6" d="M200.768,204.034 C182.734,224.0453 166.0808,242.525 151.0508,259.2027 " fill="none" id="JournauxSettingsView-to-ParametersPageViewModel" style="stroke:#181818;stroke-width:1.0;"/><polygon fill="#181818" points="147.034,263.6598,156.0305,259.652,150.3813,259.9456,150.0877,254.2963,147.034,263.6598" style="stroke:#181818;stroke-width:1.0;"/><text fill="#000000" font-family="sans-serif" font-size="13" lengthAdjust="spacing" textLength="67" x="76.9953" y="252.9818">viewModel</text></g><!--link JournauxSettingsView to ResourceManager--><g id="link_JournauxSettingsView_ResourceManager"><path codeLine="7" d="M279.232,204.034 C297.266,224.0453 313.9192,242.525 328.9492,259.2027 " fill="none" id="JournauxSettingsView-to-ResourceManager" style="stroke:#181818;stroke-width:1.0;"/><polygon fill="#181818" points="332.966,263.6598,329.9123,254.2963,329.6187,259.9456,323.9695,259.652,332.966,263.6598" style="stroke:#181818;stroke-width:1.0;"/><text fill="#000000" font-family="sans-serif" font-size="13" lengthAdjust="spacing" textLength="118" x="246.3653" y="252.9896">_resourceManager</text></g><!--SRC=[VOxB2i8m44Nt-OgXgnR93vIIZJjfeQXqAqCpb41C99dMukFV3Og2K9t5BExCuPxUOeomyMDmECuxOZPkY9sXCrJL2GCRj4h1LK2QrU9ZFgNLU4ssR37WaPX2R76WxfqNJrf2xL7NlaThBgJtD7FC2oXXyaQBkrXxn-JurNsJSh5CBAfAgI3xQ6Jmm-CFV0WKqx6d1br2GWRRx-01]--></g></svg>