<?xml version="1.0" encoding="us-ascii" standalone="no"?><svg xmlns="http://www.w3.org/2000/svg" xmlns:xlink="http://www.w3.org/1999/xlink" contentStyleType="text/css" height="85px" preserveAspectRatio="none" style="width:247px;height:85px;background:#FFFFFF;" version="1.1" viewBox="0 0 247 85" width="247px" zoomAndPan="magnify"><defs/><g><!--class LanguagePickerViewModel--><g id="elem_LanguagePickerViewModel"><rect codeLine="1" fill="#F1F1F1" height="64.2969" id="LanguagePickerViewModel" rx="2.5" ry="2.5" style="stroke:#181818;stroke-width:0.5;" width="226" x="7" y="7"/><ellipse cx="23.8" cy="23" fill="#ADD1B2" rx="11" ry="11" style="stroke:#181818;stroke-width:1.0;"/><path d="M26.1438,18.6719 C25.2063,18.2344 24.6125,18.0938 23.7375,18.0938 C21.1125,18.0938 19.1125,20.1719 19.1125,22.8906 L19.1125,24.0156 C19.1125,26.5938 21.2219,28.4844 24.1125,28.4844 C25.3313,28.4844 26.4875,28.1875 27.2375,27.6406 C27.8156,27.2344 28.1438,26.7813 28.1438,26.3906 C28.1438,25.9375 27.7531,25.5469 27.2844,25.5469 C27.0656,25.5469 26.8625,25.625 26.675,25.8125 C26.2219,26.2969 26.2219,26.2969 26.0344,26.3906 C25.6125,26.6563 24.925,26.7813 24.1594,26.7813 C22.1125,26.7813 20.8156,25.6875 20.8156,23.9844 L20.8156,22.8906 C20.8156,21.1094 22.0656,19.7969 23.8,19.7969 C24.3781,19.7969 24.9875,19.9531 25.4563,20.2031 C25.9406,20.4844 26.1125,20.7031 26.2063,21.1094 C26.2688,21.5156 26.3,21.6406 26.4406,21.7656 C26.5813,21.9063 26.8156,22.0156 27.0344,22.0156 C27.3,22.0156 27.5656,21.875 27.7375,21.6563 C27.8469,21.5 27.8781,21.3125 27.8781,20.8906 L27.8781,19.4688 C27.8781,19.0313 27.8625,18.9063 27.7688,18.75 C27.6125,18.4844 27.3313,18.3438 27.0344,18.3438 C26.7375,18.3438 26.5344,18.4375 26.3156,18.75 L26.1438,18.6719 Z " fill="#000000"/><text fill="#000000" font-family="sans-serif" font-size="14" lengthAdjust="spacing" textLength="190" x="38.2" y="27.8467">LanguagePickerViewModel</text><line style="stroke:#181818;stroke-width:0.5;" x1="8" x2="232" y1="39" y2="39"/><line style="stroke:#181818;stroke-width:0.5;" x1="8" x2="232" y1="47" y2="47"/><ellipse cx="18" cy="60.6484" fill="#84BE84" rx="3" ry="3" style="stroke:#038048;stroke-width:1.0;"/><text fill="#000000" font-family="sans-serif" font-size="14" lengthAdjust="spacing" textLength="200" x="27" y="63.9951">LanguagePickerViewModel()</text></g><!--SRC=[Iyv9B2vMy4dCIozDJ4yDo4pEJYqAoqmjzyrFISrHgEPI009jNF8Qcbor0000]--></g></svg>