<?xml version="1.0" encoding="us-ascii" standalone="no"?><svg xmlns="http://www.w3.org/2000/svg" xmlns:xlink="http://www.w3.org/1999/xlink" contentStyleType="text/css" height="335px" preserveAspectRatio="none" style="width:459px;height:335px;background:#FFFFFF;" version="1.1" viewBox="0 0 459 335" width="459px" zoomAndPan="magnify"><defs/><g><!--class LanguesSettingsView--><g id="elem_LanguesSettingsView"><rect codeLine="1" fill="#F1F1F1" height="105.1563" id="LanguesSettingsView" rx="2.5" ry="2.5" style="stroke:#181818;stroke-width:0.5;" width="445" x="7" y="115"/><ellipse cx="148.75" cy="135.1328" fill="#ADD1B2" rx="11" ry="11" style="stroke:#181818;stroke-width:1.0;"/><path d="M151.0938,130.8047 C150.1563,130.3672 149.5625,130.2266 148.6875,130.2266 C146.0625,130.2266 144.0625,132.3047 144.0625,135.0234 L144.0625,136.1484 C144.0625,138.7266 146.1719,140.6172 149.0625,140.6172 C150.2813,140.6172 151.4375,140.3203 152.1875,139.7734 C152.7656,139.3672 153.0938,138.9141 153.0938,138.5234 C153.0938,138.0703 152.7031,137.6797 152.2344,137.6797 C152.0156,137.6797 151.8125,137.7578 151.625,137.9453 C151.1719,138.4297 151.1719,138.4297 150.9844,138.5234 C150.5625,138.7891 149.875,138.9141 149.1094,138.9141 C147.0625,138.9141 145.7656,137.8203 145.7656,136.1172 L145.7656,135.0234 C145.7656,133.2422 147.0156,131.9297 148.75,131.9297 C149.3281,131.9297 149.9375,132.0859 150.4063,132.3359 C150.8906,132.6172 151.0625,132.8359 151.1563,133.2422 C151.2188,133.6484 151.25,133.7734 151.3906,133.8984 C151.5313,134.0391 151.7656,134.1484 151.9844,134.1484 C152.25,134.1484 152.5156,134.0078 152.6875,133.7891 C152.7969,133.6328 152.8281,133.4453 152.8281,133.0234 L152.8281,131.6016 C152.8281,131.1641 152.8125,131.0391 152.7188,130.8828 C152.5625,130.6172 152.2813,130.4766 151.9844,130.4766 C151.6875,130.4766 151.4844,130.5703 151.2656,130.8828 L151.0938,130.8047 Z " fill="#000000"/><text fill="#000000" font-family="sans-serif" font-size="12" font-style="italic" lengthAdjust="spacing" textLength="52" x="219.75" y="131.1387">&#171;partial&#187;</text><text fill="#000000" font-family="sans-serif" font-size="14" lengthAdjust="spacing" textLength="153" x="169.25" y="146.9639">LanguesSettingsView</text><line style="stroke:#181818;stroke-width:0.5;" x1="8" x2="451" y1="155.2656" y2="155.2656"/><line style="stroke:#181818;stroke-width:0.5;" x1="8" x2="451" y1="163.2656" y2="163.2656"/><ellipse cx="18" cy="176.9141" fill="#84BE84" rx="3" ry="3" style="stroke:#038048;stroke-width:1.0;"/><text fill="#000000" font-family="sans-serif" font-size="14" lengthAdjust="spacing" textLength="163" x="27" y="180.2607">LanguesSettingsView()</text><rect fill="#F24D5C" height="6" style="stroke:#C82930;stroke-width:1.0;" width="6" x="15" y="190.2109"/><text fill="#000000" font-family="sans-serif" font-size="14" lengthAdjust="spacing" textLength="194" x="27" y="196.5576">LoadLocalizedTexts() : void</text><rect fill="#F24D5C" height="6" style="stroke:#C82930;stroke-width:1.0;" width="6" x="15" y="206.5078"/><text fill="#000000" font-family="sans-serif" font-size="14" lengthAdjust="spacing" textLength="419" x="27" y="212.8545">ValidateButton_Clicked(sender:object, e:EventArgs) : void</text></g><!--class ContentView--><g id="elem_ContentView"><rect fill="#F1F1F1" height="48" id="ContentView" rx="2.5" ry="2.5" style="stroke:#181818;stroke-width:0.5;" width="126" x="166.5" y="7"/><ellipse cx="181.5" cy="23" fill="#ADD1B2" rx="11" ry="11" style="stroke:#181818;stroke-width:1.0;"/><path d="M183.8438,18.6719 C182.9063,18.2344 182.3125,18.0938 181.4375,18.0938 C178.8125,18.0938 176.8125,20.1719 176.8125,22.8906 L176.8125,24.0156 C176.8125,26.5938 178.9219,28.4844 181.8125,28.4844 C183.0313,28.4844 184.1875,28.1875 184.9375,27.6406 C185.5156,27.2344 185.8438,26.7813 185.8438,26.3906 C185.8438,25.9375 185.4531,25.5469 184.9844,25.5469 C184.7656,25.5469 184.5625,25.625 184.375,25.8125 C183.9219,26.2969 183.9219,26.2969 183.7344,26.3906 C183.3125,26.6563 182.625,26.7813 181.8594,26.7813 C179.8125,26.7813 178.5156,25.6875 178.5156,23.9844 L178.5156,22.8906 C178.5156,21.1094 179.7656,19.7969 181.5,19.7969 C182.0781,19.7969 182.6875,19.9531 183.1563,20.2031 C183.6406,20.4844 183.8125,20.7031 183.9063,21.1094 C183.9688,21.5156 184,21.6406 184.1406,21.7656 C184.2813,21.9063 184.5156,22.0156 184.7344,22.0156 C185,22.0156 185.2656,21.875 185.4375,21.6563 C185.5469,21.5 185.5781,21.3125 185.5781,20.8906 L185.5781,19.4688 C185.5781,19.0313 185.5625,18.9063 185.4688,18.75 C185.3125,18.4844 185.0313,18.3438 184.7344,18.3438 C184.4375,18.3438 184.2344,18.4375 184.0156,18.75 L183.8438,18.6719 Z " fill="#000000"/><text fill="#000000" font-family="sans-serif" font-size="14" lengthAdjust="spacing" textLength="94" x="195.5" y="27.8467">ContentView</text><line style="stroke:#181818;stroke-width:0.5;" x1="167.5" x2="291.5" y1="39" y2="39"/><line style="stroke:#181818;stroke-width:0.5;" x1="167.5" x2="291.5" y1="47" y2="47"/></g><!--class ResourceManager--><g id="elem_ResourceManager"><rect fill="#F1F1F1" height="48" id="ResourceManager" rx="2.5" ry="2.5" style="stroke:#181818;stroke-width:0.5;" width="159" x="150" y="280"/><ellipse cx="165" cy="296" fill="#ADD1B2" rx="11" ry="11" style="stroke:#181818;stroke-width:1.0;"/><path d="M167.3438,291.6719 C166.4063,291.2344 165.8125,291.0938 164.9375,291.0938 C162.3125,291.0938 160.3125,293.1719 160.3125,295.8906 L160.3125,297.0156 C160.3125,299.5938 162.4219,301.4844 165.3125,301.4844 C166.5313,301.4844 167.6875,301.1875 168.4375,300.6406 C169.0156,300.2344 169.3438,299.7813 169.3438,299.3906 C169.3438,298.9375 168.9531,298.5469 168.4844,298.5469 C168.2656,298.5469 168.0625,298.625 167.875,298.8125 C167.4219,299.2969 167.4219,299.2969 167.2344,299.3906 C166.8125,299.6563 166.125,299.7813 165.3594,299.7813 C163.3125,299.7813 162.0156,298.6875 162.0156,296.9844 L162.0156,295.8906 C162.0156,294.1094 163.2656,292.7969 165,292.7969 C165.5781,292.7969 166.1875,292.9531 166.6563,293.2031 C167.1406,293.4844 167.3125,293.7031 167.4063,294.1094 C167.4688,294.5156 167.5,294.6406 167.6406,294.7656 C167.7813,294.9063 168.0156,295.0156 168.2344,295.0156 C168.5,295.0156 168.7656,294.875 168.9375,294.6563 C169.0469,294.5 169.0781,294.3125 169.0781,293.8906 L169.0781,292.4688 C169.0781,292.0313 169.0625,291.9063 168.9688,291.75 C168.8125,291.4844 168.5313,291.3438 168.2344,291.3438 C167.9375,291.3438 167.7344,291.4375 167.5156,291.75 L167.3438,291.6719 Z " fill="#000000"/><text fill="#000000" font-family="sans-serif" font-size="14" lengthAdjust="spacing" textLength="127" x="179" y="300.8467">ResourceManager</text><line style="stroke:#181818;stroke-width:0.5;" x1="151" x2="308" y1="312" y2="312"/><line style="stroke:#181818;stroke-width:0.5;" x1="151" x2="308" y1="320" y2="320"/></g><!--reverse link ContentView to LanguesSettingsView--><g id="link_ContentView_LanguesSettingsView"><path codeLine="6" d="M229.5,73.121 C229.5,89.57 229.5,94.325 229.5,114.982 " fill="none" id="ContentView-backto-LanguesSettingsView" style="stroke:#181818;stroke-width:1.0;"/><polygon fill="none" points="229.5,55.121,223.5,73.121,235.5,73.121,229.5,55.121" style="stroke:#181818;stroke-width:1.0;"/></g><!--link LanguesSettingsView to ResourceManager--><g id="link_LanguesSettingsView_ResourceManager"><path codeLine="7" d="M229.5,220.117 C229.5,240.7112 229.5,257.3766 229.5,273.7925 " fill="none" id="LanguesSettingsView-to-ResourceManager" style="stroke:#181818;stroke-width:1.0;"/><polygon fill="#181818" points="229.5,279.7925,233.5,270.7925,229.5,274.7925,225.5,270.7925,229.5,279.7925" style="stroke:#181818;stroke-width:1.0;"/><text fill="#000000" font-family="sans-serif" font-size="13" lengthAdjust="spacing" textLength="118" x="96.3813" y="268.7514">_resourceManager</text></g><!--SRC=[RO_D2i8m48JlVOh5Kulc1KefQF5MBogzbZLPIZGaajrMyUVTBIg2q3dEV0CpsY4prEYxddX78jPtt5YwG56SCOf5LvPmJs3KV8fBitUce0vewg3HsHkPFLs5qmno688rNw8PCuD2grua-BPoLf_8f4pUKCp3uKXQ5a3vUY0lozZnh_zCgk1bT3_B7afDJKccRYXLmgoDnA6FcZReiQCuW-s_yG80]--></g></svg>