<?xml version="1.0" encoding="us-ascii" standalone="no"?><svg xmlns="http://www.w3.org/2000/svg" xmlns:xlink="http://www.w3.org/1999/xlink" contentStyleType="text/css" height="359px" preserveAspectRatio="none" style="width:1592px;height:359px;background:#FFFFFF;" version="1.1" viewBox="0 0 1592 359" width="1592px" zoomAndPan="magnify"><defs/><g><!--class Logger--><g id="elem_Logger"><rect codeLine="1" fill="#F1F1F1" height="64.2969" id="Logger" rx="2.5" ry="2.5" style="stroke:#181818;stroke-width:0.5;" width="211" x="645.5" y="7"/><ellipse cx="721.75" cy="23" fill="#A9DCDF" rx="11" ry="11" style="stroke:#181818;stroke-width:1.0;"/><path d="M723.8281,24.8125 L724.2188,25.7969 L723.8281,25.7969 C723.375,25.7969 723.2656,25.8125 723.1094,25.9219 C722.8594,26.0781 722.7031,26.3594 722.7031,26.6563 C722.7031,26.9219 722.8438,27.1719 723.0625,27.3281 C723.2031,27.4531 723.4063,27.5 723.8281,27.5 L726.1875,27.5 C726.5469,27.5 726.7656,27.4688 726.9063,27.375 C727.1563,27.2344 727.3125,26.9375 727.3125,26.6563 C727.3125,26.375 727.1719,26.125 726.9531,25.9688 C726.7813,25.8281 726.625,25.7969 726.1563,25.7969 L722.7656,17.5938 L719.0938,17.5938 C718.6406,17.5938 718.5156,17.6094 718.3594,17.7031 C718.1094,17.875 717.9531,18.1563 717.9531,18.4375 C717.9531,18.7188 718.0938,18.9688 718.3125,19.1406 C718.4844,19.25 718.6563,19.2813 719.0938,19.2813 L720.1719,19.2813 L717.5313,25.7969 C717.1094,25.7969 716.9531,25.8125 716.7969,25.9219 C716.5469,26.0781 716.3906,26.3594 716.3906,26.6563 C716.3906,27.2188 716.7656,27.5 717.5156,27.5 L719.7813,27.5 C720.1406,27.5 720.3594,27.4688 720.4844,27.375 C720.75,27.2344 720.8906,26.9375 720.8906,26.6563 C720.8906,26.375 720.7656,26.125 720.5469,25.9531 C720.375,25.8281 720.2344,25.7969 719.7813,25.7969 L719.3906,25.7969 L719.7813,24.8125 L723.8281,24.8125 Z M723.125,23.1094 L720.4531,23.1094 L721.7969,19.8438 L723.125,23.1094 Z " fill="#000000"/><text fill="#000000" font-family="sans-serif" font-size="14" font-style="italic" lengthAdjust="spacing" textLength="50" x="742.25" y="27.8467">Logger</text><line style="stroke:#181818;stroke-width:0.5;" x1="646.5" x2="855.5" y1="39" y2="39"/><line style="stroke:#181818;stroke-width:0.5;" x1="646.5" x2="855.5" y1="47" y2="47"/><polygon fill="#FFFF44" points="656.5,55.6484,660.5,59.6484,656.5,63.6484,652.5,59.6484" style="stroke:#B38D22;stroke-width:1.0;"/><text fill="#000000" font-family="sans-serif" font-size="14" lengthAdjust="spacing" textLength="185" x="665.5" y="63.9951">log(message:string) : void</text></g><!--class LoggerJournalier--><g id="elem_LoggerJournalier"><rect codeLine="4" fill="#F1F1F1" height="113.1875" id="LoggerJournalier" rx="2.5" ry="2.5" style="stroke:#181818;stroke-width:0.5;" width="794" x="722" y="131"/><ellipse cx="1056.25" cy="147" fill="#ADD1B2" rx="11" ry="11" style="stroke:#181818;stroke-width:1.0;"/><path d="M1058.5938,142.6719 C1057.6563,142.2344 1057.0625,142.0938 1056.1875,142.0938 C1053.5625,142.0938 1051.5625,144.1719 1051.5625,146.8906 L1051.5625,148.0156 C1051.5625,150.5938 1053.6719,152.4844 1056.5625,152.4844 C1057.7813,152.4844 1058.9375,152.1875 1059.6875,151.6406 C1060.2656,151.2344 1060.5938,150.7813 1060.5938,150.3906 C1060.5938,149.9375 1060.2031,149.5469 1059.7344,149.5469 C1059.5156,149.5469 1059.3125,149.625 1059.125,149.8125 C1058.6719,150.2969 1058.6719,150.2969 1058.4844,150.3906 C1058.0625,150.6563 1057.375,150.7813 1056.6094,150.7813 C1054.5625,150.7813 1053.2656,149.6875 1053.2656,147.9844 L1053.2656,146.8906 C1053.2656,145.1094 1054.5156,143.7969 1056.25,143.7969 C1056.8281,143.7969 1057.4375,143.9531 1057.9063,144.2031 C1058.3906,144.4844 1058.5625,144.7031 1058.6563,145.1094 C1058.7188,145.5156 1058.75,145.6406 1058.8906,145.7656 C1059.0313,145.9063 1059.2656,146.0156 1059.4844,146.0156 C1059.75,146.0156 1060.0156,145.875 1060.1875,145.6563 C1060.2969,145.5 1060.3281,145.3125 1060.3281,144.8906 L1060.3281,143.4688 C1060.3281,143.0313 1060.3125,142.9063 1060.2188,142.75 C1060.0625,142.4844 1059.7813,142.3438 1059.4844,142.3438 C1059.1875,142.3438 1058.9844,142.4375 1058.7656,142.75 L1058.5938,142.6719 Z " fill="#000000"/><text fill="#000000" font-family="sans-serif" font-size="14" lengthAdjust="spacing" textLength="117" x="1076.75" y="151.8467">LoggerJournalier</text><line style="stroke:#181818;stroke-width:0.5;" x1="723" x2="1515" y1="163" y2="163"/><line style="stroke:#181818;stroke-width:0.5;" x1="723" x2="1515" y1="171" y2="171"/><rect fill="#F24D5C" height="6" style="stroke:#C82930;stroke-width:1.0;" width="6" x="730" y="181.6484"/><text fill="#000000" font-family="sans-serif" font-size="14" lengthAdjust="spacing" textLength="127" x="742" y="187.9951">LoggerJournalier()</text><ellipse cx="733" cy="200.9453" fill="#84BE84" rx="3" ry="3" style="stroke:#038048;stroke-width:1.0;"/><text fill="#000000" font-family="sans-serif" font-size="14" lengthAdjust="spacing" text-decoration="underline" textLength="228" x="742" y="204.292">GetInstance() : LoggerJournalier</text><rect fill="#F24D5C" height="6" style="stroke:#C82930;stroke-width:1.0;" width="6" x="730" y="214.2422"/><text fill="#000000" font-family="sans-serif" font-size="14" lengthAdjust="spacing" textLength="117" x="742" y="220.5889">OpenFile() : void</text><ellipse cx="733" cy="233.5391" fill="#84BE84" rx="3" ry="3" style="stroke:#038048;stroke-width:1.0;"/><text fill="#000000" font-family="sans-serif" font-size="14" lengthAdjust="spacing" textLength="768" x="742" y="236.8857">Log(save_name:string, source:string, target:string, size:int, transfer_time:int?, encryption_time:int?) : void</text></g><!--class LoggerEtat--><g id="elem_LoggerEtat"><rect codeLine="10" fill="#F1F1F1" height="113.1875" id="LoggerEtat" rx="2.5" ry="2.5" style="stroke:#181818;stroke-width:0.5;" width="218" x="7" y="131"/><ellipse cx="71.25" cy="147" fill="#ADD1B2" rx="11" ry="11" style="stroke:#181818;stroke-width:1.0;"/><path d="M73.5938,142.6719 C72.6563,142.2344 72.0625,142.0938 71.1875,142.0938 C68.5625,142.0938 66.5625,144.1719 66.5625,146.8906 L66.5625,148.0156 C66.5625,150.5938 68.6719,152.4844 71.5625,152.4844 C72.7813,152.4844 73.9375,152.1875 74.6875,151.6406 C75.2656,151.2344 75.5938,150.7813 75.5938,150.3906 C75.5938,149.9375 75.2031,149.5469 74.7344,149.5469 C74.5156,149.5469 74.3125,149.625 74.125,149.8125 C73.6719,150.2969 73.6719,150.2969 73.4844,150.3906 C73.0625,150.6563 72.375,150.7813 71.6094,150.7813 C69.5625,150.7813 68.2656,149.6875 68.2656,147.9844 L68.2656,146.8906 C68.2656,145.1094 69.5156,143.7969 71.25,143.7969 C71.8281,143.7969 72.4375,143.9531 72.9063,144.2031 C73.3906,144.4844 73.5625,144.7031 73.6563,145.1094 C73.7188,145.5156 73.75,145.6406 73.8906,145.7656 C74.0313,145.9063 74.2656,146.0156 74.4844,146.0156 C74.75,146.0156 75.0156,145.875 75.1875,145.6563 C75.2969,145.5 75.3281,145.3125 75.3281,144.8906 L75.3281,143.4688 C75.3281,143.0313 75.3125,142.9063 75.2188,142.75 C75.0625,142.4844 74.7813,142.3438 74.4844,142.3438 C74.1875,142.3438 73.9844,142.4375 73.7656,142.75 L73.5938,142.6719 Z " fill="#000000"/><text fill="#000000" font-family="sans-serif" font-size="14" lengthAdjust="spacing" textLength="81" x="91.75" y="151.8467">LoggerEtat</text><line style="stroke:#181818;stroke-width:0.5;" x1="8" x2="224" y1="163" y2="163"/><line style="stroke:#181818;stroke-width:0.5;" x1="8" x2="224" y1="171" y2="171"/><rect fill="#F24D5C" height="6" style="stroke:#C82930;stroke-width:1.0;" width="6" x="15" y="181.6484"/><text fill="#000000" font-family="sans-serif" font-size="14" lengthAdjust="spacing" textLength="91" x="27" y="187.9951">LoggerEtat()</text><ellipse cx="18" cy="200.9453" fill="#84BE84" rx="3" ry="3" style="stroke:#038048;stroke-width:1.0;"/><text fill="#000000" font-family="sans-serif" font-size="14" lengthAdjust="spacing" text-decoration="underline" textLength="192" x="27" y="204.292">GetInstance() : LoggerEtat</text><rect fill="#F24D5C" height="6" style="stroke:#C82930;stroke-width:1.0;" width="6" x="15" y="214.2422"/><text fill="#000000" font-family="sans-serif" font-size="14" lengthAdjust="spacing" textLength="134" x="27" y="220.5889">ReopenFile() : void</text><ellipse cx="18" cy="233.5391" fill="#84BE84" rx="3" ry="3" style="stroke:#038048;stroke-width:1.0;"/><text fill="#000000" font-family="sans-serif" font-size="14" lengthAdjust="spacing" textLength="183" x="27" y="236.8857">WriteStatesToFile() : void</text></g><!--class LoggerConfiguration--><g id="elem_LoggerConfiguration"><rect codeLine="16" fill="#F1F1F1" height="96.8906" id="LoggerConfiguration" rx="2.5" ry="2.5" style="stroke:#181818;stroke-width:0.5;" width="209" x="278.5" y="139"/><ellipse cx="306.55" cy="155" fill="#ADD1B2" rx="11" ry="11" style="stroke:#181818;stroke-width:1.0;"/><path d="M308.8938,150.6719 C307.9563,150.2344 307.3625,150.0938 306.4875,150.0938 C303.8625,150.0938 301.8625,152.1719 301.8625,154.8906 L301.8625,156.0156 C301.8625,158.5938 303.9719,160.4844 306.8625,160.4844 C308.0813,160.4844 309.2375,160.1875 309.9875,159.6406 C310.5656,159.2344 310.8938,158.7813 310.8938,158.3906 C310.8938,157.9375 310.5031,157.5469 310.0344,157.5469 C309.8156,157.5469 309.6125,157.625 309.425,157.8125 C308.9719,158.2969 308.9719,158.2969 308.7844,158.3906 C308.3625,158.6563 307.675,158.7813 306.9094,158.7813 C304.8625,158.7813 303.5656,157.6875 303.5656,155.9844 L303.5656,154.8906 C303.5656,153.1094 304.8156,151.7969 306.55,151.7969 C307.1281,151.7969 307.7375,151.9531 308.2063,152.2031 C308.6906,152.4844 308.8625,152.7031 308.9563,153.1094 C309.0188,153.5156 309.05,153.6406 309.1906,153.7656 C309.3313,153.9063 309.5656,154.0156 309.7844,154.0156 C310.05,154.0156 310.3156,153.875 310.4875,153.6563 C310.5969,153.5 310.6281,153.3125 310.6281,152.8906 L310.6281,151.4688 C310.6281,151.0313 310.6125,150.9063 310.5188,150.75 C310.3625,150.4844 310.0813,150.3438 309.7844,150.3438 C309.4875,150.3438 309.2844,150.4375 309.0656,150.75 L308.8938,150.6719 Z " fill="#000000"/><text fill="#000000" font-family="sans-serif" font-size="14" lengthAdjust="spacing" textLength="148" x="323.45" y="159.8467">LoggerConfiguration</text><line style="stroke:#181818;stroke-width:0.5;" x1="279.5" x2="486.5" y1="171" y2="171"/><line style="stroke:#181818;stroke-width:0.5;" x1="279.5" x2="486.5" y1="179" y2="179"/><ellipse cx="289.5" cy="192.6484" fill="#84BE84" rx="3" ry="3" style="stroke:#038048;stroke-width:1.0;"/><text fill="#000000" font-family="sans-serif" font-size="14" lengthAdjust="spacing" textLength="158" x="298.5" y="195.9951">LoggerConfiguration()</text><rect fill="#F24D5C" height="6" style="stroke:#C82930;stroke-width:1.0;" width="6" x="286.5" y="205.9453"/><text fill="#000000" font-family="sans-serif" font-size="14" lengthAdjust="spacing" textLength="134" x="298.5" y="212.292">ReopenFile() : void</text><ellipse cx="289.5" cy="225.2422" fill="#84BE84" rx="3" ry="3" style="stroke:#038048;stroke-width:1.0;"/><text fill="#000000" font-family="sans-serif" font-size="14" lengthAdjust="spacing" textLength="183" x="298.5" y="228.5889">WriteConfigToFile() : void</text></g><!--class FileStream--><g id="elem_FileStream"><rect fill="#F1F1F1" height="48" id="FileStream" rx="2.5" ry="2.5" style="stroke:#181818;stroke-width:0.5;" width="110" x="1064" y="304"/><ellipse cx="1079" cy="320" fill="#ADD1B2" rx="11" ry="11" style="stroke:#181818;stroke-width:1.0;"/><path d="M1081.3438,315.6719 C1080.4063,315.2344 1079.8125,315.0938 1078.9375,315.0938 C1076.3125,315.0938 1074.3125,317.1719 1074.3125,319.8906 L1074.3125,321.0156 C1074.3125,323.5938 1076.4219,325.4844 1079.3125,325.4844 C1080.5313,325.4844 1081.6875,325.1875 1082.4375,324.6406 C1083.0156,324.2344 1083.3438,323.7813 1083.3438,323.3906 C1083.3438,322.9375 1082.9531,322.5469 1082.4844,322.5469 C1082.2656,322.5469 1082.0625,322.625 1081.875,322.8125 C1081.4219,323.2969 1081.4219,323.2969 1081.2344,323.3906 C1080.8125,323.6563 1080.125,323.7813 1079.3594,323.7813 C1077.3125,323.7813 1076.0156,322.6875 1076.0156,320.9844 L1076.0156,319.8906 C1076.0156,318.1094 1077.2656,316.7969 1079,316.7969 C1079.5781,316.7969 1080.1875,316.9531 1080.6563,317.2031 C1081.1406,317.4844 1081.3125,317.7031 1081.4063,318.1094 C1081.4688,318.5156 1081.5,318.6406 1081.6406,318.7656 C1081.7813,318.9063 1082.0156,319.0156 1082.2344,319.0156 C1082.5,319.0156 1082.7656,318.875 1082.9375,318.6563 C1083.0469,318.5 1083.0781,318.3125 1083.0781,317.8906 L1083.0781,316.4688 C1083.0781,316.0313 1083.0625,315.9063 1082.9688,315.75 C1082.8125,315.4844 1082.5313,315.3438 1082.2344,315.3438 C1081.9375,315.3438 1081.7344,315.4375 1081.5156,315.75 L1081.3438,315.6719 Z " fill="#000000"/><text fill="#000000" font-family="sans-serif" font-size="14" lengthAdjust="spacing" textLength="78" x="1093" y="324.8467">FileStream</text><line style="stroke:#181818;stroke-width:0.5;" x1="1065" x2="1173" y1="336" y2="336"/><line style="stroke:#181818;stroke-width:0.5;" x1="1065" x2="1173" y1="344" y2="344"/></g><!--class SaveConfiguration--><g id="elem_SaveConfiguration"><rect fill="#F1F1F1" height="48" id="SaveConfiguration" rx="2.5" ry="2.5" style="stroke:#181818;stroke-width:0.5;" width="164" x="523" y="163.5"/><ellipse cx="538" cy="179.5" fill="#ADD1B2" rx="11" ry="11" style="stroke:#181818;stroke-width:1.0;"/><path d="M540.3438,175.1719 C539.4063,174.7344 538.8125,174.5938 537.9375,174.5938 C535.3125,174.5938 533.3125,176.6719 533.3125,179.3906 L533.3125,180.5156 C533.3125,183.0938 535.4219,184.9844 538.3125,184.9844 C539.5313,184.9844 540.6875,184.6875 541.4375,184.1406 C542.0156,183.7344 542.3438,183.2813 542.3438,182.8906 C542.3438,182.4375 541.9531,182.0469 541.4844,182.0469 C541.2656,182.0469 541.0625,182.125 540.875,182.3125 C540.4219,182.7969 540.4219,182.7969 540.2344,182.8906 C539.8125,183.1563 539.125,183.2813 538.3594,183.2813 C536.3125,183.2813 535.0156,182.1875 535.0156,180.4844 L535.0156,179.3906 C535.0156,177.6094 536.2656,176.2969 538,176.2969 C538.5781,176.2969 539.1875,176.4531 539.6563,176.7031 C540.1406,176.9844 540.3125,177.2031 540.4063,177.6094 C540.4688,178.0156 540.5,178.1406 540.6406,178.2656 C540.7813,178.4063 541.0156,178.5156 541.2344,178.5156 C541.5,178.5156 541.7656,178.375 541.9375,178.1563 C542.0469,178 542.0781,177.8125 542.0781,177.3906 L542.0781,175.9688 C542.0781,175.5313 542.0625,175.4063 541.9688,175.25 C541.8125,174.9844 541.5313,174.8438 541.2344,174.8438 C540.9375,174.8438 540.7344,174.9375 540.5156,175.25 L540.3438,175.1719 Z " fill="#000000"/><text fill="#000000" font-family="sans-serif" font-size="14" lengthAdjust="spacing" textLength="132" x="552" y="184.3467">SaveConfiguration</text><line style="stroke:#181818;stroke-width:0.5;" x1="524" x2="686" y1="195.5" y2="195.5"/><line style="stroke:#181818;stroke-width:0.5;" x1="524" x2="686" y1="203.5" y2="203.5"/></g><!--link Logger to FileStream--><g id="link_Logger_FileStream"><path codeLine="21" d="M856.829,44.314 C1063.89,53.845 1506.47,80.007 1552,131 C1585.45,168.463 1584,205.289 1552,244 C1504.64,301.3024 1285.8421,319.1253 1180.1521,324.5374 " fill="none" id="Logger-to-FileStream" style="stroke:#181818;stroke-width:1.0;"/><polygon fill="#181818" points="1174.16,324.8442,1183.3528,328.3787,1179.1535,324.5885,1182.9437,320.3892,1174.16,324.8442" style="stroke:#181818;stroke-width:1.0;"/><text fill="#000000" font-family="sans-serif" font-size="13" lengthAdjust="spacing" textLength="42" x="1182.014" y="320.8191">Logfile</text></g><!--reverse link Logger to LoggerJournalier--><g id="link_Logger_LoggerJournalier"><path codeLine="22" d="M845.7666,77.7264 C889.4406,95.1124 928.471,110.651 979.399,130.925 " fill="none" id="Logger-backto-LoggerJournalier" style="stroke:#181818;stroke-width:1.0;"/><polygon fill="none" points="829.043,71.069,843.5475,83.301,847.9857,72.1519,829.043,71.069" style="stroke:#181818;stroke-width:1.0;"/></g><!--link LoggerJournalier to LoggerJournalier--><g id="link_LoggerJournalier_LoggerJournalier"><path codeLine="23" d="M1516.01,169.905 C1537.95,174.184 1551,180.049 1551,187.5 C1551,194.951 1543.839,199.6674 1521.899,203.9464 " fill="none" id="LoggerJournalier-to-LoggerJournalier" style="stroke:#181818;stroke-width:1.0;"/><polygon fill="#181818" points="1516.01,205.095,1525.6093,207.2982,1520.9175,204.1379,1524.0779,199.4461,1516.01,205.095" style="stroke:#181818;stroke-width:1.0;"/><text fill="#000000" font-family="sans-serif" font-size="13" lengthAdjust="spacing" textLength="61" x="1523.3578" y="202.3349">_instance</text></g><!--link LoggerJournalier to FileStream--><g id="link_LoggerJournalier_FileStream"><path codeLine="24" d="M1106.47,244.035 C1105.78,264.9568 1105.7721,281.6887 1108.3021,298.0325 " fill="none" id="LoggerJournalier-to-FileStream" style="stroke:#181818;stroke-width:1.0;"/><polygon fill="#181818" points="1109.22,303.9619,1111.7961,294.4559,1108.4551,299.0208,1103.8903,295.6797,1109.22,303.9619" style="stroke:#181818;stroke-width:1.0;"/><text fill="#000000" font-family="sans-serif" font-size="13" lengthAdjust="spacing" textLength="78" x="1018.7201" y="292.9642">_logFileJSON</text></g><!--link LoggerJournalier to FileStream--><g id="link_LoggerJournalier_FileStream"><path codeLine="25" d="M1132.26,244.035 C1133,264.9568 1132.9974,281.6966 1130.3274,298.0404 " fill="none" id="LoggerJournalier-to-FileStream-1" style="stroke:#181818;stroke-width:1.0;"/><polygon fill="#181818" points="1129.36,303.9619,1134.7587,295.7246,1130.1661,299.0273,1126.8634,294.4347,1129.36,303.9619" style="stroke:#181818;stroke-width:1.0;"/><text fill="#000000" font-family="sans-serif" font-size="13" lengthAdjust="spacing" textLength="73" x="1141.3679" y="292.9642">_logFileXML</text></g><!--reverse link Logger to LoggerEtat--><g id="link_Logger_LoggerEtat"><path codeLine="26" d="M627.2491,56.5733 C527.1351,71.1203 391.129,94.342 261,131 C249.325,134.289 237.274,138.137 225.34,142.245 " fill="none" id="Logger-backto-LoggerEtat" style="stroke:#181818;stroke-width:1.0;"/><polygon fill="none" points="645.062,53.985,626.3863,50.6357,628.1118,62.5109,645.062,53.985" style="stroke:#181818;stroke-width:1.0;"/></g><!--link LoggerEtat to SaveConfiguration--><g id="link_LoggerEtat_SaveConfiguration"><path codeLine="27" d="M214.1202,125.3771 C237.5712,113.0571 252.918,107.385 278.5,101 C368.624,78.507 399.248,72.019 487.5,101 C524.803,113.25 555.6789,138.2227 577.6519,159.2987 " fill="none" id="LoggerEtat-SaveConfiguration" style="stroke:#181818;stroke-width:1.0;"/><polygon fill="none" points="203.497,130.958,210.6689,131.7086,214.1202,125.3771,206.9483,124.6265,203.497,130.958" style="stroke:#181818;stroke-width:1.0;"/><polygon fill="#181818" points="581.982,163.452,578.2557,154.3353,578.3736,159.9909,572.718,160.1087,581.982,163.452" style="stroke:#181818;stroke-width:1.0;"/><text fill="#000000" font-family="sans-serif" font-size="13" lengthAdjust="spacing" textLength="124" x="591.9711" y="152.4517">_saveConfiguration</text></g><!--link LoggerEtat to LoggerEtat--><g id="link_LoggerEtat_LoggerEtat"><path codeLine="28" d="M225.257,162.597 C245.643,165.664 260,173.965 260,187.5 C260,201.035 251.5762,208.4434 231.1902,211.5104 " fill="none" id="LoggerEtat-to-LoggerEtat" style="stroke:#181818;stroke-width:1.0;"/><polygon fill="#181818" points="225.257,212.403,234.7519,215.0195,230.2014,211.6591,233.5618,207.1086,225.257,212.403" style="stroke:#181818;stroke-width:1.0;"/><text fill="#000000" font-family="sans-serif" font-size="13" lengthAdjust="spacing" textLength="61" x="209.3537" y="214.0573">_instance</text></g><!--reverse link Logger to LoggerConfiguration--><g id="link_Logger_LoggerConfiguration"><path codeLine="29" d="M645.9145,77.2175 C599.0335,94.1685 557.52,109.838 506,131 C499.824,133.537 493.499,136.197 487.134,138.921 " fill="none" id="Logger-backto-LoggerConfiguration" style="stroke:#181818;stroke-width:1.0;"/><polygon fill="none" points="662.842,71.097,643.8744,71.5751,647.9547,82.86,662.842,71.097" style="stroke:#181818;stroke-width:1.0;"/></g><!--link LoggerConfiguration to SaveConfiguration--><g id="link_LoggerConfiguration_SaveConfiguration"><path codeLine="30" d="M499.93,187.5 C511.515,187.5 505.1,187.5 516.685,187.5 " fill="none" id="LoggerConfiguration-SaveConfiguration" style="stroke:#181818;stroke-width:1.0;"/><polygon fill="none" points="487.93,187.5,493.93,191.5,499.93,187.5,493.93,183.5,487.93,187.5" style="stroke:#181818;stroke-width:1.0;"/><polygon fill="#181818" points="522.685,187.5,513.685,183.5,517.685,187.5,513.685,191.5,522.685,187.5" style="stroke:#181818;stroke-width:1.0;"/><text fill="#000000" font-family="sans-serif" font-size="13" lengthAdjust="spacing" textLength="124" x="423.8091" y="152.0541">_saveConfiguration</text></g><!--SRC=[ZLBBJiCm4BpdArRXaghD3qG83WWGLQ4IGO9RPCp6ifJObUrMWj9_nqvSybRZaxqpiplhNVAfZIBK02s8rh2HZA62Om3sN44XMLIYreHXOdbSi0KaS93yApW5RSLQxfKW1V_NnWCWMbJ04exQ4CFf2HxHF0dx41GZbxUly8csEnGFlAWvLUqwZwL7cXmm4wGysrk1jdBQF0rH34s3yXzCk30MK4Je75LcU5c5RbU0WghldU5IDD69Xkzj3xrMNMXkauxhnQye9nfyLznWQfcetsINq3Lp9qNEsLuHPzsxMevXtjx5ehLeMDIlHnpVG6ZlkOL3SAJKA2Jb6R_-ZOVp3mQRKgN9kF-TSBR2RgMhkKwtBoFLf-WVpviBNgkXjCOhAxbRiSudXf3sGstLU5UjtEsIOrcwqvnluWy0]--></g></svg>