<?xml version="1.0" encoding="us-ascii" standalone="no"?><svg xmlns="http://www.w3.org/2000/svg" xmlns:xlink="http://www.w3.org/1999/xlink" contentStyleType="text/css" height="417px" preserveAspectRatio="none" style="width:1152px;height:417px;background:#FFFFFF;" version="1.1" viewBox="0 0 1152 417" width="1152px" zoomAndPan="magnify"><defs/><g><!--class MainPageViewModel--><g id="elem_MainPageViewModel"><rect codeLine="1" fill="#F1F1F1" height="186.6406" id="MainPageViewModel" rx="2.5" ry="2.5" style="stroke:#181818;stroke-width:0.5;" width="690" x="7" y="115"/><ellipse cx="275.25" cy="135.1328" fill="#ADD1B2" rx="11" ry="11" style="stroke:#181818;stroke-width:1.0;"/><path d="M277.5938,130.8047 C276.6563,130.3672 276.0625,130.2266 275.1875,130.2266 C272.5625,130.2266 270.5625,132.3047 270.5625,135.0234 L270.5625,136.1484 C270.5625,138.7266 272.6719,140.6172 275.5625,140.6172 C276.7813,140.6172 277.9375,140.3203 278.6875,139.7734 C279.2656,139.3672 279.5938,138.9141 279.5938,138.5234 C279.5938,138.0703 279.2031,137.6797 278.7344,137.6797 C278.5156,137.6797 278.3125,137.7578 278.125,137.9453 C277.6719,138.4297 277.6719,138.4297 277.4844,138.5234 C277.0625,138.7891 276.375,138.9141 275.6094,138.9141 C273.5625,138.9141 272.2656,137.8203 272.2656,136.1172 L272.2656,135.0234 C272.2656,133.2422 273.5156,131.9297 275.25,131.9297 C275.8281,131.9297 276.4375,132.0859 276.9063,132.3359 C277.3906,132.6172 277.5625,132.8359 277.6563,133.2422 C277.7188,133.6484 277.75,133.7734 277.8906,133.8984 C278.0313,134.0391 278.2656,134.1484 278.4844,134.1484 C278.75,134.1484 279.0156,134.0078 279.1875,133.7891 C279.2969,133.6328 279.3281,133.4453 279.3281,133.0234 L279.3281,131.6016 C279.3281,131.1641 279.3125,131.0391 279.2188,130.8828 C279.0625,130.6172 278.7813,130.4766 278.4844,130.4766 C278.1875,130.4766 277.9844,130.5703 277.7656,130.8828 L277.5938,130.8047 Z " fill="#000000"/><text fill="#000000" font-family="sans-serif" font-size="12" font-style="italic" lengthAdjust="spacing" textLength="52" x="342.25" y="131.1387">&#171;partial&#187;</text><text fill="#000000" font-family="sans-serif" font-size="14" lengthAdjust="spacing" textLength="145" x="295.75" y="146.9639">MainPageViewModel</text><line style="stroke:#181818;stroke-width:0.5;" x1="8" x2="696" y1="155.2656" y2="155.2656"/><line style="stroke:#181818;stroke-width:0.5;" x1="8" x2="696" y1="163.2656" y2="163.2656"/><ellipse cx="18" cy="176.9141" fill="#84BE84" rx="3" ry="3" style="stroke:#038048;stroke-width:1.0;"/><text fill="#000000" font-family="sans-serif" font-size="14" lengthAdjust="spacing" textLength="155" x="27" y="180.2607">MainPageViewModel()</text><ellipse cx="18" cy="193.2109" fill="#84BE84" rx="3" ry="3" style="stroke:#038048;stroke-width:1.0;"/><text fill="#000000" font-family="sans-serif" font-size="14" lengthAdjust="spacing" textLength="170" x="27" y="196.5576">GetSauvegardes() : void</text><ellipse cx="18" cy="209.5078" fill="#84BE84" rx="3" ry="3" style="stroke:#038048;stroke-width:1.0;"/><text fill="#000000" font-family="sans-serif" font-size="14" lengthAdjust="spacing" textLength="247" x="27" y="212.8545">SetSelectedSave(save:Save) : void</text><ellipse cx="18" cy="225.8047" fill="#84BE84" rx="3" ry="3" style="stroke:#038048;stroke-width:1.0;"/><text fill="#000000" font-family="sans-serif" font-size="14" lengthAdjust="spacing" textLength="640" x="27" y="229.1514">AddSave(name:string, inputFolder:string, outputFolder:string, saveType:SaveType) : void</text><ellipse cx="18" cy="242.1016" fill="#84BE84" rx="3" ry="3" style="stroke:#038048;stroke-width:1.0;"/><text fill="#000000" font-family="sans-serif" font-size="14" lengthAdjust="spacing" textLength="664" x="27" y="245.4482">UpdateSave(name:string, inputFolder:string, outputFolder:string, saveType:SaveType) : void</text><ellipse cx="18" cy="258.3984" fill="#84BE84" rx="3" ry="3" style="stroke:#038048;stroke-width:1.0;"/><text fill="#000000" font-family="sans-serif" font-size="14" lengthAdjust="spacing" textLength="146" x="27" y="261.7451">RemoveSave() : void</text><ellipse cx="18" cy="274.6953" fill="#84BE84" rx="3" ry="3" style="stroke:#038048;stroke-width:1.0;"/><text fill="#000000" font-family="sans-serif" font-size="14" lengthAdjust="spacing" textLength="248" x="27" y="278.042">TogglePauseSave(save:Save) : void</text><ellipse cx="18" cy="290.9922" fill="#84BE84" rx="3" ry="3" style="stroke:#038048;stroke-width:1.0;"/><text fill="#000000" font-family="sans-serif" font-size="14" lengthAdjust="spacing" textLength="193" x="27" y="294.3389">StopSave(save:Save) : void</text></g><!--class ObservableCollection`1--><g id="elem_ObservableCollection`1"><rect codeLine="11" fill="#F1F1F1" height="48" id="ObservableCollection`1" rx="2.5" ry="2.5" style="stroke:#181818;stroke-width:0.5;" width="214" x="732" y="184.5"/><ellipse cx="747" cy="200.5" fill="#ADD1B2" rx="11" ry="11" style="stroke:#181818;stroke-width:1.0;"/><path d="M749.3438,196.1719 C748.4063,195.7344 747.8125,195.5938 746.9375,195.5938 C744.3125,195.5938 742.3125,197.6719 742.3125,200.3906 L742.3125,201.5156 C742.3125,204.0938 744.4219,205.9844 747.3125,205.9844 C748.5313,205.9844 749.6875,205.6875 750.4375,205.1406 C751.0156,204.7344 751.3438,204.2813 751.3438,203.8906 C751.3438,203.4375 750.9531,203.0469 750.4844,203.0469 C750.2656,203.0469 750.0625,203.125 749.875,203.3125 C749.4219,203.7969 749.4219,203.7969 749.2344,203.8906 C748.8125,204.1563 748.125,204.2813 747.3594,204.2813 C745.3125,204.2813 744.0156,203.1875 744.0156,201.4844 L744.0156,200.3906 C744.0156,198.6094 745.2656,197.2969 747,197.2969 C747.5781,197.2969 748.1875,197.4531 748.6563,197.7031 C749.1406,197.9844 749.3125,198.2031 749.4063,198.6094 C749.4688,199.0156 749.5,199.1406 749.6406,199.2656 C749.7813,199.4063 750.0156,199.5156 750.2344,199.5156 C750.5,199.5156 750.7656,199.375 750.9375,199.1563 C751.0469,199 751.0781,198.8125 751.0781,198.3906 L751.0781,196.9688 C751.0781,196.5313 751.0625,196.4063 750.9688,196.25 C750.8125,195.9844 750.5313,195.8438 750.2344,195.8438 C749.9375,195.8438 749.7344,195.9375 749.5156,196.25 L749.3438,196.1719 Z " fill="#000000"/><text fill="#000000" font-family="sans-serif" font-size="14" lengthAdjust="spacing" textLength="171" x="761" y="205.3467">ObservableCollection`1</text><rect fill="#FFFFFF" height="15.9688" style="stroke:#181818;stroke-width:1.0;stroke-dasharray:2.0,2.0;" width="9" x="940" y="181.5"/><text fill="#000000" font-family="sans-serif" font-size="12" font-style="italic" lengthAdjust="spacing" textLength="7" x="941" y="193.6387">T</text><line style="stroke:#181818;stroke-width:0.5;" x1="733" x2="945" y1="216.5" y2="216.5"/><line style="stroke:#181818;stroke-width:0.5;" x1="733" x2="945" y1="224.5" y2="224.5"/></g><!--class BaseViewModel--><g id="elem_BaseViewModel"><rect fill="#F1F1F1" height="48" id="BaseViewModel" rx="2.5" ry="2.5" style="stroke:#181818;stroke-width:0.5;" width="143" x="280.5" y="7"/><ellipse cx="295.5" cy="23" fill="#ADD1B2" rx="11" ry="11" style="stroke:#181818;stroke-width:1.0;"/><path d="M297.8438,18.6719 C296.9063,18.2344 296.3125,18.0938 295.4375,18.0938 C292.8125,18.0938 290.8125,20.1719 290.8125,22.8906 L290.8125,24.0156 C290.8125,26.5938 292.9219,28.4844 295.8125,28.4844 C297.0313,28.4844 298.1875,28.1875 298.9375,27.6406 C299.5156,27.2344 299.8438,26.7813 299.8438,26.3906 C299.8438,25.9375 299.4531,25.5469 298.9844,25.5469 C298.7656,25.5469 298.5625,25.625 298.375,25.8125 C297.9219,26.2969 297.9219,26.2969 297.7344,26.3906 C297.3125,26.6563 296.625,26.7813 295.8594,26.7813 C293.8125,26.7813 292.5156,25.6875 292.5156,23.9844 L292.5156,22.8906 C292.5156,21.1094 293.7656,19.7969 295.5,19.7969 C296.0781,19.7969 296.6875,19.9531 297.1563,20.2031 C297.6406,20.4844 297.8125,20.7031 297.9063,21.1094 C297.9688,21.5156 298,21.6406 298.1406,21.7656 C298.2813,21.9063 298.5156,22.0156 298.7344,22.0156 C299,22.0156 299.2656,21.875 299.4375,21.6563 C299.5469,21.5 299.5781,21.3125 299.5781,20.8906 L299.5781,19.4688 C299.5781,19.0313 299.5625,18.9063 299.4688,18.75 C299.3125,18.4844 299.0313,18.3438 298.7344,18.3438 C298.4375,18.3438 298.2344,18.4375 298.0156,18.75 L297.8438,18.6719 Z " fill="#000000"/><text fill="#000000" font-family="sans-serif" font-size="14" lengthAdjust="spacing" textLength="111" x="309.5" y="27.8467">BaseViewModel</text><line style="stroke:#181818;stroke-width:0.5;" x1="281.5" x2="422.5" y1="39" y2="39"/><line style="stroke:#181818;stroke-width:0.5;" x1="281.5" x2="422.5" y1="47" y2="47"/></g><!--class SaveConfiguration--><g id="elem_SaveConfiguration"><rect fill="#F1F1F1" height="48" id="SaveConfiguration" rx="2.5" ry="2.5" style="stroke:#181818;stroke-width:0.5;" width="164" x="981" y="184.5"/><ellipse cx="996" cy="200.5" fill="#ADD1B2" rx="11" ry="11" style="stroke:#181818;stroke-width:1.0;"/><path d="M998.3438,196.1719 C997.4063,195.7344 996.8125,195.5938 995.9375,195.5938 C993.3125,195.5938 991.3125,197.6719 991.3125,200.3906 L991.3125,201.5156 C991.3125,204.0938 993.4219,205.9844 996.3125,205.9844 C997.5313,205.9844 998.6875,205.6875 999.4375,205.1406 C1000.0156,204.7344 1000.3438,204.2813 1000.3438,203.8906 C1000.3438,203.4375 999.9531,203.0469 999.4844,203.0469 C999.2656,203.0469 999.0625,203.125 998.875,203.3125 C998.4219,203.7969 998.4219,203.7969 998.2344,203.8906 C997.8125,204.1563 997.125,204.2813 996.3594,204.2813 C994.3125,204.2813 993.0156,203.1875 993.0156,201.4844 L993.0156,200.3906 C993.0156,198.6094 994.2656,197.2969 996,197.2969 C996.5781,197.2969 997.1875,197.4531 997.6563,197.7031 C998.1406,197.9844 998.3125,198.2031 998.4063,198.6094 C998.4688,199.0156 998.5,199.1406 998.6406,199.2656 C998.7813,199.4063 999.0156,199.5156 999.2344,199.5156 C999.5,199.5156 999.7656,199.375 999.9375,199.1563 C1000.0469,199 1000.0781,198.8125 1000.0781,198.3906 L1000.0781,196.9688 C1000.0781,196.5313 1000.0625,196.4063 999.9688,196.25 C999.8125,195.9844 999.5313,195.8438 999.2344,195.8438 C998.9375,195.8438 998.7344,195.9375 998.5156,196.25 L998.3438,196.1719 Z " fill="#000000"/><text fill="#000000" font-family="sans-serif" font-size="14" lengthAdjust="spacing" textLength="132" x="1010" y="205.3467">SaveConfiguration</text><line style="stroke:#181818;stroke-width:0.5;" x1="982" x2="1144" y1="216.5" y2="216.5"/><line style="stroke:#181818;stroke-width:0.5;" x1="982" x2="1144" y1="224.5" y2="224.5"/></g><!--class SaveManager--><g id="elem_SaveManager"><rect fill="#F1F1F1" height="48" id="SaveManager" rx="2.5" ry="2.5" style="stroke:#181818;stroke-width:0.5;" width="127" x="222.5" y="362"/><ellipse cx="237.5" cy="378" fill="#ADD1B2" rx="11" ry="11" style="stroke:#181818;stroke-width:1.0;"/><path d="M239.8438,373.6719 C238.9063,373.2344 238.3125,373.0938 237.4375,373.0938 C234.8125,373.0938 232.8125,375.1719 232.8125,377.8906 L232.8125,379.0156 C232.8125,381.5938 234.9219,383.4844 237.8125,383.4844 C239.0313,383.4844 240.1875,383.1875 240.9375,382.6406 C241.5156,382.2344 241.8438,381.7813 241.8438,381.3906 C241.8438,380.9375 241.4531,380.5469 240.9844,380.5469 C240.7656,380.5469 240.5625,380.625 240.375,380.8125 C239.9219,381.2969 239.9219,381.2969 239.7344,381.3906 C239.3125,381.6563 238.625,381.7813 237.8594,381.7813 C235.8125,381.7813 234.5156,380.6875 234.5156,378.9844 L234.5156,377.8906 C234.5156,376.1094 235.7656,374.7969 237.5,374.7969 C238.0781,374.7969 238.6875,374.9531 239.1563,375.2031 C239.6406,375.4844 239.8125,375.7031 239.9063,376.1094 C239.9688,376.5156 240,376.6406 240.1406,376.7656 C240.2813,376.9063 240.5156,377.0156 240.7344,377.0156 C241,377.0156 241.2656,376.875 241.4375,376.6563 C241.5469,376.5 241.5781,376.3125 241.5781,375.8906 L241.5781,374.4688 C241.5781,374.0313 241.5625,373.9063 241.4688,373.75 C241.3125,373.4844 241.0313,373.3438 240.7344,373.3438 C240.4375,373.3438 240.2344,373.4375 240.0156,373.75 L239.8438,373.6719 Z " fill="#000000"/><text fill="#000000" font-family="sans-serif" font-size="14" lengthAdjust="spacing" textLength="95" x="251.5" y="382.8467">SaveManager</text><line style="stroke:#181818;stroke-width:0.5;" x1="223.5" x2="348.5" y1="394" y2="394"/><line style="stroke:#181818;stroke-width:0.5;" x1="223.5" x2="348.5" y1="402" y2="402"/></g><!--class Save--><g id="elem_Save"><rect fill="#F1F1F1" height="48" id="Save" rx="2.5" ry="2.5" style="stroke:#181818;stroke-width:0.5;" width="66" x="385" y="362"/><ellipse cx="400" cy="378" fill="#ADD1B2" rx="11" ry="11" style="stroke:#181818;stroke-width:1.0;"/><path d="M402.3438,373.6719 C401.4063,373.2344 400.8125,373.0938 399.9375,373.0938 C397.3125,373.0938 395.3125,375.1719 395.3125,377.8906 L395.3125,379.0156 C395.3125,381.5938 397.4219,383.4844 400.3125,383.4844 C401.5313,383.4844 402.6875,383.1875 403.4375,382.6406 C404.0156,382.2344 404.3438,381.7813 404.3438,381.3906 C404.3438,380.9375 403.9531,380.5469 403.4844,380.5469 C403.2656,380.5469 403.0625,380.625 402.875,380.8125 C402.4219,381.2969 402.4219,381.2969 402.2344,381.3906 C401.8125,381.6563 401.125,381.7813 400.3594,381.7813 C398.3125,381.7813 397.0156,380.6875 397.0156,378.9844 L397.0156,377.8906 C397.0156,376.1094 398.2656,374.7969 400,374.7969 C400.5781,374.7969 401.1875,374.9531 401.6563,375.2031 C402.1406,375.4844 402.3125,375.7031 402.4063,376.1094 C402.4688,376.5156 402.5,376.6406 402.6406,376.7656 C402.7813,376.9063 403.0156,377.0156 403.2344,377.0156 C403.5,377.0156 403.7656,376.875 403.9375,376.6563 C404.0469,376.5 404.0781,376.3125 404.0781,375.8906 L404.0781,374.4688 C404.0781,374.0313 404.0625,373.9063 403.9688,373.75 C403.8125,373.4844 403.5313,373.3438 403.2344,373.3438 C402.9375,373.3438 402.7344,373.4375 402.5156,373.75 L402.3438,373.6719 Z " fill="#000000"/><text fill="#000000" font-family="sans-serif" font-size="14" lengthAdjust="spacing" textLength="34" x="414" y="382.8467">Save</text><line style="stroke:#181818;stroke-width:0.5;" x1="386" x2="450" y1="394" y2="394"/><line style="stroke:#181818;stroke-width:0.5;" x1="386" x2="450" y1="402" y2="402"/></g><!--reverse link BaseViewModel to MainPageViewModel--><g id="link_BaseViewModel_MainPageViewModel"><path codeLine="13" d="M352,73.305 C352,88.97 352,92.74 352,114.924 " fill="none" id="BaseViewModel-backto-MainPageViewModel" style="stroke:#181818;stroke-width:1.0;"/><polygon fill="none" points="352,55.305,346,73.305,358,73.305,352,55.305" style="stroke:#181818;stroke-width:1.0;"/></g><!--link MainPageViewModel to SaveConfiguration--><g id="link_MainPageViewModel_SaveConfiguration"><path codeLine="14" d="M546.1153,110.4937 C666.7353,62.0747 814.983,28.264 946.5,85 C993.321,105.199 1026.8486,149.4298 1045.7586,179.2738 " fill="none" id="MainPageViewModel-SaveConfiguration" style="stroke:#181818;stroke-width:1.0;"/><polygon fill="none" points="534.979,114.964,542.0372,116.4409,546.1153,110.4937,539.057,109.0168,534.979,114.964" style="stroke:#181818;stroke-width:1.0;"/><polygon fill="#181818" points="1048.97,184.342,1047.5318,174.5987,1046.2939,180.1185,1040.7741,178.8806,1048.97,184.342" style="stroke:#181818;stroke-width:1.0;"/><text fill="#000000" font-family="sans-serif" font-size="13" lengthAdjust="spacing" textLength="124" x="951.9728" y="173.476">_saveConfiguration</text></g><!--link MainPageViewModel to SaveManager--><g id="link_MainPageViewModel_SaveManager"><path codeLine="15" d="M317.164,302.132 C308.797,324.3802 302.6998,340.5922 296.8098,356.2563 " fill="none" id="MainPageViewModel-to-SaveManager" style="stroke:#181818;stroke-width:1.0;"/><polygon fill="#181818" points="294.698,361.8724,301.6097,354.8561,296.4578,357.1923,294.1216,352.0404,294.698,361.8724" style="stroke:#181818;stroke-width:1.0;"/><text fill="#000000" font-family="sans-serif" font-size="13" lengthAdjust="spacing" textLength="93" x="192.0112" y="350.8517">_saveManager</text></g><!--link MainPageViewModel to ObservableCollection`1--><g id="link_MainPageViewModel_ObservableCollection`1"><path codeLine="16" d="M709.275,208.5 C720.809,208.5 714.343,208.5 725.876,208.5 " fill="none" id="MainPageViewModel-ObservableCollection`1" style="stroke:#181818;stroke-width:1.0;"/><polygon fill="none" points="697.275,208.5,703.275,212.5,709.275,208.5,703.275,204.5,697.275,208.5" style="stroke:#181818;stroke-width:1.0;"/><polygon fill="#181818" points="731.876,208.5,722.876,204.5,726.876,208.5,722.876,212.5,731.876,208.5" style="stroke:#181818;stroke-width:1.0;"/><text fill="#000000" font-family="sans-serif" font-size="13" lengthAdjust="spacing" textLength="91" x="631.8391" y="228.4437">Saves&lt;Save&gt;</text></g><!--link MainPageViewModel to Save--><g id="link_MainPageViewModel_Save"><path codeLine="17" d="M386.836,302.132 C395.203,324.3802 401.3002,340.5922 407.1902,356.2563 " fill="none" id="MainPageViewModel-to-Save" style="stroke:#181818;stroke-width:1.0;"/><polygon fill="#181818" points="409.302,361.8724,409.8784,352.0404,407.5422,357.1923,402.3903,354.8561,409.302,361.8724" style="stroke:#181818;stroke-width:1.0;"/><text fill="#000000" font-family="sans-serif" font-size="13" lengthAdjust="spacing" textLength="87" x="342.7513" y="350.8517">SelectedSave</text></g><!--SRC=[jL9DIyGm4BttLuIUkcWFNaifw8AUYekfNdMs6KCWcodvg8ZkVxUnPLbQwsrp62RpPjuZyz9gS8xLeCmE9Bue_AX9e6PbsO7r2dHLiQ-43UTgsPLj9kG1FOVGemGhq6KRLh2Ub9XGFg2eiVKeEFIOkI4KCPlrtOeHDt30mdchZBncodJ1tvCMQ4yr2dvPZApDPpSonsJ6_jm9y7X1WISyK3yAp926fDIuW-3mtmLmJzrAmp5fVvrA7_SERGzxZLlISQcApDjDMZRHfsDo1-xSnUyyNzgMBEscl6BfQvJTadbNCbY8n2dZyz8Vm_bfk0Op87OScovhQh75bJ5MwUgprjJE_zEezWC0]--></g></svg>