<?xml version="1.0" encoding="us-ascii" standalone="no"?><svg xmlns="http://www.w3.org/2000/svg" xmlns:xlink="http://www.w3.org/1999/xlink" contentStyleType="text/css" height="202px" preserveAspectRatio="none" style="width:318px;height:202px;background:#FFFFFF;" version="1.1" viewBox="0 0 318 202" width="318px" zoomAndPan="magnify"><defs/><g><!--class Program--><g id="elem_Program"><rect codeLine="1" fill="#F1F1F1" height="80.5938" id="Program" rx="2.5" ry="2.5" style="stroke:#181818;stroke-width:0.5;" width="302" x="9" y="115"/><ellipse cx="125.25" cy="131" fill="#ADD1B2" rx="11" ry="11" style="stroke:#181818;stroke-width:1.0;"/><path d="M127.5938,126.6719 C126.6563,126.2344 126.0625,126.0938 125.1875,126.0938 C122.5625,126.0938 120.5625,128.1719 120.5625,130.8906 L120.5625,132.0156 C120.5625,134.5938 122.6719,136.4844 125.5625,136.4844 C126.7813,136.4844 127.9375,136.1875 128.6875,135.6406 C129.2656,135.2344 129.5938,134.7813 129.5938,134.3906 C129.5938,133.9375 129.2031,133.5469 128.7344,133.5469 C128.5156,133.5469 128.3125,133.625 128.125,133.8125 C127.6719,134.2969 127.6719,134.2969 127.4844,134.3906 C127.0625,134.6563 126.375,134.7813 125.6094,134.7813 C123.5625,134.7813 122.2656,133.6875 122.2656,131.9844 L122.2656,130.8906 C122.2656,129.1094 123.5156,127.7969 125.25,127.7969 C125.8281,127.7969 126.4375,127.9531 126.9063,128.2031 C127.3906,128.4844 127.5625,128.7031 127.6563,129.1094 C127.7188,129.5156 127.75,129.6406 127.8906,129.7656 C128.0313,129.9063 128.2656,130.0156 128.4844,130.0156 C128.75,130.0156 129.0156,129.875 129.1875,129.6563 C129.2969,129.5 129.3281,129.3125 129.3281,128.8906 L129.3281,127.4688 C129.3281,127.0313 129.3125,126.9063 129.2188,126.75 C129.0625,126.4844 128.7813,126.3438 128.4844,126.3438 C128.1875,126.3438 127.9844,126.4375 127.7656,126.75 L127.5938,126.6719 Z " fill="#000000"/><text fill="#000000" font-family="sans-serif" font-size="14" lengthAdjust="spacing" textLength="61" x="145.75" y="135.8467">Program</text><line style="stroke:#181818;stroke-width:0.5;" x1="10" x2="310" y1="147" y2="147"/><line style="stroke:#181818;stroke-width:0.5;" x1="10" x2="310" y1="155" y2="155"/><polygon fill="#FFFF44" points="20,163.6484,24,167.6484,20,171.6484,16,167.6484" style="stroke:#B38D22;stroke-width:1.0;"/><text fill="#000000" font-family="sans-serif" font-size="14" lengthAdjust="spacing" textLength="276" x="29" y="171.9951">&#171;override&#187; CreateMauiApp() : MauiApp</text><rect fill="#F24D5C" height="6" style="stroke:#C82930;stroke-width:1.0;" width="6" x="17" y="181.9453"/><text fill="#000000" font-family="sans-serif" font-size="14" lengthAdjust="spacing" text-decoration="underline" textLength="173" x="29" y="188.292">Main(args:string[]) : void</text></g><!--class MauiApplication--><g id="elem_MauiApplication"><rect fill="#F1F1F1" height="48" id="MauiApplication" rx="2.5" ry="2.5" style="stroke:#181818;stroke-width:0.5;" width="147" x="86.5" y="7"/><ellipse cx="101.5" cy="23" fill="#ADD1B2" rx="11" ry="11" style="stroke:#181818;stroke-width:1.0;"/><path d="M103.8438,18.6719 C102.9063,18.2344 102.3125,18.0938 101.4375,18.0938 C98.8125,18.0938 96.8125,20.1719 96.8125,22.8906 L96.8125,24.0156 C96.8125,26.5938 98.9219,28.4844 101.8125,28.4844 C103.0313,28.4844 104.1875,28.1875 104.9375,27.6406 C105.5156,27.2344 105.8438,26.7813 105.8438,26.3906 C105.8438,25.9375 105.4531,25.5469 104.9844,25.5469 C104.7656,25.5469 104.5625,25.625 104.375,25.8125 C103.9219,26.2969 103.9219,26.2969 103.7344,26.3906 C103.3125,26.6563 102.625,26.7813 101.8594,26.7813 C99.8125,26.7813 98.5156,25.6875 98.5156,23.9844 L98.5156,22.8906 C98.5156,21.1094 99.7656,19.7969 101.5,19.7969 C102.0781,19.7969 102.6875,19.9531 103.1563,20.2031 C103.6406,20.4844 103.8125,20.7031 103.9063,21.1094 C103.9688,21.5156 104,21.6406 104.1406,21.7656 C104.2813,21.9063 104.5156,22.0156 104.7344,22.0156 C105,22.0156 105.2656,21.875 105.4375,21.6563 C105.5469,21.5 105.5781,21.3125 105.5781,20.8906 L105.5781,19.4688 C105.5781,19.0313 105.5625,18.9063 105.4688,18.75 C105.3125,18.4844 105.0313,18.3438 104.7344,18.3438 C104.4375,18.3438 104.2344,18.4375 104.0156,18.75 L103.8438,18.6719 Z " fill="#000000"/><text fill="#000000" font-family="sans-serif" font-size="14" lengthAdjust="spacing" textLength="115" x="115.5" y="27.8467">MauiApplication</text><line style="stroke:#181818;stroke-width:0.5;" x1="87.5" x2="232.5" y1="39" y2="39"/><line style="stroke:#181818;stroke-width:0.5;" x1="87.5" x2="232.5" y1="47" y2="47"/></g><!--reverse link MauiApplication to Program--><g id="link_MauiApplication_Program"><path codeLine="5" d="M160,73.041 C160,89.814 160,94.95 160,114.6881 " fill="none" id="MauiApplication-backto-Program" style="stroke:#181818;stroke-width:1.0;"/><polygon fill="none" points="160,55.041,154,73.041,166,73.041,160,55.041" style="stroke:#181818;stroke-width:1.0;"/></g><!--SRC=[Iyv9B2vM22ZAJozAp5Mevb800cK56vlyijIYeioKL3ix1UUYrCIILD_4qap7WW8DJGKh1IWRhBYwk2In93EvLa4NA9oPfv5Ob5viLLnIb9cN7XqBKboMdvd2LSi5rPEJcGnKdf-dO5EZgmkp5m00]--></g></svg>