<?xml version="1.0" encoding="us-ascii" standalone="no"?><svg xmlns="http://www.w3.org/2000/svg" xmlns:xlink="http://www.w3.org/1999/xlink" contentStyleType="text/css" height="202px" preserveAspectRatio="none" style="width:492px;height:202px;background:#FFFFFF;" version="1.1" viewBox="0 0 492 202" width="492px" zoomAndPan="magnify"><defs/><g><!--class MainApplication--><g id="elem_MainApplication"><rect codeLine="1" fill="#F1F1F1" height="80.5938" id="MainApplication" rx="2.5" ry="2.5" style="stroke:#181818;stroke-width:0.5;" width="476" x="9" y="115"/><ellipse cx="184.75" cy="131" fill="#ADD1B2" rx="11" ry="11" style="stroke:#181818;stroke-width:1.0;"/><path d="M187.0938,126.6719 C186.1563,126.2344 185.5625,126.0938 184.6875,126.0938 C182.0625,126.0938 180.0625,128.1719 180.0625,130.8906 L180.0625,132.0156 C180.0625,134.5938 182.1719,136.4844 185.0625,136.4844 C186.2813,136.4844 187.4375,136.1875 188.1875,135.6406 C188.7656,135.2344 189.0938,134.7813 189.0938,134.3906 C189.0938,133.9375 188.7031,133.5469 188.2344,133.5469 C188.0156,133.5469 187.8125,133.625 187.625,133.8125 C187.1719,134.2969 187.1719,134.2969 186.9844,134.3906 C186.5625,134.6563 185.875,134.7813 185.1094,134.7813 C183.0625,134.7813 181.7656,133.6875 181.7656,131.9844 L181.7656,130.8906 C181.7656,129.1094 183.0156,127.7969 184.75,127.7969 C185.3281,127.7969 185.9375,127.9531 186.4063,128.2031 C186.8906,128.4844 187.0625,128.7031 187.1563,129.1094 C187.2188,129.5156 187.25,129.6406 187.3906,129.7656 C187.5313,129.9063 187.7656,130.0156 187.9844,130.0156 C188.25,130.0156 188.5156,129.875 188.6875,129.6563 C188.7969,129.5 188.8281,129.3125 188.8281,128.8906 L188.8281,127.4688 C188.8281,127.0313 188.8125,126.9063 188.7188,126.75 C188.5625,126.4844 188.2813,126.3438 187.9844,126.3438 C187.6875,126.3438 187.4844,126.4375 187.2656,126.75 L187.0938,126.6719 Z " fill="#000000"/><text fill="#000000" font-family="sans-serif" font-size="14" lengthAdjust="spacing" textLength="116" x="205.25" y="135.8467">MainApplication</text><line style="stroke:#181818;stroke-width:0.5;" x1="10" x2="484" y1="147" y2="147"/><line style="stroke:#181818;stroke-width:0.5;" x1="10" x2="484" y1="155" y2="155"/><ellipse cx="20" cy="168.6484" fill="#84BE84" rx="3" ry="3" style="stroke:#038048;stroke-width:1.0;"/><text fill="#000000" font-family="sans-serif" font-size="14" lengthAdjust="spacing" textLength="450" x="29" y="171.9951">MainApplication(handle:IntPtr, ownership:JniHandleOwnership)</text><polygon fill="#FFFF44" points="20,179.9453,24,183.9453,20,187.9453,16,183.9453" style="stroke:#B38D22;stroke-width:1.0;"/><text fill="#000000" font-family="sans-serif" font-size="14" lengthAdjust="spacing" textLength="276" x="29" y="188.292">&#171;override&#187; CreateMauiApp() : MauiApp</text></g><!--class MauiApplication--><g id="elem_MauiApplication"><rect fill="#F1F1F1" height="48" id="MauiApplication" rx="2.5" ry="2.5" style="stroke:#181818;stroke-width:0.5;" width="147" x="173.5" y="7"/><ellipse cx="188.5" cy="23" fill="#ADD1B2" rx="11" ry="11" style="stroke:#181818;stroke-width:1.0;"/><path d="M190.8438,18.6719 C189.9063,18.2344 189.3125,18.0938 188.4375,18.0938 C185.8125,18.0938 183.8125,20.1719 183.8125,22.8906 L183.8125,24.0156 C183.8125,26.5938 185.9219,28.4844 188.8125,28.4844 C190.0313,28.4844 191.1875,28.1875 191.9375,27.6406 C192.5156,27.2344 192.8438,26.7813 192.8438,26.3906 C192.8438,25.9375 192.4531,25.5469 191.9844,25.5469 C191.7656,25.5469 191.5625,25.625 191.375,25.8125 C190.9219,26.2969 190.9219,26.2969 190.7344,26.3906 C190.3125,26.6563 189.625,26.7813 188.8594,26.7813 C186.8125,26.7813 185.5156,25.6875 185.5156,23.9844 L185.5156,22.8906 C185.5156,21.1094 186.7656,19.7969 188.5,19.7969 C189.0781,19.7969 189.6875,19.9531 190.1563,20.2031 C190.6406,20.4844 190.8125,20.7031 190.9063,21.1094 C190.9688,21.5156 191,21.6406 191.1406,21.7656 C191.2813,21.9063 191.5156,22.0156 191.7344,22.0156 C192,22.0156 192.2656,21.875 192.4375,21.6563 C192.5469,21.5 192.5781,21.3125 192.5781,20.8906 L192.5781,19.4688 C192.5781,19.0313 192.5625,18.9063 192.4688,18.75 C192.3125,18.4844 192.0313,18.3438 191.7344,18.3438 C191.4375,18.3438 191.2344,18.4375 191.0156,18.75 L190.8438,18.6719 Z " fill="#000000"/><text fill="#000000" font-family="sans-serif" font-size="14" lengthAdjust="spacing" textLength="115" x="202.5" y="27.8467">MauiApplication</text><line style="stroke:#181818;stroke-width:0.5;" x1="174.5" x2="319.5" y1="39" y2="39"/><line style="stroke:#181818;stroke-width:0.5;" x1="174.5" x2="319.5" y1="47" y2="47"/></g><!--reverse link MauiApplication to MainApplication--><g id="link_MauiApplication_MainApplication"><path codeLine="5" d="M247,73.041 C247,89.814 247,94.95 247,114.6881 " fill="none" id="MauiApplication-backto-MainApplication" style="stroke:#181818;stroke-width:1.0;"/><polygon fill="none" points="247,55.041,241,73.041,253,73.041,247,55.041" style="stroke:#181818;stroke-width:1.0;"/></g><!--SRC=[Iyv9B2vMy4tCp7CiACZ9J4uioSpFKwZcKW02RNHnZOp4l9ISL2lFl9A0aY8TXVpolDIYuepC0Ykll4mFi9m_J4WJR8IoWerDVbbgKL5cIggTdO9pKMfYIQflOcacq5GDJGKh1IYRgvOBoeAxmQP6LnVT0G00]--></g></svg>