<?xml version="1.0" encoding="us-ascii" standalone="no"?><svg xmlns="http://www.w3.org/2000/svg" xmlns:xlink="http://www.w3.org/1999/xlink" contentStyleType="text/css" height="170px" preserveAspectRatio="none" style="width:222px;height:170px;background:#FFFFFF;" version="1.1" viewBox="0 0 222 170" width="222px" zoomAndPan="magnify"><defs/><g><!--class MainActivity--><g id="elem_MainActivity"><rect codeLine="1" fill="#F1F1F1" height="48" id="MainActivity" rx="2.5" ry="2.5" style="stroke:#181818;stroke-width:0.5;" width="121" x="50.5" y="115"/><ellipse cx="65.5" cy="131" fill="#ADD1B2" rx="11" ry="11" style="stroke:#181818;stroke-width:1.0;"/><path d="M67.8438,126.6719 C66.9063,126.2344 66.3125,126.0938 65.4375,126.0938 C62.8125,126.0938 60.8125,128.1719 60.8125,130.8906 L60.8125,132.0156 C60.8125,134.5938 62.9219,136.4844 65.8125,136.4844 C67.0313,136.4844 68.1875,136.1875 68.9375,135.6406 C69.5156,135.2344 69.8438,134.7813 69.8438,134.3906 C69.8438,133.9375 69.4531,133.5469 68.9844,133.5469 C68.7656,133.5469 68.5625,133.625 68.375,133.8125 C67.9219,134.2969 67.9219,134.2969 67.7344,134.3906 C67.3125,134.6563 66.625,134.7813 65.8594,134.7813 C63.8125,134.7813 62.5156,133.6875 62.5156,131.9844 L62.5156,130.8906 C62.5156,129.1094 63.7656,127.7969 65.5,127.7969 C66.0781,127.7969 66.6875,127.9531 67.1563,128.2031 C67.6406,128.4844 67.8125,128.7031 67.9063,129.1094 C67.9688,129.5156 68,129.6406 68.1406,129.7656 C68.2813,129.9063 68.5156,130.0156 68.7344,130.0156 C69,130.0156 69.2656,129.875 69.4375,129.6563 C69.5469,129.5 69.5781,129.3125 69.5781,128.8906 L69.5781,127.4688 C69.5781,127.0313 69.5625,126.9063 69.4688,126.75 C69.3125,126.4844 69.0313,126.3438 68.7344,126.3438 C68.4375,126.3438 68.2344,126.4375 68.0156,126.75 L67.8438,126.6719 Z " fill="#000000"/><text fill="#000000" font-family="sans-serif" font-size="14" lengthAdjust="spacing" textLength="89" x="79.5" y="135.8467">MainActivity</text><line style="stroke:#181818;stroke-width:0.5;" x1="51.5" x2="170.5" y1="147" y2="147"/><line style="stroke:#181818;stroke-width:0.5;" x1="51.5" x2="170.5" y1="155" y2="155"/></g><!--class MauiAppCompatActivity--><g id="elem_MauiAppCompatActivity"><rect fill="#F1F1F1" height="48" id="MauiAppCompatActivity" rx="2.5" ry="2.5" style="stroke:#181818;stroke-width:0.5;" width="208" x="7" y="7"/><ellipse cx="22" cy="23" fill="#ADD1B2" rx="11" ry="11" style="stroke:#181818;stroke-width:1.0;"/><path d="M24.3438,18.6719 C23.4063,18.2344 22.8125,18.0938 21.9375,18.0938 C19.3125,18.0938 17.3125,20.1719 17.3125,22.8906 L17.3125,24.0156 C17.3125,26.5938 19.4219,28.4844 22.3125,28.4844 C23.5313,28.4844 24.6875,28.1875 25.4375,27.6406 C26.0156,27.2344 26.3438,26.7813 26.3438,26.3906 C26.3438,25.9375 25.9531,25.5469 25.4844,25.5469 C25.2656,25.5469 25.0625,25.625 24.875,25.8125 C24.4219,26.2969 24.4219,26.2969 24.2344,26.3906 C23.8125,26.6563 23.125,26.7813 22.3594,26.7813 C20.3125,26.7813 19.0156,25.6875 19.0156,23.9844 L19.0156,22.8906 C19.0156,21.1094 20.2656,19.7969 22,19.7969 C22.5781,19.7969 23.1875,19.9531 23.6563,20.2031 C24.1406,20.4844 24.3125,20.7031 24.4063,21.1094 C24.4688,21.5156 24.5,21.6406 24.6406,21.7656 C24.7813,21.9063 25.0156,22.0156 25.2344,22.0156 C25.5,22.0156 25.7656,21.875 25.9375,21.6563 C26.0469,21.5 26.0781,21.3125 26.0781,20.8906 L26.0781,19.4688 C26.0781,19.0313 26.0625,18.9063 25.9688,18.75 C25.8125,18.4844 25.5313,18.3438 25.2344,18.3438 C24.9375,18.3438 24.7344,18.4375 24.5156,18.75 L24.3438,18.6719 Z " fill="#000000"/><text fill="#000000" font-family="sans-serif" font-size="14" lengthAdjust="spacing" textLength="176" x="36" y="27.8467">MauiAppCompatActivity</text><line style="stroke:#181818;stroke-width:0.5;" x1="8" x2="214" y1="39" y2="39"/><line style="stroke:#181818;stroke-width:0.5;" x1="8" x2="214" y1="47" y2="47"/></g><!--reverse link MauiAppCompatActivity to MainActivity--><g id="link_MauiAppCompatActivity_MainActivity"><path codeLine="3" d="M111,73 C111,90.6584 111,96.9408 111,114.6784 " fill="none" id="MauiAppCompatActivity-backto-MainActivity" style="stroke:#181818;stroke-width:1.0;"/><polygon fill="none" points="111,55,105,73,117,73,111,55" style="stroke:#181818;stroke-width:1.0;"/></g><!--SRC=[Iyv9B2vMy4tCp7DCBiaiooofLAZcgkNoJIpDT2meSCxFBKWiWSlOrEZgegW50000]--></g></svg>