<?xml version="1.0" encoding="us-ascii" standalone="no"?><svg xmlns="http://www.w3.org/2000/svg" xmlns:xlink="http://www.w3.org/1999/xlink" contentStyleType="text/css" height="563px" preserveAspectRatio="none" style="width:728px;height:563px;background:#FFFFFF;" version="1.1" viewBox="0 0 728 563" width="728px" zoomAndPan="magnify"><defs/><g><!--class MainPage--><g id="elem_MainPage"><rect codeLine="1" fill="#F1F1F1" height="333.3125" id="MainPage" rx="2.5" ry="2.5" style="stroke:#181818;stroke-width:0.5;" width="712" x="9" y="115"/><ellipse cx="326.75" cy="135.1328" fill="#ADD1B2" rx="11" ry="11" style="stroke:#181818;stroke-width:1.0;"/><path d="M329.0938,130.8047 C328.1563,130.3672 327.5625,130.2266 326.6875,130.2266 C324.0625,130.2266 322.0625,132.3047 322.0625,135.0234 L322.0625,136.1484 C322.0625,138.7266 324.1719,140.6172 327.0625,140.6172 C328.2813,140.6172 329.4375,140.3203 330.1875,139.7734 C330.7656,139.3672 331.0938,138.9141 331.0938,138.5234 C331.0938,138.0703 330.7031,137.6797 330.2344,137.6797 C330.0156,137.6797 329.8125,137.7578 329.625,137.9453 C329.1719,138.4297 329.1719,138.4297 328.9844,138.5234 C328.5625,138.7891 327.875,138.9141 327.1094,138.9141 C325.0625,138.9141 323.7656,137.8203 323.7656,136.1172 L323.7656,135.0234 C323.7656,133.2422 325.0156,131.9297 326.75,131.9297 C327.3281,131.9297 327.9375,132.0859 328.4063,132.3359 C328.8906,132.6172 329.0625,132.8359 329.1563,133.2422 C329.2188,133.6484 329.25,133.7734 329.3906,133.8984 C329.5313,134.0391 329.7656,134.1484 329.9844,134.1484 C330.25,134.1484 330.5156,134.0078 330.6875,133.7891 C330.7969,133.6328 330.8281,133.4453 330.8281,133.0234 L330.8281,131.6016 C330.8281,131.1641 330.8125,131.0391 330.7188,130.8828 C330.5625,130.6172 330.2813,130.4766 329.9844,130.4766 C329.6875,130.4766 329.4844,130.5703 329.2656,130.8828 L329.0938,130.8047 Z " fill="#000000"/><text fill="#000000" font-family="sans-serif" font-size="12" font-style="italic" lengthAdjust="spacing" textLength="52" x="355.25" y="131.1387">&#171;partial&#187;</text><text fill="#000000" font-family="sans-serif" font-size="14" lengthAdjust="spacing" textLength="68" x="347.25" y="146.9639">MainPage</text><line style="stroke:#181818;stroke-width:0.5;" x1="10" x2="720" y1="155.2656" y2="155.2656"/><ellipse cx="20" cy="168.9141" fill="none" rx="3" ry="3" style="stroke:#038048;stroke-width:1.0;"/><text fill="#000000" font-family="sans-serif" font-size="14" lengthAdjust="spacing" textLength="139" x="29" y="172.2607">IsNew : bool = false</text><line style="stroke:#181818;stroke-width:0.5;" x1="10" x2="720" y1="179.5625" y2="179.5625"/><ellipse cx="20" cy="193.2109" fill="#84BE84" rx="3" ry="3" style="stroke:#038048;stroke-width:1.0;"/><text fill="#000000" font-family="sans-serif" font-size="14" lengthAdjust="spacing" textLength="303" x="29" y="196.5576">MainPage(viewModel:MainPageViewModel)</text><rect fill="#F24D5C" height="6" style="stroke:#C82930;stroke-width:1.0;" width="6" x="17" y="206.5078"/><text fill="#000000" font-family="sans-serif" font-size="14" lengthAdjust="spacing" textLength="194" x="29" y="212.8545">LoadLocalizedTexts() : void</text><polygon fill="#FFFF44" points="20,220.8047,24,224.8047,20,228.8047,16,224.8047" style="stroke:#B38D22;stroke-width:1.0;"/><text fill="#000000" font-family="sans-serif" font-size="14" lengthAdjust="spacing" textLength="228" x="29" y="229.1514">&#171;override&#187; OnAppearing() : void</text><rect fill="#F24D5C" height="6" style="stroke:#C82930;stroke-width:1.0;" width="6" x="17" y="239.1016"/><text fill="#000000" font-family="sans-serif" font-size="14" lengthAdjust="spacing" textLength="133" x="29" y="245.4482">ResetInput() : void</text><rect fill="#F24D5C" height="6" style="stroke:#C82930;stroke-width:1.0;" width="6" x="17" y="255.3984"/><text fill="#000000" font-family="sans-serif" font-size="14" lengthAdjust="spacing" textLength="686" x="29" y="261.7451">&#171;async&#187; CollectionView_SelectionChanged(sender:object, e:SelectionChangedEventArgs) : void</text><rect fill="#F24D5C" height="6" style="stroke:#C82930;stroke-width:1.0;" width="6" x="17" y="271.6953"/><text fill="#000000" font-family="sans-serif" font-size="14" lengthAdjust="spacing" textLength="401" x="29" y="278.042">ReturnHome_Clicked(sender:object, e:EventArgs) : void</text><rect fill="#F24D5C" height="6" style="stroke:#C82930;stroke-width:1.0;" width="6" x="17" y="287.9922"/><text fill="#000000" font-family="sans-serif" font-size="14" lengthAdjust="spacing" textLength="394" x="29" y="294.3389">SaveButton_Clicked(sender:object, e:EventArgs) : void</text><rect fill="#F24D5C" height="6" style="stroke:#C82930;stroke-width:1.0;" width="6" x="17" y="304.2891"/><text fill="#000000" font-family="sans-serif" font-size="14" lengthAdjust="spacing" textLength="422" x="29" y="310.6357">AddSaveButton_Clicked(sender:object, e:EventArgs) : void</text><rect fill="#F24D5C" height="6" style="stroke:#C82930;stroke-width:1.0;" width="6" x="17" y="320.5859"/><text fill="#000000" font-family="sans-serif" font-size="14" lengthAdjust="spacing" textLength="503" x="29" y="326.9326">&#171;async&#187; ParametersButton_Clicked(sender:object, e:EventArgs) : void</text><rect fill="#F24D5C" height="6" style="stroke:#C82930;stroke-width:1.0;" width="6" x="17" y="336.8828"/><text fill="#000000" font-family="sans-serif" font-size="14" lengthAdjust="spacing" textLength="409" x="29" y="343.2295">DeleteButton_Clicked(sender:object, e:EventArgs) : void</text><rect fill="#F24D5C" height="6" style="stroke:#C82930;stroke-width:1.0;" width="6" x="17" y="353.1797"/><text fill="#000000" font-family="sans-serif" font-size="14" lengthAdjust="spacing" textLength="496" x="29" y="359.5264">&#171;async&#187; ButtonNavigation_Clicked(sender:object, e:EventArgs) : void</text><rect fill="#F24D5C" height="6" style="stroke:#C82930;stroke-width:1.0;" width="6" x="17" y="369.4766"/><text fill="#000000" font-family="sans-serif" font-size="14" lengthAdjust="spacing" textLength="423" x="29" y="375.8232">&#171;async&#187; PickInputFolder(sender:object, e:EventArgs) : void</text><rect fill="#F24D5C" height="6" style="stroke:#C82930;stroke-width:1.0;" width="6" x="17" y="385.7734"/><text fill="#000000" font-family="sans-serif" font-size="14" lengthAdjust="spacing" textLength="436" x="29" y="392.1201">&#171;async&#187; PickOutputFolder(sender:object, e:EventArgs) : void</text><rect fill="#F24D5C" height="6" style="stroke:#C82930;stroke-width:1.0;" width="6" x="17" y="402.0703"/><text fill="#000000" font-family="sans-serif" font-size="14" lengthAdjust="spacing" textLength="277" x="29" y="408.417">&#171;async&#187; PickFolder(IsInput:bool) : Task</text><rect fill="#F24D5C" height="6" style="stroke:#C82930;stroke-width:1.0;" width="6" x="17" y="418.3672"/><text fill="#000000" font-family="sans-serif" font-size="14" lengthAdjust="spacing" textLength="401" x="29" y="424.7139">PauseButton_Clicked(sender:object, e:EventArgs) : void</text><rect fill="#F24D5C" height="6" style="stroke:#C82930;stroke-width:1.0;" width="6" x="17" y="434.6641"/><text fill="#000000" font-family="sans-serif" font-size="14" lengthAdjust="spacing" textLength="395" x="29" y="441.0107">StopButton_Clicked(sender:object, e:EventArgs) : void</text></g><!--class ContentPage--><g id="elem_ContentPage"><rect fill="#F1F1F1" height="48" id="ContentPage" rx="2.5" ry="2.5" style="stroke:#181818;stroke-width:0.5;" width="127" x="301.5" y="7"/><ellipse cx="316.5" cy="23" fill="#ADD1B2" rx="11" ry="11" style="stroke:#181818;stroke-width:1.0;"/><path d="M318.8438,18.6719 C317.9063,18.2344 317.3125,18.0938 316.4375,18.0938 C313.8125,18.0938 311.8125,20.1719 311.8125,22.8906 L311.8125,24.0156 C311.8125,26.5938 313.9219,28.4844 316.8125,28.4844 C318.0313,28.4844 319.1875,28.1875 319.9375,27.6406 C320.5156,27.2344 320.8438,26.7813 320.8438,26.3906 C320.8438,25.9375 320.4531,25.5469 319.9844,25.5469 C319.7656,25.5469 319.5625,25.625 319.375,25.8125 C318.9219,26.2969 318.9219,26.2969 318.7344,26.3906 C318.3125,26.6563 317.625,26.7813 316.8594,26.7813 C314.8125,26.7813 313.5156,25.6875 313.5156,23.9844 L313.5156,22.8906 C313.5156,21.1094 314.7656,19.7969 316.5,19.7969 C317.0781,19.7969 317.6875,19.9531 318.1563,20.2031 C318.6406,20.4844 318.8125,20.7031 318.9063,21.1094 C318.9688,21.5156 319,21.6406 319.1406,21.7656 C319.2813,21.9063 319.5156,22.0156 319.7344,22.0156 C320,22.0156 320.2656,21.875 320.4375,21.6563 C320.5469,21.5 320.5781,21.3125 320.5781,20.8906 L320.5781,19.4688 C320.5781,19.0313 320.5625,18.9063 320.4688,18.75 C320.3125,18.4844 320.0313,18.3438 319.7344,18.3438 C319.4375,18.3438 319.2344,18.4375 319.0156,18.75 L318.8438,18.6719 Z " fill="#000000"/><text fill="#000000" font-family="sans-serif" font-size="14" lengthAdjust="spacing" textLength="95" x="330.5" y="27.8467">ContentPage</text><line style="stroke:#181818;stroke-width:0.5;" x1="302.5" x2="427.5" y1="39" y2="39"/><line style="stroke:#181818;stroke-width:0.5;" x1="302.5" x2="427.5" y1="47" y2="47"/></g><!--class MainPageViewModel--><g id="elem_MainPageViewModel"><rect fill="#F1F1F1" height="48" id="MainPageViewModel" rx="2.5" ry="2.5" style="stroke:#181818;stroke-width:0.5;" width="177" x="175.5" y="508"/><ellipse cx="190.5" cy="524" fill="#ADD1B2" rx="11" ry="11" style="stroke:#181818;stroke-width:1.0;"/><path d="M192.8438,519.6719 C191.9063,519.2344 191.3125,519.0938 190.4375,519.0938 C187.8125,519.0938 185.8125,521.1719 185.8125,523.8906 L185.8125,525.0156 C185.8125,527.5938 187.9219,529.4844 190.8125,529.4844 C192.0313,529.4844 193.1875,529.1875 193.9375,528.6406 C194.5156,528.2344 194.8438,527.7813 194.8438,527.3906 C194.8438,526.9375 194.4531,526.5469 193.9844,526.5469 C193.7656,526.5469 193.5625,526.625 193.375,526.8125 C192.9219,527.2969 192.9219,527.2969 192.7344,527.3906 C192.3125,527.6563 191.625,527.7813 190.8594,527.7813 C188.8125,527.7813 187.5156,526.6875 187.5156,524.9844 L187.5156,523.8906 C187.5156,522.1094 188.7656,520.7969 190.5,520.7969 C191.0781,520.7969 191.6875,520.9531 192.1563,521.2031 C192.6406,521.4844 192.8125,521.7031 192.9063,522.1094 C192.9688,522.5156 193,522.6406 193.1406,522.7656 C193.2813,522.9063 193.5156,523.0156 193.7344,523.0156 C194,523.0156 194.2656,522.875 194.4375,522.6563 C194.5469,522.5 194.5781,522.3125 194.5781,521.8906 L194.5781,520.4688 C194.5781,520.0313 194.5625,519.9063 194.4688,519.75 C194.3125,519.4844 194.0313,519.3438 193.7344,519.3438 C193.4375,519.3438 193.2344,519.4375 193.0156,519.75 L192.8438,519.6719 Z " fill="#000000"/><text fill="#000000" font-family="sans-serif" font-size="14" lengthAdjust="spacing" textLength="145" x="204.5" y="528.8467">MainPageViewModel</text><line style="stroke:#181818;stroke-width:0.5;" x1="176.5" x2="351.5" y1="540" y2="540"/><line style="stroke:#181818;stroke-width:0.5;" x1="176.5" x2="351.5" y1="548" y2="548"/></g><!--class ResourceManager--><g id="elem_ResourceManager"><rect fill="#F1F1F1" height="48" id="ResourceManager" rx="2.5" ry="2.5" style="stroke:#181818;stroke-width:0.5;" width="159" x="387.5" y="508"/><ellipse cx="402.5" cy="524" fill="#ADD1B2" rx="11" ry="11" style="stroke:#181818;stroke-width:1.0;"/><path d="M404.8438,519.6719 C403.9063,519.2344 403.3125,519.0938 402.4375,519.0938 C399.8125,519.0938 397.8125,521.1719 397.8125,523.8906 L397.8125,525.0156 C397.8125,527.5938 399.9219,529.4844 402.8125,529.4844 C404.0313,529.4844 405.1875,529.1875 405.9375,528.6406 C406.5156,528.2344 406.8438,527.7813 406.8438,527.3906 C406.8438,526.9375 406.4531,526.5469 405.9844,526.5469 C405.7656,526.5469 405.5625,526.625 405.375,526.8125 C404.9219,527.2969 404.9219,527.2969 404.7344,527.3906 C404.3125,527.6563 403.625,527.7813 402.8594,527.7813 C400.8125,527.7813 399.5156,526.6875 399.5156,524.9844 L399.5156,523.8906 C399.5156,522.1094 400.7656,520.7969 402.5,520.7969 C403.0781,520.7969 403.6875,520.9531 404.1563,521.2031 C404.6406,521.4844 404.8125,521.7031 404.9063,522.1094 C404.9688,522.5156 405,522.6406 405.1406,522.7656 C405.2813,522.9063 405.5156,523.0156 405.7344,523.0156 C406,523.0156 406.2656,522.875 406.4375,522.6563 C406.5469,522.5 406.5781,522.3125 406.5781,521.8906 L406.5781,520.4688 C406.5781,520.0313 406.5625,519.9063 406.4688,519.75 C406.3125,519.4844 406.0313,519.3438 405.7344,519.3438 C405.4375,519.3438 405.2344,519.4375 405.0156,519.75 L404.8438,519.6719 Z " fill="#000000"/><text fill="#000000" font-family="sans-serif" font-size="14" lengthAdjust="spacing" textLength="127" x="416.5" y="528.8467">ResourceManager</text><line style="stroke:#181818;stroke-width:0.5;" x1="388.5" x2="545.5" y1="540" y2="540"/><line style="stroke:#181818;stroke-width:0.5;" x1="388.5" x2="545.5" y1="548" y2="548"/></g><!--reverse link ContentPage to MainPage--><g id="link_ContentPage_MainPage"><path codeLine="20" d="M365,73.378 C365,88.481 365,91.628 365,114.967 " fill="none" id="ContentPage-backto-MainPage" style="stroke:#181818;stroke-width:1.0;"/><polygon fill="none" points="365,55.378,359,73.378,371,73.378,365,55.378" style="stroke:#181818;stroke-width:1.0;"/></g><!--link MainPage to MainPageViewModel--><g id="link_MainPage_MainPageViewModel"><path codeLine="21" d="M297.632,448.253 C288.151,471.579 281.8262,487.1416 275.7032,502.2064 " fill="none" id="MainPage-to-MainPageViewModel" style="stroke:#181818;stroke-width:1.0;"/><polygon fill="#181818" points="273.444,507.7648,280.5384,500.9333,275.3267,503.1328,273.1272,497.921,273.444,507.7648" style="stroke:#181818;stroke-width:1.0;"/><text fill="#000000" font-family="sans-serif" font-size="13" lengthAdjust="spacing" textLength="67" x="200.5803" y="497.1124">viewModel</text></g><!--link MainPage to ResourceManager--><g id="link_MainPage_ResourceManager"><path codeLine="22" d="M433.035,448.253 C442.61,471.579 449.0005,487.1495 455.1845,502.2143 " fill="none" id="MainPage-to-ResourceManager" style="stroke:#181818;stroke-width:1.0;"/><polygon fill="#181818" points="457.463,507.7648,457.7457,497.92,455.5643,503.1393,450.3449,500.958,457.463,507.7648" style="stroke:#181818;stroke-width:1.0;"/><text fill="#000000" font-family="sans-serif" font-size="13" lengthAdjust="spacing" textLength="118" x="357.2864" y="496.9734">_resourceManager</text></g><!--SRC=[hLFBJiCm4BptArRbqWho0r6eL0A8Ids98gxLDbw2gUkDR2Vb-UyuQLgWXKDRVFFipEnwvKaKMWi3b7gCAK4KPMYSHDNfm5i3_3c5dXtI4aAOCIiuXmTKbkhIMjSg92q7B4Y5Q-X-ZRGhRW1zHj7d19Ly9N57pywssjwrO2agneblpWKP8mNvxYFTpJ928tNwanV0BLboFPtbRhiIHMXVTEBbCIj5YPEioq6c4wflyIFgb4JBaXPaGfuzUVmCADncN1MaNTUaTgUvous-uGLDOoMJ-MzUVsadMD15xXph_RLT8OwHVsrcZ0ONvCZOGxqk_QhSFqooSXXY8LCiDt_Kgxoo-XBNhBpsK8jHxexsgDKzMyqJbh4f-NTevpL_ZBazU7yJnzd-sez6pDfvT1Npzo3OXBUnINyGTA2vYN8JThAyHPqQifoRX0QeFMYQPJI_0vy0]--></g></svg>