<?xml version="1.0" encoding="us-ascii" standalone="no"?><svg xmlns="http://www.w3.org/2000/svg" xmlns:xlink="http://www.w3.org/1999/xlink" contentStyleType="text/css" height="93px" preserveAspectRatio="none" style="width:243px;height:93px;background:#FFFFFF;" version="1.1" viewBox="0 0 243 93" width="243px" zoomAndPan="magnify"><defs/><g><!--class MauiProgram--><g id="elem_MauiProgram"><rect codeLine="1" fill="#F1F1F1" height="72.5625" id="MauiProgram" rx="2.5" ry="2.5" style="stroke:#181818;stroke-width:0.5;" width="222" x="7" y="7"/><ellipse cx="67.25" cy="27.1328" fill="#ADD1B2" rx="11" ry="11" style="stroke:#181818;stroke-width:1.0;"/><path d="M69.5938,22.8047 C68.6563,22.3672 68.0625,22.2266 67.1875,22.2266 C64.5625,22.2266 62.5625,24.3047 62.5625,27.0234 L62.5625,28.1484 C62.5625,30.7266 64.6719,32.6172 67.5625,32.6172 C68.7813,32.6172 69.9375,32.3203 70.6875,31.7734 C71.2656,31.3672 71.5938,30.9141 71.5938,30.5234 C71.5938,30.0703 71.2031,29.6797 70.7344,29.6797 C70.5156,29.6797 70.3125,29.7578 70.125,29.9453 C69.6719,30.4297 69.6719,30.4297 69.4844,30.5234 C69.0625,30.7891 68.375,30.9141 67.6094,30.9141 C65.5625,30.9141 64.2656,29.8203 64.2656,28.1172 L64.2656,27.0234 C64.2656,25.2422 65.5156,23.9297 67.25,23.9297 C67.8281,23.9297 68.4375,24.0859 68.9063,24.3359 C69.3906,24.6172 69.5625,24.8359 69.6563,25.2422 C69.7188,25.6484 69.75,25.7734 69.8906,25.8984 C70.0313,26.0391 70.2656,26.1484 70.4844,26.1484 C70.75,26.1484 71.0156,26.0078 71.1875,25.7891 C71.2969,25.6328 71.3281,25.4453 71.3281,25.0234 L71.3281,23.6016 C71.3281,23.1641 71.3125,23.0391 71.2188,22.8828 C71.0625,22.6172 70.7813,22.4766 70.4844,22.4766 C70.1875,22.4766 69.9844,22.5703 69.7656,22.8828 L69.5938,22.8047 Z " fill="#000000"/><text fill="#000000" font-family="sans-serif" font-size="12" font-style="italic" lengthAdjust="spacing" textLength="47" x="110.75" y="23.1387">&#171;static&#187;</text><text fill="#000000" font-family="sans-serif" font-size="14" lengthAdjust="spacing" textLength="93" x="87.75" y="38.9639">MauiProgram</text><line style="stroke:#181818;stroke-width:0.5;" x1="8" x2="228" y1="47.2656" y2="47.2656"/><line style="stroke:#181818;stroke-width:0.5;" x1="8" x2="228" y1="55.2656" y2="55.2656"/><ellipse cx="18" cy="68.9141" fill="#84BE84" rx="3" ry="3" style="stroke:#038048;stroke-width:1.0;"/><text fill="#000000" font-family="sans-serif" font-size="14" lengthAdjust="spacing" text-decoration="underline" textLength="196" x="27" y="72.2607">CreateMauiApp() : MauiApp</text></g><!--SRC=[Iyv9B2vMy4qipGmeoaylIinLiB4fBaaioKosirEevb800cs5QeX8hO9pKMfYIIf8jMD1WOQcWfK2bCrL2m00]--></g></svg>