<?xml version="1.0" encoding="us-ascii" standalone="no"?><svg xmlns="http://www.w3.org/2000/svg" xmlns:xlink="http://www.w3.org/1999/xlink" contentStyleType="text/css" height="531px" preserveAspectRatio="none" style="width:700px;height:531px;background:#FFFFFF;" version="1.1" viewBox="0 0 700 531" width="700px" zoomAndPan="magnify"><defs/><g><!--class ParametersPageViewModel--><g id="elem_ParametersPageViewModel"><rect codeLine="1" fill="#F1F1F1" height="300.7188" id="ParametersPageViewModel" rx="2.5" ry="2.5" style="stroke:#181818;stroke-width:0.5;" width="536" x="7" y="115"/><ellipse cx="173.25" cy="135.1328" fill="#ADD1B2" rx="11" ry="11" style="stroke:#181818;stroke-width:1.0;"/><path d="M175.5938,130.8047 C174.6563,130.3672 174.0625,130.2266 173.1875,130.2266 C170.5625,130.2266 168.5625,132.3047 168.5625,135.0234 L168.5625,136.1484 C168.5625,138.7266 170.6719,140.6172 173.5625,140.6172 C174.7813,140.6172 175.9375,140.3203 176.6875,139.7734 C177.2656,139.3672 177.5938,138.9141 177.5938,138.5234 C177.5938,138.0703 177.2031,137.6797 176.7344,137.6797 C176.5156,137.6797 176.3125,137.7578 176.125,137.9453 C175.6719,138.4297 175.6719,138.4297 175.4844,138.5234 C175.0625,138.7891 174.375,138.9141 173.6094,138.9141 C171.5625,138.9141 170.2656,137.8203 170.2656,136.1172 L170.2656,135.0234 C170.2656,133.2422 171.5156,131.9297 173.25,131.9297 C173.8281,131.9297 174.4375,132.0859 174.9063,132.3359 C175.3906,132.6172 175.5625,132.8359 175.6563,133.2422 C175.7188,133.6484 175.75,133.7734 175.8906,133.8984 C176.0313,134.0391 176.2656,134.1484 176.4844,134.1484 C176.75,134.1484 177.0156,134.0078 177.1875,133.7891 C177.2969,133.6328 177.3281,133.4453 177.3281,133.0234 L177.3281,131.6016 C177.3281,131.1641 177.3125,131.0391 177.2188,130.8828 C177.0625,130.6172 176.7813,130.4766 176.4844,130.4766 C176.1875,130.4766 175.9844,130.5703 175.7656,130.8828 L175.5938,130.8047 Z " fill="#000000"/><text fill="#000000" font-family="sans-serif" font-size="12" font-style="italic" lengthAdjust="spacing" textLength="52" x="265.25" y="131.1387">&#171;partial&#187;</text><text fill="#000000" font-family="sans-serif" font-size="14" lengthAdjust="spacing" textLength="195" x="193.75" y="146.9639">ParametersPageViewModel</text><line style="stroke:#181818;stroke-width:0.5;" x1="8" x2="542" y1="155.2656" y2="155.2656"/><rect fill="none" height="6" style="stroke:#C82930;stroke-width:1.0;" width="6" x="15" y="165.9141"/><text fill="#000000" font-family="sans-serif" font-size="14" lengthAdjust="spacing" textLength="176" x="27" y="172.2607">currentDirectory : string</text><line style="stroke:#181818;stroke-width:0.5;" x1="8" x2="542" y1="179.5625" y2="179.5625"/><ellipse cx="18" cy="193.2109" fill="#84BE84" rx="3" ry="3" style="stroke:#038048;stroke-width:1.0;"/><text fill="#000000" font-family="sans-serif" font-size="14" lengthAdjust="spacing" textLength="205" x="27" y="196.5576">ParametersPageViewModel()</text><ellipse cx="18" cy="209.5078" fill="#84BE84" rx="3" ry="3" style="stroke:#038048;stroke-width:1.0;"/><text fill="#000000" font-family="sans-serif" font-size="14" lengthAdjust="spacing" textLength="270" x="27" y="212.8545">LoadStatusLogEntries() : List&lt;string&gt;</text><rect fill="#F24D5C" height="6" style="stroke:#C82930;stroke-width:1.0;" width="6" x="15" y="222.8047"/><text fill="#000000" font-family="sans-serif" font-size="14" lengthAdjust="spacing" textLength="253" x="27" y="229.1514">LoadJsonLogEntries() : List&lt;string&gt;</text><rect fill="#F24D5C" height="6" style="stroke:#C82930;stroke-width:1.0;" width="6" x="15" y="239.1016"/><text fill="#000000" font-family="sans-serif" font-size="14" lengthAdjust="spacing" textLength="252" x="27" y="245.4482">LoadXmlLogEntries() : List&lt;string&gt;</text><ellipse cx="18" cy="258.3984" fill="#84BE84" rx="3" ry="3" style="stroke:#038048;stroke-width:1.0;"/><text fill="#000000" font-family="sans-serif" font-size="14" lengthAdjust="spacing" textLength="510" x="27" y="261.7451">SaveBusinessApplications(businessApplicationsList:List&lt;string&gt;) : void</text><ellipse cx="18" cy="274.6953" fill="#84BE84" rx="3" ry="3" style="stroke:#038048;stroke-width:1.0;"/><text fill="#000000" font-family="sans-serif" font-size="14" lengthAdjust="spacing" textLength="317" x="27" y="278.042">GetBusinessApplicationsList() : List&lt;string&gt;</text><ellipse cx="18" cy="290.9922" fill="#84BE84" rx="3" ry="3" style="stroke:#038048;stroke-width:1.0;"/><text fill="#000000" font-family="sans-serif" font-size="14" lengthAdjust="spacing" textLength="280" x="27" y="294.3389">SaveMaxFileSize(maxFileSize:int) : void</text><ellipse cx="18" cy="307.2891" fill="#84BE84" rx="3" ry="3" style="stroke:#038048;stroke-width:1.0;"/><text fill="#000000" font-family="sans-serif" font-size="14" lengthAdjust="spacing" textLength="153" x="27" y="310.6357">GetMaxFileSize() : int</text><ellipse cx="18" cy="323.5859" fill="#84BE84" rx="3" ry="3" style="stroke:#038048;stroke-width:1.0;"/><text fill="#000000" font-family="sans-serif" font-size="14" lengthAdjust="spacing" textLength="403" x="27" y="326.9326">SavePriorityExtension(extentionList:List&lt;string&gt;) : void</text><ellipse cx="18" cy="339.8828" fill="#84BE84" rx="3" ry="3" style="stroke:#038048;stroke-width:1.0;"/><text fill="#000000" font-family="sans-serif" font-size="14" lengthAdjust="spacing" textLength="290" x="27" y="343.2295">GetPriorityExtensionList() : List&lt;string&gt;</text><ellipse cx="18" cy="356.1797" fill="#84BE84" rx="3" ry="3" style="stroke:#038048;stroke-width:1.0;"/><text fill="#000000" font-family="sans-serif" font-size="14" lengthAdjust="spacing" textLength="429" x="27" y="359.5264">SaveEncryptionExtension(extentionList:List&lt;string&gt;) : void</text><ellipse cx="18" cy="372.4766" fill="#84BE84" rx="3" ry="3" style="stroke:#038048;stroke-width:1.0;"/><text fill="#000000" font-family="sans-serif" font-size="14" lengthAdjust="spacing" textLength="316" x="27" y="375.8232">GetEncryptionExtensionList() : List&lt;string&gt;</text><ellipse cx="18" cy="388.7734" fill="#84BE84" rx="3" ry="3" style="stroke:#038048;stroke-width:1.0;"/><text fill="#000000" font-family="sans-serif" font-size="14" lengthAdjust="spacing" textLength="266" x="27" y="392.1201">SaveEncryptionKey(key:string) : void</text><ellipse cx="18" cy="405.0703" fill="#84BE84" rx="3" ry="3" style="stroke:#038048;stroke-width:1.0;"/><text fill="#000000" font-family="sans-serif" font-size="14" lengthAdjust="spacing" textLength="198" x="27" y="408.417">GetEncryptionKey() : string</text></g><!--class List`1--><g id="elem_List`1"><rect codeLine="18" fill="#F1F1F1" height="48" id="List`1" rx="2.5" ry="2.5" style="stroke:#181818;stroke-width:0.5;" width="85" x="232.5" y="476"/><ellipse cx="247.5" cy="492" fill="#ADD1B2" rx="11" ry="11" style="stroke:#181818;stroke-width:1.0;"/><path d="M249.8438,487.6719 C248.9063,487.2344 248.3125,487.0938 247.4375,487.0938 C244.8125,487.0938 242.8125,489.1719 242.8125,491.8906 L242.8125,493.0156 C242.8125,495.5938 244.9219,497.4844 247.8125,497.4844 C249.0313,497.4844 250.1875,497.1875 250.9375,496.6406 C251.5156,496.2344 251.8438,495.7813 251.8438,495.3906 C251.8438,494.9375 251.4531,494.5469 250.9844,494.5469 C250.7656,494.5469 250.5625,494.625 250.375,494.8125 C249.9219,495.2969 249.9219,495.2969 249.7344,495.3906 C249.3125,495.6563 248.625,495.7813 247.8594,495.7813 C245.8125,495.7813 244.5156,494.6875 244.5156,492.9844 L244.5156,491.8906 C244.5156,490.1094 245.7656,488.7969 247.5,488.7969 C248.0781,488.7969 248.6875,488.9531 249.1563,489.2031 C249.6406,489.4844 249.8125,489.7031 249.9063,490.1094 C249.9688,490.5156 250,490.6406 250.1406,490.7656 C250.2813,490.9063 250.5156,491.0156 250.7344,491.0156 C251,491.0156 251.2656,490.875 251.4375,490.6563 C251.5469,490.5 251.5781,490.3125 251.5781,489.8906 L251.5781,488.4688 C251.5781,488.0313 251.5625,487.9063 251.4688,487.75 C251.3125,487.4844 251.0313,487.3438 250.7344,487.3438 C250.4375,487.3438 250.2344,487.4375 250.0156,487.75 L249.8438,487.6719 Z " fill="#000000"/><text fill="#000000" font-family="sans-serif" font-size="14" lengthAdjust="spacing" textLength="42" x="261.5" y="496.8467">List`1</text><rect fill="#FFFFFF" height="15.9688" style="stroke:#181818;stroke-width:1.0;stroke-dasharray:2.0,2.0;" width="9" x="311.5" y="473"/><text fill="#000000" font-family="sans-serif" font-size="12" font-style="italic" lengthAdjust="spacing" textLength="7" x="312.5" y="485.1387">T</text><line style="stroke:#181818;stroke-width:0.5;" x1="233.5" x2="316.5" y1="508" y2="508"/><line style="stroke:#181818;stroke-width:0.5;" x1="233.5" x2="316.5" y1="516" y2="516"/></g><!--class BaseViewModel--><g id="elem_BaseViewModel"><rect fill="#F1F1F1" height="48" id="BaseViewModel" rx="2.5" ry="2.5" style="stroke:#181818;stroke-width:0.5;" width="143" x="203.5" y="7"/><ellipse cx="218.5" cy="23" fill="#ADD1B2" rx="11" ry="11" style="stroke:#181818;stroke-width:1.0;"/><path d="M220.8438,18.6719 C219.9063,18.2344 219.3125,18.0938 218.4375,18.0938 C215.8125,18.0938 213.8125,20.1719 213.8125,22.8906 L213.8125,24.0156 C213.8125,26.5938 215.9219,28.4844 218.8125,28.4844 C220.0313,28.4844 221.1875,28.1875 221.9375,27.6406 C222.5156,27.2344 222.8438,26.7813 222.8438,26.3906 C222.8438,25.9375 222.4531,25.5469 221.9844,25.5469 C221.7656,25.5469 221.5625,25.625 221.375,25.8125 C220.9219,26.2969 220.9219,26.2969 220.7344,26.3906 C220.3125,26.6563 219.625,26.7813 218.8594,26.7813 C216.8125,26.7813 215.5156,25.6875 215.5156,23.9844 L215.5156,22.8906 C215.5156,21.1094 216.7656,19.7969 218.5,19.7969 C219.0781,19.7969 219.6875,19.9531 220.1563,20.2031 C220.6406,20.4844 220.8125,20.7031 220.9063,21.1094 C220.9688,21.5156 221,21.6406 221.1406,21.7656 C221.2813,21.9063 221.5156,22.0156 221.7344,22.0156 C222,22.0156 222.2656,21.875 222.4375,21.6563 C222.5469,21.5 222.5781,21.3125 222.5781,20.8906 L222.5781,19.4688 C222.5781,19.0313 222.5625,18.9063 222.4688,18.75 C222.3125,18.4844 222.0313,18.3438 221.7344,18.3438 C221.4375,18.3438 221.2344,18.4375 221.0156,18.75 L220.8438,18.6719 Z " fill="#000000"/><text fill="#000000" font-family="sans-serif" font-size="14" lengthAdjust="spacing" textLength="111" x="232.5" y="27.8467">BaseViewModel</text><line style="stroke:#181818;stroke-width:0.5;" x1="204.5" x2="345.5" y1="39" y2="39"/><line style="stroke:#181818;stroke-width:0.5;" x1="204.5" x2="345.5" y1="47" y2="47"/></g><!--class Parameters--><g id="elem_Parameters"><rect fill="#F1F1F1" height="48" id="Parameters" rx="2.5" ry="2.5" style="stroke:#181818;stroke-width:0.5;" width="115" x="578.5" y="241.5"/><ellipse cx="593.5" cy="257.5" fill="#ADD1B2" rx="11" ry="11" style="stroke:#181818;stroke-width:1.0;"/><path d="M595.8438,253.1719 C594.9063,252.7344 594.3125,252.5938 593.4375,252.5938 C590.8125,252.5938 588.8125,254.6719 588.8125,257.3906 L588.8125,258.5156 C588.8125,261.0938 590.9219,262.9844 593.8125,262.9844 C595.0313,262.9844 596.1875,262.6875 596.9375,262.1406 C597.5156,261.7344 597.8438,261.2813 597.8438,260.8906 C597.8438,260.4375 597.4531,260.0469 596.9844,260.0469 C596.7656,260.0469 596.5625,260.125 596.375,260.3125 C595.9219,260.7969 595.9219,260.7969 595.7344,260.8906 C595.3125,261.1563 594.625,261.2813 593.8594,261.2813 C591.8125,261.2813 590.5156,260.1875 590.5156,258.4844 L590.5156,257.3906 C590.5156,255.6094 591.7656,254.2969 593.5,254.2969 C594.0781,254.2969 594.6875,254.4531 595.1563,254.7031 C595.6406,254.9844 595.8125,255.2031 595.9063,255.6094 C595.9688,256.0156 596,256.1406 596.1406,256.2656 C596.2813,256.4063 596.5156,256.5156 596.7344,256.5156 C597,256.5156 597.2656,256.375 597.4375,256.1563 C597.5469,256 597.5781,255.8125 597.5781,255.3906 L597.5781,253.9688 C597.5781,253.5313 597.5625,253.4063 597.4688,253.25 C597.3125,252.9844 597.0313,252.8438 596.7344,252.8438 C596.4375,252.8438 596.2344,252.9375 596.0156,253.25 L595.8438,253.1719 Z " fill="#000000"/><text fill="#000000" font-family="sans-serif" font-size="14" lengthAdjust="spacing" textLength="83" x="607.5" y="262.3467">Parameters</text><line style="stroke:#181818;stroke-width:0.5;" x1="579.5" x2="692.5" y1="273.5" y2="273.5"/><line style="stroke:#181818;stroke-width:0.5;" x1="579.5" x2="692.5" y1="281.5" y2="281.5"/></g><!--reverse link BaseViewModel to ParametersPageViewModel--><g id="link_BaseViewModel_ParametersPageViewModel"><path codeLine="20" d="M275,73.143 C275,88.304 275,91.564 275,114.769 " fill="none" id="BaseViewModel-backto-ParametersPageViewModel" style="stroke:#181818;stroke-width:1.0;"/><polygon fill="none" points="275,55.143,269,73.143,281,73.143,275,55.143" style="stroke:#181818;stroke-width:1.0;"/></g><!--link ParametersPageViewModel to Parameters--><g id="link_ParametersPageViewModel_Parameters"><path codeLine="21" d="M555.282,265.5 C566.993,265.5 560.703,265.5 572.414,265.5 " fill="none" id="ParametersPageViewModel-Parameters" style="stroke:#181818;stroke-width:1.0;"/><polygon fill="none" points="543.282,265.5,549.282,269.5,555.282,265.5,549.282,261.5,543.282,265.5" style="stroke:#181818;stroke-width:1.0;"/><polygon fill="#181818" points="578.414,265.5,569.414,261.5,573.414,265.5,569.414,269.5,578.414,265.5" style="stroke:#181818;stroke-width:1.0;"/><text fill="#000000" font-family="sans-serif" font-size="13" lengthAdjust="spacing" textLength="82" x="489.4001" y="248.7733">_parameters</text></g><!--link ParametersPageViewModel to List`1--><g id="link_ParametersPageViewModel_List`1"><path codeLine="22" d="M249.731,416.047 C251.139,439.3186 252.3795,454.8861 256.8145,470.0871 " fill="none" id="ParametersPageViewModel-to-List`1" style="stroke:#181818;stroke-width:1.0;"/><polygon fill="#181818" points="258.495,475.847,259.8142,466.0869,257.0946,471.0471,252.1344,468.3275,258.495,475.847" style="stroke:#181818;stroke-width:1.0;"/><text fill="#000000" font-family="sans-serif" font-size="13" lengthAdjust="spacing" textLength="148" x="87.3031" y="464.8198">XmlLogEntries&lt;string&gt;</text></g><!--link ParametersPageViewModel to List`1--><g id="link_ParametersPageViewModel_List`1"><path codeLine="23" d="M275,416.047 C275,439.3186 275,454.646 275,469.847 " fill="none" id="ParametersPageViewModel-to-List`1-1" style="stroke:#181818;stroke-width:1.0;"/><polygon fill="#181818" points="275,475.847,279,466.847,275,470.847,271,466.847,275,475.847" style="stroke:#181818;stroke-width:1.0;"/><text fill="#000000" font-family="sans-serif" font-size="13" lengthAdjust="spacing" textLength="150" x="294.2188" y="464.8198">JsonLogEntries&lt;string&gt;</text></g><!--link ParametersPageViewModel to List`1--><g id="link_ParametersPageViewModel_List`1"><path codeLine="24" d="M300.269,416.047 C298.861,439.3186 297.6205,454.8861 293.1855,470.0871 " fill="none" id="ParametersPageViewModel-to-List`1-2" style="stroke:#181818;stroke-width:1.0;"/><polygon fill="#181818" points="291.505,475.847,297.8656,468.3275,292.9054,471.0471,290.1858,466.0869,291.505,475.847" style="stroke:#181818;stroke-width:1.0;"/><text fill="#000000" font-family="sans-serif" font-size="13" lengthAdjust="spacing" textLength="164" x="325.3661" y="482.2123">StatusLogEntries&lt;string&gt;</text></g><!--SRC=[dPD1IyD048Nl-HLBJYab1wyX10nMGLieLCIRhiaG1fFTi3EjZTh_RhQjRTeqRJId9VE-zsRXRP9B8Z6LHXR0O6WgCtX2-9Ze578HXgKqZ3AF8l7bYFhpHJ8t1XJVe864jQb488WDgcmz7tPvUOFjVAnbEcF9SnhhRAHg5CWRr2vZ90utLj4soshlIQj-okSYloGSYfbSG3mdL41qNPOv9f9HA_BUJloqVD0qiQOBZUdMx0uuxi3EvK_ayXPpcE4dUCN-7A3YTa1JRAUrg64rDQWDSZLQCYYgmpsm9xj6Z-LRzANDHoenLMdT_nTuWkyV-G2LzmvLiD6SCxVAmRwOAoTPrzor4QzNRlXewxnoOadDid_xVbTxdQuNelr8k2_bRkes73eXtq87RVszjxlRyJny-2Z-IXy_lpR_0m00]--></g></svg>