<?xml version="1.0" encoding="us-ascii" standalone="no"?><svg xmlns="http://www.w3.org/2000/svg" xmlns:xlink="http://www.w3.org/1999/xlink" contentStyleType="text/css" height="306px" preserveAspectRatio="none" style="width:678px;height:306px;background:#FFFFFF;" version="1.1" viewBox="0 0 678 306" width="678px" zoomAndPan="magnify"><defs/><g><!--class Parameters--><g id="elem_Parameters"><rect codeLine="1" fill="#F1F1F1" height="292.4531" id="Parameters" rx="2.5" ry="2.5" style="stroke:#181818;stroke-width:0.5;" width="324" x="7" y="7"/><ellipse cx="123.25" cy="23" fill="#ADD1B2" rx="11" ry="11" style="stroke:#181818;stroke-width:1.0;"/><path d="M125.5938,18.6719 C124.6563,18.2344 124.0625,18.0938 123.1875,18.0938 C120.5625,18.0938 118.5625,20.1719 118.5625,22.8906 L118.5625,24.0156 C118.5625,26.5938 120.6719,28.4844 123.5625,28.4844 C124.7813,28.4844 125.9375,28.1875 126.6875,27.6406 C127.2656,27.2344 127.5938,26.7813 127.5938,26.3906 C127.5938,25.9375 127.2031,25.5469 126.7344,25.5469 C126.5156,25.5469 126.3125,25.625 126.125,25.8125 C125.6719,26.2969 125.6719,26.2969 125.4844,26.3906 C125.0625,26.6563 124.375,26.7813 123.6094,26.7813 C121.5625,26.7813 120.2656,25.6875 120.2656,23.9844 L120.2656,22.8906 C120.2656,21.1094 121.5156,19.7969 123.25,19.7969 C123.8281,19.7969 124.4375,19.9531 124.9063,20.2031 C125.3906,20.4844 125.5625,20.7031 125.6563,21.1094 C125.7188,21.5156 125.75,21.6406 125.8906,21.7656 C126.0313,21.9063 126.2656,22.0156 126.4844,22.0156 C126.75,22.0156 127.0156,21.875 127.1875,21.6563 C127.2969,21.5 127.3281,21.3125 127.3281,20.8906 L127.3281,19.4688 C127.3281,19.0313 127.3125,18.9063 127.2188,18.75 C127.0625,18.4844 126.7813,18.3438 126.4844,18.3438 C126.1875,18.3438 125.9844,18.4375 125.7656,18.75 L125.5938,18.6719 Z " fill="#000000"/><text fill="#000000" font-family="sans-serif" font-size="14" lengthAdjust="spacing" textLength="83" x="143.75" y="27.8467">Parameters</text><line style="stroke:#181818;stroke-width:0.5;" x1="8" x2="330" y1="39" y2="39"/><ellipse cx="18" cy="52.6484" fill="none" rx="3" ry="3" style="stroke:#038048;stroke-width:1.0;"/><text fill="#000000" font-family="sans-serif" font-size="14" lengthAdjust="spacing" textLength="161" x="27" y="55.9951">EncryptionKey : string</text><ellipse cx="18" cy="68.9453" fill="none" rx="3" ry="3" style="stroke:#038048;stroke-width:1.0;"/><text fill="#000000" font-family="sans-serif" font-size="14" lengthAdjust="spacing" textLength="116" x="27" y="72.292">MaxFileSize : int</text><rect fill="none" height="6" style="stroke:#C82930;stroke-width:1.0;" width="6" x="15" y="82.2422"/><text fill="#000000" font-family="sans-serif" font-size="14" lengthAdjust="spacing" text-decoration="underline" textLength="216" x="27" y="88.5889">_extensionFileFilePath : string</text><line style="stroke:#181818;stroke-width:0.5;" x1="8" x2="330" y1="95.8906" y2="95.8906"/><rect fill="#F24D5C" height="6" style="stroke:#C82930;stroke-width:1.0;" width="6" x="15" y="106.5391"/><text fill="#000000" font-family="sans-serif" font-size="14" lengthAdjust="spacing" textLength="93" x="27" y="112.8857">Parameters()</text><ellipse cx="18" cy="125.8359" fill="#84BE84" rx="3" ry="3" style="stroke:#038048;stroke-width:1.0;"/><text fill="#000000" font-family="sans-serif" font-size="14" lengthAdjust="spacing" text-decoration="underline" textLength="194" x="27" y="129.1826">GetInstance() : Parameters</text><ellipse cx="18" cy="142.1328" fill="#84BE84" rx="3" ry="3" style="stroke:#038048;stroke-width:1.0;"/><text fill="#000000" font-family="sans-serif" font-size="14" lengthAdjust="spacing" textLength="272" x="27" y="145.4795">WriteEncryptionKey(key:string) : void</text><ellipse cx="18" cy="158.4297" fill="#84BE84" rx="3" ry="3" style="stroke:#038048;stroke-width:1.0;"/><text fill="#000000" font-family="sans-serif" font-size="14" lengthAdjust="spacing" textLength="207" x="27" y="161.7764">ReadEncryptionKey() : string</text><ellipse cx="18" cy="174.7266" fill="#84BE84" rx="3" ry="3" style="stroke:#038048;stroke-width:1.0;"/><text fill="#000000" font-family="sans-serif" font-size="14" lengthAdjust="spacing" textLength="293" x="27" y="178.0732">ReadJsonEncryptionExtensionFile() : void</text><ellipse cx="18" cy="191.0234" fill="#84BE84" rx="3" ry="3" style="stroke:#038048;stroke-width:1.0;"/><text fill="#000000" font-family="sans-serif" font-size="14" lengthAdjust="spacing" textLength="297" x="27" y="194.3701">WriteJsonEncryptionExtensionFile() : void</text><ellipse cx="18" cy="207.3203" fill="#84BE84" rx="3" ry="3" style="stroke:#038048;stroke-width:1.0;"/><text fill="#000000" font-family="sans-serif" font-size="14" lengthAdjust="spacing" textLength="294" x="27" y="210.667">ReadJsonBusinessApplicationsFile() : void</text><ellipse cx="18" cy="223.6172" fill="#84BE84" rx="3" ry="3" style="stroke:#038048;stroke-width:1.0;"/><text fill="#000000" font-family="sans-serif" font-size="14" lengthAdjust="spacing" textLength="298" x="27" y="226.9639">WriteJsonBusinessApplicationsFile() : void</text><ellipse cx="18" cy="239.9141" fill="#84BE84" rx="3" ry="3" style="stroke:#038048;stroke-width:1.0;"/><text fill="#000000" font-family="sans-serif" font-size="14" lengthAdjust="spacing" textLength="267" x="27" y="243.2607">ReadJsonPriorityExtensionFile() : void</text><ellipse cx="18" cy="256.2109" fill="#84BE84" rx="3" ry="3" style="stroke:#038048;stroke-width:1.0;"/><text fill="#000000" font-family="sans-serif" font-size="14" lengthAdjust="spacing" textLength="271" x="27" y="259.5576">WriteJsonPriorityExtensionFile() : void</text><ellipse cx="18" cy="272.5078" fill="#84BE84" rx="3" ry="3" style="stroke:#038048;stroke-width:1.0;"/><text fill="#000000" font-family="sans-serif" font-size="14" lengthAdjust="spacing" textLength="172" x="27" y="275.8545">ReadMaxFileSize() : void</text><ellipse cx="18" cy="288.8047" fill="#84BE84" rx="3" ry="3" style="stroke:#038048;stroke-width:1.0;"/><text fill="#000000" font-family="sans-serif" font-size="14" lengthAdjust="spacing" textLength="176" x="27" y="292.1514">WriteMaxFileSize() : void</text></g><!--class List`1--><g id="elem_List`1"><rect codeLine="18" fill="#F1F1F1" height="48" id="List`1" rx="2.5" ry="2.5" style="stroke:#181818;stroke-width:0.5;" width="85" x="384.5" y="129"/><ellipse cx="399.5" cy="145" fill="#ADD1B2" rx="11" ry="11" style="stroke:#181818;stroke-width:1.0;"/><path d="M401.8438,140.6719 C400.9063,140.2344 400.3125,140.0938 399.4375,140.0938 C396.8125,140.0938 394.8125,142.1719 394.8125,144.8906 L394.8125,146.0156 C394.8125,148.5938 396.9219,150.4844 399.8125,150.4844 C401.0313,150.4844 402.1875,150.1875 402.9375,149.6406 C403.5156,149.2344 403.8438,148.7813 403.8438,148.3906 C403.8438,147.9375 403.4531,147.5469 402.9844,147.5469 C402.7656,147.5469 402.5625,147.625 402.375,147.8125 C401.9219,148.2969 401.9219,148.2969 401.7344,148.3906 C401.3125,148.6563 400.625,148.7813 399.8594,148.7813 C397.8125,148.7813 396.5156,147.6875 396.5156,145.9844 L396.5156,144.8906 C396.5156,143.1094 397.7656,141.7969 399.5,141.7969 C400.0781,141.7969 400.6875,141.9531 401.1563,142.2031 C401.6406,142.4844 401.8125,142.7031 401.9063,143.1094 C401.9688,143.5156 402,143.6406 402.1406,143.7656 C402.2813,143.9063 402.5156,144.0156 402.7344,144.0156 C403,144.0156 403.2656,143.875 403.4375,143.6563 C403.5469,143.5 403.5781,143.3125 403.5781,142.8906 L403.5781,141.4688 C403.5781,141.0313 403.5625,140.9063 403.4688,140.75 C403.3125,140.4844 403.0313,140.3438 402.7344,140.3438 C402.4375,140.3438 402.2344,140.4375 402.0156,140.75 L401.8438,140.6719 Z " fill="#000000"/><text fill="#000000" font-family="sans-serif" font-size="14" lengthAdjust="spacing" textLength="42" x="413.5" y="149.8467">List`1</text><rect fill="#FFFFFF" height="15.9688" style="stroke:#181818;stroke-width:1.0;stroke-dasharray:2.0,2.0;" width="9" x="463.5" y="126"/><text fill="#000000" font-family="sans-serif" font-size="12" font-style="italic" lengthAdjust="spacing" textLength="7" x="464.5" y="138.1387">T</text><line style="stroke:#181818;stroke-width:0.5;" x1="385.5" x2="468.5" y1="161" y2="161"/><line style="stroke:#181818;stroke-width:0.5;" x1="385.5" x2="468.5" y1="169" y2="169"/></g><!--link Parameters to Parameters--><g id="link_Parameters_Parameters"><path codeLine="20" d="M331.298,105.017 C352.195,113.338 366,129.332 366,153 C366,176.668 357.7693,190.4423 336.8723,198.7634 " fill="none" id="Parameters-to-Parameters" style="stroke:#181818;stroke-width:1.0;"/><polygon fill="#181818" points="331.298,200.9831,341.1393,201.3698,335.9433,199.1334,338.1797,193.9374,331.298,200.9831" style="stroke:#181818;stroke-width:1.0;"/><text fill="#000000" font-family="sans-serif" font-size="13" lengthAdjust="spacing" textLength="61" x="338.8292" y="199.625">_instance</text></g><!--link Parameters to List`1--><g id="link_Parameters_List`1"><path codeLine="21" d="M342.0125,250.5509 C368.9485,238.8509 381.5465,222.5993 408.4815,182.2541 " fill="none" id="Parameters-List`1" style="stroke:#181818;stroke-width:1.0;"/><polygon fill="none" points="331.006,255.3317,338.1029,256.6101,342.0125,250.5509,334.9157,249.2724,331.006,255.3317" style="stroke:#181818;stroke-width:1.0;"/><polygon fill="#181818" points="411.813,177.264,403.489,182.5282,409.0368,181.4224,410.1425,186.9702,411.813,177.264" style="stroke:#181818;stroke-width:1.0;"/><text fill="#000000" font-family="sans-serif" font-size="13" lengthAdjust="spacing" textLength="223" x="435.2893" y="197.0896">EncryptionExstensionsList&lt;string&gt;</text></g><!--link Parameters to List`1--><g id="link_Parameters_List`1"><path codeLine="22" d="M343.006,153 C360.755,153 360.504,153 378.253,153 " fill="none" id="Parameters-List`1-1" style="stroke:#181818;stroke-width:1.0;"/><polygon fill="none" points="331.006,153,337.006,157,343.006,153,337.006,149,331.006,153" style="stroke:#181818;stroke-width:1.0;"/><polygon fill="#181818" points="384.253,153,375.253,149,379.253,153,375.253,157,384.253,153" style="stroke:#181818;stroke-width:1.0;"/><text fill="#000000" font-family="sans-serif" font-size="13" lengthAdjust="spacing" textLength="193" x="478.3208" y="137.0581">PriorityExtensionsList&lt;string&gt;</text></g><!--link Parameters to List`1--><g id="link_Parameters_List`1"><path codeLine="23" d="M342.0125,55.4488 C368.9485,67.1488 381.5465,83.4009 408.4815,123.7459 " fill="none" id="Parameters-List`1-2" style="stroke:#181818;stroke-width:1.0;"/><polygon fill="none" points="331.006,50.668,334.9157,56.7273,342.0125,55.4488,338.1029,49.3896,331.006,50.668" style="stroke:#181818;stroke-width:1.0;"/><polygon fill="#181818" points="411.813,128.736,410.1425,119.0298,409.0368,124.5776,403.489,123.4718,411.813,128.736" style="stroke:#181818;stroke-width:1.0;"/><text fill="#000000" font-family="sans-serif" font-size="13" lengthAdjust="spacing" textLength="211" x="433.8268" y="118.0766">BusinessApplicationsList&lt;string&gt;</text></g><!--SRC=[bP9DQyCm38Rl-HN6fuIHmwwb13RenhuWR8CTE-EAJInpWgMDPYN_VNRgjauRHcR8mT7plf8iwKeHYL9PzGaCbiGc4UwSYONHjcqOQtC7hPW9OelcBGGVrFeAAtZ27t0XDDp_pyM6M37gJYnXpM38gJtdlrBn-z0cZzAcMN3UErm3tnXtCHhIp0aFR21VB38Cgam_e9rj4tZ5Tushm3w2MWtHxBWbZznIRGxO8cuXFNBii_-3tzbVVX4Q8BfecWgryZhwqt-gO9UWj5WxRJkj-acqjuucFces6kyItQ-Nl4VYrtCvVoxSVdL9j6vvNWYvn31f6OyvecfFnIzDeLpoplFj80kvJtIYFUbpgd3i-SUblm00]--></g></svg>