<?xml version="1.0" encoding="us-ascii" standalone="no"?><svg xmlns="http://www.w3.org/2000/svg" xmlns:xlink="http://www.w3.org/1999/xlink" contentStyleType="text/css" height="417px" preserveAspectRatio="none" style="width:503px;height:417px;background:#FFFFFF;" version="1.1" viewBox="0 0 503 417" width="503px" zoomAndPan="magnify"><defs/><g><!--class ParametersPage--><g id="elem_ParametersPage"><rect codeLine="1" fill="#F1F1F1" height="186.6406" id="ParametersPage" rx="2.5" ry="2.5" style="stroke:#181818;stroke-width:0.5;" width="487" x="9" y="115"/><ellipse cx="189.25" cy="135.1328" fill="#ADD1B2" rx="11" ry="11" style="stroke:#181818;stroke-width:1.0;"/><path d="M191.5938,130.8047 C190.6563,130.3672 190.0625,130.2266 189.1875,130.2266 C186.5625,130.2266 184.5625,132.3047 184.5625,135.0234 L184.5625,136.1484 C184.5625,138.7266 186.6719,140.6172 189.5625,140.6172 C190.7813,140.6172 191.9375,140.3203 192.6875,139.7734 C193.2656,139.3672 193.5938,138.9141 193.5938,138.5234 C193.5938,138.0703 193.2031,137.6797 192.7344,137.6797 C192.5156,137.6797 192.3125,137.7578 192.125,137.9453 C191.6719,138.4297 191.6719,138.4297 191.4844,138.5234 C191.0625,138.7891 190.375,138.9141 189.6094,138.9141 C187.5625,138.9141 186.2656,137.8203 186.2656,136.1172 L186.2656,135.0234 C186.2656,133.2422 187.5156,131.9297 189.25,131.9297 C189.8281,131.9297 190.4375,132.0859 190.9063,132.3359 C191.3906,132.6172 191.5625,132.8359 191.6563,133.2422 C191.7188,133.6484 191.75,133.7734 191.8906,133.8984 C192.0313,134.0391 192.2656,134.1484 192.4844,134.1484 C192.75,134.1484 193.0156,134.0078 193.1875,133.7891 C193.2969,133.6328 193.3281,133.4453 193.3281,133.0234 L193.3281,131.6016 C193.3281,131.1641 193.3125,131.0391 193.2188,130.8828 C193.0625,130.6172 192.7813,130.4766 192.4844,130.4766 C192.1875,130.4766 191.9844,130.5703 191.7656,130.8828 L191.5938,130.8047 Z " fill="#000000"/><text fill="#000000" font-family="sans-serif" font-size="12" font-style="italic" lengthAdjust="spacing" textLength="52" x="242.75" y="131.1387">&#171;partial&#187;</text><text fill="#000000" font-family="sans-serif" font-size="14" lengthAdjust="spacing" textLength="118" x="209.75" y="146.9639">ParametersPage</text><line style="stroke:#181818;stroke-width:0.5;" x1="10" x2="495" y1="155.2656" y2="155.2656"/><rect fill="none" height="6" style="stroke:#C82930;stroke-width:1.0;" width="6" x="17" y="165.9141"/><text fill="#000000" font-family="sans-serif" font-size="14" lengthAdjust="spacing" textLength="135" x="29" y="172.2607">choice : string = ""</text><rect fill="none" height="6" style="stroke:#C82930;stroke-width:1.0;" width="6" x="17" y="182.2109"/><text fill="#000000" font-family="sans-serif" font-size="14" lengthAdjust="spacing" textLength="199" x="29" y="188.5576">returnPressed : bool = false</text><line style="stroke:#181818;stroke-width:0.5;" x1="10" x2="495" y1="195.8594" y2="195.8594"/><ellipse cx="20" cy="209.5078" fill="#84BE84" rx="3" ry="3" style="stroke:#038048;stroke-width:1.0;"/><text fill="#000000" font-family="sans-serif" font-size="14" lengthAdjust="spacing" textLength="403" x="29" y="212.8545">ParametersPage(viewModel:ParametersPageViewModel)</text><rect fill="#F24D5C" height="6" style="stroke:#C82930;stroke-width:1.0;" width="6" x="17" y="222.8047"/><text fill="#000000" font-family="sans-serif" font-size="14" lengthAdjust="spacing" textLength="194" x="29" y="229.1514">LoadLocalizedTexts() : void</text><rect fill="#F24D5C" height="6" style="stroke:#C82930;stroke-width:1.0;" width="6" x="17" y="239.1016"/><text fill="#000000" font-family="sans-serif" font-size="14" lengthAdjust="spacing" textLength="316" x="29" y="245.4482">UpdateParametersView(choice:string) : void</text><rect fill="#F24D5C" height="6" style="stroke:#C82930;stroke-width:1.0;" width="6" x="17" y="255.3984"/><text fill="#000000" font-family="sans-serif" font-size="14" lengthAdjust="spacing" textLength="399" x="29" y="261.7451">OnParameterClicked(sender:object, e:EventArgs) : void</text><rect fill="#F24D5C" height="6" style="stroke:#C82930;stroke-width:1.0;" width="6" x="17" y="271.6953"/><text fill="#000000" font-family="sans-serif" font-size="14" lengthAdjust="spacing" textLength="461" x="29" y="278.042">&#171;async&#187; ReturnHome_Clicked(sender:object, e:EventArgs) : void</text><polygon fill="#FFFF44" points="20,285.9922,24,289.9922,20,293.9922,16,289.9922" style="stroke:#B38D22;stroke-width:1.0;"/><text fill="#000000" font-family="sans-serif" font-size="14" lengthAdjust="spacing" textLength="248" x="29" y="294.3389">&#171;override&#187; OnDisappearing() : void</text></g><!--class ContentPage--><g id="elem_ContentPage"><rect fill="#F1F1F1" height="48" id="ContentPage" rx="2.5" ry="2.5" style="stroke:#181818;stroke-width:0.5;" width="127" x="189" y="7"/><ellipse cx="204" cy="23" fill="#ADD1B2" rx="11" ry="11" style="stroke:#181818;stroke-width:1.0;"/><path d="M206.3438,18.6719 C205.4063,18.2344 204.8125,18.0938 203.9375,18.0938 C201.3125,18.0938 199.3125,20.1719 199.3125,22.8906 L199.3125,24.0156 C199.3125,26.5938 201.4219,28.4844 204.3125,28.4844 C205.5313,28.4844 206.6875,28.1875 207.4375,27.6406 C208.0156,27.2344 208.3438,26.7813 208.3438,26.3906 C208.3438,25.9375 207.9531,25.5469 207.4844,25.5469 C207.2656,25.5469 207.0625,25.625 206.875,25.8125 C206.4219,26.2969 206.4219,26.2969 206.2344,26.3906 C205.8125,26.6563 205.125,26.7813 204.3594,26.7813 C202.3125,26.7813 201.0156,25.6875 201.0156,23.9844 L201.0156,22.8906 C201.0156,21.1094 202.2656,19.7969 204,19.7969 C204.5781,19.7969 205.1875,19.9531 205.6563,20.2031 C206.1406,20.4844 206.3125,20.7031 206.4063,21.1094 C206.4688,21.5156 206.5,21.6406 206.6406,21.7656 C206.7813,21.9063 207.0156,22.0156 207.2344,22.0156 C207.5,22.0156 207.7656,21.875 207.9375,21.6563 C208.0469,21.5 208.0781,21.3125 208.0781,20.8906 L208.0781,19.4688 C208.0781,19.0313 208.0625,18.9063 207.9688,18.75 C207.8125,18.4844 207.5313,18.3438 207.2344,18.3438 C206.9375,18.3438 206.7344,18.4375 206.5156,18.75 L206.3438,18.6719 Z " fill="#000000"/><text fill="#000000" font-family="sans-serif" font-size="14" lengthAdjust="spacing" textLength="95" x="218" y="27.8467">ContentPage</text><line style="stroke:#181818;stroke-width:0.5;" x1="190" x2="315" y1="39" y2="39"/><line style="stroke:#181818;stroke-width:0.5;" x1="190" x2="315" y1="47" y2="47"/></g><!--class ParametersPageViewModel--><g id="elem_ParametersPageViewModel"><rect fill="#F1F1F1" height="48" id="ParametersPageViewModel" rx="2.5" ry="2.5" style="stroke:#181818;stroke-width:0.5;" width="227" x="25" y="362"/><ellipse cx="40" cy="378" fill="#ADD1B2" rx="11" ry="11" style="stroke:#181818;stroke-width:1.0;"/><path d="M42.3438,373.6719 C41.4063,373.2344 40.8125,373.0938 39.9375,373.0938 C37.3125,373.0938 35.3125,375.1719 35.3125,377.8906 L35.3125,379.0156 C35.3125,381.5938 37.4219,383.4844 40.3125,383.4844 C41.5313,383.4844 42.6875,383.1875 43.4375,382.6406 C44.0156,382.2344 44.3438,381.7813 44.3438,381.3906 C44.3438,380.9375 43.9531,380.5469 43.4844,380.5469 C43.2656,380.5469 43.0625,380.625 42.875,380.8125 C42.4219,381.2969 42.4219,381.2969 42.2344,381.3906 C41.8125,381.6563 41.125,381.7813 40.3594,381.7813 C38.3125,381.7813 37.0156,380.6875 37.0156,378.9844 L37.0156,377.8906 C37.0156,376.1094 38.2656,374.7969 40,374.7969 C40.5781,374.7969 41.1875,374.9531 41.6563,375.2031 C42.1406,375.4844 42.3125,375.7031 42.4063,376.1094 C42.4688,376.5156 42.5,376.6406 42.6406,376.7656 C42.7813,376.9063 43.0156,377.0156 43.2344,377.0156 C43.5,377.0156 43.7656,376.875 43.9375,376.6563 C44.0469,376.5 44.0781,376.3125 44.0781,375.8906 L44.0781,374.4688 C44.0781,374.0313 44.0625,373.9063 43.9688,373.75 C43.8125,373.4844 43.5313,373.3438 43.2344,373.3438 C42.9375,373.3438 42.7344,373.4375 42.5156,373.75 L42.3438,373.6719 Z " fill="#000000"/><text fill="#000000" font-family="sans-serif" font-size="14" lengthAdjust="spacing" textLength="195" x="54" y="382.8467">ParametersPageViewModel</text><line style="stroke:#181818;stroke-width:0.5;" x1="26" x2="251" y1="394" y2="394"/><line style="stroke:#181818;stroke-width:0.5;" x1="26" x2="251" y1="402" y2="402"/></g><!--class ResourceManager--><g id="elem_ResourceManager"><rect fill="#F1F1F1" height="48" id="ResourceManager" rx="2.5" ry="2.5" style="stroke:#181818;stroke-width:0.5;" width="159" x="287" y="362"/><ellipse cx="302" cy="378" fill="#ADD1B2" rx="11" ry="11" style="stroke:#181818;stroke-width:1.0;"/><path d="M304.3438,373.6719 C303.4063,373.2344 302.8125,373.0938 301.9375,373.0938 C299.3125,373.0938 297.3125,375.1719 297.3125,377.8906 L297.3125,379.0156 C297.3125,381.5938 299.4219,383.4844 302.3125,383.4844 C303.5313,383.4844 304.6875,383.1875 305.4375,382.6406 C306.0156,382.2344 306.3438,381.7813 306.3438,381.3906 C306.3438,380.9375 305.9531,380.5469 305.4844,380.5469 C305.2656,380.5469 305.0625,380.625 304.875,380.8125 C304.4219,381.2969 304.4219,381.2969 304.2344,381.3906 C303.8125,381.6563 303.125,381.7813 302.3594,381.7813 C300.3125,381.7813 299.0156,380.6875 299.0156,378.9844 L299.0156,377.8906 C299.0156,376.1094 300.2656,374.7969 302,374.7969 C302.5781,374.7969 303.1875,374.9531 303.6563,375.2031 C304.1406,375.4844 304.3125,375.7031 304.4063,376.1094 C304.4688,376.5156 304.5,376.6406 304.6406,376.7656 C304.7813,376.9063 305.0156,377.0156 305.2344,377.0156 C305.5,377.0156 305.7656,376.875 305.9375,376.6563 C306.0469,376.5 306.0781,376.3125 306.0781,375.8906 L306.0781,374.4688 C306.0781,374.0313 306.0625,373.9063 305.9688,373.75 C305.8125,373.4844 305.5313,373.3438 305.2344,373.3438 C304.9375,373.3438 304.7344,373.4375 304.5156,373.75 L304.3438,373.6719 Z " fill="#000000"/><text fill="#000000" font-family="sans-serif" font-size="14" lengthAdjust="spacing" textLength="127" x="316" y="382.8467">ResourceManager</text><line style="stroke:#181818;stroke-width:0.5;" x1="288" x2="445" y1="394" y2="394"/><line style="stroke:#181818;stroke-width:0.5;" x1="288" x2="445" y1="402" y2="402"/></g><!--reverse link ContentPage to ParametersPage--><g id="link_ContentPage_ParametersPage"><path codeLine="11" d="M252.5,73.305 C252.5,88.97 252.5,92.74 252.5,114.924 " fill="none" id="ContentPage-backto-ParametersPage" style="stroke:#181818;stroke-width:1.0;"/><polygon fill="none" points="252.5,55.305,246.5,73.305,258.5,73.305,252.5,55.305" style="stroke:#181818;stroke-width:1.0;"/></g><!--link ParametersPage to ParametersPageViewModel--><g id="link_ParametersPage_ParametersPageViewModel"><path codeLine="12" d="M192.329,302.132 C177.877,324.3802 166.9664,341.1767 156.7914,356.8408 " fill="none" id="ParametersPage-to-ParametersPageViewModel" style="stroke:#181818;stroke-width:1.0;"/><polygon fill="#181818" points="153.523,361.8724,161.7801,356.5039,156.2467,357.6794,155.0712,352.146,153.523,361.8724" style="stroke:#181818;stroke-width:1.0;"/><text fill="#000000" font-family="sans-serif" font-size="13" lengthAdjust="spacing" textLength="67" x="81.7883" y="350.8517">viewModel</text></g><!--link ParametersPage to ResourceManager--><g id="link_ParametersPage_ResourceManager"><path codeLine="13" d="M312.671,302.132 C327.123,324.3802 338.0336,341.1767 348.2086,356.8408 " fill="none" id="ParametersPage-to-ResourceManager" style="stroke:#181818;stroke-width:1.0;"/><polygon fill="#181818" points="351.477,361.8724,349.9288,352.146,348.7533,357.6794,343.2199,356.5039,351.477,361.8724" style="stroke:#181818;stroke-width:1.0;"/><text fill="#000000" font-family="sans-serif" font-size="13" lengthAdjust="spacing" textLength="118" x="256.5979" y="350.9142">_resourceManager</text></g><!--SRC=[bP7FJiCm3CRlVGghN3f1Nw0gbT10uh1f5GAkavUO4iYIoixA_tSdMykcLN30H_lpp_PdPL44QcHSKo2M6Xk2icoHWq5RLV2HG8mSrACtYg002MnS0-UGfaE9AMpOrKmYfADYvRsDzGUqGZl9wMX0rXbwcNjDjZWktF_a9mDwvb7Fl49htadVqckGR18dTDxeGN7NQWnqm6mHMRziqQywQbYulNXgZNecdGavJLpurHEfS0PKN7NamWKtCkejIvGtfw8jDxkRh_sQbl-ad4IAxuZPQ8gWXRiqWcrBkDtrSDrNClKkH43_aSyy7vcOZ9wMvnMaUsDJ-CFPNzkMyNT-muhcw6AIqtZVKU8R]--></g></svg>