<?xml version="1.0" encoding="us-ascii" standalone="no"?><svg xmlns="http://www.w3.org/2000/svg" xmlns:xlink="http://www.w3.org/1999/xlink" contentStyleType="text/css" height="85px" preserveAspectRatio="none" style="width:220px;height:85px;background:#FFFFFF;" version="1.1" viewBox="0 0 220 85" width="220px" zoomAndPan="magnify"><defs/><g><!--class Program--><g id="elem_Program"><rect codeLine="1" fill="#F1F1F1" height="64.2969" id="Program" rx="2.5" ry="2.5" style="stroke:#181818;stroke-width:0.5;" width="199" x="7" y="7"/><ellipse cx="71.75" cy="23" fill="#ADD1B2" rx="11" ry="11" style="stroke:#181818;stroke-width:1.0;"/><path d="M74.0938,18.6719 C73.1563,18.2344 72.5625,18.0938 71.6875,18.0938 C69.0625,18.0938 67.0625,20.1719 67.0625,22.8906 L67.0625,24.0156 C67.0625,26.5938 69.1719,28.4844 72.0625,28.4844 C73.2813,28.4844 74.4375,28.1875 75.1875,27.6406 C75.7656,27.2344 76.0938,26.7813 76.0938,26.3906 C76.0938,25.9375 75.7031,25.5469 75.2344,25.5469 C75.0156,25.5469 74.8125,25.625 74.625,25.8125 C74.1719,26.2969 74.1719,26.2969 73.9844,26.3906 C73.5625,26.6563 72.875,26.7813 72.1094,26.7813 C70.0625,26.7813 68.7656,25.6875 68.7656,23.9844 L68.7656,22.8906 C68.7656,21.1094 70.0156,19.7969 71.75,19.7969 C72.3281,19.7969 72.9375,19.9531 73.4063,20.2031 C73.8906,20.4844 74.0625,20.7031 74.1563,21.1094 C74.2188,21.5156 74.25,21.6406 74.3906,21.7656 C74.5313,21.9063 74.7656,22.0156 74.9844,22.0156 C75.25,22.0156 75.5156,21.875 75.6875,21.6563 C75.7969,21.5 75.8281,21.3125 75.8281,20.8906 L75.8281,19.4688 C75.8281,19.0313 75.8125,18.9063 75.7188,18.75 C75.5625,18.4844 75.2813,18.3438 74.9844,18.3438 C74.6875,18.3438 74.4844,18.4375 74.2656,18.75 L74.0938,18.6719 Z " fill="#000000"/><text fill="#000000" font-family="sans-serif" font-size="14" lengthAdjust="spacing" textLength="61" x="92.25" y="27.8467">Program</text><line style="stroke:#181818;stroke-width:0.5;" x1="8" x2="205" y1="39" y2="39"/><line style="stroke:#181818;stroke-width:0.5;" x1="8" x2="205" y1="47" y2="47"/><rect fill="#F24D5C" height="6" style="stroke:#C82930;stroke-width:1.0;" width="6" x="15" y="57.6484"/><text fill="#000000" font-family="sans-serif" font-size="14" lengthAdjust="spacing" text-decoration="underline" textLength="173" x="27" y="63.9951">Main(args:string[]) : void</text></g><!--SRC=[Iyv9B2vM22ZAJozAp5Mevb80WkhYaiIIpEHQ1Lq5tyJCF8t4elHYg-AIeioyzEXOJGKhXRByp1IkMW00]--></g></svg>