<?xml version="1.0" encoding="us-ascii" standalone="no"?><svg xmlns="http://www.w3.org/2000/svg" xmlns:xlink="http://www.w3.org/1999/xlink" contentStyleType="text/css" height="210px" preserveAspectRatio="none" style="width:678px;height:210px;background:#FFFFFF;" version="1.1" viewBox="0 0 678 210" width="678px" zoomAndPan="magnify"><defs/><g><!--class RunSavesPageViewModel--><g id="elem_RunSavesPageViewModel"><rect codeLine="1" fill="#F1F1F1" height="88.8594" id="RunSavesPageViewModel" rx="2.5" ry="2.5" style="stroke:#181818;stroke-width:0.5;" width="216" x="7" y="115"/><ellipse cx="23.8" cy="135.1328" fill="#ADD1B2" rx="11" ry="11" style="stroke:#181818;stroke-width:1.0;"/><path d="M26.1438,130.8047 C25.2063,130.3672 24.6125,130.2266 23.7375,130.2266 C21.1125,130.2266 19.1125,132.3047 19.1125,135.0234 L19.1125,136.1484 C19.1125,138.7266 21.2219,140.6172 24.1125,140.6172 C25.3313,140.6172 26.4875,140.3203 27.2375,139.7734 C27.8156,139.3672 28.1438,138.9141 28.1438,138.5234 C28.1438,138.0703 27.7531,137.6797 27.2844,137.6797 C27.0656,137.6797 26.8625,137.7578 26.675,137.9453 C26.2219,138.4297 26.2219,138.4297 26.0344,138.5234 C25.6125,138.7891 24.925,138.9141 24.1594,138.9141 C22.1125,138.9141 20.8156,137.8203 20.8156,136.1172 L20.8156,135.0234 C20.8156,133.2422 22.0656,131.9297 23.8,131.9297 C24.3781,131.9297 24.9875,132.0859 25.4563,132.3359 C25.9406,132.6172 26.1125,132.8359 26.2063,133.2422 C26.2688,133.6484 26.3,133.7734 26.4406,133.8984 C26.5813,134.0391 26.8156,134.1484 27.0344,134.1484 C27.3,134.1484 27.5656,134.0078 27.7375,133.7891 C27.8469,133.6328 27.8781,133.4453 27.8781,133.0234 L27.8781,131.6016 C27.8781,131.1641 27.8625,131.0391 27.7688,130.8828 C27.6125,130.6172 27.3313,130.4766 27.0344,130.4766 C26.7375,130.4766 26.5344,130.5703 26.3156,130.8828 L26.1438,130.8047 Z " fill="#000000"/><text fill="#000000" font-family="sans-serif" font-size="12" font-style="italic" lengthAdjust="spacing" textLength="52" x="102.2" y="131.1387">&#171;partial&#187;</text><text fill="#000000" font-family="sans-serif" font-size="14" lengthAdjust="spacing" textLength="180" x="38.2" y="146.9639">RunSavesPageViewModel</text><line style="stroke:#181818;stroke-width:0.5;" x1="8" x2="222" y1="155.2656" y2="155.2656"/><line style="stroke:#181818;stroke-width:0.5;" x1="8" x2="222" y1="163.2656" y2="163.2656"/><ellipse cx="18" cy="176.9141" fill="#84BE84" rx="3" ry="3" style="stroke:#038048;stroke-width:1.0;"/><text fill="#000000" font-family="sans-serif" font-size="14" lengthAdjust="spacing" textLength="190" x="27" y="180.2607">RunSavesPageViewModel()</text><ellipse cx="18" cy="193.2109" fill="#84BE84" rx="3" ry="3" style="stroke:#038048;stroke-width:1.0;"/><text fill="#000000" font-family="sans-serif" font-size="14" lengthAdjust="spacing" textLength="170" x="27" y="196.5576">GetSauvegardes() : void</text></g><!--class ObservableCollection`1--><g id="elem_ObservableCollection`1"><rect codeLine="5" fill="#F1F1F1" height="48" id="ObservableCollection`1" rx="2.5" ry="2.5" style="stroke:#181818;stroke-width:0.5;" width="214" x="258" y="135.5"/><ellipse cx="273" cy="151.5" fill="#ADD1B2" rx="11" ry="11" style="stroke:#181818;stroke-width:1.0;"/><path d="M275.3438,147.1719 C274.4063,146.7344 273.8125,146.5938 272.9375,146.5938 C270.3125,146.5938 268.3125,148.6719 268.3125,151.3906 L268.3125,152.5156 C268.3125,155.0938 270.4219,156.9844 273.3125,156.9844 C274.5313,156.9844 275.6875,156.6875 276.4375,156.1406 C277.0156,155.7344 277.3438,155.2813 277.3438,154.8906 C277.3438,154.4375 276.9531,154.0469 276.4844,154.0469 C276.2656,154.0469 276.0625,154.125 275.875,154.3125 C275.4219,154.7969 275.4219,154.7969 275.2344,154.8906 C274.8125,155.1563 274.125,155.2813 273.3594,155.2813 C271.3125,155.2813 270.0156,154.1875 270.0156,152.4844 L270.0156,151.3906 C270.0156,149.6094 271.2656,148.2969 273,148.2969 C273.5781,148.2969 274.1875,148.4531 274.6563,148.7031 C275.1406,148.9844 275.3125,149.2031 275.4063,149.6094 C275.4688,150.0156 275.5,150.1406 275.6406,150.2656 C275.7813,150.4063 276.0156,150.5156 276.2344,150.5156 C276.5,150.5156 276.7656,150.375 276.9375,150.1563 C277.0469,150 277.0781,149.8125 277.0781,149.3906 L277.0781,147.9688 C277.0781,147.5313 277.0625,147.4063 276.9688,147.25 C276.8125,146.9844 276.5313,146.8438 276.2344,146.8438 C275.9375,146.8438 275.7344,146.9375 275.5156,147.25 L275.3438,147.1719 Z " fill="#000000"/><text fill="#000000" font-family="sans-serif" font-size="14" lengthAdjust="spacing" textLength="171" x="287" y="156.3467">ObservableCollection`1</text><rect fill="#FFFFFF" height="15.9688" style="stroke:#181818;stroke-width:1.0;stroke-dasharray:2.0,2.0;" width="9" x="466" y="132.5"/><text fill="#000000" font-family="sans-serif" font-size="12" font-style="italic" lengthAdjust="spacing" textLength="7" x="467" y="144.6387">T</text><line style="stroke:#181818;stroke-width:0.5;" x1="259" x2="471" y1="167.5" y2="167.5"/><line style="stroke:#181818;stroke-width:0.5;" x1="259" x2="471" y1="175.5" y2="175.5"/></g><!--class BaseViewModel--><g id="elem_BaseViewModel"><rect fill="#F1F1F1" height="48" id="BaseViewModel" rx="2.5" ry="2.5" style="stroke:#181818;stroke-width:0.5;" width="143" x="43.5" y="7"/><ellipse cx="58.5" cy="23" fill="#ADD1B2" rx="11" ry="11" style="stroke:#181818;stroke-width:1.0;"/><path d="M60.8438,18.6719 C59.9063,18.2344 59.3125,18.0938 58.4375,18.0938 C55.8125,18.0938 53.8125,20.1719 53.8125,22.8906 L53.8125,24.0156 C53.8125,26.5938 55.9219,28.4844 58.8125,28.4844 C60.0313,28.4844 61.1875,28.1875 61.9375,27.6406 C62.5156,27.2344 62.8438,26.7813 62.8438,26.3906 C62.8438,25.9375 62.4531,25.5469 61.9844,25.5469 C61.7656,25.5469 61.5625,25.625 61.375,25.8125 C60.9219,26.2969 60.9219,26.2969 60.7344,26.3906 C60.3125,26.6563 59.625,26.7813 58.8594,26.7813 C56.8125,26.7813 55.5156,25.6875 55.5156,23.9844 L55.5156,22.8906 C55.5156,21.1094 56.7656,19.7969 58.5,19.7969 C59.0781,19.7969 59.6875,19.9531 60.1563,20.2031 C60.6406,20.4844 60.8125,20.7031 60.9063,21.1094 C60.9688,21.5156 61,21.6406 61.1406,21.7656 C61.2813,21.9063 61.5156,22.0156 61.7344,22.0156 C62,22.0156 62.2656,21.875 62.4375,21.6563 C62.5469,21.5 62.5781,21.3125 62.5781,20.8906 L62.5781,19.4688 C62.5781,19.0313 62.5625,18.9063 62.4688,18.75 C62.3125,18.4844 62.0313,18.3438 61.7344,18.3438 C61.4375,18.3438 61.2344,18.4375 61.0156,18.75 L60.8438,18.6719 Z " fill="#000000"/><text fill="#000000" font-family="sans-serif" font-size="14" lengthAdjust="spacing" textLength="111" x="72.5" y="27.8467">BaseViewModel</text><line style="stroke:#181818;stroke-width:0.5;" x1="44.5" x2="185.5" y1="39" y2="39"/><line style="stroke:#181818;stroke-width:0.5;" x1="44.5" x2="185.5" y1="47" y2="47"/></g><!--class SaveConfiguration--><g id="elem_SaveConfiguration"><rect fill="#F1F1F1" height="48" id="SaveConfiguration" rx="2.5" ry="2.5" style="stroke:#181818;stroke-width:0.5;" width="164" x="507" y="135.5"/><ellipse cx="522" cy="151.5" fill="#ADD1B2" rx="11" ry="11" style="stroke:#181818;stroke-width:1.0;"/><path d="M524.3438,147.1719 C523.4063,146.7344 522.8125,146.5938 521.9375,146.5938 C519.3125,146.5938 517.3125,148.6719 517.3125,151.3906 L517.3125,152.5156 C517.3125,155.0938 519.4219,156.9844 522.3125,156.9844 C523.5313,156.9844 524.6875,156.6875 525.4375,156.1406 C526.0156,155.7344 526.3438,155.2813 526.3438,154.8906 C526.3438,154.4375 525.9531,154.0469 525.4844,154.0469 C525.2656,154.0469 525.0625,154.125 524.875,154.3125 C524.4219,154.7969 524.4219,154.7969 524.2344,154.8906 C523.8125,155.1563 523.125,155.2813 522.3594,155.2813 C520.3125,155.2813 519.0156,154.1875 519.0156,152.4844 L519.0156,151.3906 C519.0156,149.6094 520.2656,148.2969 522,148.2969 C522.5781,148.2969 523.1875,148.4531 523.6563,148.7031 C524.1406,148.9844 524.3125,149.2031 524.4063,149.6094 C524.4688,150.0156 524.5,150.1406 524.6406,150.2656 C524.7813,150.4063 525.0156,150.5156 525.2344,150.5156 C525.5,150.5156 525.7656,150.375 525.9375,150.1563 C526.0469,150 526.0781,149.8125 526.0781,149.3906 L526.0781,147.9688 C526.0781,147.5313 526.0625,147.4063 525.9688,147.25 C525.8125,146.9844 525.5313,146.8438 525.2344,146.8438 C524.9375,146.8438 524.7344,146.9375 524.5156,147.25 L524.3438,147.1719 Z " fill="#000000"/><text fill="#000000" font-family="sans-serif" font-size="14" lengthAdjust="spacing" textLength="132" x="536" y="156.3467">SaveConfiguration</text><line style="stroke:#181818;stroke-width:0.5;" x1="508" x2="670" y1="167.5" y2="167.5"/><line style="stroke:#181818;stroke-width:0.5;" x1="508" x2="670" y1="175.5" y2="175.5"/></g><!--reverse link BaseViewModel to RunSavesPageViewModel--><g id="link_BaseViewModel_RunSavesPageViewModel"><path codeLine="7" d="M115,73.202 C115,89.893 115,94.904 115,114.9714 " fill="none" id="BaseViewModel-backto-RunSavesPageViewModel" style="stroke:#181818;stroke-width:1.0;"/><polygon fill="none" points="115,55.202,109,73.202,121,73.202,115,55.202" style="stroke:#181818;stroke-width:1.0;"/></g><!--link RunSavesPageViewModel to SaveConfiguration--><g id="link_RunSavesPageViewModel_SaveConfiguration"><path codeLine="8" d="M195.1741,109.2067 C217.8391,97.0406 233.139,91.191 258.5,85 C350.898,62.444 381.211,58.307 472.5,85 C505.912,94.77 534.1586,113.6327 556.4396,131.3972 " fill="none" id="RunSavesPageViewModel-SaveConfiguration" style="stroke:#181818;stroke-width:1.0;"/><polygon fill="none" points="184.601,114.8821,191.7793,115.5688,195.1741,109.2067,187.9957,108.52,184.601,114.8821" style="stroke:#181818;stroke-width:1.0;"/><polygon fill="#181818" points="561.131,135.1376,556.5875,126.3994,557.2215,132.0206,551.6003,132.6546,561.131,135.1376" style="stroke:#181818;stroke-width:1.0;"/><text fill="#000000" font-family="sans-serif" font-size="13" lengthAdjust="spacing" textLength="124" x="469.7361" y="124.3924">_saveConfiguration</text></g><!--link RunSavesPageViewModel to ObservableCollection`1--><g id="link_RunSavesPageViewModel_ObservableCollection`1"><path codeLine="9" d="M235.398,159.5 C246.922,159.5 240.446,159.5 251.969,159.5 " fill="none" id="RunSavesPageViewModel-ObservableCollection`1" style="stroke:#181818;stroke-width:1.0;"/><polygon fill="none" points="223.398,159.5,229.398,163.5,235.398,159.5,229.398,155.5,223.398,159.5" style="stroke:#181818;stroke-width:1.0;"/><polygon fill="#181818" points="257.969,159.5,248.969,155.5,252.969,159.5,248.969,163.5,257.969,159.5" style="stroke:#181818;stroke-width:1.0;"/><text fill="#000000" font-family="sans-serif" font-size="13" lengthAdjust="spacing" textLength="91" x="158.0683" y="182.6">Saves&lt;Save&gt;</text></g><!--SRC=[VOun2y8m48Nt_8eZKujqS9MGmGvEebXnrMjxba189DV6GVlVROk3IFKDDxntlEzL5fdXqBa28_4U6pePkczzJHQKkc5e3LgjuI5Wq6B-CqdVwORQ0hj83OQQE4bX1T6RMlIYcZXoLpA5YAMbt5jBLMkykoobEew4NgoHF_dFB9i7Yld1FjCWppm4kNTNqtG1Hu24ujlwLp3vQhnQ_bpy0W00]--></g></svg>