<?xml version="1.0" encoding="us-ascii" standalone="no"?><svg xmlns="http://www.w3.org/2000/svg" xmlns:xlink="http://www.w3.org/1999/xlink" contentStyleType="text/css" height="417px" preserveAspectRatio="none" style="width:896px;height:417px;background:#FFFFFF;" version="1.1" viewBox="0 0 896 417" width="896px" zoomAndPan="magnify"><defs/><g><!--class RunSavesPage--><g id="elem_RunSavesPage"><rect codeLine="1" fill="#F1F1F1" height="186.6406" id="RunSavesPage" rx="2.5" ry="2.5" style="stroke:#181818;stroke-width:0.5;" width="607" x="9" y="115"/><ellipse cx="256.75" cy="135.1328" fill="#ADD1B2" rx="11" ry="11" style="stroke:#181818;stroke-width:1.0;"/><path d="M259.0938,130.8047 C258.1563,130.3672 257.5625,130.2266 256.6875,130.2266 C254.0625,130.2266 252.0625,132.3047 252.0625,135.0234 L252.0625,136.1484 C252.0625,138.7266 254.1719,140.6172 257.0625,140.6172 C258.2813,140.6172 259.4375,140.3203 260.1875,139.7734 C260.7656,139.3672 261.0938,138.9141 261.0938,138.5234 C261.0938,138.0703 260.7031,137.6797 260.2344,137.6797 C260.0156,137.6797 259.8125,137.7578 259.625,137.9453 C259.1719,138.4297 259.1719,138.4297 258.9844,138.5234 C258.5625,138.7891 257.875,138.9141 257.1094,138.9141 C255.0625,138.9141 253.7656,137.8203 253.7656,136.1172 L253.7656,135.0234 C253.7656,133.2422 255.0156,131.9297 256.75,131.9297 C257.3281,131.9297 257.9375,132.0859 258.4063,132.3359 C258.8906,132.6172 259.0625,132.8359 259.1563,133.2422 C259.2188,133.6484 259.25,133.7734 259.3906,133.8984 C259.5313,134.0391 259.7656,134.1484 259.9844,134.1484 C260.25,134.1484 260.5156,134.0078 260.6875,133.7891 C260.7969,133.6328 260.8281,133.4453 260.8281,133.0234 L260.8281,131.6016 C260.8281,131.1641 260.8125,131.0391 260.7188,130.8828 C260.5625,130.6172 260.2813,130.4766 259.9844,130.4766 C259.6875,130.4766 259.4844,130.5703 259.2656,130.8828 L259.0938,130.8047 Z " fill="#000000"/><text fill="#000000" font-family="sans-serif" font-size="12" font-style="italic" lengthAdjust="spacing" textLength="52" x="302.75" y="131.1387">&#171;partial&#187;</text><text fill="#000000" font-family="sans-serif" font-size="14" lengthAdjust="spacing" textLength="103" x="277.25" y="146.9639">RunSavesPage</text><line style="stroke:#181818;stroke-width:0.5;" x1="10" x2="615" y1="155.2656" y2="155.2656"/><rect fill="none" height="6" style="stroke:#C82930;stroke-width:1.0;" width="6" x="17" y="165.9141"/><text fill="#000000" font-family="sans-serif" font-size="14" lengthAdjust="spacing" textLength="199" x="29" y="172.2607">returnPressed : bool = false</text><line style="stroke:#181818;stroke-width:0.5;" x1="10" x2="615" y1="179.5625" y2="179.5625"/><ellipse cx="20" cy="193.2109" fill="#84BE84" rx="3" ry="3" style="stroke:#038048;stroke-width:1.0;"/><text fill="#000000" font-family="sans-serif" font-size="14" lengthAdjust="spacing" textLength="373" x="29" y="196.5576">RunSavesPage(viewModel:RunSavesPageViewModel)</text><rect fill="#F24D5C" height="6" style="stroke:#C82930;stroke-width:1.0;" width="6" x="17" y="206.5078"/><text fill="#000000" font-family="sans-serif" font-size="14" lengthAdjust="spacing" textLength="194" x="29" y="212.8545">LoadLocalizedTexts() : void</text><polygon fill="#FFFF44" points="20,220.8047,24,224.8047,20,228.8047,16,224.8047" style="stroke:#B38D22;stroke-width:1.0;"/><text fill="#000000" font-family="sans-serif" font-size="14" lengthAdjust="spacing" textLength="228" x="29" y="229.1514">&#171;override&#187; OnAppearing() : void</text><rect fill="#F24D5C" height="6" style="stroke:#C82930;stroke-width:1.0;" width="6" x="17" y="239.1016"/><text fill="#000000" font-family="sans-serif" font-size="14" lengthAdjust="spacing" textLength="429" x="29" y="245.4482">&#171;async&#187; OnImageTapped(sender:object, e:EventArgs) : void</text><rect fill="#F24D5C" height="6" style="stroke:#C82930;stroke-width:1.0;" width="6" x="17" y="255.3984"/><text fill="#000000" font-family="sans-serif" font-size="14" lengthAdjust="spacing" textLength="581" x="29" y="261.7451">CheckBox_CheckedChanged(sender:object, e:CheckedChangedEventArgs) : void</text><rect fill="#F24D5C" height="6" style="stroke:#C82930;stroke-width:1.0;" width="6" x="17" y="271.6953"/><text fill="#000000" font-family="sans-serif" font-size="14" lengthAdjust="spacing" textLength="175" x="29" y="278.042">EditorSaveEditor() : void</text><rect fill="#F24D5C" height="6" style="stroke:#C82930;stroke-width:1.0;" width="6" x="17" y="287.9922"/><text fill="#000000" font-family="sans-serif" font-size="14" lengthAdjust="spacing" textLength="488" x="29" y="294.3389">&#171;async&#187; RunSavesButton_Clicked(sender:object, e:EventArgs) : void</text></g><!--class List`1--><g id="elem_List`1"><rect codeLine="11" fill="#F1F1F1" height="48" id="List`1" rx="2.5" ry="2.5" style="stroke:#181818;stroke-width:0.5;" width="85" x="651" y="184.5"/><ellipse cx="666" cy="200.5" fill="#ADD1B2" rx="11" ry="11" style="stroke:#181818;stroke-width:1.0;"/><path d="M668.3438,196.1719 C667.4063,195.7344 666.8125,195.5938 665.9375,195.5938 C663.3125,195.5938 661.3125,197.6719 661.3125,200.3906 L661.3125,201.5156 C661.3125,204.0938 663.4219,205.9844 666.3125,205.9844 C667.5313,205.9844 668.6875,205.6875 669.4375,205.1406 C670.0156,204.7344 670.3438,204.2813 670.3438,203.8906 C670.3438,203.4375 669.9531,203.0469 669.4844,203.0469 C669.2656,203.0469 669.0625,203.125 668.875,203.3125 C668.4219,203.7969 668.4219,203.7969 668.2344,203.8906 C667.8125,204.1563 667.125,204.2813 666.3594,204.2813 C664.3125,204.2813 663.0156,203.1875 663.0156,201.4844 L663.0156,200.3906 C663.0156,198.6094 664.2656,197.2969 666,197.2969 C666.5781,197.2969 667.1875,197.4531 667.6563,197.7031 C668.1406,197.9844 668.3125,198.2031 668.4063,198.6094 C668.4688,199.0156 668.5,199.1406 668.6406,199.2656 C668.7813,199.4063 669.0156,199.5156 669.2344,199.5156 C669.5,199.5156 669.7656,199.375 669.9375,199.1563 C670.0469,199 670.0781,198.8125 670.0781,198.3906 L670.0781,196.9688 C670.0781,196.5313 670.0625,196.4063 669.9688,196.25 C669.8125,195.9844 669.5313,195.8438 669.2344,195.8438 C668.9375,195.8438 668.7344,195.9375 668.5156,196.25 L668.3438,196.1719 Z " fill="#000000"/><text fill="#000000" font-family="sans-serif" font-size="14" lengthAdjust="spacing" textLength="42" x="680" y="205.3467">List`1</text><rect fill="#FFFFFF" height="15.9688" style="stroke:#181818;stroke-width:1.0;stroke-dasharray:2.0,2.0;" width="9" x="730" y="181.5"/><text fill="#000000" font-family="sans-serif" font-size="12" font-style="italic" lengthAdjust="spacing" textLength="7" x="731" y="193.6387">T</text><line style="stroke:#181818;stroke-width:0.5;" x1="652" x2="735" y1="216.5" y2="216.5"/><line style="stroke:#181818;stroke-width:0.5;" x1="652" x2="735" y1="224.5" y2="224.5"/></g><!--class ContentPage--><g id="elem_ContentPage"><rect fill="#F1F1F1" height="48" id="ContentPage" rx="2.5" ry="2.5" style="stroke:#181818;stroke-width:0.5;" width="127" x="249" y="7"/><ellipse cx="264" cy="23" fill="#ADD1B2" rx="11" ry="11" style="stroke:#181818;stroke-width:1.0;"/><path d="M266.3438,18.6719 C265.4063,18.2344 264.8125,18.0938 263.9375,18.0938 C261.3125,18.0938 259.3125,20.1719 259.3125,22.8906 L259.3125,24.0156 C259.3125,26.5938 261.4219,28.4844 264.3125,28.4844 C265.5313,28.4844 266.6875,28.1875 267.4375,27.6406 C268.0156,27.2344 268.3438,26.7813 268.3438,26.3906 C268.3438,25.9375 267.9531,25.5469 267.4844,25.5469 C267.2656,25.5469 267.0625,25.625 266.875,25.8125 C266.4219,26.2969 266.4219,26.2969 266.2344,26.3906 C265.8125,26.6563 265.125,26.7813 264.3594,26.7813 C262.3125,26.7813 261.0156,25.6875 261.0156,23.9844 L261.0156,22.8906 C261.0156,21.1094 262.2656,19.7969 264,19.7969 C264.5781,19.7969 265.1875,19.9531 265.6563,20.2031 C266.1406,20.4844 266.3125,20.7031 266.4063,21.1094 C266.4688,21.5156 266.5,21.6406 266.6406,21.7656 C266.7813,21.9063 267.0156,22.0156 267.2344,22.0156 C267.5,22.0156 267.7656,21.875 267.9375,21.6563 C268.0469,21.5 268.0781,21.3125 268.0781,20.8906 L268.0781,19.4688 C268.0781,19.0313 268.0625,18.9063 267.9688,18.75 C267.8125,18.4844 267.5313,18.3438 267.2344,18.3438 C266.9375,18.3438 266.7344,18.4375 266.5156,18.75 L266.3438,18.6719 Z " fill="#000000"/><text fill="#000000" font-family="sans-serif" font-size="14" lengthAdjust="spacing" textLength="95" x="278" y="27.8467">ContentPage</text><line style="stroke:#181818;stroke-width:0.5;" x1="250" x2="375" y1="39" y2="39"/><line style="stroke:#181818;stroke-width:0.5;" x1="250" x2="375" y1="47" y2="47"/></g><!--class RunSavesPageViewModel--><g id="elem_RunSavesPageViewModel"><rect fill="#F1F1F1" height="48" id="RunSavesPageViewModel" rx="2.5" ry="2.5" style="stroke:#181818;stroke-width:0.5;" width="212" x="96.5" y="362"/><ellipse cx="111.5" cy="378" fill="#ADD1B2" rx="11" ry="11" style="stroke:#181818;stroke-width:1.0;"/><path d="M113.8438,373.6719 C112.9063,373.2344 112.3125,373.0938 111.4375,373.0938 C108.8125,373.0938 106.8125,375.1719 106.8125,377.8906 L106.8125,379.0156 C106.8125,381.5938 108.9219,383.4844 111.8125,383.4844 C113.0313,383.4844 114.1875,383.1875 114.9375,382.6406 C115.5156,382.2344 115.8438,381.7813 115.8438,381.3906 C115.8438,380.9375 115.4531,380.5469 114.9844,380.5469 C114.7656,380.5469 114.5625,380.625 114.375,380.8125 C113.9219,381.2969 113.9219,381.2969 113.7344,381.3906 C113.3125,381.6563 112.625,381.7813 111.8594,381.7813 C109.8125,381.7813 108.5156,380.6875 108.5156,378.9844 L108.5156,377.8906 C108.5156,376.1094 109.7656,374.7969 111.5,374.7969 C112.0781,374.7969 112.6875,374.9531 113.1563,375.2031 C113.6406,375.4844 113.8125,375.7031 113.9063,376.1094 C113.9688,376.5156 114,376.6406 114.1406,376.7656 C114.2813,376.9063 114.5156,377.0156 114.7344,377.0156 C115,377.0156 115.2656,376.875 115.4375,376.6563 C115.5469,376.5 115.5781,376.3125 115.5781,375.8906 L115.5781,374.4688 C115.5781,374.0313 115.5625,373.9063 115.4688,373.75 C115.3125,373.4844 115.0313,373.3438 114.7344,373.3438 C114.4375,373.3438 114.2344,373.4375 114.0156,373.75 L113.8438,373.6719 Z " fill="#000000"/><text fill="#000000" font-family="sans-serif" font-size="14" lengthAdjust="spacing" textLength="180" x="125.5" y="382.8467">RunSavesPageViewModel</text><line style="stroke:#181818;stroke-width:0.5;" x1="97.5" x2="307.5" y1="394" y2="394"/><line style="stroke:#181818;stroke-width:0.5;" x1="97.5" x2="307.5" y1="402" y2="402"/></g><!--class ResourceManager--><g id="elem_ResourceManager"><rect fill="#F1F1F1" height="48" id="ResourceManager" rx="2.5" ry="2.5" style="stroke:#181818;stroke-width:0.5;" width="159" x="344" y="362"/><ellipse cx="359" cy="378" fill="#ADD1B2" rx="11" ry="11" style="stroke:#181818;stroke-width:1.0;"/><path d="M361.3438,373.6719 C360.4063,373.2344 359.8125,373.0938 358.9375,373.0938 C356.3125,373.0938 354.3125,375.1719 354.3125,377.8906 L354.3125,379.0156 C354.3125,381.5938 356.4219,383.4844 359.3125,383.4844 C360.5313,383.4844 361.6875,383.1875 362.4375,382.6406 C363.0156,382.2344 363.3438,381.7813 363.3438,381.3906 C363.3438,380.9375 362.9531,380.5469 362.4844,380.5469 C362.2656,380.5469 362.0625,380.625 361.875,380.8125 C361.4219,381.2969 361.4219,381.2969 361.2344,381.3906 C360.8125,381.6563 360.125,381.7813 359.3594,381.7813 C357.3125,381.7813 356.0156,380.6875 356.0156,378.9844 L356.0156,377.8906 C356.0156,376.1094 357.2656,374.7969 359,374.7969 C359.5781,374.7969 360.1875,374.9531 360.6563,375.2031 C361.1406,375.4844 361.3125,375.7031 361.4063,376.1094 C361.4688,376.5156 361.5,376.6406 361.6406,376.7656 C361.7813,376.9063 362.0156,377.0156 362.2344,377.0156 C362.5,377.0156 362.7656,376.875 362.9375,376.6563 C363.0469,376.5 363.0781,376.3125 363.0781,375.8906 L363.0781,374.4688 C363.0781,374.0313 363.0625,373.9063 362.9688,373.75 C362.8125,373.4844 362.5313,373.3438 362.2344,373.3438 C361.9375,373.3438 361.7344,373.4375 361.5156,373.75 L361.3438,373.6719 Z " fill="#000000"/><text fill="#000000" font-family="sans-serif" font-size="14" lengthAdjust="spacing" textLength="127" x="373" y="382.8467">ResourceManager</text><line style="stroke:#181818;stroke-width:0.5;" x1="345" x2="502" y1="394" y2="394"/><line style="stroke:#181818;stroke-width:0.5;" x1="345" x2="502" y1="402" y2="402"/></g><!--reverse link ContentPage to RunSavesPage--><g id="link_ContentPage_RunSavesPage"><path codeLine="13" d="M312.5,73.305 C312.5,88.97 312.5,92.74 312.5,114.924 " fill="none" id="ContentPage-backto-RunSavesPage" style="stroke:#181818;stroke-width:1.0;"/><polygon fill="none" points="312.5,55.305,306.5,73.305,318.5,73.305,312.5,55.305" style="stroke:#181818;stroke-width:1.0;"/></g><!--link RunSavesPage to RunSavesPageViewModel--><g id="link_RunSavesPage_RunSavesPageViewModel"><path codeLine="14" d="M254.44,302.132 C240.495,324.3802 230.0005,341.1244 220.1825,356.7885 " fill="none" id="RunSavesPage-to-RunSavesPageViewModel" style="stroke:#181818;stroke-width:1.0;"/><polygon fill="#181818" points="216.996,361.8724,225.165,356.3709,219.6514,357.6358,218.3865,352.1222,216.996,361.8724" style="stroke:#181818;stroke-width:1.0;"/><text fill="#000000" font-family="sans-serif" font-size="13" lengthAdjust="spacing" textLength="67" x="145.1262" y="350.8517">viewModel</text></g><!--link RunSavesPage to List`1--><g id="link_RunSavesPage_List`1"><path codeLine="15" d="M628.109,208.5 C639.698,208.5 633.286,208.5 644.875,208.5 " fill="none" id="RunSavesPage-List`1" style="stroke:#181818;stroke-width:1.0;"/><polygon fill="none" points="616.109,208.5,622.109,212.5,628.109,208.5,622.109,204.5,616.109,208.5" style="stroke:#181818;stroke-width:1.0;"/><polygon fill="#181818" points="650.875,208.5,641.875,204.5,645.875,208.5,641.875,212.5,650.875,208.5" style="stroke:#181818;stroke-width:1.0;"/><text fill="#000000" font-family="sans-serif" font-size="13" lengthAdjust="spacing" textLength="146" x="743.5188" y="182.8944">SavesSelected&lt;Save&gt;</text></g><!--link RunSavesPage to ResourceManager--><g id="link_RunSavesPage_ResourceManager"><path codeLine="16" d="M371.088,302.132 C385.159,324.3802 395.7578,341.1374 405.6648,356.8015 " fill="none" id="RunSavesPage-to-ResourceManager" style="stroke:#181818;stroke-width:1.0;"/><polygon fill="#181818" points="408.872,361.8724,407.4418,352.1279,406.1994,357.6466,400.6806,356.4042,408.872,361.8724" style="stroke:#181818;stroke-width:1.0;"/><text fill="#000000" font-family="sans-serif" font-size="13" lengthAdjust="spacing" textLength="118" x="312.8056" y="350.9142">_resourceManager</text></g><!--SRC=[ZLBBJiCm4BpdAwnmIGKvS8r2f3Rg0QaL5Osubgszf0RZhMmdb4V_7IUb5KQfX4_hyUpis6Ekm5fst-Wbj6WNK2FByoqO9q4L1VkCc5yfC-WQenS6hKN1ChOcKko6FO6os5Ck0usabVWs9u4g-mq_7D7HZ-oCGCo8Wv8VA2hSEPkCl7fBKlIC2s-6MZH62lHkxlHukqKmKjSXB_KyiE-QzwJRLp-h0ayLYKKjq6IqVaRkhXXcqnQr6vlQ_X4eDyXV9hHRzGMASWEw7X88py_9JOLqPBgR7whpVeyFD6cS8xqgbUpa_sDy7_4-lNWchNkyZlEg2smVbQITvnx2_4hJ89eeo3fD2nQVmehPO5fX2tKj_NQ9odj3aNUx8Zxv61YnyZ-76iDn3jg3nayAWMy0]--></g></svg>