<?xml version="1.0" encoding="us-ascii" standalone="no"?><svg xmlns="http://www.w3.org/2000/svg" xmlns:xlink="http://www.w3.org/1999/xlink" contentStyleType="text/css" height="382px" preserveAspectRatio="none" style="width:881px;height:382px;background:#FFFFFF;" version="1.1" viewBox="0 0 881 382" width="881px" zoomAndPan="magnify"><defs/><g><!--class SaveConfiguration--><g id="elem_SaveConfiguration"><rect codeLine="1" fill="#F1F1F1" height="259.8594" id="SaveConfiguration" rx="2.5" ry="2.5" style="stroke:#181818;stroke-width:0.5;" width="799" x="7" y="7"/><ellipse cx="336.25" cy="23" fill="#ADD1B2" rx="11" ry="11" style="stroke:#181818;stroke-width:1.0;"/><path d="M338.5938,18.6719 C337.6563,18.2344 337.0625,18.0938 336.1875,18.0938 C333.5625,18.0938 331.5625,20.1719 331.5625,22.8906 L331.5625,24.0156 C331.5625,26.5938 333.6719,28.4844 336.5625,28.4844 C337.7813,28.4844 338.9375,28.1875 339.6875,27.6406 C340.2656,27.2344 340.5938,26.7813 340.5938,26.3906 C340.5938,25.9375 340.2031,25.5469 339.7344,25.5469 C339.5156,25.5469 339.3125,25.625 339.125,25.8125 C338.6719,26.2969 338.6719,26.2969 338.4844,26.3906 C338.0625,26.6563 337.375,26.7813 336.6094,26.7813 C334.5625,26.7813 333.2656,25.6875 333.2656,23.9844 L333.2656,22.8906 C333.2656,21.1094 334.5156,19.7969 336.25,19.7969 C336.8281,19.7969 337.4375,19.9531 337.9063,20.2031 C338.3906,20.4844 338.5625,20.7031 338.6563,21.1094 C338.7188,21.5156 338.75,21.6406 338.8906,21.7656 C339.0313,21.9063 339.2656,22.0156 339.4844,22.0156 C339.75,22.0156 340.0156,21.875 340.1875,21.6563 C340.2969,21.5 340.3281,21.3125 340.3281,20.8906 L340.3281,19.4688 C340.3281,19.0313 340.3125,18.9063 340.2188,18.75 C340.0625,18.4844 339.7813,18.3438 339.4844,18.3438 C339.1875,18.3438 338.9844,18.4375 338.7656,18.75 L338.5938,18.6719 Z " fill="#000000"/><text fill="#000000" font-family="sans-serif" font-size="14" lengthAdjust="spacing" textLength="132" x="356.75" y="27.8467">SaveConfiguration</text><line style="stroke:#181818;stroke-width:0.5;" x1="8" x2="805" y1="39" y2="39"/><rect fill="none" height="6" style="stroke:#C82930;stroke-width:1.0;" width="6" x="15" y="49.6484"/><text fill="#000000" font-family="sans-serif" font-size="14" lengthAdjust="spacing" text-decoration="underline" textLength="165" x="27" y="55.9951">_configFilePath : string</text><line style="stroke:#181818;stroke-width:0.5;" x1="8" x2="805" y1="63.2969" y2="63.2969"/><rect fill="#F24D5C" height="6" style="stroke:#C82930;stroke-width:1.0;" width="6" x="15" y="73.9453"/><text fill="#000000" font-family="sans-serif" font-size="14" lengthAdjust="spacing" textLength="142" x="27" y="80.292">SaveConfiguration()</text><ellipse cx="18" cy="93.2422" fill="#84BE84" rx="3" ry="3" style="stroke:#038048;stroke-width:1.0;"/><text fill="#000000" font-family="sans-serif" font-size="14" lengthAdjust="spacing" text-decoration="underline" textLength="243" x="27" y="96.5889">GetInstance() : SaveConfiguration</text><rect fill="#F24D5C" height="6" style="stroke:#C82930;stroke-width:1.0;" width="6" x="15" y="106.5391"/><text fill="#000000" font-family="sans-serif" font-size="14" lengthAdjust="spacing" text-decoration="underline" textLength="237" x="27" y="112.8857">GetConfigurations() : List&lt;Save&gt;</text><ellipse cx="18" cy="125.8359" fill="#84BE84" rx="3" ry="3" style="stroke:#038048;stroke-width:1.0;"/><text fill="#000000" font-family="sans-serif" font-size="14" lengthAdjust="spacing" textLength="230" x="27" y="129.1826">GetConfiguration() : List&lt;Save&gt;</text><ellipse cx="18" cy="142.1328" fill="#84BE84" rx="3" ry="3" style="stroke:#038048;stroke-width:1.0;"/><text fill="#000000" font-family="sans-serif" font-size="14" lengthAdjust="spacing" textLength="220" x="27" y="145.4795">GetConfiguration(id:int) : Save</text><ellipse cx="18" cy="158.4297" fill="#84BE84" rx="3" ry="3" style="stroke:#038048;stroke-width:1.0;"/><text fill="#000000" font-family="sans-serif" font-size="14" lengthAdjust="spacing" textLength="269" x="27" y="161.7764">GetConfiguration(name:string) : Save</text><ellipse cx="18" cy="174.7266" fill="#84BE84" rx="3" ry="3" style="stroke:#038048;stroke-width:1.0;"/><text fill="#000000" font-family="sans-serif" font-size="14" lengthAdjust="spacing" text-decoration="underline" textLength="229" x="27" y="178.0732">GetMaximumIdFromSaves() : int</text><ellipse cx="18" cy="191.0234" fill="#84BE84" rx="3" ry="3" style="stroke:#038048;stroke-width:1.0;"/><text fill="#000000" font-family="sans-serif" font-size="14" lengthAdjust="spacing" textLength="696" x="27" y="194.3701">AddConfiguration(nom:string, inputFolder:string, outputFolder:string, saveType:SaveType) : void</text><ellipse cx="18" cy="207.3203" fill="#84BE84" rx="3" ry="3" style="stroke:#038048;stroke-width:1.0;"/><text fill="#000000" font-family="sans-serif" font-size="14" lengthAdjust="spacing" textLength="250" x="27" y="210.667">RemoveConfiguration(id:int) : bool</text><ellipse cx="18" cy="223.6172" fill="#84BE84" rx="3" ry="3" style="stroke:#038048;stroke-width:1.0;"/><text fill="#000000" font-family="sans-serif" font-size="14" lengthAdjust="spacing" textLength="773" x="27" y="226.9639">UpdateConfiguration(id:int, nom:string, inputFolder:string, outputFolder:string, saveType:SaveType?) : void</text><rect fill="#F24D5C" height="6" style="stroke:#C82930;stroke-width:1.0;" width="6" x="15" y="236.9141"/><text fill="#000000" font-family="sans-serif" font-size="14" lengthAdjust="spacing" textLength="177" x="27" y="243.2607">SaveConfigToFile() : void</text><ellipse cx="18" cy="256.2109" fill="#84BE84" rx="3" ry="3" style="stroke:#038048;stroke-width:1.0;"/><text fill="#000000" font-family="sans-serif" font-size="14" lengthAdjust="spacing" textLength="214" x="27" y="259.5576">SetSelectedSave(id:int) : void</text></g><!--class List`1--><g id="elem_List`1"><rect codeLine="16" fill="#F1F1F1" height="48" id="List`1" rx="2.5" ry="2.5" style="stroke:#181818;stroke-width:0.5;" width="85" x="364" y="327"/><ellipse cx="379" cy="343" fill="#ADD1B2" rx="11" ry="11" style="stroke:#181818;stroke-width:1.0;"/><path d="M381.3438,338.6719 C380.4063,338.2344 379.8125,338.0938 378.9375,338.0938 C376.3125,338.0938 374.3125,340.1719 374.3125,342.8906 L374.3125,344.0156 C374.3125,346.5938 376.4219,348.4844 379.3125,348.4844 C380.5313,348.4844 381.6875,348.1875 382.4375,347.6406 C383.0156,347.2344 383.3438,346.7813 383.3438,346.3906 C383.3438,345.9375 382.9531,345.5469 382.4844,345.5469 C382.2656,345.5469 382.0625,345.625 381.875,345.8125 C381.4219,346.2969 381.4219,346.2969 381.2344,346.3906 C380.8125,346.6563 380.125,346.7813 379.3594,346.7813 C377.3125,346.7813 376.0156,345.6875 376.0156,343.9844 L376.0156,342.8906 C376.0156,341.1094 377.2656,339.7969 379,339.7969 C379.5781,339.7969 380.1875,339.9531 380.6563,340.2031 C381.1406,340.4844 381.3125,340.7031 381.4063,341.1094 C381.4688,341.5156 381.5,341.6406 381.6406,341.7656 C381.7813,341.9063 382.0156,342.0156 382.2344,342.0156 C382.5,342.0156 382.7656,341.875 382.9375,341.6563 C383.0469,341.5 383.0781,341.3125 383.0781,340.8906 L383.0781,339.4688 C383.0781,339.0313 383.0625,338.9063 382.9688,338.75 C382.8125,338.4844 382.5313,338.3438 382.2344,338.3438 C381.9375,338.3438 381.7344,338.4375 381.5156,338.75 L381.3438,338.6719 Z " fill="#000000"/><text fill="#000000" font-family="sans-serif" font-size="14" lengthAdjust="spacing" textLength="42" x="393" y="347.8467">List`1</text><rect fill="#FFFFFF" height="15.9688" style="stroke:#181818;stroke-width:1.0;stroke-dasharray:2.0,2.0;" width="9" x="443" y="324"/><text fill="#000000" font-family="sans-serif" font-size="12" font-style="italic" lengthAdjust="spacing" textLength="7" x="444" y="336.1387">T</text><line style="stroke:#181818;stroke-width:0.5;" x1="365" x2="448" y1="359" y2="359"/><line style="stroke:#181818;stroke-width:0.5;" x1="365" x2="448" y1="367" y2="367"/></g><!--link SaveConfiguration to SaveConfiguration--><g id="link_SaveConfiguration_SaveConfiguration"><path codeLine="18" d="M806.11,110.195 C827.992,116.728 841,125.663 841,137 C841,148.337 833.7412,155.5555 811.8592,162.0885 " fill="none" id="SaveConfiguration-to-SaveConfiguration" style="stroke:#181818;stroke-width:1.0;"/><polygon fill="#181818" points="806.11,163.805,815.8782,165.0631,810.901,162.3746,813.5895,157.3975,806.11,163.805" style="stroke:#181818;stroke-width:1.0;"/><text fill="#000000" font-family="sans-serif" font-size="13" lengthAdjust="spacing" textLength="61" x="813.5025" y="161.206">_instance</text></g><!--link SaveConfiguration to List`1--><g id="link_SaveConfiguration_List`1"><path codeLine="19" d="M406.5,267.124 C406.5,290.1218 406.5,305.5927 406.5,320.9158 " fill="none" id="SaveConfiguration-to-List`1" style="stroke:#181818;stroke-width:1.0;"/><polygon fill="#181818" points="406.5,326.9158,410.5,317.9158,406.5,321.9158,402.5,317.9158,406.5,326.9158" style="stroke:#181818;stroke-width:1.0;"/><text fill="#000000" font-family="sans-serif" font-size="13" lengthAdjust="spacing" textLength="168" x="216.975" y="315.9063">ListeConfiguration&lt;Save&gt;</text></g><!--SRC=[hPB1IyCm5CRl_Ij2Jnsk1wzbL4Ie31J4rlECoNC6cgGqhqCP_TzDshXrwGOUrbFwtkzzxmlvM4sD8INTmODMdsBRjHI5LcGV4VkbP6_G5bXFDcpe5wA65ufV92C6Mw6sdfif98kXStDKU0HSA_kZ62GBEpyR2LVQWPE-6SQUXC6LcytzWX3x9oLu9XJ-6Rb4AIeX6syQe5ERp_HRo4wkUT5gwPZHgjNty3tdWQwMNdPfiQR3GjSSsaDDTpWl6gjS_JIGbVxWbkoqu7xBAqWTFiFncXzQrnvyQpZ5i-2INCVPtOcrQJugxJAK1DPBm19gO0ZSeHFR0zH7R0XgxDxr_JPULRcDQ1_DWvkcEOatmWSjFfEo2pDE-RG-vYS-BFq5]--></g></svg>