<?xml version="1.0" encoding="us-ascii" standalone="no"?><svg xmlns="http://www.w3.org/2000/svg" xmlns:xlink="http://www.w3.org/1999/xlink" contentStyleType="text/css" height="521px" preserveAspectRatio="none" style="width:1345px;height:521px;background:#FFFFFF;" version="1.1" viewBox="0 0 1345 521" width="1345px" zoomAndPan="magnify"><defs/><g><!--class SaveManager--><g id="elem_SaveManager"><rect codeLine="1" fill="#F1F1F1" height="325.0469" id="SaveManager" rx="2.5" ry="2.5" style="stroke:#181818;stroke-width:0.5;" width="690" x="32.0307" y="81.711"/><ellipse cx="325.2807" cy="97.711" fill="#ADD1B2" rx="11" ry="11" style="stroke:#181818;stroke-width:1.0;"/><path d="M327.6244,93.3829 C326.6869,92.9454 326.0932,92.8048 325.2182,92.8048 C322.5932,92.8048 320.5932,94.8829 320.5932,97.6016 L320.5932,98.7266 C320.5932,101.3048 322.7026,103.1954 325.5932,103.1954 C326.8119,103.1954 327.9682,102.8985 328.7182,102.3516 C329.2963,101.9454 329.6244,101.4923 329.6244,101.1016 C329.6244,100.6485 329.2338,100.2579 328.7651,100.2579 C328.5463,100.2579 328.3432,100.336 328.1557,100.5235 C327.7026,101.0079 327.7026,101.0079 327.5151,101.1016 C327.0932,101.3673 326.4057,101.4923 325.6401,101.4923 C323.5932,101.4923 322.2963,100.3985 322.2963,98.6954 L322.2963,97.6016 C322.2963,95.8204 323.5463,94.5079 325.2807,94.5079 C325.8588,94.5079 326.4682,94.6641 326.9369,94.9141 C327.4213,95.1954 327.5932,95.4141 327.6869,95.8204 C327.7494,96.2266 327.7807,96.3516 327.9213,96.4766 C328.0619,96.6173 328.2963,96.7266 328.5151,96.7266 C328.7807,96.7266 329.0463,96.586 329.2182,96.3673 C329.3276,96.211 329.3588,96.0235 329.3588,95.6016 L329.3588,94.1798 C329.3588,93.7423 329.3432,93.6173 329.2494,93.461 C329.0932,93.1954 328.8119,93.0548 328.5151,93.0548 C328.2182,93.0548 328.0151,93.1485 327.7963,93.461 L327.6244,93.3829 Z " fill="#000000"/><text fill="#000000" font-family="sans-serif" font-size="14" lengthAdjust="spacing" textLength="95" x="345.7807" y="102.5577">SaveManager</text><line style="stroke:#181818;stroke-width:0.5;" x1="33.0307" x2="721.0307" y1="113.711" y2="113.711"/><rect fill="none" height="6" style="stroke:#C82930;stroke-width:1.0;" width="6" x="40.0307" y="124.3594"/><text fill="#000000" font-family="sans-serif" font-size="14" lengthAdjust="spacing" textLength="271" x="52.0307" y="130.7061">&#171;readonly&#187; _lockRunningSave : object</text><rect fill="none" height="6" style="stroke:#C82930;stroke-width:1.0;" width="6" x="40.0307" y="140.6563"/><text fill="#000000" font-family="sans-serif" font-size="14" lengthAdjust="spacing" textLength="244" x="52.0307" y="147.003">&#171;readonly&#187; _lockLargeFile : object</text><line style="stroke:#181818;stroke-width:0.5;" x1="33.0307" x2="721.0307" y1="154.3048" y2="154.3048"/><rect fill="#F24D5C" height="6" style="stroke:#C82930;stroke-width:1.0;" width="6" x="40.0307" y="164.9532"/><text fill="#000000" font-family="sans-serif" font-size="14" lengthAdjust="spacing" textLength="105" x="52.0307" y="171.2999">SaveManager()</text><ellipse cx="43.0307" cy="184.2501" fill="#84BE84" rx="3" ry="3" style="stroke:#038048;stroke-width:1.0;"/><text fill="#000000" font-family="sans-serif" font-size="14" lengthAdjust="spacing" text-decoration="underline" textLength="206" x="52.0307" y="187.5967">GetInstance() : SaveManager</text><ellipse cx="43.0307" cy="200.5469" fill="#84BE84" rx="3" ry="3" style="stroke:#038048;stroke-width:1.0;"/><text fill="#000000" font-family="sans-serif" font-size="14" lengthAdjust="spacing" textLength="185" x="52.0307" y="203.8936">RunSave(save:Save) : void</text><ellipse cx="43.0307" cy="216.8438" fill="#84BE84" rx="3" ry="3" style="stroke:#038048;stroke-width:1.0;"/><text fill="#000000" font-family="sans-serif" font-size="14" lengthAdjust="spacing" textLength="338" x="52.0307" y="220.1905">StopSave(save:Save, resetProgress:bool) : void</text><ellipse cx="43.0307" cy="233.1407" fill="#84BE84" rx="3" ry="3" style="stroke:#038048;stroke-width:1.0;"/><text fill="#000000" font-family="sans-serif" font-size="14" lengthAdjust="spacing" textLength="147" x="52.0307" y="236.4874">StopAllSaves() : void</text><ellipse cx="43.0307" cy="249.4376" fill="#84BE84" rx="3" ry="3" style="stroke:#038048;stroke-width:1.0;"/><text fill="#000000" font-family="sans-serif" font-size="14" lengthAdjust="spacing" textLength="153" x="52.0307" y="252.7842">PauseAllSaves() : void</text><ellipse cx="43.0307" cy="265.7344" fill="#84BE84" rx="3" ry="3" style="stroke:#038048;stroke-width:1.0;"/><text fill="#000000" font-family="sans-serif" font-size="14" lengthAdjust="spacing" textLength="169" x="52.0307" y="269.0811">ResumeAllSaves() : void</text><rect fill="#F24D5C" height="6" style="stroke:#C82930;stroke-width:1.0;" width="6" x="40.0307" y="279.0313"/><text fill="#000000" font-family="sans-serif" font-size="14" lengthAdjust="spacing" textLength="487" x="52.0307" y="285.378">SaveThread(save:Save, cancellationToken:CancellationToken) : void</text><rect fill="#F24D5C" height="6" style="stroke:#C82930;stroke-width:1.0;" width="6" x="40.0307" y="295.3282"/><text fill="#000000" font-family="sans-serif" font-size="14" lengthAdjust="spacing" textLength="288" x="52.0307" y="301.6749">HandleCopy(save:Save, file:string) : void</text><rect fill="#F24D5C" height="6" style="stroke:#C82930;stroke-width:1.0;" width="6" x="40.0307" y="311.6251"/><text fill="#000000" font-family="sans-serif" font-size="14" lengthAdjust="spacing" textLength="664" x="52.0307" y="317.9717">GetFilesToCopy(saveType:SaveType, inputFolder:string, outputFolder:string?) : List&lt;string&gt;</text><rect fill="#F24D5C" height="6" style="stroke:#C82930;stroke-width:1.0;" width="6" x="40.0307" y="327.9219"/><text fill="#000000" font-family="sans-serif" font-size="14" lengthAdjust="spacing" text-decoration="underline" textLength="463" x="52.0307" y="334.2686">CopyFile(inputFullPath:string, outputFullPath:string) : List&lt;int?&gt;</text><rect fill="#F24D5C" height="6" style="stroke:#C82930;stroke-width:1.0;" width="6" x="40.0307" y="344.2188"/><text fill="#000000" font-family="sans-serif" font-size="14" lengthAdjust="spacing" textLength="483" x="52.0307" y="350.5655">EncryptFile(inputFullPath:string, outputFullPath:string) : List&lt;int?&gt;</text><rect fill="#F24D5C" height="6" style="stroke:#C82930;stroke-width:1.0;" width="6" x="40.0307" y="360.5157"/><text fill="#000000" font-family="sans-serif" font-size="14" lengthAdjust="spacing" textLength="375" x="52.0307" y="366.8624">UpdateSaveState(save:Save, state:SaveState) : void</text><ellipse cx="43.0307" cy="379.8126" fill="#84BE84" rx="3" ry="3" style="stroke:#038048;stroke-width:1.0;"/><text fill="#000000" font-family="sans-serif" font-size="14" lengthAdjust="spacing" textLength="199" x="52.0307" y="383.1592">PauseSave(save:Save) : void</text><ellipse cx="43.0307" cy="396.1094" fill="#84BE84" rx="3" ry="3" style="stroke:#038048;stroke-width:1.0;"/><text fill="#000000" font-family="sans-serif" font-size="14" lengthAdjust="spacing" textLength="215" x="52.0307" y="399.4561">ResumeSave(save:Save) : void</text></g><!--class Dictionary`2--><g id="elem_Dictionary`2"><rect codeLine="20" fill="#F1F1F1" height="48" id="Dictionary`2" rx="2.5" ry="2.5" style="stroke:#181818;stroke-width:0.5;" width="159" x="297.5307" y="466.711"/><ellipse cx="312.5307" cy="482.711" fill="#ADD1B2" rx="11" ry="11" style="stroke:#181818;stroke-width:1.0;"/><path d="M314.8744,478.3829 C313.9369,477.9454 313.3432,477.8048 312.4682,477.8048 C309.8432,477.8048 307.8432,479.8829 307.8432,482.6016 L307.8432,483.7266 C307.8432,486.3048 309.9526,488.1954 312.8432,488.1954 C314.0619,488.1954 315.2182,487.8985 315.9682,487.3516 C316.5463,486.9454 316.8744,486.4923 316.8744,486.1016 C316.8744,485.6485 316.4838,485.2579 316.0151,485.2579 C315.7963,485.2579 315.5932,485.336 315.4057,485.5235 C314.9526,486.0079 314.9526,486.0079 314.7651,486.1016 C314.3432,486.3673 313.6557,486.4923 312.8901,486.4923 C310.8432,486.4923 309.5463,485.3985 309.5463,483.6954 L309.5463,482.6016 C309.5463,480.8204 310.7963,479.5079 312.5307,479.5079 C313.1088,479.5079 313.7182,479.6641 314.1869,479.9141 C314.6713,480.1954 314.8432,480.4141 314.9369,480.8204 C314.9994,481.2266 315.0307,481.3516 315.1713,481.4766 C315.3119,481.6173 315.5463,481.7266 315.7651,481.7266 C316.0307,481.7266 316.2963,481.586 316.4682,481.3673 C316.5776,481.211 316.6088,481.0235 316.6088,480.6016 L316.6088,479.1798 C316.6088,478.7423 316.5932,478.6173 316.4994,478.461 C316.3432,478.1954 316.0619,478.0548 315.7651,478.0548 C315.4682,478.0548 315.2651,478.1485 315.0463,478.461 L314.8744,478.3829 Z " fill="#000000"/><text fill="#000000" font-family="sans-serif" font-size="14" lengthAdjust="spacing" textLength="89" x="326.5307" y="487.5577">Dictionary`2</text><rect fill="#FFFFFF" height="15.9688" style="stroke:#181818;stroke-width:1.0;stroke-dasharray:2.0,2.0;" width="36" x="423.5307" y="463.711"/><text fill="#000000" font-family="sans-serif" font-size="12" font-style="italic" lengthAdjust="spacing" textLength="34" x="424.5307" y="475.8497">T1,T2</text><line style="stroke:#181818;stroke-width:0.5;" x1="298.5307" x2="455.5307" y1="498.711" y2="498.711"/><line style="stroke:#181818;stroke-width:0.5;" x1="298.5307" x2="455.5307" y1="506.711" y2="506.711"/></g><!--class Parameters--><g id="elem_Parameters"><rect fill="#F1F1F1" height="48" id="Parameters" rx="2.5" ry="2.5" style="stroke:#181818;stroke-width:0.5;" width="115" x="1223.5307" y="220.211"/><ellipse cx="1238.5307" cy="236.211" fill="#ADD1B2" rx="11" ry="11" style="stroke:#181818;stroke-width:1.0;"/><path d="M1240.8744,231.8829 C1239.9369,231.4454 1239.3432,231.3048 1238.4682,231.3048 C1235.8432,231.3048 1233.8432,233.3829 1233.8432,236.1016 L1233.8432,237.2266 C1233.8432,239.8048 1235.9526,241.6954 1238.8432,241.6954 C1240.0619,241.6954 1241.2182,241.3985 1241.9682,240.8516 C1242.5463,240.4454 1242.8744,239.9923 1242.8744,239.6016 C1242.8744,239.1485 1242.4838,238.7579 1242.0151,238.7579 C1241.7963,238.7579 1241.5932,238.836 1241.4057,239.0235 C1240.9526,239.5079 1240.9526,239.5079 1240.7651,239.6016 C1240.3432,239.8673 1239.6557,239.9923 1238.8901,239.9923 C1236.8432,239.9923 1235.5463,238.8985 1235.5463,237.1954 L1235.5463,236.1016 C1235.5463,234.3204 1236.7963,233.0079 1238.5307,233.0079 C1239.1088,233.0079 1239.7182,233.1641 1240.1869,233.4141 C1240.6713,233.6954 1240.8432,233.9141 1240.9369,234.3204 C1240.9994,234.7266 1241.0307,234.8516 1241.1713,234.9766 C1241.3119,235.1173 1241.5463,235.2266 1241.7651,235.2266 C1242.0307,235.2266 1242.2963,235.086 1242.4682,234.8673 C1242.5776,234.711 1242.6088,234.5235 1242.6088,234.1016 L1242.6088,232.6798 C1242.6088,232.2423 1242.5932,232.1173 1242.4994,231.961 C1242.3432,231.6954 1242.0619,231.5548 1241.7651,231.5548 C1241.4682,231.5548 1241.2651,231.6485 1241.0463,231.961 L1240.8744,231.8829 Z " fill="#000000"/><text fill="#000000" font-family="sans-serif" font-size="14" lengthAdjust="spacing" textLength="83" x="1252.5307" y="241.0577">Parameters</text><line style="stroke:#181818;stroke-width:0.5;" x1="1224.5307" x2="1337.5307" y1="252.211" y2="252.211"/><line style="stroke:#181818;stroke-width:0.5;" x1="1224.5307" x2="1337.5307" y1="260.211" y2="260.211"/></g><!--class Barrier--><g id="elem_Barrier"><rect fill="#F1F1F1" height="48" id="Barrier" rx="2.5" ry="2.5" style="stroke:#181818;stroke-width:0.5;" width="81" x="1107.5307" y="220.211"/><ellipse cx="1122.5307" cy="236.211" fill="#ADD1B2" rx="11" ry="11" style="stroke:#181818;stroke-width:1.0;"/><path d="M1124.8744,231.8829 C1123.9369,231.4454 1123.3432,231.3048 1122.4682,231.3048 C1119.8432,231.3048 1117.8432,233.3829 1117.8432,236.1016 L1117.8432,237.2266 C1117.8432,239.8048 1119.9526,241.6954 1122.8432,241.6954 C1124.0619,241.6954 1125.2182,241.3985 1125.9682,240.8516 C1126.5463,240.4454 1126.8744,239.9923 1126.8744,239.6016 C1126.8744,239.1485 1126.4838,238.7579 1126.0151,238.7579 C1125.7963,238.7579 1125.5932,238.836 1125.4057,239.0235 C1124.9526,239.5079 1124.9526,239.5079 1124.7651,239.6016 C1124.3432,239.8673 1123.6557,239.9923 1122.8901,239.9923 C1120.8432,239.9923 1119.5463,238.8985 1119.5463,237.1954 L1119.5463,236.1016 C1119.5463,234.3204 1120.7963,233.0079 1122.5307,233.0079 C1123.1088,233.0079 1123.7182,233.1641 1124.1869,233.4141 C1124.6713,233.6954 1124.8432,233.9141 1124.9369,234.3204 C1124.9994,234.7266 1125.0307,234.8516 1125.1713,234.9766 C1125.3119,235.1173 1125.5463,235.2266 1125.7651,235.2266 C1126.0307,235.2266 1126.2963,235.086 1126.4682,234.8673 C1126.5776,234.711 1126.6088,234.5235 1126.6088,234.1016 L1126.6088,232.6798 C1126.6088,232.2423 1126.5932,232.1173 1126.4994,231.961 C1126.3432,231.6954 1126.0619,231.5548 1125.7651,231.5548 C1125.4682,231.5548 1125.2651,231.6485 1125.0463,231.961 L1124.8744,231.8829 Z " fill="#000000"/><text fill="#000000" font-family="sans-serif" font-size="14" lengthAdjust="spacing" textLength="49" x="1136.5307" y="241.0577">Barrier</text><line style="stroke:#181818;stroke-width:0.5;" x1="1108.5307" x2="1187.5307" y1="252.211" y2="252.211"/><line style="stroke:#181818;stroke-width:0.5;" x1="1108.5307" x2="1187.5307" y1="260.211" y2="260.211"/></g><!--class LoggerJournalier--><g id="elem_LoggerJournalier"><rect fill="#F1F1F1" height="48" id="LoggerJournalier" rx="2.5" ry="2.5" style="stroke:#181818;stroke-width:0.5;" width="149" x="923.5307" y="220.211"/><ellipse cx="938.5307" cy="236.211" fill="#ADD1B2" rx="11" ry="11" style="stroke:#181818;stroke-width:1.0;"/><path d="M940.8744,231.8829 C939.9369,231.4454 939.3432,231.3048 938.4682,231.3048 C935.8432,231.3048 933.8432,233.3829 933.8432,236.1016 L933.8432,237.2266 C933.8432,239.8048 935.9526,241.6954 938.8432,241.6954 C940.0619,241.6954 941.2182,241.3985 941.9682,240.8516 C942.5463,240.4454 942.8744,239.9923 942.8744,239.6016 C942.8744,239.1485 942.4838,238.7579 942.0151,238.7579 C941.7963,238.7579 941.5932,238.836 941.4057,239.0235 C940.9526,239.5079 940.9526,239.5079 940.7651,239.6016 C940.3432,239.8673 939.6557,239.9923 938.8901,239.9923 C936.8432,239.9923 935.5463,238.8985 935.5463,237.1954 L935.5463,236.1016 C935.5463,234.3204 936.7963,233.0079 938.5307,233.0079 C939.1088,233.0079 939.7182,233.1641 940.1869,233.4141 C940.6713,233.6954 940.8432,233.9141 940.9369,234.3204 C940.9994,234.7266 941.0307,234.8516 941.1713,234.9766 C941.3119,235.1173 941.5463,235.2266 941.7651,235.2266 C942.0307,235.2266 942.2963,235.086 942.4682,234.8673 C942.5776,234.711 942.6088,234.5235 942.6088,234.1016 L942.6088,232.6798 C942.6088,232.2423 942.5932,232.1173 942.4994,231.961 C942.3432,231.6954 942.0619,231.5548 941.7651,231.5548 C941.4682,231.5548 941.2651,231.6485 941.0463,231.961 L940.8744,231.8829 Z " fill="#000000"/><text fill="#000000" font-family="sans-serif" font-size="14" lengthAdjust="spacing" textLength="117" x="952.5307" y="241.0577">LoggerJournalier</text><line style="stroke:#181818;stroke-width:0.5;" x1="924.5307" x2="1071.5307" y1="252.211" y2="252.211"/><line style="stroke:#181818;stroke-width:0.5;" x1="924.5307" x2="1071.5307" y1="260.211" y2="260.211"/></g><!--class LoggerEtat--><g id="elem_LoggerEtat"><rect fill="#F1F1F1" height="48" id="LoggerEtat" rx="2.5" ry="2.5" style="stroke:#181818;stroke-width:0.5;" width="113" x="775.5307" y="220.211"/><ellipse cx="790.5307" cy="236.211" fill="#ADD1B2" rx="11" ry="11" style="stroke:#181818;stroke-width:1.0;"/><path d="M792.8744,231.8829 C791.9369,231.4454 791.3432,231.3048 790.4682,231.3048 C787.8432,231.3048 785.8432,233.3829 785.8432,236.1016 L785.8432,237.2266 C785.8432,239.8048 787.9526,241.6954 790.8432,241.6954 C792.0619,241.6954 793.2182,241.3985 793.9682,240.8516 C794.5463,240.4454 794.8744,239.9923 794.8744,239.6016 C794.8744,239.1485 794.4838,238.7579 794.0151,238.7579 C793.7963,238.7579 793.5932,238.836 793.4057,239.0235 C792.9526,239.5079 792.9526,239.5079 792.7651,239.6016 C792.3432,239.8673 791.6557,239.9923 790.8901,239.9923 C788.8432,239.9923 787.5463,238.8985 787.5463,237.1954 L787.5463,236.1016 C787.5463,234.3204 788.7963,233.0079 790.5307,233.0079 C791.1088,233.0079 791.7182,233.1641 792.1869,233.4141 C792.6713,233.6954 792.8432,233.9141 792.9369,234.3204 C792.9994,234.7266 793.0307,234.8516 793.1713,234.9766 C793.3119,235.1173 793.5463,235.2266 793.7651,235.2266 C794.0307,235.2266 794.2963,235.086 794.4682,234.8673 C794.5776,234.711 794.6088,234.5235 794.6088,234.1016 L794.6088,232.6798 C794.6088,232.2423 794.5932,232.1173 794.4994,231.961 C794.3432,231.6954 794.0619,231.5548 793.7651,231.5548 C793.4682,231.5548 793.2651,231.6485 793.0463,231.961 L792.8744,231.8829 Z " fill="#000000"/><text fill="#000000" font-family="sans-serif" font-size="14" lengthAdjust="spacing" textLength="81" x="804.5307" y="241.0577">LoggerEtat</text><line style="stroke:#181818;stroke-width:0.5;" x1="776.5307" x2="887.5307" y1="252.211" y2="252.211"/><line style="stroke:#181818;stroke-width:0.5;" x1="776.5307" x2="887.5307" y1="260.211" y2="260.211"/></g><!--link SaveManager to SaveManager--><g id="link_SaveManager_SaveManager"><path codeLine="22" d="M722.1587,211.782 C743.9147,219.408 757.0307,230.217 757.0307,244.211 C757.0307,258.205 749.5769,267.0293 727.8209,274.6553 " fill="none" id="SaveManager-to-SaveManager" style="stroke:#181818;stroke-width:1.0;"/><polygon fill="#181818" points="722.1587,276.64,731.9752,277.4377,726.8772,274.986,729.3289,269.8881,722.1587,276.64" style="stroke:#181818;stroke-width:1.0;"/><text fill="#000000" font-family="sans-serif" font-size="13" lengthAdjust="spacing" textLength="61" x="729.7886" y="289.5188">_instance</text></g><!--link SaveManager to Dictionary`2--><g id="link_SaveManager_Dictionary`2"><path codeLine="23" d="M339.8967,406.934 C342.1707,430.2017 344.1693,445.8123 350.5993,460.8999 " fill="none" id="SaveManager-to-Dictionary`2" style="stroke:#181818;stroke-width:1.0;"/><polygon fill="#181818" points="352.9517,466.4195,353.1029,456.5718,350.9914,461.8198,345.7434,459.7083,352.9517,466.4195" style="stroke:#181818;stroke-width:1.0;"/><text fill="#000000" font-family="sans-serif" font-size="13" lengthAdjust="spacing" textLength="179" x="146.2668" y="455.7534">_runningSaves&lt;int,Thread&gt;</text></g><!--link SaveManager to Dictionary`2--><g id="link_SaveManager_Dictionary`2"><path codeLine="24" d="M364.8907,406.934 C365.6337,430.2017 366.2288,445.3893 368.3308,460.4769 " fill="none" id="SaveManager-to-Dictionary`2-1" style="stroke:#181818;stroke-width:1.0;"/><polygon fill="#181818" points="369.1587,466.4195,371.8785,456.9536,368.4688,461.4673,363.9551,458.0575,369.1587,466.4195" style="stroke:#181818;stroke-width:1.0;"/><text fill="#000000" font-family="sans-serif" font-size="13" lengthAdjust="spacing" textLength="287" x="402.218" y="455.7534">_runningSavesState&lt;int,ManualResetEvent&gt;</text></g><!--link SaveManager to Dictionary`2--><g id="link_SaveManager_Dictionary`2"><path codeLine="25" d="M389.8847,406.934 C389.0977,430.2017 388.4674,445.3962 386.2414,460.4838 " fill="none" id="SaveManager-to-Dictionary`2-2" style="stroke:#181818;stroke-width:1.0;"/><polygon fill="#181818" points="385.3657,466.4195,390.6365,458.0997,386.0955,461.473,382.7221,456.932,385.3657,466.4195" style="stroke:#181818;stroke-width:1.0;"/><text fill="#000000" font-family="sans-serif" font-size="13" lengthAdjust="spacing" textLength="373" x="465.7351" y="471.5873">_runningSavesCancellation&lt;int,CancellationTokenSource&gt;</text></g><!--link SaveManager to Dictionary`2--><g id="link_SaveManager_Dictionary`2"><path codeLine="28" d="M414.8787,406.934 C412.5607,430.2017 410.5159,445.8286 403.9629,460.9162 " fill="none" id="SaveManager-to-Dictionary`2-3" style="stroke:#181818;stroke-width:1.0;"/><polygon fill="#181818" points="401.5727,466.4195,408.827,459.758,403.5646,461.8334,401.4892,456.571,401.5727,466.4195" style="stroke:#181818;stroke-width:1.0;"/><text fill="#000000" font-family="sans-serif" font-size="13" lengthAdjust="spacing" textLength="286" x="6" y="463.0157">_BusinessObserversThreads&lt;string,Thread&gt;</text></g><!--link SaveManager to Parameters--><g id="link_SaveManager_Parameters"><path codeLine="26" d="M689.3588,77.4541 C721.5408,65.2831 743.1377,59.125 775.5307,51.711 C864.9947,31.235 1108.9507,6 1188.5307,51.711 C1249.9407,86.983 1270.275,170.8524 1277.115,214.1774 " fill="none" id="SaveManager-Parameters" style="stroke:#181818;stroke-width:1.0;"/><polygon fill="none" points="678.1347,81.699,685.1617,83.3179,689.3588,77.4541,682.3318,75.8352,678.1347,81.699" style="stroke:#181818;stroke-width:1.0;"/><polygon fill="#181818" points="1278.0507,220.104,1280.5982,210.5903,1277.271,215.1652,1272.6961,211.8379,1278.0507,220.104" style="stroke:#181818;stroke-width:1.0;"/><text fill="#000000" font-family="sans-serif" font-size="13" lengthAdjust="spacing" textLength="82" x="1184.7808" y="209.0886">_parameters</text></g><!--link SaveManager to Barrier--><g id="link_SaveManager_Barrier"><path codeLine="27" d="M689.3588,77.4541 C721.5408,65.2831 743.1377,59.125 775.5307,51.711 C839.8667,36.986 1015.2997,18.839 1072.5307,51.711 C1131.9907,85.861 1144.3873,170.22 1147.0373,213.898 " fill="none" id="SaveManager-Barrier" style="stroke:#181818;stroke-width:1.0;"/><polygon fill="none" points="678.1347,81.699,685.1617,83.3179,689.3588,77.4541,682.3318,75.8352,678.1347,81.699" style="stroke:#181818;stroke-width:1.0;"/><polygon fill="#181818" points="1147.4007,219.887,1150.8483,210.6613,1147.0979,214.8962,1142.863,211.1458,1147.4007,219.887" style="stroke:#181818;stroke-width:1.0;"/><text fill="#000000" font-family="sans-serif" font-size="13" lengthAdjust="spacing" textLength="42" x="1100.1284" y="209.213">barrier</text></g><!--link SaveManager to LoggerJournalier--><g id="link_SaveManager_LoggerJournalier"><path codeLine="29" d="M689.3588,77.4541 C721.5408,65.2831 743.1377,59.125 775.5307,51.711 C824.4867,40.506 844.9807,26.697 888.5307,51.711 C952.0447,88.191 980.181,171.1619 991.182,214.2059 " fill="none" id="SaveManager-LoggerJournalier" style="stroke:#181818;stroke-width:1.0;"/><polygon fill="none" points="678.1347,81.699,685.1617,83.3179,689.3588,77.4541,682.3318,75.8352,678.1347,81.699" style="stroke:#181818;stroke-width:1.0;"/><polygon fill="#181818" points="992.6677,220.019,994.3146,210.3088,991.4296,215.1747,986.5637,212.2897,992.6677,220.019" style="stroke:#181818;stroke-width:1.0;"/><text fill="#000000" font-family="sans-serif" font-size="13" lengthAdjust="spacing" textLength="107" x="870.584" y="208.9818">_loggerJournalier</text></g><!--link SaveManager to LoggerEtat--><g id="link_SaveManager_LoggerEtat"><path codeLine="30" d="M734.2797,244.211 C751.9997,244.211 751.7197,244.211 769.4407,244.211 " fill="none" id="SaveManager-LoggerEtat" style="stroke:#181818;stroke-width:1.0;"/><polygon fill="none" points="722.2797,244.211,728.2797,248.211,734.2797,244.211,728.2797,240.211,722.2797,244.211" style="stroke:#181818;stroke-width:1.0;"/><polygon fill="#181818" points="775.4407,244.211,766.4407,240.211,770.4407,244.211,766.4407,248.211,775.4407,244.211" style="stroke:#181818;stroke-width:1.0;"/><text fill="#000000" font-family="sans-serif" font-size="13" lengthAdjust="spacing" textLength="73" x="695.007" y="236.4045">_loggerEtat</text></g><!--SRC=[hLDDRzim3BtdLmW-kPXpM8z6u6Bjqcv3XWM9T-uKcNFLgf8XoG6C8lzzfELaZXDtAr0V38fyVFmMYZl7rdmBtxdc9LZsCc7uJTbiPe4NHgicozYzCk9fLMijTKbWbZApUGJXHy4BRakubUe4seiLNxIw3-p5UUwbsB4xy5yrFhI0-08zU-0EYacGCdRuIqaYsDR8ehEllQcE0GcpuC0lhIbHSEd667N6wPDIX7RnmBRajOCnumfS_JnY3QNc3zIPVZQ2gbCA2pOwDq-WqvkXPi3pXUj2mOsfcZxFRsnkwhp5aGpms4NglClDmITlgk17GiAahcf_QrG1jgD8cAdzK7b5n0lf_2oyiox0OLx4Jw7YG5WhjUJ-OKXvh3vmIkslzenpBMnJ-NVX-baLt0CLkyOqZpQ1yWvoQpetwbUtAynx1BARYFQQeizIq2YvRNvTHhFyOv9VPdXNkqd_pgRJZ4Ntijlsw6ZLJt7sx-qvAZO9UvL5WsZ_S6shRlqHKtEreikORq7xjpBrTxObF5dYjQcjWDTvJSjRSSkVmODr4SvWBvy2DznQ2JPYrq4ua-9rxQJ6A_-nSM2to1BwvBe5_g-sXQIKAV7n3OlGNBLH5mFDgDCSkxo7a_m7]--></g></svg>