<?xml version="1.0" encoding="us-ascii" standalone="no"?><svg xmlns="http://www.w3.org/2000/svg" xmlns:xlink="http://www.w3.org/1999/xlink" contentStyleType="text/css" height="668px" preserveAspectRatio="none" style="width:655px;height:668px;background:#FFFFFF;" version="1.1" viewBox="0 0 655 668" width="655px" zoomAndPan="magnify"><defs/><g><!--class SaveType--><g id="elem_SaveType"><rect codeLine="1" fill="#F1F1F1" height="80.5938" id="SaveType" rx="2.5" ry="2.5" style="stroke:#181818;stroke-width:0.5;" width="116" x="104.5" y="548.5"/><ellipse cx="125.8" cy="564.5" fill="#EB937F" rx="11" ry="11" style="stroke:#181818;stroke-width:1.0;"/><path d="M124.5969,565.375 L126.05,565.375 L126.05,565.4844 C126.05,565.8906 126.0813,566.0469 126.1594,566.2031 C126.3156,566.4531 126.5969,566.6094 126.8938,566.6094 C127.1438,566.6094 127.4094,566.4688 127.5656,566.25 C127.6906,566.0938 127.7219,565.9375 127.7219,565.4844 L127.7219,563.5625 C127.7219,563.4063 127.7219,563.3594 127.7063,563.2031 C127.6438,562.7344 127.3313,562.4219 126.8781,562.4219 C126.6281,562.4219 126.3625,562.5625 126.1906,562.7813 C126.0813,562.9531 126.05,563.1094 126.05,563.5625 L126.05,563.6875 L124.5969,563.6875 L124.5969,561.2813 L128.5813,561.2813 L128.5813,562.1406 C128.5813,562.5469 128.6125,562.7188 128.6906,562.875 C128.8625,563.125 129.1438,563.2813 129.425,563.2813 C129.6906,563.2813 129.9563,563.1406 130.1281,562.9219 C130.2375,562.75 130.2688,562.6094 130.2688,562.1406 L130.2688,559.5938 L122.6438,559.5938 C122.2063,559.5938 122.0813,559.6094 121.925,559.7031 C121.675,559.8594 121.5188,560.1563 121.5188,560.4375 C121.5188,560.7188 121.6594,560.9688 121.8781,561.1406 C122.0344,561.25 122.2219,561.2813 122.6438,561.2813 L122.8938,561.2813 L122.8938,567.7969 L122.6438,567.7969 C122.2375,567.7969 122.0813,567.8125 121.925,567.9219 C121.675,568.0938 121.5188,568.3594 121.5188,568.6563 C121.5188,568.9219 121.6594,569.1719 121.8781,569.3281 C122.0188,569.4531 122.2531,569.5 122.6438,569.5 L130.6438,569.5 L130.6438,566.9219 C130.6438,566.4844 130.6125,566.3438 130.5344,566.1875 C130.3625,565.9375 130.0813,565.7813 129.8,565.7813 C129.5344,565.7813 129.2688,565.8906 129.0969,566.1406 C128.9875,566.2969 128.9563,566.4375 128.9563,566.9219 L128.9563,567.7969 L124.5969,567.7969 L124.5969,565.375 Z " fill="#000000"/><text fill="#000000" font-family="sans-serif" font-size="14" lengthAdjust="spacing" textLength="70" x="141.2" y="569.3467">SaveType</text><line style="stroke:#181818;stroke-width:0.5;" x1="105.5" x2="219.5" y1="580.5" y2="580.5"/><text fill="#000000" font-family="sans-serif" font-size="14" lengthAdjust="spacing" textLength="81" x="110.5" y="597.4951">COMPLETE,</text><text fill="#000000" font-family="sans-serif" font-size="14" lengthAdjust="spacing" textLength="104" x="110.5" y="613.792">DIFFERENTIAL,</text><line style="stroke:#181818;stroke-width:0.5;" x1="105.5" x2="219.5" y1="621.0938" y2="621.0938"/></g><!--class SaveState--><g id="elem_SaveState"><rect codeLine="5" fill="#F1F1F1" height="145.7813" id="SaveState" rx="2.5" ry="2.5" style="stroke:#181818;stroke-width:0.5;" width="144" x="255.5" y="516"/><ellipse cx="287.6" cy="532" fill="#EB937F" rx="11" ry="11" style="stroke:#181818;stroke-width:1.0;"/><path d="M286.3969,532.875 L287.85,532.875 L287.85,532.9844 C287.85,533.3906 287.8813,533.5469 287.9594,533.7031 C288.1156,533.9531 288.3969,534.1094 288.6938,534.1094 C288.9438,534.1094 289.2094,533.9688 289.3656,533.75 C289.4906,533.5938 289.5219,533.4375 289.5219,532.9844 L289.5219,531.0625 C289.5219,530.9063 289.5219,530.8594 289.5063,530.7031 C289.4438,530.2344 289.1313,529.9219 288.6781,529.9219 C288.4281,529.9219 288.1625,530.0625 287.9906,530.2813 C287.8813,530.4531 287.85,530.6094 287.85,531.0625 L287.85,531.1875 L286.3969,531.1875 L286.3969,528.7813 L290.3813,528.7813 L290.3813,529.6406 C290.3813,530.0469 290.4125,530.2188 290.4906,530.375 C290.6625,530.625 290.9438,530.7813 291.225,530.7813 C291.4906,530.7813 291.7563,530.6406 291.9281,530.4219 C292.0375,530.25 292.0688,530.1094 292.0688,529.6406 L292.0688,527.0938 L284.4438,527.0938 C284.0063,527.0938 283.8813,527.1094 283.725,527.2031 C283.475,527.3594 283.3188,527.6563 283.3188,527.9375 C283.3188,528.2188 283.4594,528.4688 283.6781,528.6406 C283.8344,528.75 284.0219,528.7813 284.4438,528.7813 L284.6938,528.7813 L284.6938,535.2969 L284.4438,535.2969 C284.0375,535.2969 283.8813,535.3125 283.725,535.4219 C283.475,535.5938 283.3188,535.8594 283.3188,536.1563 C283.3188,536.4219 283.4594,536.6719 283.6781,536.8281 C283.8188,536.9531 284.0531,537 284.4438,537 L292.4438,537 L292.4438,534.4219 C292.4438,533.9844 292.4125,533.8438 292.3344,533.6875 C292.1625,533.4375 291.8813,533.2813 291.6,533.2813 C291.3344,533.2813 291.0688,533.3906 290.8969,533.6406 C290.7875,533.7969 290.7563,533.9375 290.7563,534.4219 L290.7563,535.2969 L286.3969,535.2969 L286.3969,532.875 Z " fill="#000000"/><text fill="#000000" font-family="sans-serif" font-size="14" lengthAdjust="spacing" textLength="74" x="305.4" y="536.8467">SaveState</text><line style="stroke:#181818;stroke-width:0.5;" x1="256.5" x2="398.5" y1="548" y2="548"/><text fill="#000000" font-family="sans-serif" font-size="14" lengthAdjust="spacing" textLength="84" x="261.5" y="564.9951">ERROR= -1,</text><text fill="#000000" font-family="sans-serif" font-size="14" lengthAdjust="spacing" textLength="132" x="261.5" y="581.292">NOT_STARTED= 0,</text><text fill="#000000" font-family="sans-serif" font-size="14" lengthAdjust="spacing" textLength="127" x="261.5" y="597.5889">IN_PROGRESS= 1,</text><text fill="#000000" font-family="sans-serif" font-size="14" lengthAdjust="spacing" textLength="92" x="261.5" y="613.8857">FINISHED= 2,</text><text fill="#000000" font-family="sans-serif" font-size="14" lengthAdjust="spacing" textLength="95" x="261.5" y="630.1826">STOPPED= 3,</text><text fill="#000000" font-family="sans-serif" font-size="14" lengthAdjust="spacing" textLength="84" x="261.5" y="646.4795">PAUSED= 4,</text><line style="stroke:#181818;stroke-width:0.5;" x1="256.5" x2="398.5" y1="653.7813" y2="653.7813"/></g><!--class Save--><g id="elem_Save"><rect codeLine="13" fill="#F1F1F1" height="341.3438" id="Save" rx="2.5" ry="2.5" style="stroke:#181818;stroke-width:0.5;" width="641" x="7" y="115"/><ellipse cx="306.25" cy="131" fill="#ADD1B2" rx="11" ry="11" style="stroke:#181818;stroke-width:1.0;"/><path d="M308.5938,126.6719 C307.6563,126.2344 307.0625,126.0938 306.1875,126.0938 C303.5625,126.0938 301.5625,128.1719 301.5625,130.8906 L301.5625,132.0156 C301.5625,134.5938 303.6719,136.4844 306.5625,136.4844 C307.7813,136.4844 308.9375,136.1875 309.6875,135.6406 C310.2656,135.2344 310.5938,134.7813 310.5938,134.3906 C310.5938,133.9375 310.2031,133.5469 309.7344,133.5469 C309.5156,133.5469 309.3125,133.625 309.125,133.8125 C308.6719,134.2969 308.6719,134.2969 308.4844,134.3906 C308.0625,134.6563 307.375,134.7813 306.6094,134.7813 C304.5625,134.7813 303.2656,133.6875 303.2656,131.9844 L303.2656,130.8906 C303.2656,129.1094 304.5156,127.7969 306.25,127.7969 C306.8281,127.7969 307.4375,127.9531 307.9063,128.2031 C308.3906,128.4844 308.5625,128.7031 308.6563,129.1094 C308.7188,129.5156 308.75,129.6406 308.8906,129.7656 C309.0313,129.9063 309.2656,130.0156 309.4844,130.0156 C309.75,130.0156 310.0156,129.875 310.1875,129.6563 C310.2969,129.5 310.3281,129.3125 310.3281,128.8906 L310.3281,127.4688 C310.3281,127.0313 310.3125,126.9063 310.2188,126.75 C310.0625,126.4844 309.7813,126.3438 309.4844,126.3438 C309.1875,126.3438 308.9844,126.4375 308.7656,126.75 L308.5938,126.6719 Z " fill="#000000"/><text fill="#000000" font-family="sans-serif" font-size="14" lengthAdjust="spacing" textLength="34" x="326.75" y="135.8467">Save</text><line style="stroke:#181818;stroke-width:0.5;" x1="8" x2="647" y1="147" y2="147"/><rect fill="none" height="6" style="stroke:#C82930;stroke-width:1.0;" width="6" x="15" y="157.6484"/><text fill="#000000" font-family="sans-serif" font-size="14" lengthAdjust="spacing" text-decoration="underline" textLength="139" x="27" y="163.9951">_idCounter : int = 0</text><ellipse cx="18" cy="176.9453" fill="none" rx="3" ry="3" style="stroke:#038048;stroke-width:1.0;"/><text fill="#000000" font-family="sans-serif" font-size="14" lengthAdjust="spacing" textLength="134" x="27" y="180.292">Id : int &#171;get&#187; &#171;set&#187;</text><ellipse cx="18" cy="193.2422" fill="none" rx="3" ry="3" style="stroke:#038048;stroke-width:1.0;"/><text fill="#000000" font-family="sans-serif" font-size="14" lengthAdjust="spacing" textLength="184" x="27" y="196.5889">Name : string &#171;get&#187; &#171;set&#187;</text><ellipse cx="18" cy="209.5391" fill="none" rx="3" ry="3" style="stroke:#038048;stroke-width:1.0;"/><text fill="#000000" font-family="sans-serif" font-size="14" lengthAdjust="spacing" textLength="226" x="27" y="212.8857">InputFolder : string &#171;get&#187; &#171;set&#187;</text><ellipse cx="18" cy="225.8359" fill="none" rx="3" ry="3" style="stroke:#038048;stroke-width:1.0;"/><text fill="#000000" font-family="sans-serif" font-size="14" lengthAdjust="spacing" textLength="239" x="27" y="229.1826">OutputFolder : string &#171;get&#187; &#171;set&#187;</text><rect fill="none" height="6" style="stroke:#C82930;stroke-width:1.0;" width="6" x="15" y="239.1328"/><text fill="#000000" font-family="sans-serif" font-size="14" lengthAdjust="spacing" textLength="280" x="27" y="245.4795">_TotalFilesToCopy : int &#171;get&#187; &#171;set&#187; = 0</text><ellipse cx="18" cy="258.4297" fill="none" rx="3" ry="3" style="stroke:#038048;stroke-width:1.0;"/><text fill="#000000" font-family="sans-serif" font-size="14" lengthAdjust="spacing" textLength="220" x="27" y="261.7764">TotalFilesSize : int &#171;get&#187; &#171;set&#187;</text><ellipse cx="18" cy="274.7266" fill="none" rx="3" ry="3" style="stroke:#038048;stroke-width:1.0;"/><text fill="#000000" font-family="sans-serif" font-size="14" lengthAdjust="spacing" textLength="241" x="27" y="278.0732">NbFilesLeftToDo : int &#171;get&#187; &#171;set&#187;</text><rect fill="none" height="6" style="stroke:#C82930;stroke-width:1.0;" width="6" x="15" y="288.0234"/><text fill="#000000" font-family="sans-serif" font-size="14" lengthAdjust="spacing" textLength="220" x="27" y="294.3701">_progress : double &#171;get&#187; &#171;set&#187;</text><ellipse cx="18" cy="307.3203" fill="none" rx="3" ry="3" style="stroke:#038048;stroke-width:1.0;"/><text fill="#000000" font-family="sans-serif" font-size="14" lengthAdjust="spacing" textLength="351" x="27" y="310.667">_imageSource : string &#171;get&#187; &#171;set&#187; = "pause.png"</text><rect fill="none" height="6" style="stroke:#C82930;stroke-width:1.0;" width="6" x="15" y="320.6172"/><text fill="#000000" font-family="sans-serif" font-size="14" lengthAdjust="spacing" textLength="180" x="27" y="326.9639">_isSelected : bool = false</text><ellipse cx="18" cy="339.9141" fill="none" rx="3" ry="3" style="stroke:#038048;stroke-width:1.0;"/><text fill="#000000" font-family="sans-serif" font-size="14" lengthAdjust="spacing" textLength="245" x="27" y="343.2607">TotalFilesToCopy : int &#171;get&#187; &#171;set&#187;</text><ellipse cx="18" cy="356.2109" fill="none" rx="3" ry="3" style="stroke:#038048;stroke-width:1.0;"/><text fill="#000000" font-family="sans-serif" font-size="14" lengthAdjust="spacing" textLength="212" x="27" y="359.5576">Progress : double &#171;get&#187; &#171;set&#187;</text><ellipse cx="18" cy="372.5078" fill="none" rx="3" ry="3" style="stroke:#038048;stroke-width:1.0;"/><text fill="#000000" font-family="sans-serif" font-size="14" lengthAdjust="spacing" textLength="208" x="27" y="375.8545">IsSelected : bool &#171;get&#187; &#171;set&#187;</text><ellipse cx="18" cy="388.8047" fill="none" rx="3" ry="3" style="stroke:#038048;stroke-width:1.0;"/><text fill="#000000" font-family="sans-serif" font-size="14" lengthAdjust="spacing" textLength="236" x="27" y="392.1514">ImageSource : string &#171;get&#187; &#171;set&#187;</text><line style="stroke:#181818;stroke-width:0.5;" x1="8" x2="647" y1="399.4531" y2="399.4531"/><ellipse cx="18" cy="413.1016" fill="#84BE84" rx="3" ry="3" style="stroke:#038048;stroke-width:1.0;"/><text fill="#000000" font-family="sans-serif" font-size="14" lengthAdjust="spacing" textLength="615" x="27" y="416.4482">Save(id:int, name:string, inputFolder:string, outputFolder:string, saveType:SaveType)</text><ellipse cx="18" cy="429.3984" fill="#84BE84" rx="3" ry="3" style="stroke:#038048;stroke-width:1.0;"/><text fill="#000000" font-family="sans-serif" font-size="14" lengthAdjust="spacing" textLength="44" x="27" y="432.7451">Save()</text><ellipse cx="18" cy="445.6953" fill="#84BE84" rx="3" ry="3" style="stroke:#038048;stroke-width:1.0;"/><text fill="#000000" font-family="sans-serif" font-size="14" lengthAdjust="spacing" textLength="207" x="27" y="449.042">&#171;override&#187; ToString() : string</text></g><!--class ObservableObject--><g id="elem_ObservableObject"><rect fill="#F1F1F1" height="48" id="ObservableObject" rx="2.5" ry="2.5" style="stroke:#181818;stroke-width:0.5;" width="163" x="246" y="7"/><ellipse cx="261" cy="23" fill="#ADD1B2" rx="11" ry="11" style="stroke:#181818;stroke-width:1.0;"/><path d="M263.3438,18.6719 C262.4063,18.2344 261.8125,18.0938 260.9375,18.0938 C258.3125,18.0938 256.3125,20.1719 256.3125,22.8906 L256.3125,24.0156 C256.3125,26.5938 258.4219,28.4844 261.3125,28.4844 C262.5313,28.4844 263.6875,28.1875 264.4375,27.6406 C265.0156,27.2344 265.3438,26.7813 265.3438,26.3906 C265.3438,25.9375 264.9531,25.5469 264.4844,25.5469 C264.2656,25.5469 264.0625,25.625 263.875,25.8125 C263.4219,26.2969 263.4219,26.2969 263.2344,26.3906 C262.8125,26.6563 262.125,26.7813 261.3594,26.7813 C259.3125,26.7813 258.0156,25.6875 258.0156,23.9844 L258.0156,22.8906 C258.0156,21.1094 259.2656,19.7969 261,19.7969 C261.5781,19.7969 262.1875,19.9531 262.6563,20.2031 C263.1406,20.4844 263.3125,20.7031 263.4063,21.1094 C263.4688,21.5156 263.5,21.6406 263.6406,21.7656 C263.7813,21.9063 264.0156,22.0156 264.2344,22.0156 C264.5,22.0156 264.7656,21.875 264.9375,21.6563 C265.0469,21.5 265.0781,21.3125 265.0781,20.8906 L265.0781,19.4688 C265.0781,19.0313 265.0625,18.9063 264.9688,18.75 C264.8125,18.4844 264.5313,18.3438 264.2344,18.3438 C263.9375,18.3438 263.7344,18.4375 263.5156,18.75 L263.3438,18.6719 Z " fill="#000000"/><text fill="#000000" font-family="sans-serif" font-size="14" lengthAdjust="spacing" textLength="131" x="275" y="27.8467">ObservableObject</text><line style="stroke:#181818;stroke-width:0.5;" x1="247" x2="408" y1="39" y2="39"/><line style="stroke:#181818;stroke-width:0.5;" x1="247" x2="408" y1="47" y2="47"/></g><!--reverse link ObservableObject to Save--><g id="link_ObservableObject_Save"><path codeLine="33" d="M327.5,73.302 C327.5,88.38 327.5,91.519 327.5,114.918 " fill="none" id="ObservableObject-backto-Save" style="stroke:#181818;stroke-width:1.0;"/><polygon fill="none" points="327.5,55.302,321.5,73.302,333.5,73.302,327.5,55.302" style="stroke:#181818;stroke-width:1.0;"/></g><!--link Save to SaveType--><g id="link_Save_SaveType"><path codeLine="34" d="M234.631,456.196 C215.725,490.743 200.4375,518.6776 187.0645,543.1136 " fill="none" id="Save-to-SaveType" style="stroke:#181818;stroke-width:1.0;"/><polygon fill="#181818" points="184.184,548.377,192.0136,542.4023,186.5844,543.9909,184.9958,538.5617,184.184,548.377" style="stroke:#181818;stroke-width:1.0;"/><text fill="#000000" font-family="sans-serif" font-size="13" lengthAdjust="spacing" textLength="64" x="118.4754" y="537.5182">SaveType</text></g><!--link Save to SaveState--><g id="link_Save_SaveState"><path codeLine="35" d="M314.84,456.196 C315.039,477.085 315.2861,491.4877 316.1481,509.7507 " fill="none" id="Save-to-SaveState" style="stroke:#181818;stroke-width:1.0;"/><polygon fill="#181818" points="316.431,515.744,320.0022,506.5654,316.1953,510.7496,312.0111,506.9426,316.431,515.744" style="stroke:#181818;stroke-width:1.0;"/><text fill="#000000" font-family="sans-serif" font-size="13" lengthAdjust="spacing" textLength="40" x="273.3726" y="504.8788">_state</text></g><!--link Save to SaveState--><g id="link_Save_SaveState"><path codeLine="36" d="M340.905,456.196 C340.694,477.085 340.4312,491.4885 339.5192,509.7515 " fill="none" id="Save-to-SaveState-1" style="stroke:#181818;stroke-width:1.0;"/><polygon fill="#181818" points="339.22,515.744,343.6639,506.9547,339.4694,510.7502,335.6739,506.5557,339.22,515.744" style="stroke:#181818;stroke-width:1.0;"/><text fill="#000000" font-family="sans-serif" font-size="13" lengthAdjust="spacing" textLength="34" x="342.0471" y="504.8788">State</text></g><!--SRC=[ZLDDZvim4BtdLunosgXXjVqu8H8fIg15IW5XzunCc4Mk24ROHDfkzx_N64DHjudYYpKpRsRUF7kmxiv0s0NfIuFmkW1zzl7tvEXJVssiGnW4Vkf7DDmTrukt1OuPH34rflXf6gSRS3uEEL5CCq9tAVKF6tWQV66K9MdyDVK9sO351M4KacyzwDFW83HEajx-FDZ9xWVfpIzzvrF5f3IjRLS7NgKcmKzlaF5YBxfQOGiky5g1xcim7o0ihClpIbJRhRvbVzjmnCwe0LArl2wlOCAwwLGWgiAKlmcDEtKdre6C2iMgW5SegTYBvkN_H6Up_4qW_1VUdYitk2C-AoeEuWPM4sbQKRQerNMX45rUuPMY6J-p4edesjDrqJJVPSCwYOzDNIx75bmIhF2ai7-EN8XAmvvP9T6Mxj_rWHUkPhc6MZ-AErHVQzwJefDFp6IUdDB-OtVyqAjvxTKx3M-9Ri79dSA4xwQxWhj3FmlrF771jkK5wX0Ln60VLbEQteWubzXUcAOLvpzrT_1-EuwPTc7Mn76si1p5M4vxFWjc_GBPa5deUU8_eJy0]--></g></svg>