<?xml version="1.0" encoding="us-ascii" standalone="no"?><svg xmlns="http://www.w3.org/2000/svg" xmlns:xlink="http://www.w3.org/1999/xlink" contentStyleType="text/css" height="235px" preserveAspectRatio="none" style="width:527px;height:235px;background:#FFFFFF;" version="1.1" viewBox="0 0 527 235" width="527px" zoomAndPan="magnify"><defs/><g><!--class SharedLocalizer--><g id="elem_SharedLocalizer"><rect codeLine="1" fill="#F1F1F1" height="113.1875" id="SharedLocalizer" rx="2.5" ry="2.5" style="stroke:#181818;stroke-width:0.5;" width="444" x="7" y="7"/><ellipse cx="167.75" cy="23" fill="#ADD1B2" rx="11" ry="11" style="stroke:#181818;stroke-width:1.0;"/><path d="M170.0938,18.6719 C169.1563,18.2344 168.5625,18.0938 167.6875,18.0938 C165.0625,18.0938 163.0625,20.1719 163.0625,22.8906 L163.0625,24.0156 C163.0625,26.5938 165.1719,28.4844 168.0625,28.4844 C169.2813,28.4844 170.4375,28.1875 171.1875,27.6406 C171.7656,27.2344 172.0938,26.7813 172.0938,26.3906 C172.0938,25.9375 171.7031,25.5469 171.2344,25.5469 C171.0156,25.5469 170.8125,25.625 170.625,25.8125 C170.1719,26.2969 170.1719,26.2969 169.9844,26.3906 C169.5625,26.6563 168.875,26.7813 168.1094,26.7813 C166.0625,26.7813 164.7656,25.6875 164.7656,23.9844 L164.7656,22.8906 C164.7656,21.1094 166.0156,19.7969 167.75,19.7969 C168.3281,19.7969 168.9375,19.9531 169.4063,20.2031 C169.8906,20.4844 170.0625,20.7031 170.1563,21.1094 C170.2188,21.5156 170.25,21.6406 170.3906,21.7656 C170.5313,21.9063 170.7656,22.0156 170.9844,22.0156 C171.25,22.0156 171.5156,21.875 171.6875,21.6563 C171.7969,21.5 171.8281,21.3125 171.8281,20.8906 L171.8281,19.4688 C171.8281,19.0313 171.8125,18.9063 171.7188,18.75 C171.5625,18.4844 171.2813,18.3438 170.9844,18.3438 C170.6875,18.3438 170.4844,18.4375 170.2656,18.75 L170.0938,18.6719 Z " fill="#000000"/><text fill="#000000" font-family="sans-serif" font-size="14" lengthAdjust="spacing" textLength="114" x="188.25" y="27.8467">SharedLocalizer</text><line style="stroke:#181818;stroke-width:0.5;" x1="8" x2="450" y1="39" y2="39"/><line style="stroke:#181818;stroke-width:0.5;" x1="8" x2="450" y1="47" y2="47"/><rect fill="#F24D5C" height="6" style="stroke:#C82930;stroke-width:1.0;" width="6" x="15" y="57.6484"/><text fill="#000000" font-family="sans-serif" font-size="14" lengthAdjust="spacing" textLength="317" x="27" y="63.9951">SharedLocalizer(initialLanguage:CultureInfo)</text><ellipse cx="18" cy="76.9453" fill="#84BE84" rx="3" ry="3" style="stroke:#038048;stroke-width:1.0;"/><text fill="#000000" font-family="sans-serif" font-size="14" lengthAdjust="spacing" text-decoration="underline" textLength="418" x="27" y="80.292">GetInstance(initialLanguage:CultureInfo) : SharedLocalizer</text><ellipse cx="18" cy="93.2422" fill="#84BE84" rx="3" ry="3" style="stroke:#038048;stroke-width:1.0;"/><text fill="#000000" font-family="sans-serif" font-size="14" lengthAdjust="spacing" textLength="281" x="27" y="96.5889">SetLanguage(culture:CultureInfo) : void</text><ellipse cx="18" cy="109.5391" fill="#84BE84" rx="3" ry="3" style="stroke:#038048;stroke-width:1.0;"/><text fill="#000000" font-family="sans-serif" font-size="14" lengthAdjust="spacing" textLength="209" x="27" y="112.8857">GetString(key:string) : string</text></g><!--class CultureInfo--><g id="elem_CultureInfo"><rect fill="#F1F1F1" height="48" id="CultureInfo" rx="2.5" ry="2.5" style="stroke:#181818;stroke-width:0.5;" width="112" x="173" y="180"/><ellipse cx="188" cy="196" fill="#ADD1B2" rx="11" ry="11" style="stroke:#181818;stroke-width:1.0;"/><path d="M190.3438,191.6719 C189.4063,191.2344 188.8125,191.0938 187.9375,191.0938 C185.3125,191.0938 183.3125,193.1719 183.3125,195.8906 L183.3125,197.0156 C183.3125,199.5938 185.4219,201.4844 188.3125,201.4844 C189.5313,201.4844 190.6875,201.1875 191.4375,200.6406 C192.0156,200.2344 192.3438,199.7813 192.3438,199.3906 C192.3438,198.9375 191.9531,198.5469 191.4844,198.5469 C191.2656,198.5469 191.0625,198.625 190.875,198.8125 C190.4219,199.2969 190.4219,199.2969 190.2344,199.3906 C189.8125,199.6563 189.125,199.7813 188.3594,199.7813 C186.3125,199.7813 185.0156,198.6875 185.0156,196.9844 L185.0156,195.8906 C185.0156,194.1094 186.2656,192.7969 188,192.7969 C188.5781,192.7969 189.1875,192.9531 189.6563,193.2031 C190.1406,193.4844 190.3125,193.7031 190.4063,194.1094 C190.4688,194.5156 190.5,194.6406 190.6406,194.7656 C190.7813,194.9063 191.0156,195.0156 191.2344,195.0156 C191.5,195.0156 191.7656,194.875 191.9375,194.6563 C192.0469,194.5 192.0781,194.3125 192.0781,193.8906 L192.0781,192.4688 C192.0781,192.0313 192.0625,191.9063 191.9688,191.75 C191.8125,191.4844 191.5313,191.3438 191.2344,191.3438 C190.9375,191.3438 190.7344,191.4375 190.5156,191.75 L190.3438,191.6719 Z " fill="#000000"/><text fill="#000000" font-family="sans-serif" font-size="14" lengthAdjust="spacing" textLength="80" x="202" y="200.8467">CultureInfo</text><line style="stroke:#181818;stroke-width:0.5;" x1="174" x2="284" y1="212" y2="212"/><line style="stroke:#181818;stroke-width:0.5;" x1="174" x2="284" y1="220" y2="220"/></g><!--class ResourceManager--><g id="elem_ResourceManager"><rect fill="#F1F1F1" height="48" id="ResourceManager" rx="2.5" ry="2.5" style="stroke:#181818;stroke-width:0.5;" width="159" x="320.5" y="180"/><ellipse cx="335.5" cy="196" fill="#ADD1B2" rx="11" ry="11" style="stroke:#181818;stroke-width:1.0;"/><path d="M337.8438,191.6719 C336.9063,191.2344 336.3125,191.0938 335.4375,191.0938 C332.8125,191.0938 330.8125,193.1719 330.8125,195.8906 L330.8125,197.0156 C330.8125,199.5938 332.9219,201.4844 335.8125,201.4844 C337.0313,201.4844 338.1875,201.1875 338.9375,200.6406 C339.5156,200.2344 339.8438,199.7813 339.8438,199.3906 C339.8438,198.9375 339.4531,198.5469 338.9844,198.5469 C338.7656,198.5469 338.5625,198.625 338.375,198.8125 C337.9219,199.2969 337.9219,199.2969 337.7344,199.3906 C337.3125,199.6563 336.625,199.7813 335.8594,199.7813 C333.8125,199.7813 332.5156,198.6875 332.5156,196.9844 L332.5156,195.8906 C332.5156,194.1094 333.7656,192.7969 335.5,192.7969 C336.0781,192.7969 336.6875,192.9531 337.1563,193.2031 C337.6406,193.4844 337.8125,193.7031 337.9063,194.1094 C337.9688,194.5156 338,194.6406 338.1406,194.7656 C338.2813,194.9063 338.5156,195.0156 338.7344,195.0156 C339,195.0156 339.2656,194.875 339.4375,194.6563 C339.5469,194.5 339.5781,194.3125 339.5781,193.8906 L339.5781,192.4688 C339.5781,192.0313 339.5625,191.9063 339.4688,191.75 C339.3125,191.4844 339.0313,191.3438 338.7344,191.3438 C338.4375,191.3438 338.2344,191.4375 338.0156,191.75 L337.8438,191.6719 Z " fill="#000000"/><text fill="#000000" font-family="sans-serif" font-size="14" lengthAdjust="spacing" textLength="127" x="349.5" y="200.8467">ResourceManager</text><line style="stroke:#181818;stroke-width:0.5;" x1="321.5" x2="478.5" y1="212" y2="212"/><line style="stroke:#181818;stroke-width:0.5;" x1="321.5" x2="478.5" y1="220" y2="220"/></g><!--link SharedLocalizer to SharedLocalizer--><g id="link_SharedLocalizer_SharedLocalizer"><path codeLine="7" d="M451.059,42.274 C472.447,46.581 486,53.656 486,63.5 C486,73.344 478.3289,79.2345 456.9409,83.5415 " fill="none" id="SharedLocalizer-to-SharedLocalizer" style="stroke:#181818;stroke-width:1.0;"/><polygon fill="#181818" points="451.059,84.726,460.6715,86.8706,455.9606,83.7389,459.0922,79.028,451.059,84.726" style="stroke:#181818;stroke-width:1.0;"/><text fill="#000000" font-family="sans-serif" font-size="13" lengthAdjust="spacing" textLength="61" x="459.3461" y="82.2424">_instance</text></g><!--link SharedLocalizer to CultureInfo--><g id="link_SharedLocalizer_CultureInfo"><path codeLine="8" d="M216.475,120.035 C215.781,140.9568 215.7793,157.6882 218.3003,174.032 " fill="none" id="SharedLocalizer-to-CultureInfo" style="stroke:#181818;stroke-width:1.0;"/><polygon fill="#181818" points="219.215,179.9619,221.7962,170.4573,218.4528,175.0203,213.8897,171.6769,219.215,179.9619" style="stroke:#181818;stroke-width:1.0;"/><text fill="#000000" font-family="sans-serif" font-size="13" lengthAdjust="spacing" textLength="116" x="85.8456" y="168.9642">_currentLanguage</text></g><!--link SharedLocalizer to CultureInfo--><g id="link_SharedLocalizer_CultureInfo"><path codeLine="10" d="M242.262,120.035 C242.997,140.9568 242.9974,157.6966 240.3274,174.0404 " fill="none" id="SharedLocalizer-to-CultureInfo-1" style="stroke:#181818;stroke-width:1.0;"/><polygon fill="#181818" points="239.36,179.9619,244.7587,171.7246,240.1661,175.0273,236.8634,170.4347,239.36,179.9619" style="stroke:#181818;stroke-width:1.0;"/><text fill="#000000" font-family="sans-serif" font-size="13" lengthAdjust="spacing" textLength="111" x="256.0987" y="168.9024">CurrentLanguage</text></g><!--link SharedLocalizer to ResourceManager--><g id="link_SharedLocalizer_ResourceManager"><path codeLine="9" d="M297.567,120.035 C323.398,140.9568 346.7145,159.8417 366.8935,176.1855 " fill="none" id="SharedLocalizer-to-ResourceManager" style="stroke:#181818;stroke-width:1.0;"/><polygon fill="#181818" points="371.556,179.9619,367.0798,171.189,367.6706,176.8149,362.0446,177.4057,371.556,179.9619" style="stroke:#181818;stroke-width:1.0;"/><text fill="#000000" font-family="sans-serif" font-size="13" lengthAdjust="spacing" textLength="118" x="379.386" y="168.9642">_resourceManager</text></g><!--SRC=[VO_12i8m38RlUugmqqJs0ZjusK46y-8UG4eNPx2qaBQ2ZhsxTPkYTPfJ4lul_n-fXBNGd0HZMnif5DsGeKyWL1xlCzBaIAXQwCwB3elIA-SPAtqqgn5PGs-TS2G7sAAhT1YqnByS5B7DVAb1zmGoEG4nU37KpkfWrpWctMLdl1PsR1-IgKk69FunppUG7cYEc7w5MDPBpupw5Io5jqG_44PhF4lS2Hq8Jc7_kLZ6oZz6Tm00]--></g></svg>