<?xml version="1.0" encoding="us-ascii" standalone="no"?><svg xmlns="http://www.w3.org/2000/svg" xmlns:xlink="http://www.w3.org/1999/xlink" contentStyleType="text/css" height="650px" preserveAspectRatio="none" style="width:793px;height:650px;background:#FFFFFF;" version="1.1" viewBox="0 0 793 650" width="793px" zoomAndPan="magnify"><defs/><g><!--cluster EasySave--><g id="cluster_EasySave"><path d="M128.5,6 L204.5,6 A3.75,3.75 0 0 1 207,8.5 L214,28.2969 L783.5,28.2969 A2.5,2.5 0 0 1 786,30.7969 L786,640.5 A2.5,2.5 0 0 1 783.5,643 L128.5,643 A2.5,2.5 0 0 1 126,640.5 L126,8.5 A2.5,2.5 0 0 1 128.5,6 " fill="none" style="stroke:#000000;stroke-width:1.5;"/><line style="stroke:#000000;stroke-width:1.5;" x1="126" x2="214" y1="28.2969" y2="28.2969"/><text fill="#000000" font-family="sans-serif" font-size="14" font-weight="bold" lengthAdjust="spacing" textLength="75" x="130" y="20.9951">EasySave</text></g><g id="elem_uc1"><ellipse cx="241.4095" cy="245.0819" fill="#F1F1F1" rx="95.9095" ry="21.5819" style="stroke:#181818;stroke-width:0.5;"/><text fill="#000000" font-family="sans-serif" font-size="14" lengthAdjust="spacing" textLength="155" x="163.9095" y="247.9286">Cr&#233;er une sauvegarde</text></g><g id="elem_uc7"><ellipse cx="616.7839" cy="324.8568" fill="#F1F1F1" rx="79.7839" ry="18.3568" style="stroke:#181818;stroke-width:0.5;"/><text fill="#000000" font-family="sans-serif" font-size="14" lengthAdjust="spacing" textLength="118" x="556.0356" y="328.2613">Renseigner Nom</text></g><g id="elem_uc8"><ellipse cx="617.2105" cy="245.2421" fill="#F1F1F1" rx="121.7105" ry="26.7421" style="stroke:#181818;stroke-width:0.5;"/><text fill="#000000" font-family="sans-serif" font-size="14" lengthAdjust="spacing" textLength="211" x="511.7105" y="248.0888">Renseigner r&#233;pertoire source</text></g><g id="elem_uc9"><ellipse cx="617.0937" cy="158.1187" fill="#F1F1F1" rx="116.0937" ry="25.6187" style="stroke:#181818;stroke-width:0.5;"/><text fill="#000000" font-family="sans-serif" font-size="14" lengthAdjust="spacing" textLength="199" x="517.5937" y="160.9654">Renseigner r&#233;pertoire cible</text></g><g id="elem_uc10"><ellipse cx="616.7813" cy="69.1563" fill="#F1F1F1" rx="128.7813" ry="28.1563" style="stroke:#181818;stroke-width:0.5;"/><text fill="#000000" font-family="sans-serif" font-size="14" lengthAdjust="spacing" textLength="226" x="503.7813" y="72.0029">Renseigner type de sauvegarde</text></g><g id="elem_uc6"><ellipse cx="241.4431" cy="386.1886" fill="#F1F1F1" rx="91.4431" ry="20.6886" style="stroke:#181818;stroke-width:0.5;"/><text fill="#000000" font-family="sans-serif" font-size="14" lengthAdjust="spacing" textLength="145" x="168.9431" y="389.0353">Quitter l'application</text></g><g id="elem_uc2"><ellipse cx="241.5203" cy="463.8041" fill="#F1F1F1" rx="99.5203" ry="22.3041" style="stroke:#181818;stroke-width:0.5;"/><text fill="#000000" font-family="sans-serif" font-size="14" lengthAdjust="spacing" textLength="163" x="160.0203" y="466.6507">Lancer une sauvegarde</text></g><g id="elem_uc3"><ellipse cx="616.8004" cy="602.0601" fill="#F1F1F1" rx="113.3004" ry="25.0601" style="stroke:#181818;stroke-width:0.5;"/><text fill="#000000" font-family="sans-serif" font-size="14" lengthAdjust="spacing" textLength="193" x="520.3004" y="604.9068">S&#233;lectionner la sauvegarde</text></g><g id="elem_uc4"><ellipse cx="617.1894" cy="510.9379" fill="#F1F1F1" rx="140.1894" ry="30.4379" style="stroke:#181818;stroke-width:0.5;"/><text fill="#000000" font-family="sans-serif" font-size="14" lengthAdjust="spacing" textLength="250" x="492.1894" y="513.7846">Remplir le fichier journalier de logs</text></g><g id="elem_uc5"><ellipse cx="617.1339" cy="412.0268" fill="#F1F1F1" rx="153.1339" ry="33.0268" style="stroke:#181818;stroke-width:0.5;"/><text fill="#000000" font-family="sans-serif" font-size="14" lengthAdjust="spacing" textLength="277" x="478.6339" y="414.8735">Remplir le fichier d'&#233;tat en temps r&#233;el</text></g><g id="elem_uc11"><ellipse cx="241.3093" cy="543.7619" fill="#F1F1F1" rx="96.8093" ry="21.7619" style="stroke:#181818;stroke-width:0.5;"/><text fill="#000000" font-family="sans-serif" font-size="14" lengthAdjust="spacing" textLength="157" x="162.8093" y="546.6085">S&#233;lection de la langue</text></g><!--entity user--><g id="elem_user"><ellipse cx="42.5" cy="396.5" fill="#F1F1F1" rx="8" ry="8" style="stroke:#181818;stroke-width:0.5;"/><path d="M42.5,404.5 L42.5,431.5 M29.5,412.5 L55.5,412.5 M42.5,431.5 L29.5,446.5 M42.5,431.5 L55.5,446.5 " fill="none" style="stroke:#181818;stroke-width:0.5;"/><text fill="#000000" font-family="sans-serif" font-size="14" lengthAdjust="spacing" textLength="73" x="6" y="460.9951">Utilisateur</text></g><!--link user to uc1--><g id="link_user_uc1"><path d="M78.3149,387.892 C90.5655,374.933 104.6193,360.559 118,348 C149.808,318.145 183.9918,289.9197 209.2968,269.6537 " fill="none" id="user-to-uc1" style="stroke:#181818;stroke-width:1.0;"/><polygon fill="#181818" points="213.98,265.903,204.4547,268.4068,210.0773,269.0285,209.4556,274.6511,213.98,265.903" style="stroke:#181818;stroke-width:1.0;"/></g><!--link user to uc11--><g id="link_user_uc11"><path d="M72.9588,464.062 C85.5434,478.232 101.2032,493.423 118,504 C134.565,514.431 148.4068,520.566 166.9688,526.543 " fill="none" id="user-to-uc11" style="stroke:#181818;stroke-width:1.0;"/><polygon fill="#181818" points="172.68,528.382,165.3392,521.816,167.9207,526.8495,162.8872,529.4309,172.68,528.382" style="stroke:#181818;stroke-width:1.0;"/></g><!--link uc1 to uc7--><g id="link_uc1_uc7"><path d="M311.441,259.766 C382.158,274.913 485.1031,296.9634 551.7201,311.2314 " fill="none" id="uc1-to-uc7" style="stroke:#181818;stroke-width:1.0;"/><polygon fill="#181818" points="557.587,312.488,549.6243,306.6918,552.6979,311.4409,547.9489,314.5144,557.587,312.488" style="stroke:#181818;stroke-width:1.0;"/></g><!--link uc1 to uc8--><g id="link_uc1_uc8"><path d="M337.716,245 C385.697,245 438.388,245 489.481,245 " fill="none" id="uc1-to-uc8" style="stroke:#181818;stroke-width:1.0;"/><polygon fill="#181818" points="495.481,245,486.481,241,490.481,245,486.481,249,495.481,245" style="stroke:#181818;stroke-width:1.0;"/></g><!--link uc1 to uc9--><g id="link_uc1_uc9"><path d="M308.844,229.546 C372.571,214.702 463.0624,193.6242 530.8184,177.8412 " fill="none" id="uc1-to-uc9" style="stroke:#181818;stroke-width:1.0;"/><polygon fill="#181818" points="536.662,176.48,526.9892,174.6261,531.7924,177.6143,528.8041,182.4175,536.662,176.48" style="stroke:#181818;stroke-width:1.0;"/></g><!--link uc1 to uc10--><g id="link_uc1_uc10"><path d="M272.104,224.536 C313.486,196.665 391.692,146.626 464,115 C485.724,105.499 504.2622,98.9245 526.9322,92.0785 " fill="none" id="uc1-to-uc10" style="stroke:#181818;stroke-width:1.0;"/><polygon fill="#181818" points="532.676,90.344,522.9039,89.1166,527.8895,91.7895,525.2166,96.775,532.676,90.344" style="stroke:#181818;stroke-width:1.0;"/></g><!--link user to uc6--><g id="link_user_uc6"><path d="M79.1752,418.756 C105.3426,413.443 135.783,407.263 167.336,400.856 " fill="none" id="user-to-uc6" style="stroke:#181818;stroke-width:1.0;"/><polygon fill="#181818" points="173.216,399.662,163.6,397.5329,168.316,400.657,165.192,405.373,173.216,399.662" style="stroke:#181818;stroke-width:1.0;"/></g><!--link user to uc2--><g id="link_user_uc2"><path d="M79.1752,432.882 C103.1251,437.501 129.6886,442.6256 159.2086,448.3196 " fill="none" id="user-to-uc2" style="stroke:#181818;stroke-width:1.0;"/><polygon fill="#181818" points="165.1,449.456,157.0205,443.8238,160.1905,448.509,155.5053,451.679,165.1,449.456" style="stroke:#181818;stroke-width:1.0;"/></g><!--link uc2 to uc3--><g id="link_uc2_uc3"><path d="M290.173,483.627 C306.337,490.339 324.48,497.936 341,505 C395.895,528.472 407.809,538.826 464,559 C489.037,567.9889 511.1399,574.7409 536.1219,581.6462 " fill="none" id="uc2-to-uc3" style="stroke:#181818;stroke-width:1.0;"/><polygon fill="#181818" points="541.905,583.2447,534.296,576.9915,537.0857,581.9126,532.1646,584.7023,541.905,583.2447" style="stroke:#181818;stroke-width:1.0;"/></g><!--link uc2 to uc4--><g id="link_uc2_uc4"><path d="M308.178,480.796 C328.227,485.389 350.415,489.938 371,493 C406.119,498.223 438.3237,501.5061 473.8687,504.1611 " fill="none" id="uc2-to-uc4" style="stroke:#181818;stroke-width:1.0;stroke-dasharray:7.0,7.0;"/><polygon fill="#181818" points="479.852,504.608,471.1749,499.9487,474.8659,504.2356,470.5791,507.9265,479.852,504.608" style="stroke:#181818;stroke-width:1.0;"/><text fill="#000000" font-family="sans-serif" font-size="13" lengthAdjust="spacing" textLength="61" x="372" y="489.0669">&#171;include&#187;</text></g><!--link uc2 to uc5--><g id="link_uc2_uc5"><path d="M326.786,452.265 C374.336,445.645 428.7783,438.0654 482.0593,430.6474 " fill="none" id="uc2-to-uc5" style="stroke:#181818;stroke-width:1.0;stroke-dasharray:7.0,7.0;"/><polygon fill="#181818" points="488.002,429.82,478.5364,427.0993,483.0498,430.5095,479.6396,435.0228,488.002,429.82" style="stroke:#181818;stroke-width:1.0;"/><text fill="#000000" font-family="sans-serif" font-size="13" lengthAdjust="spacing" textLength="61" x="372" y="434.0669">&#171;include&#187;</text></g><!--SRC=[ZP9DJiCm48NtFiM8JLT5zBz5LJU87KA2YWCCpZGrk7PaZojLY0Fr7BqOav0YLxG2AOitck_PBo-nj69W3y6KQuR21D9il5CADVi0BsoiYSYK0c2452aeLQ5-nvBW7kDkYLk23mNrIcCakBeBXpq5I8uWOjfIYQ6WgyQjUpduJ2wIAPt0ZtxJ4fCBX1nQKM0l0I7w5FJnoEa_3DgysYC_ky3phY8epcM-oHrFoJ0BRZjOLTPehDjgoN4EFg3Jbshev-3oiBVVfTSnBFx61wUHDtAlW0GhezT6F6_IXqDRIta1wylO6eT_68lEOS_8G0vOjh4kZMnh7fqFsLo1yhWo_LJKKvzArJy7TBkBvZldWqowrmwJJ4ypFODiaCep_pWV-eBrMprez7MZXt0ByxbnsgQ25ejiCphTV040]--></g></svg>