<?xml version="1.0" encoding="us-ascii" standalone="no"?><svg xmlns="http://www.w3.org/2000/svg" xmlns:xlink="http://www.w3.org/1999/xlink" contentStyleType="text/css" height="731px" preserveAspectRatio="none" style="width:859px;height:731px;background:#FFFFFF;" version="1.1" viewBox="0 0 859 731" width="859px" zoomAndPan="magnify"><defs/><g><!--cluster EasySave--><g id="cluster_EasySave"><path d="M128.5,6 L204.5,6 A3.75,3.75 0 0 1 207,8.5 L214,28.2969 L849.5,28.2969 A2.5,2.5 0 0 1 852,30.7969 L852,721.5 A2.5,2.5 0 0 1 849.5,724 L128.5,724 A2.5,2.5 0 0 1 126,721.5 L126,8.5 A2.5,2.5 0 0 1 128.5,6 " fill="none" style="stroke:#000000;stroke-width:1.5;"/><line style="stroke:#000000;stroke-width:1.5;" x1="126" x2="214" y1="28.2969" y2="28.2969"/><text fill="#000000" font-family="sans-serif" font-size="14" font-weight="bold" lengthAdjust="spacing" textLength="75" x="130" y="20.9951">EasySave</text></g><g id="elem_uc1"><ellipse cx="241.4095" cy="289.0819" fill="#F1F1F1" rx="95.9095" ry="21.5819" style="stroke:#181818;stroke-width:0.5;"/><text fill="#000000" font-family="sans-serif" font-size="14" lengthAdjust="spacing" textLength="155" x="163.9095" y="291.9286">Cr&#233;er une sauvegarde</text></g><g id="elem_uc7"><ellipse cx="650.1669" cy="394.0334" fill="#F1F1F1" rx="140.6669" ry="30.5334" style="stroke:#181818;stroke-width:0.5;"/><text fill="#000000" font-family="sans-serif" font-size="14" lengthAdjust="spacing" textLength="251" x="524.6669" y="396.8801">R&#233;cup&#233;rer le nom de la sauvegarde</text></g><g id="elem_uc8"><ellipse cx="650.0906" cy="289.1181" fill="#F1F1F1" rx="186.0906" ry="39.6181" style="stroke:#181818;stroke-width:0.5;"/><text fill="#000000" font-family="sans-serif" font-size="14" lengthAdjust="spacing" textLength="345" x="477.5906" y="291.9648">R&#233;cup&#233;rer le r&#233;pertoire source de la sauvegarde</text></g><g id="elem_uc9"><ellipse cx="650.2461" cy="175.9492" fill="#F1F1F1" rx="180.2461" ry="38.4492" style="stroke:#181818;stroke-width:0.5;"/><text fill="#000000" font-family="sans-serif" font-size="14" lengthAdjust="spacing" textLength="333" x="483.7461" y="178.7959">R&#233;cup&#233;rer le r&#233;pertoire cible de la sauvegarde</text></g><g id="elem_uc10"><ellipse cx="650.1224" cy="72.2245" fill="#F1F1F1" rx="141.6224" ry="30.7245" style="stroke:#181818;stroke-width:0.5;"/><text fill="#000000" font-family="sans-serif" font-size="14" lengthAdjust="spacing" textLength="253" x="523.6224" y="75.0712">R&#233;cuperer le type de la sauvegarde</text></g><g id="elem_uc6"><ellipse cx="241.4431" cy="475.1886" fill="#F1F1F1" rx="91.4431" ry="20.6886" style="stroke:#181818;stroke-width:0.5;"/><text fill="#000000" font-family="sans-serif" font-size="14" lengthAdjust="spacing" textLength="145" x="168.9431" y="478.0353">Quitter l'application</text></g><g id="elem_uc2"><ellipse cx="241.5203" cy="552.8041" fill="#F1F1F1" rx="99.5203" ry="22.3041" style="stroke:#181818;stroke-width:0.5;"/><text fill="#000000" font-family="sans-serif" font-size="14" lengthAdjust="spacing" textLength="163" x="160.0203" y="555.6507">Lancer une sauvegarde</text></g><g id="elem_uc3"><ellipse cx="649.8004" cy="683.0601" fill="#F1F1F1" rx="113.3004" ry="25.0601" style="stroke:#181818;stroke-width:0.5;"/><text fill="#000000" font-family="sans-serif" font-size="14" lengthAdjust="spacing" textLength="193" x="553.3004" y="685.9068">S&#233;lectionner la sauvegarde</text></g><g id="elem_uc4"><ellipse cx="650.1894" cy="591.9379" fill="#F1F1F1" rx="140.1894" ry="30.4379" style="stroke:#181818;stroke-width:0.5;"/><text fill="#000000" font-family="sans-serif" font-size="14" lengthAdjust="spacing" textLength="250" x="525.1894" y="594.7846">Remplir le fichier journalier de logs</text></g><g id="elem_uc5"><ellipse cx="650.1339" cy="493.0268" fill="#F1F1F1" rx="153.1339" ry="33.0268" style="stroke:#181818;stroke-width:0.5;"/><text fill="#000000" font-family="sans-serif" font-size="14" lengthAdjust="spacing" textLength="277" x="511.6339" y="495.8735">Remplir le fichier d'&#233;tat en temps r&#233;el</text></g><g id="elem_uc11"><ellipse cx="241.3093" cy="632.7619" fill="#F1F1F1" rx="96.8093" ry="21.7619" style="stroke:#181818;stroke-width:0.5;"/><text fill="#000000" font-family="sans-serif" font-size="14" lengthAdjust="spacing" textLength="157" x="162.8093" y="635.6085">S&#233;lection de la langue</text></g><!--entity user--><g id="elem_user"><ellipse cx="42.5" cy="485.5" fill="#F1F1F1" rx="8" ry="8" style="stroke:#181818;stroke-width:0.5;"/><path d="M42.5,493.5 L42.5,520.5 M29.5,501.5 L55.5,501.5 M42.5,520.5 L29.5,535.5 M42.5,520.5 L55.5,535.5 " fill="none" style="stroke:#181818;stroke-width:0.5;"/><text fill="#000000" font-family="sans-serif" font-size="14" lengthAdjust="spacing" textLength="73" x="6" y="549.9951">Utilisateur</text></g><!--link user to uc1--><g id="link_user_uc1"><path d="M76.6956,476.918 C118.474,428.989 184.8375,352.8559 218.0795,314.7209 " fill="none" id="user-to-uc1" style="stroke:#181818;stroke-width:1.0;"/><polygon fill="#181818" points="222.022,310.198,213.0929,314.3539,218.7365,313.9671,219.1234,319.6107,222.022,310.198" style="stroke:#181818;stroke-width:1.0;"/></g><!--link user to uc11--><g id="link_user_uc11"><path d="M72.9588,553.062 C85.5434,567.232 101.2032,582.423 118,593 C134.565,603.431 148.4068,609.566 166.9688,615.543 " fill="none" id="user-to-uc11" style="stroke:#181818;stroke-width:1.0;"/><polygon fill="#181818" points="172.68,617.382,165.3392,610.816,167.9207,615.8495,162.8872,618.4309,172.68,617.382" style="stroke:#181818;stroke-width:1.0;"/></g><!--reverse link uc1 to uc7--><g id="link_uc1_uc7"><path d="M310.9343,306.6766 C378.7483,324.1936 481.72,350.791 558.754,370.689 " fill="none" id="uc1-backto-uc7" style="stroke:#181818;stroke-width:1.0;stroke-dasharray:7.0,7.0;"/><polygon fill="#181818" points="305.125,305.176,312.8386,311.2998,309.9661,306.4265,314.8394,303.554,305.125,305.176" style="stroke:#181818;stroke-width:1.0;"/><text fill="#000000" font-family="sans-serif" font-size="13" lengthAdjust="spacing" textLength="61" x="372" y="319.0669">&#171;include&#187;</text></g><!--reverse link uc1 to uc8--><g id="link_uc1_uc8"><path d="M343.55,289 C381.326,289 420.141,289 463.833,289 " fill="none" id="uc1-backto-uc8" style="stroke:#181818;stroke-width:1.0;stroke-dasharray:7.0,7.0;"/><polygon fill="#181818" points="337.55,289,346.55,293,342.55,289,346.55,285,337.55,289" style="stroke:#181818;stroke-width:1.0;"/><text fill="#000000" font-family="sans-serif" font-size="13" lengthAdjust="spacing" textLength="61" x="372" y="285.0669">&#171;include&#187;</text></g><!--reverse link uc1 to uc9--><g id="link_uc1_uc9"><path d="M308.2608,270.7191 C370.4308,253.4381 463.205,227.648 539.343,206.483 " fill="none" id="uc1-backto-uc9" style="stroke:#181818;stroke-width:1.0;stroke-dasharray:7.0,7.0;"/><polygon fill="#181818" points="302.48,272.326,312.2225,273.7696,307.2974,270.9869,310.08,266.0618,302.48,272.326" style="stroke:#181818;stroke-width:1.0;"/><text fill="#000000" font-family="sans-serif" font-size="13" lengthAdjust="spacing" textLength="61" x="372" y="232.0669">&#171;include&#187;</text></g><!--reverse link uc1 to uc10--><g id="link_uc1_uc10"><path d="M268.1099,263.8357 C305.4389,228.1307 382.229,159.783 464,120 C488.467,108.096 516.241,98.894 542.692,91.883 " fill="none" id="uc1-backto-uc10" style="stroke:#181818;stroke-width:1.0;stroke-dasharray:7.0,7.0;"/><polygon fill="#181818" points="263.774,267.983,273.0427,264.6527,267.3873,264.5269,267.513,258.8715,263.774,267.983" style="stroke:#181818;stroke-width:1.0;"/><text fill="#000000" font-family="sans-serif" font-size="13" lengthAdjust="spacing" textLength="61" x="372" y="134.0669">&#171;include&#187;</text></g><!--link user to uc6--><g id="link_user_uc6"><path d="M79.1752,507.756 C105.3426,502.443 135.783,496.263 167.336,489.856 " fill="none" id="user-to-uc6" style="stroke:#181818;stroke-width:1.0;"/><polygon fill="#181818" points="173.216,488.662,163.6,486.5329,168.316,489.657,165.192,494.373,173.216,488.662" style="stroke:#181818;stroke-width:1.0;"/></g><!--link user to uc2--><g id="link_user_uc2"><path d="M79.1752,521.882 C103.1251,526.501 129.6886,531.6256 159.2086,537.3196 " fill="none" id="user-to-uc2" style="stroke:#181818;stroke-width:1.0;"/><polygon fill="#181818" points="165.1,538.456,157.0205,532.8238,160.1905,537.509,155.5053,540.679,165.1,538.456" style="stroke:#181818;stroke-width:1.0;"/></g><!--link uc2 to uc3--><g id="link_uc2_uc3"><path d="M290.307,572.725 C344.809,595.043 430.662,629.639 464,640 C496.748,650.1776 527.5636,657.8821 559.5666,664.9875 " fill="none" id="uc2-to-uc3" style="stroke:#181818;stroke-width:1.0;"/><polygon fill="#181818" points="565.424,666.288,557.5049,660.4324,560.5429,665.2043,555.771,668.2422,565.424,666.288" style="stroke:#181818;stroke-width:1.0;"/></g><!--link uc2 to uc4--><g id="link_uc2_uc4"><path d="M320.136,566.936 C336.871,569.59 354.492,572.121 371,574 C417.012,579.237 461.5071,582.709 506.6801,585.462 " fill="none" id="uc2-to-uc4" style="stroke:#181818;stroke-width:1.0;stroke-dasharray:7.0,7.0;"/><polygon fill="#181818" points="512.669,585.827,503.929,581.2869,507.6783,585.5228,503.4423,589.2721,512.669,585.827" style="stroke:#181818;stroke-width:1.0;"/><text fill="#000000" font-family="sans-serif" font-size="13" lengthAdjust="spacing" textLength="61" x="372" y="570.0669">&#171;include&#187;</text></g><!--link uc2 to uc5--><g id="link_uc2_uc5"><path d="M325.251,540.786 C382.125,532.391 452.7643,521.9652 517.1633,512.4592 " fill="none" id="uc2-to-uc5" style="stroke:#181818;stroke-width:1.0;stroke-dasharray:7.0,7.0;"/><polygon fill="#181818" points="523.099,511.583,513.6114,508.9401,518.1526,512.3131,514.7796,516.8544,523.099,511.583" style="stroke:#181818;stroke-width:1.0;"/><text fill="#000000" font-family="sans-serif" font-size="13" lengthAdjust="spacing" textLength="61" x="372" y="520.0669">&#171;include&#187;</text></g><!--SRC=[ZLBBJiCm4BpxArQzzDIgwOiMLRqWRboWuWCMPviQN3loerA5-A1yHtuCEmJaqgPmszNip8x7Asdhm6amejWvo8KXxeHMZ25tsi2p4r9OTEGDe0LloJ1M8d_3Wk0UxN631u9t1X7YQ0bwTwQko81N11RzWGeqEVKQDi_ImQUwuhwiAnEc9O7IUyW999xJRgxGmhQIZDF1ELZj3QSkbSK_LRXuaPqYotCHQZNSiUoaPQEKz-Y5Sv7KnxAKWcECl9sSfuCFg7XNbkDqS5DNykldLDIzu61oOfpsOM_ZUYluJWJEQyXEeOnbV8CkR4kS_a7C-tNbq04fS06rCKkIBNbssMGRaqHL-9-8ClR1MBmm60pMpR6aJHOmdi5gC8m70RUmMWd5fSzflOO4Mfn22RBiHBBHBoZTF4-RSNGnRfj9Km-RUdec_etCJf5F]--></g></svg>