<?xml version="1.0" encoding="us-ascii" standalone="no"?><svg xmlns="http://www.w3.org/2000/svg" xmlns:xlink="http://www.w3.org/1999/xlink" contentStyleType="text/css" height="682px" preserveAspectRatio="none" style="width:516px;height:682px;background:#FFFFFF;" version="1.1" viewBox="0 0 516 682" width="516px" zoomAndPan="magnify"><defs/><g><!--cluster EasySave--><g id="cluster_EasySave"><path d="M125.5,6 L201.5,6 A3.75,3.75 0 0 1 204,8.5 L211,28.2969 L506.5,28.2969 A2.5,2.5 0 0 1 509,30.7969 L509,672.5 A2.5,2.5 0 0 1 506.5,675 L125.5,675 A2.5,2.5 0 0 1 123,672.5 L123,8.5 A2.5,2.5 0 0 1 125.5,6 " fill="none" style="stroke:#000000;stroke-width:1.5;"/><line style="stroke:#000000;stroke-width:1.5;" x1="123" x2="211" y1="28.2969" y2="28.2969"/><text fill="#000000" font-family="sans-serif" font-size="14" font-weight="bold" lengthAdjust="spacing" textLength="75" x="127" y="20.9951">EasySave</text></g><g id="elem_UC_Lancer"><ellipse cx="315.8417" cy="78.7683" fill="#F1F1F1" rx="176.8417" ry="37.7683" style="stroke:#181818;stroke-width:0.5;"/><text fill="#000000" font-family="sans-serif" font-size="14" lengthAdjust="spacing" textLength="326" x="152.8417" y="81.615">Lancer un / plusieurs travaux de sauvegarde(s)</text></g><g id="elem_UC_Creer"><ellipse cx="316.1751" cy="181.035" fill="#F1F1F1" rx="130.6751" ry="28.535" style="stroke:#181818;stroke-width:0.5;"/><text fill="#000000" font-family="sans-serif" font-size="14" lengthAdjust="spacing" textLength="230" x="201.1751" y="183.8817">Ajouter un travail de sauvegarde</text></g><g id="elem_UC_Modifier"><ellipse cx="316.0217" cy="274.1043" fill="#F1F1F1" rx="133.5217" ry="29.1043" style="stroke:#181818;stroke-width:0.5;"/><text fill="#000000" font-family="sans-serif" font-size="14" lengthAdjust="spacing" textLength="236" x="198.0217" y="276.951">Modifier un travail de sauvegarde</text></g><g id="elem_UC_Supprimer"><ellipse cx="316.1224" cy="369.2245" fill="#F1F1F1" rx="141.6224" ry="30.7245" style="stroke:#181818;stroke-width:0.5;"/><text fill="#000000" font-family="sans-serif" font-size="14" lengthAdjust="spacing" textLength="253" x="189.6224" y="372.0712">Supprimer un travail de sauvegarde</text></g><g id="elem_UC_Afficher"><ellipse cx="315.7809" cy="465.0562" fill="#F1F1F1" rx="138.2809" ry="30.0562" style="stroke:#181818;stroke-width:0.5;"/><text fill="#000000" font-family="sans-serif" font-size="14" lengthAdjust="spacing" textLength="246" x="192.7809" y="467.9029">Afficher les travaux de sauvegarde</text></g><g id="elem_UC_Aide"><ellipse cx="316.1868" cy="546.9374" fill="#F1F1F1" rx="72.6868" ry="16.9374" style="stroke:#181818;stroke-width:0.5;"/><text fill="#000000" font-family="sans-serif" font-size="14" lengthAdjust="spacing" textLength="100" x="263.1868" y="550.6849">Afficher l'aide</text></g><g id="elem_UC_Langue"><ellipse cx="315.8991" cy="629.0798" fill="#F1F1F1" rx="135.8991" ry="29.5798" style="stroke:#181818;stroke-width:0.5;"/><text fill="#000000" font-family="sans-serif" font-size="14" lengthAdjust="spacing" textLength="241" x="195.3991" y="631.9265">Modifier la langue de l'application</text></g><!--entity user--><g id="elem_user"><ellipse cx="42.5" cy="339.5" fill="#F1F1F1" rx="8" ry="8" style="stroke:#181818;stroke-width:0.5;"/><path d="M42.5,347.5 L42.5,374.5 M29.5,355.5 L55.5,355.5 M42.5,374.5 L29.5,389.5 M42.5,374.5 L55.5,389.5 " fill="none" style="stroke:#181818;stroke-width:0.5;"/><text fill="#000000" font-family="sans-serif" font-size="14" lengthAdjust="spacing" textLength="73" x="6" y="403.9951">Utilisateur</text></g><!--link user to UC_Lancer--><g id="link_user_UC_Lancer"><path d="M44.3577,330.911 C47.6227,279.287 61.212,187.537 115,135 C130.477,119.883 144.115,111.0066 164.456,102.8606 " fill="none" id="user-to-UC_Lancer" style="stroke:#181818;stroke-width:1.0;"/><polygon fill="#181818" points="170.026,100.63,160.184,100.2626,165.3844,102.4888,163.1581,107.6892,170.026,100.63" style="stroke:#181818;stroke-width:1.0;"/></g><!--link user to UC_Creer--><g id="link_user_UC_Creer"><path d="M52.8712,330.876 C62.8484,298.398 81.882,252.98 115,227 C137.636,209.242 160.0653,199.5468 188.1423,192.6268 " fill="none" id="user-to-UC_Creer" style="stroke:#181818;stroke-width:1.0;"/><polygon fill="#181818" points="193.968,191.191,184.2723,189.461,189.1133,192.3875,186.1867,197.2285,193.968,191.191" style="stroke:#181818;stroke-width:1.0;"/></g><!--link user to UC_Modifier--><g id="link_user_UC_Modifier"><path d="M79.1424,341.408 C90.1657,333.905 102.6648,326.376 115,321 C144.509,308.139 172.219,299.8371 203.306,292.7531 " fill="none" id="user-to-UC_Modifier" style="stroke:#181818;stroke-width:1.0;"/><polygon fill="#181818" points="209.156,291.42,199.4922,289.5196,204.281,292.5309,201.2697,297.3197,209.156,291.42" style="stroke:#181818;stroke-width:1.0;"/></g><!--link user to UC_Supprimer--><g id="link_user_UC_Supprimer"><path d="M79.2731,369 C104.1117,369 132.971,369 168.279,369 " fill="none" id="user-to-UC_Supprimer" style="stroke:#181818;stroke-width:1.0;"/><polygon fill="#181818" points="174.279,369,165.279,365,169.279,369,165.279,373,174.279,369" style="stroke:#181818;stroke-width:1.0;"/></g><!--link user to UC_Afficher--><g id="link_user_UC_Afficher"><path d="M79.1585,396.555 C90.1822,404.057 102.6776,411.595 115,417 C143.776,429.623 170.5626,437.8611 200.9906,445.0461 " fill="none" id="user-to-UC_Afficher" style="stroke:#181818;stroke-width:1.0;"/><polygon fill="#181818" points="206.83,446.425,198.9901,440.4638,201.9638,445.2759,197.1516,448.2496,206.83,446.425" style="stroke:#181818;stroke-width:1.0;"/></g><!--link user to UC_Aide--><g id="link_user_UC_Aide"><path d="M52.2748,407.176 C61.9312,440.206 80.8304,486.549 115,512 C151.751,539.374 196.7569,547.7061 238.0579,549.5381 " fill="none" id="user-to-UC_Aide" style="stroke:#181818;stroke-width:1.0;"/><polygon fill="#181818" points="244.052,549.804,235.2381,545.4091,239.0569,549.5824,234.8836,553.4012,244.052,549.804" style="stroke:#181818;stroke-width:1.0;"/></g><!--link user to UC_Langue--><g id="link_user_UC_Langue"><path d="M45.5329,407.107 C50.1853,454.786 65.4008,535.663 115,581 C135.361,599.6107 155.8581,609.7754 182.6371,617.11 " fill="none" id="user-to-UC_Langue" style="stroke:#181818;stroke-width:1.0;"/><polygon fill="#181818" points="188.424,618.695,180.8004,612.4596,183.6016,617.3742,178.687,620.1754,188.424,618.695" style="stroke:#181818;stroke-width:1.0;"/></g><!--SRC=[ZP7FQiCm3CRlVWhHIxT3sHiKHjbjEvMUXt2KL9iN6raE6sFlFdiXcHC8rFXWFkdtwOyTjGhgGRYxAZGiP9LzRmnQzG8NPSSHbP80HaYHn9Y0zXqxWYUCNsSS2BuDv9E35YF1xXbxImAfXmS8BaNET0GL731zGaCGCGtKeJHq5-ztnVXoUXsffTFZcqywMltXx9Run9w4rkYBRxZb6zWfSOcVKmZ27pVmS-QgzRPbUysyeutP9uCfSulV8rV9-RqngCDy-ovHAPEf41nRBBzPhJY7pOynvIFXS3XMYw-bSP-rCc-f5lz7hzLvdeLO-bvLpRty0W00]--></g></svg>