<?xml version="1.0" encoding="us-ascii" standalone="no"?><svg xmlns="http://www.w3.org/2000/svg" xmlns:xlink="http://www.w3.org/1999/xlink" contentStyleType="text/css" height="836px" preserveAspectRatio="none" style="width:1274px;height:836px;background:#FFFFFF;" version="1.1" viewBox="0 0 1274 836" width="1274px" zoomAndPan="magnify"><defs/><g><!--cluster EasySave--><g id="cluster_EasySave"><path d="M125.5,6 L201.5,6 A3.75,3.75 0 0 1 204,8.5 L211,28.2969 L1264.5,28.2969 A2.5,2.5 0 0 1 1267,30.7969 L1267,826.5 A2.5,2.5 0 0 1 1264.5,829 L125.5,829 A2.5,2.5 0 0 1 123,826.5 L123,8.5 A2.5,2.5 0 0 1 125.5,6 " fill="none" style="stroke:#000000;stroke-width:1.5;"/><line style="stroke:#000000;stroke-width:1.5;" x1="123" x2="211" y1="28.2969" y2="28.2969"/><text fill="#000000" font-family="sans-serif" font-size="14" font-weight="bold" lengthAdjust="spacing" textLength="75" x="127" y="20.9951">EasySave</text></g><g id="elem_UC_Parameters"><ellipse cx="243.9911" cy="283.8982" fill="#F1F1F1" rx="104.9911" ry="23.3982" style="stroke:#181818;stroke-width:0.5;"/><text fill="#000000" font-family="sans-serif" font-size="14" lengthAdjust="spacing" textLength="175" x="156.4911" y="286.7449">Param&#233;trer l'application</text></g><g id="elem_UC_GeneralParameters"><ellipse cx="557.8083" cy="587.0617" fill="#F1F1F1" rx="128.3083" ry="28.0617" style="stroke:#181818;stroke-width:0.5;"/><text fill="#000000" font-family="sans-serif" font-size="14" lengthAdjust="spacing" textLength="225" x="445.3083" y="589.9083">Ouvrir les param&#232;tres g&#233;n&#233;raux</text></g><g id="elem_UC_EncryptionParameters"><ellipse cx="557.8078" cy="332.1616" fill="#F1F1F1" rx="148.8078" ry="32.1616" style="stroke:#181818;stroke-width:0.5;"/><text fill="#000000" font-family="sans-serif" font-size="14" lengthAdjust="spacing" textLength="268" x="423.8078" y="335.0082">Ouvrir les param&#232;tres de chiffrement</text></g><g id="elem_UC_LanguageParameters"><ellipse cx="558.0468" cy="236.0094" fill="#F1F1F1" rx="133.0468" ry="29.0094" style="stroke:#181818;stroke-width:0.5;"/><text fill="#000000" font-family="sans-serif" font-size="14" lengthAdjust="spacing" textLength="235" x="440.5468" y="238.856">Ouvrir les param&#232;tres de langues</text></g><g id="elem_UC_LogParameters"><ellipse cx="558.241" cy="145.1482" fill="#F1F1F1" rx="121.241" ry="26.6482" style="stroke:#181818;stroke-width:0.5;"/><text fill="#000000" font-family="sans-serif" font-size="14" lengthAdjust="spacing" textLength="210" x="453.241" y="147.9949">Ouvrir les journaux d'activit&#233;s</text></g><g id="elem_UC_PriorityExtension"><ellipse cx="1008.9703" cy="775.8941" fill="#F1F1F1" rx="172.4703" ry="36.8941" style="stroke:#181818;stroke-width:0.5;"/><text fill="#000000" font-family="sans-serif" font-size="14" lengthAdjust="spacing" textLength="317" x="850.4703" y="778.7407">G&#233;rer les extensions des fichiers prioritaires</text></g><g id="elem_UC_FileSizeMax"><ellipse cx="1008.9983" cy="652.7997" fill="#F1F1F1" rx="241.9983" ry="50.7997" style="stroke:#181818;stroke-width:0.5;"/><text fill="#000000" font-family="sans-serif" font-size="14" lengthAdjust="spacing" textLength="459" x="779.4983" y="655.6463">G&#233;rer la taille maximum des fichiers sans pause des sauvegardes</text></g><g id="elem_UC_BusinessApp"><ellipse cx="1008.9341" cy="521.0868" fill="#F1F1F1" rx="215.9341" ry="45.5868" style="stroke:#181818;stroke-width:0.5;"/><text fill="#000000" font-family="sans-serif" font-size="14" lengthAdjust="spacing" textLength="406" x="805.9341" y="523.9335">Liste des applications m&#233;tiers qui stoppent l'application</text></g><g id="elem_UC_EncryptionExtension"><ellipse cx="1009.2003" cy="404.9401" fill="#F1F1F1" rx="165.2003" ry="35.4401" style="stroke:#181818;stroke-width:0.5;"/><text fill="#000000" font-family="sans-serif" font-size="14" lengthAdjust="spacing" textLength="302" x="858.2003" y="407.7867">Liste des extensions des fichiers &#224; chiffrer</text></g><g id="elem_UC_EncryptionKey"><ellipse cx="1009.2303" cy="309.2461" fill="#F1F1F1" rx="114.2303" ry="25.2461" style="stroke:#181818;stroke-width:0.5;"/><text fill="#000000" font-family="sans-serif" font-size="14" lengthAdjust="spacing" textLength="195" x="911.7303" y="312.0927">G&#233;rer la cl&#233; de chiffrement</text></g><g id="elem_UC_Language"><ellipse cx="1009.1379" cy="230.0276" fill="#F1F1F1" rx="83.1379" ry="19.0276" style="stroke:#181818;stroke-width:0.5;"/><text fill="#000000" font-family="sans-serif" font-size="14" lengthAdjust="spacing" textLength="126" x="945.5914" y="233.0594">Modifier la langue</text></g><g id="elem_UC_DailyLog"><ellipse cx="1008.9293" cy="150.0859" fill="#F1F1F1" rx="118.4293" ry="26.0859" style="stroke:#181818;stroke-width:0.5;"/><text fill="#000000" font-family="sans-serif" font-size="14" lengthAdjust="spacing" textLength="204" x="906.9293" y="152.9325">Consulter les logs Journaliers</text></g><g id="elem_UC_StateLog"><ellipse cx="1009.2482" cy="64.9496" fill="#F1F1F1" rx="107.7482" ry="23.9496" style="stroke:#181818;stroke-width:0.5;"/><text fill="#000000" font-family="sans-serif" font-size="14" lengthAdjust="spacing" textLength="181" x="918.7482" y="67.7963">Consulter les logs d'&#233;tats</text></g><g id="elem_UC_CreateSave"><ellipse cx="243.9095" cy="364.0819" fill="#F1F1F1" rx="95.9095" ry="21.5819" style="stroke:#181818;stroke-width:0.5;"/><text fill="#000000" font-family="sans-serif" font-size="14" lengthAdjust="spacing" textLength="155" x="166.4095" y="366.9286">Cr&#233;er une sauvegarde</text></g><g id="elem_UC_RunSave"><ellipse cx="244.2481" cy="443.8496" fill="#F1F1F1" rx="102.2481" ry="22.8496" style="stroke:#181818;stroke-width:0.5;"/><text fill="#000000" font-family="sans-serif" font-size="14" lengthAdjust="spacing" textLength="169" x="159.7481" y="446.6963">Lancer des sauvegardes</text></g><!--entity user--><g id="elem_user"><ellipse cx="42.5" cy="334.5" fill="#F1F1F1" rx="8" ry="8" style="stroke:#181818;stroke-width:0.5;"/><path d="M42.5,342.5 L42.5,369.5 M29.5,350.5 L55.5,350.5 M42.5,369.5 L29.5,384.5 M42.5,369.5 L55.5,384.5 " fill="none" style="stroke:#181818;stroke-width:0.5;"/><text fill="#000000" font-family="sans-serif" font-size="14" lengthAdjust="spacing" textLength="73" x="6" y="398.9951">Utilisateur</text></g><!--link user to UC_Parameters--><g id="link_user_UC_Parameters"><path d="M79.2118,342.796 C90.4447,336.599 103.0421,330.122 115,325 C134.948,316.456 151.571,310.5079 171.942,304.1059 " fill="none" id="user-to-UC_Parameters" style="stroke:#181818;stroke-width:1.0;"/><polygon fill="#181818" points="177.666,302.307,167.8808,301.1893,172.896,303.8061,170.2793,308.8213,177.666,302.307" style="stroke:#181818;stroke-width:1.0;"/></g><!--link UC_Parameters to UC_GeneralParameters--><g id="link_UC_Parameters_UC_GeneralParameters"><path d="M308.005,302.718 C322.246,308.568 336.759,315.93 349,325 C395.432,359.402 491.9228,493.7202 534.1218,554.0182 " fill="none" id="UC_Parameters-to-UC_GeneralParameters" style="stroke:#181818;stroke-width:1.0;"/><polygon fill="#181818" points="537.562,558.934,535.6788,549.2669,534.6951,554.8375,529.1245,553.8539,537.562,558.934" style="stroke:#181818;stroke-width:1.0;"/></g><!--link UC_Parameters to UC_EncryptionParameters--><g id="link_UC_Parameters_UC_EncryptionParameters"><path d="M331.081,297.243 C363.638,302.252 395.3878,307.1366 430.5318,312.5436 " fill="none" id="UC_Parameters-to-UC_EncryptionParameters" style="stroke:#181818;stroke-width:1.0;"/><polygon fill="#181818" points="436.462,313.456,428.1749,308.1339,431.5201,312.6957,426.9584,316.0409,436.462,313.456" style="stroke:#181818;stroke-width:1.0;"/></g><!--link UC_Parameters to UC_LanguageParameters--><g id="link_UC_Parameters_UC_LanguageParameters"><path d="M331.081,270.757 C367.516,265.151 404.4368,259.4713 442.9698,253.5433 " fill="none" id="UC_Parameters-to-UC_LanguageParameters" style="stroke:#181818;stroke-width:1.0;"/><polygon fill="#181818" points="448.9,252.631,439.3964,250.046,443.9581,253.3913,440.6129,257.953,448.9,252.631" style="stroke:#181818;stroke-width:1.0;"/></g><!--link UC_Parameters to UC_LogParameters--><g id="link_UC_Parameters_UC_LogParameters"><path d="M278.018,261.742 C310.301,240.746 361.409,209.515 409,189 C430.662,179.662 449.1647,173.241 471.6737,166.608 " fill="none" id="UC_Parameters-to-UC_LogParameters" style="stroke:#181818;stroke-width:1.0;"/><polygon fill="#181818" points="477.429,164.912,467.6654,163.6191,472.6329,166.3253,469.9267,171.2929,477.429,164.912" style="stroke:#181818;stroke-width:1.0;"/></g><!--link UC_GeneralParameters to UC_PriorityExtension--><g id="link_UC_GeneralParameters_UC_PriorityExtension"><path d="M592.555,614.225 C631.996,644.88 700.529,694.048 767,722 C799.411,735.629 829.9364,744.7282 864.4094,752.6216 " fill="none" id="UC_GeneralParameters-to-UC_PriorityExtension" style="stroke:#181818;stroke-width:1.0;"/><polygon fill="#181818" points="870.258,753.9608,862.3778,748.0529,865.3841,752.8448,860.5923,755.8511,870.258,753.9608" style="stroke:#181818;stroke-width:1.0;"/></g><!--link UC_GeneralParameters to UC_FileSizeMax--><g id="link_UC_GeneralParameters_UC_FileSizeMax"><path d="M665.122,602.599 C708.425,608.964 754.0208,615.6663 803.8078,622.9853 " fill="none" id="UC_GeneralParameters-to-UC_FileSizeMax" style="stroke:#181818;stroke-width:1.0;"/><polygon fill="#181818" points="809.744,623.858,801.4215,618.5915,804.7972,623.1308,800.2579,626.5065,809.744,623.858" style="stroke:#181818;stroke-width:1.0;"/></g><!--link UC_GeneralParameters to UC_BusinessApp--><g id="link_UC_GeneralParameters_UC_BusinessApp"><path d="M665.122,571.401 C714.778,564.102 769.3188,556.0845 825.5758,547.8155 " fill="none" id="UC_GeneralParameters-to-UC_BusinessApp" style="stroke:#181818;stroke-width:1.0;"/><polygon fill="#181818" points="831.512,546.943,822.026,544.2943,826.5652,547.6701,823.1894,552.2093,831.512,546.943" style="stroke:#181818;stroke-width:1.0;"/></g><!--link UC_EncryptionParameters to UC_EncryptionExtension--><g id="link_UC_EncryptionParameters_UC_EncryptionExtension"><path d="M677.263,351.228 C738.581,361.197 807.7188,372.4371 870.8248,382.6971 " fill="none" id="UC_EncryptionParameters-to-UC_EncryptionExtension" style="stroke:#181818;stroke-width:1.0;"/><polygon fill="#181818" points="876.747,383.66,868.5055,378.2676,871.8118,382.8576,867.2217,386.1639,876.747,383.66" style="stroke:#181818;stroke-width:1.0;"/></g><!--link UC_EncryptionParameters to UC_EncryptionKey--><g id="link_UC_EncryptionParameters_UC_EncryptionKey"><path d="M703.228,324.612 C766.311,321.38 833.1399,317.9569 891.7779,314.9539 " fill="none" id="UC_EncryptionParameters-to-UC_EncryptionKey" style="stroke:#181818;stroke-width:1.0;"/><polygon fill="#181818" points="897.77,314.647,888.5772,311.1125,892.7765,314.9027,888.9864,319.1021,897.77,314.647" style="stroke:#181818;stroke-width:1.0;"/></g><!--link UC_LanguageParameters to UC_Language--><g id="link_UC_LanguageParameters_UC_Language"><path d="M690.984,234.236 C767.048,233.22 854.2865,232.0542 919.8945,231.1772 " fill="none" id="UC_LanguageParameters-to-UC_Language" style="stroke:#181818;stroke-width:1.0;"/><polygon fill="#181818" points="925.894,231.097,916.8413,227.2177,920.8944,231.1638,916.9483,235.2169,925.894,231.097" style="stroke:#181818;stroke-width:1.0;"/></g><!--link UC_LogParameters to UC_DailyLog--><g id="link_UC_LogParameters_UC_DailyLog"><path d="M679.029,146.337 C744.492,147.066 819.2084,147.8972 884.3034,148.6222 " fill="none" id="UC_LogParameters-to-UC_DailyLog" style="stroke:#181818;stroke-width:1.0;"/><polygon fill="#181818" points="890.303,148.689,881.3481,144.589,885.3033,148.6333,881.259,152.5885,890.303,148.689" style="stroke:#181818;stroke-width:1.0;"/></g><!--link UC_LogParameters to UC_StateLog--><g id="link_UC_LogParameters_UC_StateLog"><path d="M649.806,127.631 C686.214,120.756 728.573,112.871 767,106 C818.492,96.793 870.3478,87.9415 916.4168,80.2065 " fill="none" id="UC_LogParameters-to-UC_StateLog" style="stroke:#181818;stroke-width:1.0;"/><polygon fill="#181818" points="922.334,79.213,912.7959,76.7585,917.403,80.0409,914.1206,84.648,922.334,79.213" style="stroke:#181818;stroke-width:1.0;"/></g><!--link user to UC_CreateSave--><g id="link_user_UC_CreateSave"><path d="M79.1666,364 C98.4438,364 117.258,364 141.714,364 " fill="none" id="user-to-UC_CreateSave" style="stroke:#181818;stroke-width:1.0;"/><polygon fill="#181818" points="147.714,364,138.714,360,142.714,364,138.714,368,147.714,364" style="stroke:#181818;stroke-width:1.0;"/></g><!--link user to UC_RunSave--><g id="link_user_UC_RunSave"><path d="M79.2118,385.204 C90.4447,391.401 103.0421,397.878 115,403 C135.485,411.774 152.7719,417.918 173.5769,424.417 " fill="none" id="user-to-UC_RunSave" style="stroke:#181818;stroke-width:1.0;"/><polygon fill="#181818" points="179.304,426.206,171.9061,419.7044,174.5314,424.7152,169.5207,427.3405,179.304,426.206" style="stroke:#181818;stroke-width:1.0;"/></g><!--SRC=[dLJBRjim4BphAnQvw9HVAD2wRe0sGOqQEHSBQQLiIbCi7uRTel_IO_KT-h6k94kHP3csevl8cTdbSBYACW- -0ClvauUKBIMU2nr5cFZ2mgDdnGuz1Gle83YoKHJ32fCVc1CiqUtNkAN8J1RWTmJonR0GLXg7WumeWob4Iv43WnOtrJzloJLW4K_G4ToicerIDWGOep6AauPxK_VmkFZU0CYJdH2_Xgtb8t78gr9NfSMmwmJkI9D5TQLEIf0ySPPPsf3sdTPI9tPlwlQkbrEeyq2kaxglVyN62uIUnKKj9n9pvQPuoxugNtIAV29nrMqC31lNlvD5Qk6qywITADJdS92nE2F5m5WkB7kK8FNjhDgr_RBZpAiY24qfWWtkU1CsOs67kcvIMCswmx2b76twKkOJArhpBth0ITltx7pB6cJ9GHsnHlfdO72-C4PkTJvm7u9ZJSwzD-ODTevpSwgtKuvMVpksFOxSMKiJLPLdW_k5zcyxrY6_u-8FHSePj-LRm3JV5nQRpVYuraBi2ieVGgcAtC7dXgLgxxgw7oLNUtaKPxbfB9b0tnFNyaCTyNp3Wr1EIjcgb3f1qm3J5LbOaYhD61r70tKYf1Df_nPqG_aJHVLKXjlRTvFHEFhhzeydtoniTgZD8cTcrZnkD9FcEkcFS3GkNaCFN_rhkE4JFd70uyEFMhYCKh-bMLkcXaLJKpf0dzPJW3wLmuiVf6YuV8Z9Vm00]--></g></svg>